M48
;Layer_Color=9474304
;FILE_FORMAT=4:4
METRIC,LZ
;TYPE=PLATED
T1F00S00C0.3000
T2F00S00C1.0000
T3F00S00C1.1000
T4F00S00C1.2000
T5F00S00C1.5000
T6F00S00C4.2000
%
T01
X0022Y00175
X00255
X0037Y00165
Y0027
X0035
Y0029
X0037
Y0031
X0035
Y0033
X0037
X0039
Y0031
Y0029
Y0027
X00405Y00165
X00465Y00195
X005
X0053
X00575Y00165
X0063Y00175
X00575Y0009
Y00065
X0055
Y0009
X0072Y001225
X00722491Y00331734
X007525Y0033
X00794139Y00380679
X008575Y0038
X0088Y00365
X00893686Y00332426
X00886634Y0031835
X0096Y0032
X00965Y0028
X010475Y00275
X011Y00285
X01120008Y00334992
X01055Y0037
X01035
X00985Y0035
X01045Y0003
X0081
X0127Y0008
X013Y002125
X012825Y0031
X012575
X0135
Y0028385
X0146Y002425
X0149Y003
X01485Y00355
X014375Y003725
X0147Y0008
X014825Y00415
X0148Y0047
X01494425Y00499425
X01485Y0053
X014375Y004325
X014275Y004
X01355Y00565
X0127Y005625
X0121
X0113Y00565
X01045Y00595
Y0062
X00985Y00635
X00935Y006
X0092Y0058
X0088Y0059
X0087025Y0054975
X008365Y00523
X00855Y00455
X0088Y0046
X00905Y0045
Y00485
Y0041
X00953758Y00415
X00969628Y00425646
X00985Y00425
X0098Y0052
X0101
X0104
X01065Y00465
X0109
X011Y0043
X00955Y0055
X008295Y0061825
X008Y00635
X00866126Y00685368
X008425Y004
X008125Y00405
X0077Y00565
X0072Y0054
X007004Y006846
X0078Y0068
X0053Y0054
X00495
X00465
X00405Y0049
X004Y0061
Y0063
Y0065
X00535Y00425
Y004
X0056
Y00425
X0037Y0049
X0028Y005
X0022
X0034Y0061
Y0063
Y0065
X0037
Y0063
Y0061
X00795Y008125
Y00835
T02
X0025Y00215
Y00265
X005Y00155
Y00105
X00681Y000605
X00725
X012Y00775
X01275
X01375
X0145
X011
X01025
X00925
X0085
X0075
X00675
X00575
X005
X004
X00495Y005
Y0045
X0025Y00535
Y00585
X00225Y00775
X0015
X00325
Y00925
Y00975
Y01025
X00225
Y00975
Y00925
X0015
Y00975
Y01025
X004
Y00975
Y00925
X005
Y00975
Y01025
X00575
Y00975
Y00925
X00675
Y00975
Y01025
X0075
Y00975
Y00925
X0085
Y00975
Y01025
X00925
Y00975
Y00925
X01025
Y00975
Y01025
X011
Y00975
Y00925
X012
Y00975
Y01025
X01275
Y00975
Y00925
X01375
Y00975
Y01025
X0145
Y00975
Y00925
T03
X008376Y000333
Y000587
X00863
Y000333
X008884
Y000587
X009138
Y000333
X009392
X009646
X0099
X010154
Y000587
X0099
X009646
X009392
X015496Y00273
Y002984
Y003238
Y003492
X01575
Y003238
Y002984
Y00273
Y003746
X015496
Y004
X01575
Y004254
X015496
Y004508
X01575
Y004762
X015496
Y005016
X01575
T04
X0005Y0038
Y00415
T05
X011684Y001021
X012192
X0127
X013684
X014192
X0147
X00375Y011
X003242
X002508
X002
X001492
X004258
X004984
X005492
X006
X00675
X007258
X007766
X008492
X009
X009508
X010234
X010742
X01125
X011992
X0125
X013008
X013742
X01425
X014758
T06
X00075Y00075
X01575
X0005Y01125
X01575
M30
