%TF.GenerationSoftware,Altium Limited,Altium Designer,22.4.2 (48)*%
G04 Layer_Physical_Order=1*
G04 Layer_Color=255*
%FSLAX45Y45*%
%MOMM*%
%TF.SameCoordinates,5379F3DE-C0A0-4451-8F76-AB011D816888*%
%TF.FilePolarity,Positive*%
%TF.FileFunction,Copper,L1,Top,Signal*%
%TF.Part,Single*%
G01*
G75*
%TA.AperFunction,SMDPad,CuDef*%
G04:AMPARAMS|DCode=10|XSize=1.55mm|YSize=0.6mm|CornerRadius=0.3mm|HoleSize=0mm|Usage=FLASHONLY|Rotation=270.000|XOffset=0mm|YOffset=0mm|HoleType=Round|Shape=RoundedRectangle|*
%AMROUNDEDRECTD10*
21,1,1.55000,0.00000,0,0,270.0*
21,1,0.95000,0.60000,0,0,270.0*
1,1,0.60000,0.00000,-0.47500*
1,1,0.60000,0.00000,0.47500*
1,1,0.60000,0.00000,0.47500*
1,1,0.60000,0.00000,-0.47500*
%
%ADD10ROUNDEDRECTD10*%
%ADD11R,1.60000X1.00000*%
%ADD12R,4.00000X7.00000*%
%ADD13R,1.00000X1.60000*%
%ADD14R,1.25000X1.00000*%
%ADD15R,3.30000X2.40000*%
G04:AMPARAMS|DCode=16|XSize=0.6mm|YSize=1.45mm|CornerRadius=0.051mm|HoleSize=0mm|Usage=FLASHONLY|Rotation=270.000|XOffset=0mm|YOffset=0mm|HoleType=Round|Shape=RoundedRectangle|*
%AMROUNDEDRECTD16*
21,1,0.60000,1.34800,0,0,270.0*
21,1,0.49800,1.45000,0,0,270.0*
1,1,0.10200,-0.67400,-0.24900*
1,1,0.10200,-0.67400,0.24900*
1,1,0.10200,0.67400,0.24900*
1,1,0.10200,0.67400,-0.24900*
%
%ADD16ROUNDEDRECTD16*%
%ADD17R,1.20000X0.30000*%
%ADD18R,0.30000X1.20000*%
%ADD19R,0.91000X1.22000*%
%ADD20R,0.60000X2.00000*%
%ADD21R,2.00000X0.60000*%
%ADD22C,6.29100*%
%ADD23R,1.07000X2.16000*%
%ADD24R,0.60000X1.10000*%
%TA.AperFunction,ConnectorPad*%
%ADD25R,2.00000X4.00000*%
%ADD26R,2.00000X3.50000*%
%ADD27R,0.50000X2.20000*%
%TA.AperFunction,Conductor*%
%ADD28C,0.20000*%
%ADD29C,0.30000*%
%ADD30C,1.00000*%
%ADD31C,0.60000*%
%ADD32C,0.40000*%
%ADD33C,2.00000*%
%TA.AperFunction,ComponentPad*%
%ADD34C,1.80000*%
G04:AMPARAMS|DCode=35|XSize=1.8mm|YSize=1.8mm|CornerRadius=0mm|HoleSize=0mm|Usage=FLASHONLY|Rotation=90.000|XOffset=0mm|YOffset=0mm|HoleType=Round|Shape=Octagon|*
%AMOCTAGOND35*
4,1,8,0.45000,0.90000,-0.45000,0.90000,-0.90000,0.45000,-0.90000,-0.45000,-0.45000,-0.90000,0.45000,-0.90000,0.90000,-0.45000,0.90000,0.45000,0.45000,0.90000,0.0*
%
%ADD35OCTAGOND35*%

%ADD36C,2.20000*%
G04:AMPARAMS|DCode=37|XSize=1.8mm|YSize=1.8mm|CornerRadius=0mm|HoleSize=0mm|Usage=FLASHONLY|Rotation=180.000|XOffset=0mm|YOffset=0mm|HoleType=Round|Shape=Octagon|*
%AMOCTAGOND37*
4,1,8,-0.90000,0.45000,-0.90000,-0.45000,-0.45000,-0.90000,0.45000,-0.90000,0.90000,-0.45000,0.90000,0.45000,0.45000,0.90000,-0.45000,0.90000,-0.90000,0.45000,0.0*
%
%ADD37OCTAGOND37*%

%ADD38C,1.60000*%
%TA.AperFunction,ViaPad*%
%ADD39C,7.00000*%
%ADD40C,0.70000*%
G36*
X16400000Y100000D02*
X100000D01*
Y11900000D01*
X16400000D01*
Y100000D01*
D02*
G37*
%LPC*%
G36*
X13742000Y11131122D02*
X13708063Y11126654D01*
X13676439Y11113555D01*
X13649283Y11092717D01*
X13628445Y11065561D01*
X13615346Y11033937D01*
X13610878Y11000000D01*
X13615346Y10966063D01*
X13628445Y10934439D01*
X13649283Y10907283D01*
X13675397Y10887246D01*
Y10317042D01*
X13662650Y10300432D01*
X13652574Y10276105D01*
X13649136Y10250000D01*
X13652574Y10223895D01*
X13662650Y10199569D01*
X13678679Y10178679D01*
X13699570Y10162650D01*
X13723895Y10152574D01*
X13750000Y10149137D01*
X13776105Y10152574D01*
X13800430Y10162650D01*
X13821321Y10178679D01*
X13821870Y10179396D01*
X14428130D01*
X14428679Y10178679D01*
X14449570Y10162650D01*
X14473895Y10152574D01*
X14500000Y10149137D01*
X14526105Y10152574D01*
X14550430Y10162650D01*
X14571321Y10178679D01*
X14587350Y10199569D01*
X14597426Y10223895D01*
X14600864Y10250000D01*
X14597426Y10276105D01*
X14587350Y10300432D01*
X14571321Y10321321D01*
X14550430Y10337350D01*
X14526105Y10347426D01*
X14500000Y10350863D01*
X14473895Y10347426D01*
X14449570Y10337350D01*
X14428679Y10321321D01*
X14428130Y10320604D01*
X13821870D01*
X13821321Y10321321D01*
X13816605Y10324940D01*
Y10893384D01*
X13834717Y10907283D01*
X13855556Y10934439D01*
X13868654Y10966063D01*
X13873122Y11000000D01*
X13868654Y11033937D01*
X13855556Y11065561D01*
X13834717Y11092717D01*
X13807561Y11113555D01*
X13775937Y11126654D01*
X13742000Y11131122D01*
D02*
G37*
G36*
X11991999D02*
X11958063Y11126654D01*
X11926438Y11113555D01*
X11899282Y11092717D01*
X11878445Y11065561D01*
X11865346Y11033937D01*
X11860878Y11000000D01*
X11865346Y10966063D01*
X11878445Y10934439D01*
X11899282Y10907283D01*
X11925396Y10887245D01*
Y10317042D01*
X11912650Y10300432D01*
X11902574Y10276105D01*
X11899137Y10250000D01*
X11902574Y10223895D01*
X11912650Y10199569D01*
X11928679Y10178679D01*
X11949569Y10162650D01*
X11973895Y10152574D01*
X12000000Y10149137D01*
X12026105Y10152574D01*
X12050431Y10162650D01*
X12071321Y10178679D01*
X12071870Y10179396D01*
X12678129D01*
X12678679Y10178679D01*
X12699569Y10162650D01*
X12723895Y10152574D01*
X12750000Y10149137D01*
X12776105Y10152574D01*
X12800430Y10162650D01*
X12821321Y10178679D01*
X12837349Y10199569D01*
X12847426Y10223895D01*
X12850864Y10250000D01*
X12847426Y10276105D01*
X12837349Y10300432D01*
X12821321Y10321321D01*
X12800430Y10337350D01*
X12776105Y10347426D01*
X12750000Y10350863D01*
X12723895Y10347426D01*
X12699569Y10337350D01*
X12678679Y10321321D01*
X12678129Y10320604D01*
X12071870D01*
X12071321Y10321321D01*
X12066604Y10324940D01*
Y10893384D01*
X12084716Y10907283D01*
X12105554Y10934439D01*
X12118653Y10966063D01*
X12123121Y11000000D01*
X12118653Y11033937D01*
X12105554Y11065561D01*
X12084716Y11092717D01*
X12057560Y11113555D01*
X12025936Y11126654D01*
X11991999Y11131122D01*
D02*
G37*
G36*
X10233999D02*
X10200063Y11126654D01*
X10168438Y11113555D01*
X10141282Y11092717D01*
X10120445Y11065561D01*
X10107346Y11033937D01*
X10102878Y11000000D01*
X10107346Y10966063D01*
X10120445Y10934439D01*
X10141282Y10907283D01*
X10168438Y10886445D01*
X10171396Y10885220D01*
Y10311829D01*
X10162650Y10300432D01*
X10152574Y10276105D01*
X10149137Y10250000D01*
X10152574Y10223895D01*
X10162650Y10199569D01*
X10178679Y10178679D01*
X10199569Y10162650D01*
X10223895Y10152574D01*
X10250000Y10149137D01*
X10276105Y10152574D01*
X10300432Y10162650D01*
X10321321Y10178679D01*
X10321871Y10179396D01*
X10928130D01*
X10928679Y10178679D01*
X10949569Y10162650D01*
X10973895Y10152574D01*
X11000000Y10149137D01*
X11026105Y10152574D01*
X11050432Y10162650D01*
X11071321Y10178679D01*
X11087350Y10199569D01*
X11097426Y10223895D01*
X11100863Y10250000D01*
X11097426Y10276105D01*
X11087350Y10300432D01*
X11071321Y10321321D01*
X11050432Y10337350D01*
X11026105Y10347426D01*
X11000000Y10350863D01*
X10973895Y10347426D01*
X10949569Y10337350D01*
X10928679Y10321321D01*
X10928130Y10320604D01*
X10321871D01*
X10321321Y10321321D01*
X10312603Y10328010D01*
Y10896454D01*
X10326716Y10907283D01*
X10347554Y10934439D01*
X10360653Y10966063D01*
X10365121Y11000000D01*
X10360653Y11033937D01*
X10347554Y11065561D01*
X10326716Y11092717D01*
X10299560Y11113555D01*
X10267936Y11126654D01*
X10233999Y11131122D01*
D02*
G37*
G36*
X8491999D02*
X8458063Y11126654D01*
X8426438Y11113555D01*
X8399282Y11092717D01*
X8378445Y11065561D01*
X8365345Y11033937D01*
X8360878Y11000000D01*
X8365345Y10966063D01*
X8378445Y10934439D01*
X8399282Y10907283D01*
X8425396Y10887245D01*
Y10317041D01*
X8412650Y10300432D01*
X8402574Y10276105D01*
X8399137Y10250000D01*
X8402574Y10223895D01*
X8412650Y10199569D01*
X8428679Y10178679D01*
X8449569Y10162650D01*
X8473895Y10152574D01*
X8500000Y10149137D01*
X8526105Y10152574D01*
X8550431Y10162650D01*
X8571321Y10178679D01*
X8571871Y10179396D01*
X9178129D01*
X9178679Y10178679D01*
X9199569Y10162650D01*
X9223895Y10152574D01*
X9250000Y10149137D01*
X9276105Y10152574D01*
X9300431Y10162650D01*
X9321321Y10178679D01*
X9337350Y10199569D01*
X9347426Y10223895D01*
X9350863Y10250000D01*
X9347426Y10276105D01*
X9337350Y10300432D01*
X9321321Y10321321D01*
X9300431Y10337350D01*
X9276105Y10347426D01*
X9250000Y10350863D01*
X9223895Y10347426D01*
X9199569Y10337350D01*
X9178679Y10321321D01*
X9178129Y10320604D01*
X8571871D01*
X8571321Y10321321D01*
X8566603Y10324940D01*
Y10893384D01*
X8584716Y10907283D01*
X8605554Y10934439D01*
X8618653Y10966063D01*
X8623121Y11000000D01*
X8618653Y11033937D01*
X8605554Y11065561D01*
X8584716Y11092717D01*
X8557560Y11113555D01*
X8525936Y11126654D01*
X8491999Y11131122D01*
D02*
G37*
G36*
X6749999D02*
X6716063Y11126654D01*
X6684439Y11113555D01*
X6657282Y11092717D01*
X6636445Y11065561D01*
X6623346Y11033937D01*
X6618878Y11000000D01*
X6623346Y10966063D01*
X6636445Y10934439D01*
X6657282Y10907283D01*
X6679396Y10890315D01*
Y10321871D01*
X6678679Y10321321D01*
X6662650Y10300432D01*
X6652574Y10276105D01*
X6649137Y10250000D01*
X6652574Y10223895D01*
X6662650Y10199569D01*
X6678679Y10178679D01*
X6699569Y10162650D01*
X6723895Y10152574D01*
X6750000Y10149137D01*
X6776105Y10152574D01*
X6800431Y10162650D01*
X6821321Y10178679D01*
X6821871Y10179396D01*
X7428129D01*
X7428679Y10178679D01*
X7449569Y10162650D01*
X7473895Y10152574D01*
X7500000Y10149137D01*
X7526105Y10152574D01*
X7550431Y10162650D01*
X7571321Y10178679D01*
X7587350Y10199569D01*
X7597426Y10223895D01*
X7600863Y10250000D01*
X7597426Y10276105D01*
X7587350Y10300432D01*
X7571321Y10321321D01*
X7550431Y10337350D01*
X7526105Y10347426D01*
X7500000Y10350863D01*
X7473895Y10347426D01*
X7449569Y10337350D01*
X7428679Y10321321D01*
X7428129Y10320604D01*
X6821871D01*
X6821321Y10321321D01*
X6820604Y10321871D01*
Y10890315D01*
X6842717Y10907283D01*
X6863554Y10934439D01*
X6876653Y10966063D01*
X6881121Y11000000D01*
X6876653Y11033937D01*
X6863554Y11065561D01*
X6842717Y11092717D01*
X6815560Y11113555D01*
X6783936Y11126654D01*
X6749999Y11131122D01*
D02*
G37*
G36*
X4983999D02*
X4950063Y11126654D01*
X4918439Y11113555D01*
X4891282Y11092717D01*
X4870445Y11065561D01*
X4857346Y11033937D01*
X4852878Y11000000D01*
X4857346Y10966063D01*
X4870445Y10934439D01*
X4891282Y10907283D01*
X4918439Y10886445D01*
X4921396Y10885221D01*
Y10311829D01*
X4912650Y10300432D01*
X4902574Y10276105D01*
X4899137Y10250000D01*
X4902574Y10223895D01*
X4912650Y10199569D01*
X4928679Y10178679D01*
X4949568Y10162650D01*
X4973895Y10152574D01*
X5000000Y10149137D01*
X5026105Y10152574D01*
X5050431Y10162650D01*
X5071321Y10178679D01*
X5071870Y10179396D01*
X5678129D01*
X5678679Y10178679D01*
X5699568Y10162650D01*
X5723895Y10152574D01*
X5750000Y10149137D01*
X5776105Y10152574D01*
X5800431Y10162650D01*
X5821321Y10178679D01*
X5837350Y10199569D01*
X5847426Y10223895D01*
X5850863Y10250000D01*
X5847426Y10276105D01*
X5837350Y10300432D01*
X5821321Y10321321D01*
X5800431Y10337350D01*
X5776105Y10347426D01*
X5750000Y10350863D01*
X5723895Y10347426D01*
X5699568Y10337350D01*
X5678679Y10321321D01*
X5678129Y10320604D01*
X5071870D01*
X5071321Y10321321D01*
X5062604Y10328010D01*
Y10896454D01*
X5076717Y10907283D01*
X5097554Y10934439D01*
X5110653Y10966063D01*
X5115121Y11000000D01*
X5110653Y11033937D01*
X5097554Y11065561D01*
X5076717Y11092717D01*
X5049560Y11113555D01*
X5017936Y11126654D01*
X4983999Y11131122D01*
D02*
G37*
G36*
X3242000D02*
X3208063Y11126654D01*
X3176439Y11113555D01*
X3149283Y11092717D01*
X3128445Y11065561D01*
X3115346Y11033937D01*
X3110878Y11000000D01*
X3115346Y10966063D01*
X3128445Y10934439D01*
X3149283Y10907283D01*
X3175396Y10887246D01*
Y10317042D01*
X3162650Y10300432D01*
X3152574Y10276105D01*
X3149137Y10250000D01*
X3152574Y10223895D01*
X3162650Y10199569D01*
X3178679Y10178679D01*
X3199568Y10162650D01*
X3223895Y10152574D01*
X3250000Y10149137D01*
X3276105Y10152574D01*
X3300431Y10162650D01*
X3321321Y10178679D01*
X3321870Y10179396D01*
X3928129D01*
X3928679Y10178679D01*
X3949568Y10162650D01*
X3973895Y10152574D01*
X4000000Y10149137D01*
X4026105Y10152574D01*
X4050431Y10162650D01*
X4071321Y10178679D01*
X4087349Y10199569D01*
X4097426Y10223895D01*
X4100863Y10250000D01*
X4097426Y10276105D01*
X4087349Y10300432D01*
X4071321Y10321321D01*
X4050431Y10337350D01*
X4026105Y10347426D01*
X4000000Y10350863D01*
X3973895Y10347426D01*
X3949568Y10337350D01*
X3928679Y10321321D01*
X3928129Y10320604D01*
X3321870D01*
X3321321Y10321321D01*
X3316604Y10324940D01*
Y10893384D01*
X3334717Y10907283D01*
X3355555Y10934439D01*
X3368654Y10966063D01*
X3373122Y11000000D01*
X3368654Y11033937D01*
X3355555Y11065561D01*
X3334717Y11092717D01*
X3307561Y11113555D01*
X3275937Y11126654D01*
X3242000Y11131122D01*
D02*
G37*
G36*
X1492000D02*
X1458063Y11126654D01*
X1426439Y11113555D01*
X1399283Y11092717D01*
X1378445Y11065561D01*
X1365346Y11033937D01*
X1360878Y11000000D01*
X1365346Y10966063D01*
X1378445Y10934439D01*
X1399283Y10907283D01*
X1425396Y10887246D01*
Y10317042D01*
X1412650Y10300432D01*
X1402574Y10276105D01*
X1399137Y10250000D01*
X1402574Y10223895D01*
X1412650Y10199569D01*
X1428679Y10178679D01*
X1449569Y10162650D01*
X1473895Y10152574D01*
X1500000Y10149137D01*
X1526105Y10152574D01*
X1550431Y10162650D01*
X1571321Y10178679D01*
X1571871Y10179396D01*
X2178130D01*
X2178679Y10178679D01*
X2199569Y10162650D01*
X2223895Y10152574D01*
X2250000Y10149137D01*
X2276105Y10152574D01*
X2300431Y10162650D01*
X2321321Y10178679D01*
X2337350Y10199569D01*
X2347426Y10223895D01*
X2350863Y10250000D01*
X2347426Y10276105D01*
X2337350Y10300432D01*
X2321321Y10321321D01*
X2300431Y10337350D01*
X2276105Y10347426D01*
X2250000Y10350863D01*
X2223895Y10347426D01*
X2199569Y10337350D01*
X2178679Y10321321D01*
X2178130Y10320604D01*
X1571871D01*
X1571321Y10321321D01*
X1566604Y10324940D01*
Y10893385D01*
X1584717Y10907283D01*
X1605555Y10934439D01*
X1618654Y10966063D01*
X1623121Y11000000D01*
X1618654Y11033937D01*
X1605555Y11065561D01*
X1584717Y11092717D01*
X1557561Y11113555D01*
X1525936Y11126654D01*
X1492000Y11131122D01*
D02*
G37*
G36*
X10741999D02*
X10708063Y11126654D01*
X10676438Y11113555D01*
X10649282Y11092717D01*
X10628445Y11065561D01*
X10615346Y11033937D01*
X10610878Y11000000D01*
X10615346Y10966063D01*
X10628445Y10934439D01*
X10649282Y10907283D01*
X10676438Y10886445D01*
X10708063Y10873346D01*
X10741999Y10868878D01*
X10775936Y10873346D01*
X10795687Y10881527D01*
X10799169Y10878856D01*
X10811335Y10873816D01*
X11204396Y10480755D01*
Y10054245D01*
X11000896Y9850745D01*
X11000000Y9850863D01*
X10973895Y9847426D01*
X10949569Y9837350D01*
X10928679Y9821321D01*
X10928130Y9820604D01*
X10321871D01*
X10321321Y9821321D01*
X10300432Y9837350D01*
X10276105Y9847426D01*
X10250000Y9850863D01*
X10223895Y9847426D01*
X10199569Y9837350D01*
X10178679Y9821321D01*
X10162650Y9800432D01*
X10152574Y9776105D01*
X10149137Y9750000D01*
X10152574Y9723895D01*
X10162650Y9699569D01*
X10178679Y9678679D01*
X10199569Y9662650D01*
X10223895Y9652574D01*
X10250000Y9649137D01*
X10276105Y9652574D01*
X10300432Y9662650D01*
X10321321Y9678679D01*
X10321871Y9679396D01*
X10928130D01*
X10928679Y9678679D01*
X10949569Y9662650D01*
X10973895Y9652574D01*
X11000000Y9649137D01*
X11026105Y9652574D01*
X11050432Y9662650D01*
X11071321Y9678679D01*
X11087350Y9699569D01*
X11097426Y9723895D01*
X11100863Y9750000D01*
X11100745Y9750896D01*
X11324925Y9975076D01*
X11336145Y9989698D01*
X11343198Y10006726D01*
X11345604Y10025000D01*
Y10510000D01*
X11343198Y10528274D01*
X11336145Y10545302D01*
X11324925Y10559925D01*
X10894924Y10989925D01*
X10880302Y11001145D01*
X10872547Y11004357D01*
X10868653Y11033937D01*
X10855554Y11065561D01*
X10834716Y11092717D01*
X10807560Y11113555D01*
X10775936Y11126654D01*
X10741999Y11131122D01*
D02*
G37*
G36*
X8999999D02*
X8966063Y11126654D01*
X8934438Y11113555D01*
X8907282Y11092717D01*
X8886445Y11065561D01*
X8873345Y11033937D01*
X8868878Y11000000D01*
X8873345Y10966063D01*
X8886445Y10934439D01*
X8907282Y10907283D01*
X8934438Y10886445D01*
X8966063Y10873346D01*
X8999999Y10868878D01*
X9027634Y10872516D01*
X9444396Y10455754D01*
Y10044245D01*
X9250896Y9850745D01*
X9250000Y9850863D01*
X9223895Y9847426D01*
X9199569Y9837350D01*
X9178679Y9821321D01*
X9178129Y9820604D01*
X8571871D01*
X8571321Y9821321D01*
X8550431Y9837350D01*
X8526105Y9847426D01*
X8500000Y9850863D01*
X8473895Y9847426D01*
X8449569Y9837350D01*
X8428679Y9821321D01*
X8412650Y9800432D01*
X8402574Y9776105D01*
X8399137Y9750000D01*
X8402574Y9723895D01*
X8412650Y9699569D01*
X8428679Y9678679D01*
X8449569Y9662650D01*
X8473895Y9652574D01*
X8500000Y9649137D01*
X8526105Y9652574D01*
X8550431Y9662650D01*
X8571321Y9678679D01*
X8571871Y9679396D01*
X9178129D01*
X9178679Y9678679D01*
X9199569Y9662650D01*
X9223895Y9652574D01*
X9250000Y9649137D01*
X9276105Y9652574D01*
X9300431Y9662650D01*
X9321321Y9678679D01*
X9337350Y9699569D01*
X9347426Y9723895D01*
X9350863Y9750000D01*
X9350745Y9750896D01*
X9564924Y9965076D01*
X9576145Y9979698D01*
X9583198Y9996727D01*
X9585604Y10015000D01*
Y10484999D01*
X9583198Y10503273D01*
X9576145Y10520301D01*
X9564924Y10534924D01*
X9127483Y10972365D01*
X9131121Y11000000D01*
X9126653Y11033937D01*
X9113554Y11065561D01*
X9092716Y11092717D01*
X9065560Y11113555D01*
X9033936Y11126654D01*
X8999999Y11131122D01*
D02*
G37*
G36*
X12499999D02*
X12466063Y11126654D01*
X12434438Y11113555D01*
X12407282Y11092717D01*
X12386445Y11065561D01*
X12373346Y11033937D01*
X12368878Y11000000D01*
X12373346Y10966063D01*
X12386445Y10934439D01*
X12407282Y10907283D01*
X12434438Y10886445D01*
X12466063Y10873346D01*
X12499999Y10868878D01*
X12527634Y10872516D01*
X12931895Y10468254D01*
Y9963371D01*
X12803511Y9834986D01*
X12800430Y9837350D01*
X12776105Y9847426D01*
X12750000Y9850863D01*
X12723895Y9847426D01*
X12699569Y9837350D01*
X12678679Y9821321D01*
X12678129Y9820604D01*
X12071870D01*
X12071321Y9821321D01*
X12050431Y9837350D01*
X12026105Y9847426D01*
X12000000Y9850863D01*
X11973895Y9847426D01*
X11949569Y9837350D01*
X11928679Y9821321D01*
X11912650Y9800432D01*
X11902574Y9776105D01*
X11899137Y9750000D01*
X11902574Y9723895D01*
X11912650Y9699569D01*
X11928679Y9678679D01*
X11949569Y9662650D01*
X11973895Y9652574D01*
X12000000Y9649137D01*
X12026105Y9652574D01*
X12050431Y9662650D01*
X12071321Y9678679D01*
X12071870Y9679396D01*
X12678129D01*
X12678679Y9678679D01*
X12699569Y9662650D01*
X12723895Y9652574D01*
X12750000Y9649137D01*
X12776105Y9652574D01*
X12800430Y9662650D01*
X12821321Y9678679D01*
X12830772Y9690997D01*
X12848128Y9693282D01*
X12865157Y9700336D01*
X12879778Y9711556D01*
X13052425Y9884202D01*
X13063644Y9898824D01*
X13070699Y9915853D01*
X13073103Y9934126D01*
Y10497499D01*
X13070699Y10515773D01*
X13063644Y10532801D01*
X13052425Y10547424D01*
X12627483Y10972365D01*
X12631121Y11000000D01*
X12626653Y11033937D01*
X12613554Y11065561D01*
X12592716Y11092717D01*
X12565560Y11113555D01*
X12533936Y11126654D01*
X12499999Y11131122D01*
D02*
G37*
G36*
X5491999D02*
X5458063Y11126654D01*
X5426439Y11113555D01*
X5399282Y11092717D01*
X5378445Y11065561D01*
X5365346Y11033937D01*
X5360878Y11000000D01*
X5365346Y10966063D01*
X5378445Y10934439D01*
X5399282Y10907283D01*
X5426439Y10886445D01*
X5458063Y10873346D01*
X5491999Y10868878D01*
X5519634Y10872516D01*
X5921896Y10470254D01*
Y9936745D01*
X5817235Y9832084D01*
X5807293D01*
X5800431Y9837350D01*
X5776105Y9847426D01*
X5750000Y9850863D01*
X5723895Y9847426D01*
X5699568Y9837350D01*
X5678679Y9821321D01*
X5678129Y9820604D01*
X5071870D01*
X5071321Y9821321D01*
X5050431Y9837350D01*
X5026105Y9847426D01*
X5000000Y9850863D01*
X4973895Y9847426D01*
X4949568Y9837350D01*
X4928679Y9821321D01*
X4912650Y9800432D01*
X4902574Y9776105D01*
X4899137Y9750000D01*
X4902574Y9723895D01*
X4912650Y9699569D01*
X4928679Y9678679D01*
X4949568Y9662650D01*
X4973895Y9652574D01*
X5000000Y9649137D01*
X5026105Y9652574D01*
X5050431Y9662650D01*
X5071321Y9678679D01*
X5071870Y9679396D01*
X5678129D01*
X5678679Y9678679D01*
X5699568Y9662650D01*
X5723895Y9652574D01*
X5750000Y9649137D01*
X5776105Y9652574D01*
X5800431Y9662650D01*
X5821321Y9678679D01*
X5830680Y9690876D01*
X5846480D01*
X5864754Y9693282D01*
X5881782Y9700336D01*
X5896405Y9711556D01*
X6042425Y9857576D01*
X6053645Y9872198D01*
X6060698Y9889227D01*
X6063104Y9907500D01*
Y10499499D01*
X6060698Y10517773D01*
X6053645Y10534801D01*
X6042425Y10549424D01*
X5619483Y10972365D01*
X5623121Y11000000D01*
X5618653Y11033937D01*
X5605554Y11065561D01*
X5584717Y11092717D01*
X5557560Y11113555D01*
X5525936Y11126654D01*
X5491999Y11131122D01*
D02*
G37*
G36*
X2000000D02*
X1966063Y11126654D01*
X1934439Y11113555D01*
X1907283Y11092717D01*
X1886445Y11065561D01*
X1873346Y11033937D01*
X1868878Y11000000D01*
X1873346Y10966063D01*
X1886445Y10934439D01*
X1907283Y10907283D01*
X1934439Y10886445D01*
X1966063Y10873346D01*
X2000000Y10868878D01*
X2027635Y10872516D01*
X2436896Y10463255D01*
Y9956745D01*
X2312235Y9832084D01*
X2307293D01*
X2300431Y9837350D01*
X2276105Y9847426D01*
X2250000Y9850863D01*
X2223895Y9847426D01*
X2199569Y9837350D01*
X2178679Y9821321D01*
X2178130Y9820604D01*
X1571871D01*
X1571321Y9821321D01*
X1550431Y9837350D01*
X1526105Y9847426D01*
X1500000Y9850863D01*
X1473895Y9847426D01*
X1449569Y9837350D01*
X1428679Y9821321D01*
X1412650Y9800432D01*
X1402574Y9776105D01*
X1399137Y9750000D01*
X1402574Y9723895D01*
X1412650Y9699569D01*
X1428679Y9678679D01*
X1449569Y9662650D01*
X1473895Y9652574D01*
X1500000Y9649137D01*
X1526105Y9652574D01*
X1550431Y9662650D01*
X1571321Y9678679D01*
X1571871Y9679396D01*
X2178130D01*
X2178679Y9678679D01*
X2199569Y9662650D01*
X2223895Y9652574D01*
X2250000Y9649137D01*
X2276105Y9652574D01*
X2300431Y9662650D01*
X2321321Y9678679D01*
X2330680Y9690876D01*
X2341480D01*
X2359754Y9693282D01*
X2376782Y9700336D01*
X2391405Y9711556D01*
X2557424Y9877576D01*
X2568645Y9892198D01*
X2575698Y9909227D01*
X2578104Y9927500D01*
Y10492500D01*
X2575698Y10510773D01*
X2568645Y10527802D01*
X2557424Y10542424D01*
X2127483Y10972365D01*
X2131121Y11000000D01*
X2126654Y11033937D01*
X2113555Y11065561D01*
X2092717Y11092717D01*
X2065561Y11113555D01*
X2033936Y11126654D01*
X2000000Y11131122D01*
D02*
G37*
G36*
X14250000D02*
X14216063Y11126654D01*
X14184439Y11113555D01*
X14157283Y11092717D01*
X14136446Y11065561D01*
X14123346Y11033937D01*
X14118878Y11000000D01*
X14123346Y10966063D01*
X14136446Y10934439D01*
X14157283Y10907283D01*
X14184439Y10886445D01*
X14216063Y10873346D01*
X14250000Y10868878D01*
X14277635Y10872516D01*
X14776897Y10373255D01*
Y9974245D01*
X14623254Y9820604D01*
X14571870D01*
X14571321Y9821321D01*
X14550430Y9837350D01*
X14526105Y9847426D01*
X14500000Y9850863D01*
X14473895Y9847426D01*
X14449570Y9837350D01*
X14428679Y9821321D01*
X14428130Y9820604D01*
X13821870D01*
X13821321Y9821321D01*
X13800430Y9837350D01*
X13776105Y9847426D01*
X13750000Y9850863D01*
X13723895Y9847426D01*
X13699570Y9837350D01*
X13678679Y9821321D01*
X13662650Y9800432D01*
X13652574Y9776105D01*
X13649136Y9750000D01*
X13652574Y9723895D01*
X13662650Y9699569D01*
X13678679Y9678679D01*
X13699570Y9662650D01*
X13723895Y9652574D01*
X13750000Y9649137D01*
X13776105Y9652574D01*
X13800430Y9662650D01*
X13821321Y9678679D01*
X13821870Y9679396D01*
X14428130D01*
X14428679Y9678679D01*
X14449570Y9662650D01*
X14473895Y9652574D01*
X14500000Y9649137D01*
X14526105Y9652574D01*
X14550430Y9662650D01*
X14571321Y9678679D01*
X14571870Y9679396D01*
X14652499D01*
X14670773Y9681802D01*
X14687802Y9688855D01*
X14702425Y9700076D01*
X14897424Y9895075D01*
X14908646Y9909698D01*
X14915698Y9926726D01*
X14918105Y9945000D01*
Y10402500D01*
X14915698Y10420774D01*
X14908646Y10437802D01*
X14897424Y10452425D01*
X14377484Y10972365D01*
X14381122Y11000000D01*
X14376654Y11033937D01*
X14363554Y11065561D01*
X14342717Y11092717D01*
X14315561Y11113555D01*
X14283937Y11126654D01*
X14250000Y11131122D01*
D02*
G37*
G36*
X7257999D02*
X7224063Y11126654D01*
X7192439Y11113555D01*
X7165282Y11092717D01*
X7144445Y11065561D01*
X7131346Y11033937D01*
X7126878Y11000000D01*
X7131346Y10966063D01*
X7144445Y10934439D01*
X7165282Y10907283D01*
X7192439Y10886445D01*
X7224063Y10873346D01*
X7257999Y10868878D01*
X7285634Y10872516D01*
X7679396Y10478755D01*
Y9871745D01*
X7628255Y9820604D01*
X7571871D01*
X7571321Y9821321D01*
X7550431Y9837350D01*
X7526105Y9847426D01*
X7500000Y9850863D01*
X7473895Y9847426D01*
X7449569Y9837350D01*
X7428679Y9821321D01*
X7428129Y9820604D01*
X6821871D01*
X6821321Y9821321D01*
X6800431Y9837350D01*
X6776105Y9847426D01*
X6750000Y9850863D01*
X6723895Y9847426D01*
X6699569Y9837350D01*
X6678679Y9821321D01*
X6662650Y9800432D01*
X6652574Y9776105D01*
X6649137Y9750000D01*
X6652574Y9723895D01*
X6662650Y9699569D01*
X6678679Y9678679D01*
X6699569Y9662650D01*
X6723895Y9652574D01*
X6750000Y9649137D01*
X6776105Y9652574D01*
X6800431Y9662650D01*
X6821321Y9678679D01*
X6821871Y9679396D01*
X7428129D01*
X7428679Y9678679D01*
X7449569Y9662650D01*
X7473895Y9652574D01*
X7500000Y9649137D01*
X7526105Y9652574D01*
X7550431Y9662650D01*
X7571321Y9678679D01*
X7571871Y9679396D01*
X7657500D01*
X7675774Y9681802D01*
X7692802Y9688855D01*
X7707425Y9700076D01*
X7799924Y9792576D01*
X7811145Y9807198D01*
X7818198Y9824226D01*
X7820604Y9842500D01*
Y10508000D01*
X7818198Y10526273D01*
X7811145Y10543301D01*
X7799924Y10557924D01*
X7385483Y10972365D01*
X7389121Y11000000D01*
X7384653Y11033937D01*
X7371554Y11065561D01*
X7350717Y11092717D01*
X7323560Y11113555D01*
X7291936Y11126654D01*
X7257999Y11131122D01*
D02*
G37*
G36*
X3750000D02*
X3716063Y11126654D01*
X3684439Y11113555D01*
X3657283Y11092717D01*
X3636445Y11065561D01*
X3623346Y11033937D01*
X3618878Y11000000D01*
X3623346Y10966063D01*
X3636445Y10934439D01*
X3657283Y10907283D01*
X3684439Y10886445D01*
X3716063Y10873346D01*
X3750000Y10868878D01*
X3777635Y10872516D01*
X4161896Y10488255D01*
Y10071745D01*
X3961556Y9871405D01*
X3950336Y9856782D01*
X3943282Y9839754D01*
X3942224Y9831714D01*
X3928679Y9821321D01*
X3928129Y9820604D01*
X3321870D01*
X3321321Y9821321D01*
X3300431Y9837350D01*
X3276105Y9847426D01*
X3250000Y9850863D01*
X3223895Y9847426D01*
X3199568Y9837350D01*
X3178679Y9821321D01*
X3162650Y9800432D01*
X3152574Y9776105D01*
X3149137Y9750000D01*
X3152574Y9723895D01*
X3162650Y9699569D01*
X3178679Y9678679D01*
X3199568Y9662650D01*
X3223895Y9652574D01*
X3250000Y9649137D01*
X3276105Y9652574D01*
X3300431Y9662650D01*
X3321321Y9678679D01*
X3321870Y9679396D01*
X3928129D01*
X3928679Y9678679D01*
X3949568Y9662650D01*
X3973895Y9652574D01*
X4000000Y9649137D01*
X4026105Y9652574D01*
X4050431Y9662650D01*
X4071321Y9678679D01*
X4087349Y9699569D01*
X4097426Y9723895D01*
X4100863Y9750000D01*
X4097426Y9776105D01*
X4088208Y9798359D01*
X4282425Y9992576D01*
X4293645Y10007198D01*
X4300698Y10024227D01*
X4303104Y10042500D01*
Y10517500D01*
X4300698Y10535773D01*
X4293645Y10552802D01*
X4282425Y10567424D01*
X3877483Y10972365D01*
X3881122Y11000000D01*
X3876654Y11033937D01*
X3863555Y11065561D01*
X3842717Y11092717D01*
X3815561Y11113555D01*
X3783937Y11126654D01*
X3750000Y11131122D01*
D02*
G37*
G36*
X11249999D02*
X11216063Y11126654D01*
X11184438Y11113555D01*
X11157282Y11092717D01*
X11136445Y11065561D01*
X11123346Y11033937D01*
X11118878Y11000000D01*
X11123346Y10966063D01*
X11136445Y10934439D01*
X11157282Y10907283D01*
X11184438Y10886445D01*
X11216063Y10873346D01*
X11249999Y10868878D01*
X11277634Y10872516D01*
X11366896Y10783254D01*
Y9716745D01*
X11000896Y9350745D01*
X11000000Y9350863D01*
X10973895Y9347426D01*
X10949569Y9337350D01*
X10928679Y9321321D01*
X10928130Y9320604D01*
X10321871D01*
X10321321Y9321321D01*
X10300432Y9337350D01*
X10276105Y9347426D01*
X10250000Y9350863D01*
X10223895Y9347426D01*
X10199569Y9337350D01*
X10178679Y9321321D01*
X10162650Y9300431D01*
X10152574Y9276105D01*
X10149137Y9250000D01*
X10152574Y9223895D01*
X10162650Y9199569D01*
X10178679Y9178679D01*
X10199569Y9162650D01*
X10223895Y9152574D01*
X10250000Y9149137D01*
X10276105Y9152574D01*
X10300432Y9162650D01*
X10321321Y9178679D01*
X10321871Y9179396D01*
X10928130D01*
X10928679Y9178679D01*
X10949569Y9162650D01*
X10973895Y9152574D01*
X11000000Y9149137D01*
X11026105Y9152574D01*
X11050432Y9162650D01*
X11071321Y9178679D01*
X11087350Y9199569D01*
X11097426Y9223895D01*
X11100863Y9250000D01*
X11100745Y9250896D01*
X11487425Y9637576D01*
X11498645Y9652198D01*
X11505698Y9669227D01*
X11508104Y9687500D01*
Y10812499D01*
X11505698Y10830773D01*
X11498645Y10847801D01*
X11487425Y10862424D01*
X11377483Y10972365D01*
X11381121Y11000000D01*
X11376653Y11033937D01*
X11363554Y11065561D01*
X11342716Y11092717D01*
X11315560Y11113555D01*
X11283936Y11126654D01*
X11249999Y11131122D01*
D02*
G37*
G36*
X2508000D02*
X2474063Y11126654D01*
X2442439Y11113555D01*
X2415283Y11092717D01*
X2394445Y11065561D01*
X2381346Y11033937D01*
X2376878Y11000000D01*
X2381346Y10966063D01*
X2394445Y10934439D01*
X2415283Y10907283D01*
X2442439Y10886445D01*
X2474063Y10873346D01*
X2508000Y10868878D01*
X2535635Y10872516D01*
X2629396Y10778755D01*
Y9699245D01*
X2278408Y9348257D01*
X2277962Y9348198D01*
X2276100Y9347427D01*
X2250000Y9350863D01*
X2223895Y9347426D01*
X2199569Y9337350D01*
X2178679Y9321321D01*
X2178130Y9320604D01*
X1571871D01*
X1571321Y9321321D01*
X1550431Y9337350D01*
X1526105Y9347426D01*
X1500000Y9350863D01*
X1473895Y9347426D01*
X1449569Y9337350D01*
X1428679Y9321321D01*
X1412650Y9300431D01*
X1402574Y9276105D01*
X1399137Y9250000D01*
X1402574Y9223895D01*
X1412650Y9199569D01*
X1428679Y9178679D01*
X1449569Y9162650D01*
X1473895Y9152574D01*
X1500000Y9149137D01*
X1526105Y9152574D01*
X1550431Y9162650D01*
X1571321Y9178679D01*
X1571871Y9179396D01*
X2178130D01*
X2178679Y9178679D01*
X2199569Y9162650D01*
X2223895Y9152574D01*
X2250000Y9149137D01*
X2276105Y9152574D01*
X2300431Y9162650D01*
X2321321Y9178679D01*
X2337350Y9199569D01*
X2345355Y9218896D01*
X2359925Y9230076D01*
X2749924Y9620075D01*
X2761145Y9634698D01*
X2768198Y9651726D01*
X2770604Y9670000D01*
Y10808000D01*
X2768198Y10826273D01*
X2761145Y10843302D01*
X2749924Y10857924D01*
X2635483Y10972365D01*
X2639121Y11000000D01*
X2634654Y11033937D01*
X2621555Y11065561D01*
X2600717Y11092717D01*
X2573561Y11113555D01*
X2541936Y11126654D01*
X2508000Y11131122D01*
D02*
G37*
G36*
X13007999D02*
X12974063Y11126654D01*
X12942438Y11113555D01*
X12915282Y11092717D01*
X12894444Y11065561D01*
X12881346Y11033937D01*
X12876878Y11000000D01*
X12881346Y10966063D01*
X12894444Y10934439D01*
X12915282Y10907283D01*
X12942438Y10886445D01*
X12974063Y10873346D01*
X13007999Y10868878D01*
X13035634Y10872516D01*
X13141896Y10766254D01*
Y9686745D01*
X12794824Y9339672D01*
X12776105Y9347426D01*
X12750000Y9350863D01*
X12723895Y9347426D01*
X12699569Y9337350D01*
X12678679Y9321321D01*
X12678129Y9320604D01*
X12071870D01*
X12071321Y9321321D01*
X12050431Y9337350D01*
X12026105Y9347426D01*
X12000000Y9350863D01*
X11973895Y9347426D01*
X11949569Y9337350D01*
X11928679Y9321321D01*
X11912650Y9300431D01*
X11902574Y9276105D01*
X11899137Y9250000D01*
X11902574Y9223895D01*
X11912650Y9199569D01*
X11928679Y9178679D01*
X11949569Y9162650D01*
X11973895Y9152574D01*
X12000000Y9149137D01*
X12026105Y9152574D01*
X12050431Y9162650D01*
X12071321Y9178679D01*
X12071870Y9179396D01*
X12678129D01*
X12678679Y9178679D01*
X12699569Y9162650D01*
X12723895Y9152574D01*
X12750000Y9149137D01*
X12776105Y9152574D01*
X12800430Y9162650D01*
X12821321Y9178679D01*
X12832275Y9192956D01*
X12834753Y9193282D01*
X12851782Y9200336D01*
X12866405Y9211556D01*
X13262425Y9607576D01*
X13273645Y9622198D01*
X13280698Y9639227D01*
X13283104Y9657500D01*
Y10795499D01*
X13280698Y10813773D01*
X13273645Y10830801D01*
X13262425Y10845424D01*
X13135483Y10972365D01*
X13139120Y11000000D01*
X13134653Y11033937D01*
X13121555Y11065561D01*
X13100716Y11092717D01*
X13073560Y11113555D01*
X13041936Y11126654D01*
X13007999Y11131122D01*
D02*
G37*
G36*
X5999999D02*
X5966063Y11126654D01*
X5934439Y11113555D01*
X5907282Y11092717D01*
X5886445Y11065561D01*
X5873346Y11033937D01*
X5868878Y11000000D01*
X5873346Y10966063D01*
X5886445Y10934439D01*
X5907282Y10907283D01*
X5934439Y10886445D01*
X5966063Y10873346D01*
X5999999Y10868878D01*
X6027634Y10872516D01*
X6079396Y10820755D01*
Y9591745D01*
X5819735Y9332084D01*
X5807293D01*
X5800431Y9337350D01*
X5776105Y9347426D01*
X5750000Y9350863D01*
X5723895Y9347426D01*
X5699568Y9337350D01*
X5678679Y9321321D01*
X5678129Y9320604D01*
X5071870D01*
X5071321Y9321321D01*
X5050431Y9337350D01*
X5026105Y9347426D01*
X5000000Y9350863D01*
X4973895Y9347426D01*
X4949568Y9337350D01*
X4928679Y9321321D01*
X4912650Y9300431D01*
X4902574Y9276105D01*
X4899137Y9250000D01*
X4902574Y9223895D01*
X4912650Y9199569D01*
X4928679Y9178679D01*
X4949568Y9162650D01*
X4973895Y9152574D01*
X5000000Y9149137D01*
X5026105Y9152574D01*
X5050431Y9162650D01*
X5071321Y9178679D01*
X5071870Y9179396D01*
X5678129D01*
X5678679Y9178679D01*
X5699568Y9162650D01*
X5723895Y9152574D01*
X5750000Y9149137D01*
X5776105Y9152574D01*
X5800431Y9162650D01*
X5821321Y9178679D01*
X5830680Y9190876D01*
X5848980D01*
X5867254Y9193282D01*
X5884282Y9200336D01*
X5898905Y9211556D01*
X6199924Y9512575D01*
X6211145Y9527198D01*
X6218198Y9544226D01*
X6220604Y9562500D01*
Y10850000D01*
X6218198Y10868273D01*
X6211145Y10885302D01*
X6199924Y10899924D01*
X6127483Y10972365D01*
X6131121Y11000000D01*
X6126653Y11033937D01*
X6113554Y11065561D01*
X6092717Y11092717D01*
X6065560Y11113555D01*
X6033936Y11126654D01*
X5999999Y11131122D01*
D02*
G37*
G36*
X14758000D02*
X14724063Y11126654D01*
X14692439Y11113555D01*
X14665283Y11092717D01*
X14644444Y11065561D01*
X14631346Y11033937D01*
X14626878Y11000000D01*
X14631346Y10966063D01*
X14644444Y10934439D01*
X14665283Y10907283D01*
X14692439Y10886445D01*
X14724063Y10873346D01*
X14758000Y10868878D01*
X14785635Y10872516D01*
X15076897Y10581255D01*
Y9784245D01*
X14613255Y9320604D01*
X14571870D01*
X14571321Y9321321D01*
X14550430Y9337350D01*
X14526105Y9347426D01*
X14500000Y9350863D01*
X14473895Y9347426D01*
X14449570Y9337350D01*
X14428679Y9321321D01*
X14428130Y9320604D01*
X13821870D01*
X13821321Y9321321D01*
X13800430Y9337350D01*
X13776105Y9347426D01*
X13750000Y9350863D01*
X13723895Y9347426D01*
X13699570Y9337350D01*
X13678679Y9321321D01*
X13662650Y9300431D01*
X13652574Y9276105D01*
X13649136Y9250000D01*
X13652574Y9223895D01*
X13662650Y9199569D01*
X13678679Y9178679D01*
X13699570Y9162650D01*
X13723895Y9152574D01*
X13750000Y9149137D01*
X13776105Y9152574D01*
X13800430Y9162650D01*
X13821321Y9178679D01*
X13821870Y9179396D01*
X14428130D01*
X14428679Y9178679D01*
X14449570Y9162650D01*
X14473895Y9152574D01*
X14500000Y9149137D01*
X14526105Y9152574D01*
X14550430Y9162650D01*
X14571321Y9178679D01*
X14571870Y9179396D01*
X14642500D01*
X14660774Y9181802D01*
X14677802Y9188855D01*
X14692426Y9200076D01*
X15197424Y9705076D01*
X15208646Y9719698D01*
X15215698Y9736727D01*
X15218105Y9755000D01*
Y10610500D01*
X15215698Y10628774D01*
X15208646Y10645802D01*
X15197424Y10660424D01*
X14885484Y10972365D01*
X14889122Y11000000D01*
X14884654Y11033937D01*
X14871555Y11065561D01*
X14850717Y11092717D01*
X14823561Y11113555D01*
X14791937Y11126654D01*
X14758000Y11131122D01*
D02*
G37*
G36*
X9507999D02*
X9474063Y11126654D01*
X9442438Y11113555D01*
X9415282Y11092717D01*
X9394445Y11065561D01*
X9381345Y11033937D01*
X9376878Y11000000D01*
X9381345Y10966063D01*
X9394445Y10934439D01*
X9415282Y10907283D01*
X9442438Y10886445D01*
X9474063Y10873346D01*
X9507999Y10868878D01*
X9535634Y10872516D01*
X9649396Y10758754D01*
Y9434245D01*
X9535755Y9320604D01*
X9321871D01*
X9321321Y9321321D01*
X9300431Y9337350D01*
X9276105Y9347426D01*
X9250000Y9350863D01*
X9223895Y9347426D01*
X9199569Y9337350D01*
X9178679Y9321321D01*
X9178129Y9320604D01*
X8571871D01*
X8571321Y9321321D01*
X8550431Y9337350D01*
X8526105Y9347426D01*
X8500000Y9350863D01*
X8473895Y9347426D01*
X8449569Y9337350D01*
X8428679Y9321321D01*
X8412650Y9300431D01*
X8402574Y9276105D01*
X8399137Y9250000D01*
X8402574Y9223895D01*
X8412650Y9199569D01*
X8428679Y9178679D01*
X8449569Y9162650D01*
X8473895Y9152574D01*
X8500000Y9149137D01*
X8526105Y9152574D01*
X8550431Y9162650D01*
X8571321Y9178679D01*
X8571871Y9179396D01*
X9178129D01*
X9178679Y9178679D01*
X9199569Y9162650D01*
X9223895Y9152574D01*
X9250000Y9149137D01*
X9276105Y9152574D01*
X9300431Y9162650D01*
X9321321Y9178679D01*
X9321871Y9179396D01*
X9565000D01*
X9583274Y9181802D01*
X9600302Y9188855D01*
X9614925Y9200076D01*
X9769925Y9355076D01*
X9781145Y9369698D01*
X9788198Y9386726D01*
X9790604Y9405000D01*
Y10787999D01*
X9788198Y10806273D01*
X9781145Y10823301D01*
X9769925Y10837924D01*
X9635483Y10972365D01*
X9639121Y11000000D01*
X9634653Y11033937D01*
X9621554Y11065561D01*
X9600716Y11092717D01*
X9573560Y11113555D01*
X9541936Y11126654D01*
X9507999Y11131122D01*
D02*
G37*
G36*
X7765999D02*
X7732063Y11126654D01*
X7700439Y11113555D01*
X7673282Y11092717D01*
X7652445Y11065561D01*
X7639346Y11033937D01*
X7634878Y11000000D01*
X7639346Y10966063D01*
X7652445Y10934439D01*
X7673282Y10907283D01*
X7700439Y10886445D01*
X7732063Y10873346D01*
X7765999Y10868878D01*
X7793634Y10872516D01*
X7879396Y10786754D01*
Y9496745D01*
X7703255Y9320604D01*
X7571871D01*
X7571321Y9321321D01*
X7550431Y9337350D01*
X7526105Y9347426D01*
X7500000Y9350863D01*
X7473895Y9347426D01*
X7449569Y9337350D01*
X7428679Y9321321D01*
X7428129Y9320604D01*
X6821871D01*
X6821321Y9321321D01*
X6800431Y9337350D01*
X6776105Y9347426D01*
X6750000Y9350863D01*
X6723895Y9347426D01*
X6699569Y9337350D01*
X6678679Y9321321D01*
X6662650Y9300431D01*
X6652574Y9276105D01*
X6649137Y9250000D01*
X6652574Y9223895D01*
X6662650Y9199569D01*
X6678679Y9178679D01*
X6699569Y9162650D01*
X6723895Y9152574D01*
X6750000Y9149137D01*
X6776105Y9152574D01*
X6800431Y9162650D01*
X6821321Y9178679D01*
X6821871Y9179396D01*
X7428129D01*
X7428679Y9178679D01*
X7449569Y9162650D01*
X7473895Y9152574D01*
X7500000Y9149137D01*
X7526105Y9152574D01*
X7550431Y9162650D01*
X7571321Y9178679D01*
X7571871Y9179396D01*
X7732500D01*
X7750774Y9181802D01*
X7767802Y9188855D01*
X7782425Y9200076D01*
X7999925Y9417576D01*
X8011145Y9432198D01*
X8018198Y9449226D01*
X8020604Y9467500D01*
Y10815999D01*
X8018198Y10834273D01*
X8011145Y10851301D01*
X7999925Y10865924D01*
X7893483Y10972365D01*
X7897121Y11000000D01*
X7892653Y11033937D01*
X7879554Y11065561D01*
X7858717Y11092717D01*
X7831560Y11113555D01*
X7799936Y11126654D01*
X7765999Y11131122D01*
D02*
G37*
G36*
X4258000D02*
X4224063Y11126654D01*
X4192439Y11113555D01*
X4165283Y11092717D01*
X4144445Y11065561D01*
X4131346Y11033937D01*
X4126878Y11000000D01*
X4131346Y10966063D01*
X4144445Y10934439D01*
X4165283Y10907283D01*
X4192439Y10886445D01*
X4224063Y10873346D01*
X4258000Y10868878D01*
X4285635Y10872516D01*
X4329396Y10828755D01*
Y9521745D01*
X4128255Y9320604D01*
X4071870D01*
X4071321Y9321321D01*
X4050431Y9337350D01*
X4026105Y9347426D01*
X4000000Y9350863D01*
X3973895Y9347426D01*
X3949568Y9337350D01*
X3928679Y9321321D01*
X3928129Y9320604D01*
X3321870D01*
X3321321Y9321321D01*
X3300431Y9337350D01*
X3276105Y9347426D01*
X3250000Y9350863D01*
X3223895Y9347426D01*
X3199568Y9337350D01*
X3178679Y9321321D01*
X3162650Y9300431D01*
X3152574Y9276105D01*
X3149137Y9250000D01*
X3152574Y9223895D01*
X3162650Y9199569D01*
X3178679Y9178679D01*
X3199568Y9162650D01*
X3223895Y9152574D01*
X3250000Y9149137D01*
X3276105Y9152574D01*
X3300431Y9162650D01*
X3321321Y9178679D01*
X3321870Y9179396D01*
X3928129D01*
X3928679Y9178679D01*
X3949568Y9162650D01*
X3973895Y9152574D01*
X4000000Y9149137D01*
X4026105Y9152574D01*
X4050431Y9162650D01*
X4071321Y9178679D01*
X4071870Y9179396D01*
X4157500D01*
X4175774Y9181802D01*
X4192802Y9188855D01*
X4207425Y9200076D01*
X4449925Y9442575D01*
X4461145Y9457198D01*
X4468198Y9474226D01*
X4470604Y9492500D01*
Y10858000D01*
X4468198Y10876273D01*
X4461145Y10893302D01*
X4449925Y10907924D01*
X4385483Y10972365D01*
X4389122Y11000000D01*
X4384654Y11033937D01*
X4371555Y11065561D01*
X4350717Y11092717D01*
X4323561Y11113555D01*
X4291937Y11126654D01*
X4258000Y11131122D01*
D02*
G37*
G36*
X1500000Y8720392D02*
X200000D01*
X192196Y8718840D01*
X185581Y8714419D01*
X181160Y8707804D01*
X179608Y8700000D01*
Y4000000D01*
X181160Y3992196D01*
X185581Y3985581D01*
X192196Y3981160D01*
X200000Y3979608D01*
X1079608Y3979608D01*
X1079608Y2350000D01*
X1081160Y2342196D01*
X1085581Y2335580D01*
X1092196Y2331160D01*
X1100000Y2329608D01*
X1950000Y2329608D01*
X2629608D01*
Y1800000D01*
X2631160Y1792196D01*
X2635580Y1785581D01*
X2642196Y1781160D01*
X2650000Y1779608D01*
X3400000D01*
X3407803Y1781160D01*
X3414419Y1785581D01*
X3418839Y1792196D01*
X3420392Y1800000D01*
Y1809000D01*
X3433500D01*
Y2065000D01*
X3420392D01*
Y2349999D01*
X3420392Y2350000D01*
X3418839Y2357804D01*
X3414419Y2364419D01*
X3414418Y2364420D01*
X2664419Y3114419D01*
X2657803Y3118840D01*
X2650000Y3120392D01*
X1970392D01*
X1970392Y5529608D01*
X2679608D01*
Y5250000D01*
X2681160Y5242196D01*
X2685581Y5235581D01*
X2885580Y5035581D01*
X2892196Y5031160D01*
X2900000Y5029608D01*
X3400000D01*
X3407803Y5031160D01*
X3414419Y5035581D01*
X3418839Y5042196D01*
X3420392Y5050000D01*
Y5059000D01*
X3433500D01*
Y5315000D01*
X3420392D01*
Y5550000D01*
X3418839Y5557804D01*
X3414419Y5564419D01*
X3407803Y5568840D01*
X3400000Y5570392D01*
X3220392D01*
Y6100000D01*
X3218840Y6107804D01*
X3214419Y6114419D01*
X3207804Y6118840D01*
X3200000Y6120392D01*
X1270392D01*
Y7741553D01*
X1508447Y7979608D01*
X2128964D01*
Y7750000D01*
X2133089Y7718674D01*
X2145180Y7689482D01*
X2164415Y7664415D01*
X2189482Y7645180D01*
X2218674Y7633089D01*
X2250000Y7628965D01*
X2281326Y7633089D01*
X2310518Y7645180D01*
X2335585Y7664415D01*
X2354820Y7689482D01*
X2366911Y7718674D01*
X2371036Y7750000D01*
Y7979608D01*
X3878964D01*
Y7750000D01*
X3883088Y7718674D01*
X3895180Y7689482D01*
X3914415Y7664415D01*
X3939482Y7645180D01*
X3968674Y7633089D01*
X4000000Y7628965D01*
X4031326Y7633089D01*
X4060518Y7645180D01*
X4085585Y7664415D01*
X4104820Y7689482D01*
X4116911Y7718674D01*
X4121035Y7750000D01*
Y7979608D01*
X5628964D01*
Y7750000D01*
X5633089Y7718674D01*
X5645180Y7689482D01*
X5664415Y7664415D01*
X5689482Y7645180D01*
X5718674Y7633089D01*
X5750000Y7628965D01*
X5781326Y7633089D01*
X5810518Y7645180D01*
X5835585Y7664415D01*
X5854820Y7689482D01*
X5866911Y7718674D01*
X5871036Y7750000D01*
Y7979608D01*
X7378964D01*
Y7750000D01*
X7383089Y7718674D01*
X7395180Y7689482D01*
X7414415Y7664415D01*
X7439482Y7645180D01*
X7468674Y7633089D01*
X7500000Y7628965D01*
X7531326Y7633089D01*
X7560518Y7645180D01*
X7585585Y7664415D01*
X7604820Y7689482D01*
X7616911Y7718674D01*
X7621036Y7750000D01*
Y7979608D01*
X9128964Y7979608D01*
Y7750000D01*
X9133089Y7718674D01*
X9145180Y7689482D01*
X9164415Y7664415D01*
X9189482Y7645180D01*
X9218674Y7633089D01*
X9250000Y7628965D01*
X9281326Y7633089D01*
X9310518Y7645180D01*
X9335585Y7664415D01*
X9354820Y7689482D01*
X9366911Y7718674D01*
X9371036Y7750000D01*
Y7979608D01*
X10878965D01*
Y7750000D01*
X10883089Y7718674D01*
X10895180Y7689482D01*
X10914415Y7664415D01*
X10939482Y7645180D01*
X10968674Y7633089D01*
X11000000Y7628965D01*
X11031326Y7633089D01*
X11060518Y7645180D01*
X11085585Y7664415D01*
X11104820Y7689482D01*
X11116911Y7718674D01*
X11121036Y7750000D01*
Y7979608D01*
X12628964D01*
Y7750000D01*
X12633089Y7718674D01*
X12645180Y7689482D01*
X12664415Y7664415D01*
X12689482Y7645180D01*
X12718674Y7633089D01*
X12750000Y7628965D01*
X12781326Y7633089D01*
X12810518Y7645180D01*
X12835585Y7664415D01*
X12854820Y7689482D01*
X12866911Y7718674D01*
X12871034Y7750000D01*
Y7979608D01*
X14378964D01*
Y7750000D01*
X14383089Y7718674D01*
X14395180Y7689482D01*
X14414415Y7664415D01*
X14439482Y7645180D01*
X14468674Y7633089D01*
X14500000Y7628965D01*
X14531326Y7633089D01*
X14560518Y7645180D01*
X14585585Y7664415D01*
X14604820Y7689482D01*
X14616911Y7718674D01*
X14621036Y7750000D01*
Y7979608D01*
X14800000D01*
X14807803Y7981160D01*
X14814420Y7985580D01*
X14818839Y7992196D01*
X14820390Y8000000D01*
Y8700000D01*
X14818839Y8707804D01*
X14814420Y8714419D01*
X14807803Y8718840D01*
X14800000Y8720392D01*
X1500000Y8720392D01*
D02*
G37*
G36*
X13750000Y7850863D02*
X13723895Y7847426D01*
X13699570Y7837350D01*
X13678679Y7821321D01*
X13663071Y7800980D01*
X13250000D01*
X13230492Y7797099D01*
X13213953Y7786048D01*
X12528884Y7100980D01*
X11439493D01*
X11435640Y7113680D01*
X11436047Y7113952D01*
X11974580Y7652484D01*
X12000000Y7649138D01*
X12026105Y7652574D01*
X12050431Y7662651D01*
X12071321Y7678680D01*
X12087349Y7699569D01*
X12097426Y7723895D01*
X12100863Y7750000D01*
X12097426Y7776105D01*
X12087349Y7800431D01*
X12071321Y7821321D01*
X12050431Y7837350D01*
X12026105Y7847426D01*
X12000000Y7850863D01*
X11973895Y7847426D01*
X11949569Y7837350D01*
X11928679Y7821321D01*
X11912650Y7800431D01*
X11902574Y7776105D01*
X11899137Y7750000D01*
X11902484Y7724580D01*
X11378883Y7200980D01*
X6785147D01*
X6765638Y7197099D01*
X6749099Y7186048D01*
X6713952Y7150901D01*
X6702901Y7134362D01*
X6699020Y7114853D01*
Y6500000D01*
X6700000Y6495075D01*
Y6380000D01*
X6800000D01*
Y6495075D01*
X6800980Y6500000D01*
Y7093736D01*
X6806264Y7099020D01*
X6872654D01*
X6876507Y7086320D01*
X6876099Y7086048D01*
X6840952Y7050901D01*
X6829901Y7034362D01*
X6826020Y7014853D01*
Y6500000D01*
X6827000Y6495075D01*
Y6380000D01*
X6927000D01*
Y6495075D01*
X6927980Y6500000D01*
Y6993737D01*
X6933264Y6999021D01*
X12550000D01*
X12569509Y7002901D01*
X12586048Y7013952D01*
X13271117Y7699021D01*
X13663071D01*
X13678679Y7678680D01*
X13699570Y7662651D01*
X13723895Y7652574D01*
X13750000Y7649138D01*
X13776105Y7652574D01*
X13800430Y7662651D01*
X13821321Y7678680D01*
X13837350Y7699569D01*
X13847426Y7723895D01*
X13850864Y7750000D01*
X13847426Y7776105D01*
X13837350Y7800431D01*
X13821321Y7821321D01*
X13800430Y7837350D01*
X13776105Y7847426D01*
X13750000Y7850863D01*
D02*
G37*
G36*
X10250000D02*
X10223895Y7847426D01*
X10199569Y7837350D01*
X10178679Y7821321D01*
X10162650Y7800431D01*
X10152574Y7776105D01*
X10149137Y7750000D01*
X10152574Y7723895D01*
X10162650Y7699569D01*
X10178679Y7678680D01*
X10199020Y7663071D01*
Y7356263D01*
X10193737Y7350979D01*
X6658147D01*
X6638638Y7347099D01*
X6634170Y7344113D01*
X6626074Y7353978D01*
X6706492Y7434395D01*
X8235375D01*
X8254884Y7438276D01*
X8271423Y7449327D01*
X8474580Y7652484D01*
X8500000Y7649138D01*
X8526105Y7652574D01*
X8550431Y7662651D01*
X8571321Y7678680D01*
X8587350Y7699569D01*
X8597426Y7723895D01*
X8600863Y7750000D01*
X8597426Y7776105D01*
X8587350Y7800431D01*
X8571321Y7821321D01*
X8550431Y7837350D01*
X8526105Y7847426D01*
X8500000Y7850863D01*
X8473895Y7847426D01*
X8449569Y7837350D01*
X8428679Y7821321D01*
X8412650Y7800431D01*
X8402574Y7776105D01*
X8399137Y7750000D01*
X8402484Y7724580D01*
X8214258Y7536354D01*
X6685375D01*
X6665866Y7532474D01*
X6649327Y7521423D01*
X6459952Y7332048D01*
X6448901Y7315509D01*
X6445020Y7296000D01*
Y6500000D01*
X6446000Y6495075D01*
Y6380000D01*
X6546000D01*
Y6495075D01*
X6546980Y6500000D01*
Y7274884D01*
X6569022Y7296926D01*
X6578887Y7288830D01*
X6575901Y7284362D01*
X6572020Y7264853D01*
Y6500000D01*
X6573000Y6495075D01*
Y6380000D01*
X6673000D01*
Y6495075D01*
X6673980Y6500000D01*
Y7243736D01*
X6679264Y7249020D01*
X10214853D01*
X10234362Y7252901D01*
X10250901Y7263952D01*
X10286048Y7299099D01*
X10297099Y7315638D01*
X10300980Y7335147D01*
Y7663071D01*
X10321321Y7678680D01*
X10337350Y7699569D01*
X10347426Y7723895D01*
X10350863Y7750000D01*
X10347426Y7776105D01*
X10337350Y7800431D01*
X10321321Y7821321D01*
X10300432Y7837350D01*
X10276105Y7847426D01*
X10250000Y7850863D01*
D02*
G37*
G36*
X6750000D02*
X6723895Y7847426D01*
X6699569Y7837350D01*
X6678679Y7821321D01*
X6662650Y7800431D01*
X6652574Y7776105D01*
X6649137Y7750000D01*
X6652484Y7724580D01*
X6332952Y7405048D01*
X6321901Y7388509D01*
X6318020Y7369000D01*
Y6500000D01*
X6319000Y6495075D01*
Y6380000D01*
X6419000D01*
Y6495075D01*
X6419980Y6500000D01*
Y7347884D01*
X6724580Y7652484D01*
X6750000Y7649138D01*
X6776105Y7652574D01*
X6800431Y7662651D01*
X6821321Y7678680D01*
X6837350Y7699569D01*
X6847426Y7723895D01*
X6850863Y7750000D01*
X6847426Y7776105D01*
X6837350Y7800431D01*
X6821321Y7821321D01*
X6800431Y7837350D01*
X6776105Y7847426D01*
X6750000Y7850863D01*
D02*
G37*
G36*
X8880000Y6920980D02*
X8677581D01*
X8658072Y6917099D01*
X8641533Y6906048D01*
X8641261Y6905777D01*
X8639798Y6905486D01*
X8621605Y6893330D01*
X8609449Y6875137D01*
X8605180Y6853677D01*
X8609449Y6832217D01*
X8621605Y6814025D01*
X8639798Y6801869D01*
X8661258Y6797600D01*
X8682718Y6801869D01*
X8700910Y6814025D01*
X8704249Y6819021D01*
X8800000D01*
Y6780000D01*
X9000000D01*
Y6920000D01*
X8884926D01*
X8880000Y6920980D01*
D02*
G37*
G36*
X9000000Y6620000D02*
X8800000D01*
Y6593283D01*
X8603069D01*
X8590500Y6595784D01*
X8574893Y6592679D01*
X8561662Y6583838D01*
X8552821Y6570607D01*
X8549716Y6555000D01*
X8551025Y6548419D01*
X8543401Y6537009D01*
X8539520Y6517500D01*
Y6422500D01*
X8543401Y6402991D01*
X8554452Y6386452D01*
X8570991Y6375401D01*
X8590500Y6371520D01*
X8610009Y6375401D01*
X8626548Y6386452D01*
X8637599Y6402991D01*
X8641480Y6422500D01*
Y6511716D01*
X8800000D01*
Y6480000D01*
X8914314D01*
Y5585537D01*
X8902581Y5580677D01*
X8786629Y5696629D01*
X8776705Y5703259D01*
X8765000Y5705588D01*
X8764999Y5705588D01*
X8475170D01*
X8367088Y5813670D01*
Y5842804D01*
X8372548Y5846452D01*
X8383599Y5862991D01*
X8387480Y5882500D01*
Y5977500D01*
X8383599Y5997009D01*
X8372548Y6013548D01*
X8356009Y6024599D01*
X8336500Y6028480D01*
X8316991Y6024599D01*
X8300452Y6013548D01*
X8289401Y5997009D01*
X8285520Y5977500D01*
Y5882500D01*
X8289401Y5862991D01*
X8300452Y5846452D01*
X8305912Y5842804D01*
Y5801002D01*
X8305912Y5801000D01*
X8308241Y5789295D01*
X8314871Y5779371D01*
X8440871Y5653372D01*
X8440871Y5653371D01*
X8450795Y5646741D01*
X8462500Y5644412D01*
X8752330D01*
X8869412Y5527330D01*
Y5397649D01*
X8857679Y5392788D01*
X8757646Y5492821D01*
X8758577Y5497500D01*
X8754309Y5518960D01*
X8742153Y5537153D01*
X8723960Y5549309D01*
X8702500Y5553577D01*
X8681040Y5549309D01*
X8662847Y5537153D01*
X8650691Y5518960D01*
X8646423Y5497500D01*
X8650691Y5476040D01*
X8662847Y5457847D01*
X8681040Y5445691D01*
X8702500Y5441423D01*
X8707179Y5442354D01*
X8814314Y5335218D01*
Y5267747D01*
X8802581Y5262886D01*
X8245186Y5820282D01*
Y5846210D01*
X8245548Y5846452D01*
X8256599Y5862991D01*
X8260480Y5882500D01*
Y5977500D01*
X8256599Y5997009D01*
X8245548Y6013548D01*
X8229009Y6024599D01*
X8209500Y6028480D01*
X8189991Y6024599D01*
X8173452Y6013548D01*
X8162401Y5997009D01*
X8158520Y5977500D01*
Y5882500D01*
X8162401Y5862991D01*
X8173452Y5846452D01*
X8173814Y5846210D01*
Y5805500D01*
X8176531Y5791844D01*
X8184266Y5780267D01*
X8764314Y5200219D01*
Y5105000D01*
X8435000D01*
Y5105000D01*
X8365000D01*
Y5104999D01*
X8335000D01*
Y5105000D01*
X7985686D01*
Y5255219D01*
X8030468Y5300000D01*
X8120000D01*
Y5500000D01*
X7980000D01*
Y5350468D01*
X7924766Y5295234D01*
X7917031Y5283656D01*
X7914314Y5270000D01*
Y5222747D01*
X7902581Y5217886D01*
X7770000Y5350468D01*
Y5395412D01*
X7770604Y5400000D01*
Y5650000D01*
X7768198Y5668273D01*
X7761145Y5685302D01*
X7749925Y5699924D01*
X7735302Y5711145D01*
X7718274Y5718198D01*
X7700000Y5720604D01*
X7681727Y5718198D01*
X7664698Y5711145D01*
X7650076Y5699924D01*
X7638855Y5685302D01*
X7631802Y5668273D01*
X7629396Y5650000D01*
Y5400000D01*
X7630000Y5395412D01*
Y5300000D01*
X7719533D01*
X7864314Y5155219D01*
Y5025000D01*
X7865000Y5021552D01*
Y4945000D01*
X8315000D01*
Y4945000D01*
X8385000D01*
Y4945000D01*
X8415000D01*
Y4945000D01*
X8514314D01*
Y4592303D01*
X8510347Y4589653D01*
X8498191Y4571460D01*
X8493923Y4550000D01*
X8498191Y4528540D01*
X8510347Y4510347D01*
X8528540Y4498191D01*
X8550000Y4493923D01*
X8571460Y4498191D01*
X8589653Y4510347D01*
X8601809Y4528540D01*
X8606077Y4550000D01*
X8601809Y4571460D01*
X8589653Y4589653D01*
X8585686Y4592303D01*
Y4797254D01*
X8597419Y4802114D01*
X8760160Y4639373D01*
X8748191Y4621460D01*
X8743923Y4600000D01*
X8748191Y4578540D01*
X8760347Y4560347D01*
X8778540Y4548191D01*
X8800000Y4543923D01*
X8821460Y4548191D01*
X8839653Y4560347D01*
X8851809Y4578540D01*
X8856077Y4600000D01*
X8851809Y4621460D01*
X8839653Y4639653D01*
X8835686Y4642303D01*
Y4650000D01*
X8832969Y4663656D01*
X8825234Y4675234D01*
X8635686Y4864781D01*
Y4945000D01*
X8985000D01*
Y4945000D01*
X9035000D01*
Y5105000D01*
X9030588D01*
Y5216371D01*
X9031629Y5217412D01*
X9038259Y5227336D01*
X9040587Y5239041D01*
Y5400000D01*
X9120000D01*
Y5487890D01*
X9121744Y5501140D01*
Y5621896D01*
X9249924Y5750076D01*
X9261144Y5764698D01*
X9268198Y5781727D01*
X9270604Y5800000D01*
X9268198Y5818274D01*
X9261144Y5835302D01*
X9249924Y5849925D01*
X9235302Y5861144D01*
X9218273Y5868198D01*
X9200000Y5870604D01*
X9181726Y5868198D01*
X9164698Y5861144D01*
X9150075Y5849925D01*
X9001216Y5701065D01*
X8998386Y5697377D01*
X8985686Y5701688D01*
Y6480000D01*
X9000000D01*
Y6620000D01*
D02*
G37*
G36*
X10194900Y6631492D02*
X10060101D01*
X10050307Y6629544D01*
X10042004Y6623996D01*
X10036457Y6615693D01*
X10034509Y6605900D01*
Y6556100D01*
X10036457Y6546307D01*
X10042004Y6538004D01*
X10050307Y6532457D01*
X10060101Y6530508D01*
X10194900D01*
X10204694Y6532457D01*
X10212997Y6538004D01*
X10218544Y6546307D01*
X10220492Y6556100D01*
Y6605900D01*
X10218544Y6615693D01*
X10212997Y6623996D01*
X10204694Y6629544D01*
X10194900Y6631492D01*
D02*
G37*
G36*
X10739900Y6504492D02*
X10605100D01*
X10595307Y6502544D01*
X10587004Y6496996D01*
X10581457Y6488693D01*
X10579509Y6478900D01*
Y6429100D01*
X10581457Y6419307D01*
X10587004Y6411004D01*
X10595307Y6405457D01*
X10605100Y6403508D01*
X10739900D01*
X10749694Y6405457D01*
X10757997Y6411004D01*
X10763544Y6419307D01*
X10765492Y6429100D01*
Y6478900D01*
X10763544Y6488693D01*
X10757997Y6496996D01*
X10749694Y6502544D01*
X10739900Y6504492D01*
D02*
G37*
G36*
X10194900D02*
X10060101D01*
X10050307Y6502544D01*
X10042004Y6496996D01*
X10036457Y6488693D01*
X10034509Y6478900D01*
Y6429100D01*
X10036457Y6419307D01*
X10042004Y6411004D01*
X10050307Y6405457D01*
X10060101Y6403508D01*
X10194900D01*
X10204694Y6405457D01*
X10212997Y6411004D01*
X10218544Y6419307D01*
X10220492Y6429100D01*
Y6478900D01*
X10218544Y6488693D01*
X10212997Y6496996D01*
X10204694Y6502544D01*
X10194900Y6504492D01*
D02*
G37*
G36*
X7004000Y6902077D02*
X6982540Y6897809D01*
X6964347Y6885653D01*
X6952191Y6867460D01*
X6947923Y6846000D01*
X6952191Y6824540D01*
X6953020Y6823299D01*
Y6500000D01*
X6954000Y6495075D01*
Y6380000D01*
X7054000D01*
Y6495075D01*
X7054980Y6500000D01*
Y6823299D01*
X7055809Y6824540D01*
X7060077Y6846000D01*
X7055809Y6867460D01*
X7043653Y6885653D01*
X7025460Y6897809D01*
X7004000Y6902077D01*
D02*
G37*
G36*
X5000000Y7850863D02*
X4973895Y7847426D01*
X4949568Y7837350D01*
X4928679Y7821321D01*
X4912650Y7800431D01*
X4902574Y7776105D01*
X4899137Y7750000D01*
X4902574Y7723895D01*
X4912650Y7699569D01*
X4928679Y7678680D01*
X4949020Y7663071D01*
Y7379489D01*
X4952901Y7359980D01*
X4963952Y7343441D01*
X5194508Y7112885D01*
X5211047Y7101834D01*
X5230556Y7097954D01*
X6080581D01*
X6191020Y6987514D01*
Y6500000D01*
X6192000Y6495075D01*
Y6380000D01*
X6292000D01*
Y6495075D01*
X6292980Y6500000D01*
Y7008631D01*
X6289099Y7028140D01*
X6278048Y7044679D01*
X6137746Y7184981D01*
X6121207Y7196032D01*
X6101698Y7199913D01*
X5251673D01*
X5050979Y7400606D01*
Y7663071D01*
X5071321Y7678680D01*
X5087349Y7699569D01*
X5097426Y7723895D01*
X5100863Y7750000D01*
X5097426Y7776105D01*
X5087349Y7800431D01*
X5071321Y7821321D01*
X5050431Y7837350D01*
X5026105Y7847426D01*
X5000000Y7850863D01*
D02*
G37*
G36*
X3250000D02*
X3223895Y7847426D01*
X3199568Y7837350D01*
X3178679Y7821321D01*
X3162650Y7800431D01*
X3152574Y7776105D01*
X3149137Y7750000D01*
X3152574Y7723895D01*
X3162650Y7699569D01*
X3178679Y7678680D01*
X3199020Y7663071D01*
Y7150000D01*
X3202901Y7130491D01*
X3213952Y7113952D01*
X3363952Y6963952D01*
X3380491Y6952901D01*
X3400000Y6949020D01*
X5978884D01*
X6064020Y6863883D01*
Y6500000D01*
X6065000Y6495075D01*
Y6380000D01*
X6165000D01*
Y6495075D01*
X6165980Y6500000D01*
Y6885000D01*
X6162099Y6904509D01*
X6151048Y6921048D01*
X6036048Y7036048D01*
X6019509Y7047099D01*
X6000000Y7050980D01*
X3421117D01*
X3300979Y7171117D01*
Y7663071D01*
X3321321Y7678680D01*
X3337349Y7699569D01*
X3347426Y7723895D01*
X3350862Y7750000D01*
X3347426Y7776105D01*
X3337349Y7800431D01*
X3321321Y7821321D01*
X3300431Y7837350D01*
X3276105Y7847426D01*
X3250000Y7850863D01*
D02*
G37*
G36*
X1500000D02*
X1473895Y7847426D01*
X1449569Y7837350D01*
X1428679Y7821321D01*
X1412650Y7800431D01*
X1402574Y7776105D01*
X1399137Y7750000D01*
X1402574Y7723895D01*
X1412650Y7699569D01*
X1428679Y7678680D01*
X1449020Y7663072D01*
Y7171236D01*
X1452901Y7151727D01*
X1463952Y7135188D01*
X1835188Y6763952D01*
X1851727Y6752901D01*
X1871236Y6749021D01*
X5878884D01*
X5937020Y6690884D01*
Y6500000D01*
X5938000Y6495075D01*
Y6380000D01*
X6038000D01*
Y6495075D01*
X6038980Y6500000D01*
Y6712000D01*
X6035099Y6731509D01*
X6024048Y6748048D01*
X5936048Y6836048D01*
X5919509Y6847099D01*
X5900000Y6850980D01*
X1892352D01*
X1550980Y7192352D01*
Y7663072D01*
X1571321Y7678680D01*
X1587350Y7699569D01*
X1597426Y7723895D01*
X1600863Y7750000D01*
X1597426Y7776105D01*
X1587350Y7800431D01*
X1571321Y7821321D01*
X1550431Y7837350D01*
X1526105Y7847426D01*
X1500000Y7850863D01*
D02*
G37*
G36*
X7807306Y6870604D02*
X7800000D01*
X7781726Y6868198D01*
X7764698Y6861145D01*
X7750075Y6849924D01*
X7738855Y6835302D01*
X7731802Y6818273D01*
X7729396Y6800000D01*
X7731802Y6781726D01*
X7738855Y6764698D01*
X7750075Y6750075D01*
X7764698Y6738855D01*
X7771362Y6736095D01*
X7807381Y6700075D01*
X7822004Y6688855D01*
X7839032Y6681802D01*
X7857306Y6679396D01*
X8000000D01*
X8004588Y6680000D01*
X8082500D01*
Y6699020D01*
X8280236D01*
X8285520Y6693736D01*
Y6555000D01*
X8289250Y6536250D01*
X8285520Y6517500D01*
Y6422500D01*
X8289401Y6402991D01*
X8300452Y6386452D01*
X8316991Y6375401D01*
X8336500Y6371520D01*
X8354978Y6375196D01*
X8355716Y6374627D01*
X8358695Y6360953D01*
X8273371Y6275629D01*
X8266741Y6265705D01*
X8264412Y6254000D01*
X8264412Y6253999D01*
Y6228210D01*
X8255347Y6222153D01*
X8243191Y6203960D01*
X8238923Y6182500D01*
X8243191Y6161040D01*
X8255347Y6142847D01*
X8273540Y6130691D01*
X8295000Y6126423D01*
X8316460Y6130691D01*
X8334653Y6142847D01*
X8346809Y6161040D01*
X8351077Y6182500D01*
X8346809Y6203960D01*
X8334653Y6222153D01*
X8325588Y6228210D01*
Y6241330D01*
X8457059Y6372802D01*
X8463500Y6371520D01*
X8483009Y6375401D01*
X8499548Y6386452D01*
X8510599Y6402991D01*
X8514480Y6422500D01*
Y6517500D01*
X8510599Y6537009D01*
X8499548Y6553548D01*
X8483009Y6564599D01*
X8463500Y6568480D01*
X8443991Y6564599D01*
X8427452Y6553548D01*
X8416401Y6537009D01*
X8412520Y6517500D01*
Y6422500D01*
X8413802Y6416059D01*
X8398047Y6400305D01*
X8384373Y6403284D01*
X8383804Y6404022D01*
X8387480Y6422500D01*
Y6517500D01*
X8383750Y6536250D01*
X8387480Y6555000D01*
Y6714853D01*
X8383599Y6734362D01*
X8372548Y6750901D01*
X8337401Y6786048D01*
X8320862Y6797099D01*
X8301353Y6800980D01*
X8082500D01*
Y6820000D01*
X8004588D01*
X8000000Y6820604D01*
X7886551D01*
X7857230Y6849924D01*
X7842608Y6861145D01*
X7825579Y6868198D01*
X7807306Y6870604D01*
D02*
G37*
G36*
X10739900Y6377492D02*
X10605100D01*
X10595307Y6375544D01*
X10587004Y6369996D01*
X10581457Y6361693D01*
X10579509Y6351900D01*
Y6302100D01*
X10581457Y6292307D01*
X10587004Y6284004D01*
X10595307Y6278457D01*
X10605100Y6276508D01*
X10739900D01*
X10749694Y6278457D01*
X10757997Y6284004D01*
X10763544Y6292307D01*
X10765492Y6302100D01*
Y6351900D01*
X10763544Y6361693D01*
X10757997Y6369996D01*
X10749694Y6375544D01*
X10739900Y6377492D01*
D02*
G37*
G36*
X10194900D02*
X10060101D01*
X10050307Y6375544D01*
X10042004Y6369996D01*
X10036457Y6361693D01*
X10034509Y6351900D01*
Y6302100D01*
X10036457Y6292307D01*
X10042004Y6284004D01*
X10050307Y6278457D01*
X10060101Y6276508D01*
X10194900D01*
X10204694Y6278457D01*
X10212997Y6284004D01*
X10218544Y6292307D01*
X10220492Y6302100D01*
Y6351900D01*
X10218544Y6361693D01*
X10212997Y6369996D01*
X10204694Y6375544D01*
X10194900Y6377492D01*
D02*
G37*
G36*
X11837999Y6681000D02*
X11706999D01*
Y6576677D01*
X11671161Y6540838D01*
X11662320Y6527607D01*
X11659216Y6512000D01*
X11659216Y6511999D01*
Y6220000D01*
X11600000D01*
Y6190783D01*
X11399999D01*
Y6220000D01*
X11200000D01*
Y6190783D01*
X11150001D01*
X11150000Y6190784D01*
X11134393Y6187679D01*
X11121161Y6178838D01*
X10802107Y5859784D01*
X10759475D01*
X10757997Y5861996D01*
X10749694Y5867544D01*
X10739900Y5869492D01*
X10605100D01*
X10595307Y5867544D01*
X10587004Y5861996D01*
X10581457Y5853693D01*
X10579509Y5843900D01*
Y5794100D01*
X10581457Y5784307D01*
X10587004Y5776004D01*
X10595307Y5770457D01*
X10605100Y5768508D01*
X10739900D01*
X10749694Y5770457D01*
X10757997Y5776004D01*
X10759475Y5778217D01*
X10818999D01*
X10819000Y5778216D01*
X10834607Y5781321D01*
X10847838Y5790162D01*
X11166893Y6109216D01*
X11200000D01*
Y6080000D01*
X11399999D01*
Y6109216D01*
X11600000D01*
Y6080000D01*
X11799999D01*
Y6220000D01*
X11740783D01*
Y6495107D01*
X11764676Y6519000D01*
X11837999D01*
Y6681000D01*
D02*
G37*
G36*
X10194900Y6250492D02*
X10060101D01*
X10050307Y6248544D01*
X10042004Y6242996D01*
X10036457Y6234693D01*
X10034509Y6224900D01*
Y6175100D01*
X10036457Y6165307D01*
X10042004Y6157004D01*
X10050307Y6151457D01*
X10060101Y6149508D01*
X10194900D01*
X10204694Y6151457D01*
X10212997Y6157004D01*
X10218544Y6165307D01*
X10220492Y6175100D01*
Y6224900D01*
X10218544Y6234693D01*
X10212997Y6242996D01*
X10204694Y6248544D01*
X10194900Y6250492D01*
D02*
G37*
G36*
X10450000Y6256077D02*
X10428540Y6251809D01*
X10410347Y6239653D01*
X10398191Y6221460D01*
X10393923Y6200000D01*
X10398191Y6178540D01*
X10410347Y6160347D01*
X10428540Y6148191D01*
X10450000Y6143923D01*
X10471460Y6148191D01*
X10472701Y6149020D01*
X10672500D01*
X10674953Y6149508D01*
X10739900D01*
X10749694Y6151457D01*
X10757997Y6157004D01*
X10763544Y6165307D01*
X10765492Y6175100D01*
Y6224900D01*
X10763544Y6234693D01*
X10757997Y6242996D01*
X10749694Y6248544D01*
X10739900Y6250492D01*
X10674953D01*
X10672500Y6250980D01*
X10472701D01*
X10471460Y6251809D01*
X10450000Y6256077D01*
D02*
G37*
G36*
X13076569Y6804610D02*
X11563827D01*
X11548219Y6801506D01*
X11534988Y6792665D01*
X11534988Y6792664D01*
X10856107Y6113784D01*
X10759475D01*
X10757997Y6115996D01*
X10749694Y6121544D01*
X10739900Y6123492D01*
X10605100D01*
X10595307Y6121544D01*
X10587004Y6115996D01*
X10581457Y6107693D01*
X10579509Y6097900D01*
Y6048100D01*
X10581457Y6038307D01*
X10587004Y6030004D01*
X10595307Y6024457D01*
X10605100Y6022508D01*
X10739900D01*
X10749694Y6024457D01*
X10757997Y6030004D01*
X10759475Y6032217D01*
X10872999D01*
X10873000Y6032216D01*
X10888607Y6035321D01*
X10901838Y6044162D01*
X11580720Y6723043D01*
X13059216D01*
Y6220000D01*
X13000000D01*
Y6080000D01*
X13199998D01*
Y6109216D01*
X13400000D01*
Y6080000D01*
X13599998D01*
Y6220000D01*
X13400000D01*
Y6190783D01*
X13199998D01*
Y6220000D01*
X13140784D01*
Y6519000D01*
X13192999D01*
Y6681000D01*
X13140784D01*
Y6740395D01*
X13137679Y6756002D01*
X13128838Y6769233D01*
X13115607Y6778074D01*
X13114473Y6778300D01*
X13114247Y6779434D01*
X13105406Y6792665D01*
X13092175Y6801506D01*
X13076569Y6804610D01*
D02*
G37*
G36*
X10194900Y6123492D02*
X10060101D01*
X10050307Y6121544D01*
X10042004Y6115996D01*
X10036457Y6107693D01*
X10034509Y6097900D01*
Y6048100D01*
X10036457Y6038307D01*
X10042004Y6030004D01*
X10050307Y6024457D01*
X10060101Y6022508D01*
X10194900D01*
X10204694Y6024457D01*
X10212997Y6030004D01*
X10218544Y6038307D01*
X10220492Y6048100D01*
Y6097900D01*
X10218544Y6107693D01*
X10212997Y6115996D01*
X10204694Y6121544D01*
X10194900Y6123492D01*
D02*
G37*
G36*
X8590500Y6028480D02*
X8570991Y6024599D01*
X8554452Y6013548D01*
X8543401Y5997009D01*
X8539520Y5977500D01*
Y5895980D01*
X8514480D01*
Y5977500D01*
X8510599Y5997009D01*
X8499548Y6013548D01*
X8483009Y6024599D01*
X8463500Y6028480D01*
X8443991Y6024599D01*
X8427452Y6013548D01*
X8416401Y5997009D01*
X8412520Y5977500D01*
Y5882500D01*
X8416250Y5863750D01*
X8412520Y5845000D01*
X8416401Y5825491D01*
X8427452Y5808952D01*
X8443991Y5797901D01*
X8463500Y5794020D01*
X8726870D01*
X8746379Y5797901D01*
X8762918Y5808952D01*
X8798239Y5844273D01*
X8800000Y5843923D01*
X8801890Y5844298D01*
X8807420D01*
X8826928Y5848179D01*
X8843467Y5859230D01*
X8854518Y5875769D01*
X8858399Y5895278D01*
X8854518Y5914787D01*
X8852550Y5917733D01*
X8851809Y5921460D01*
X8839653Y5939653D01*
X8821460Y5951809D01*
X8800000Y5956077D01*
X8778540Y5951809D01*
X8767301Y5944299D01*
X8757639Y5942377D01*
X8741100Y5931326D01*
X8705753Y5895980D01*
X8641480D01*
Y5977500D01*
X8637599Y5997009D01*
X8626548Y6013548D01*
X8610009Y6024599D01*
X8590500Y6028480D01*
D02*
G37*
G36*
X10194900Y5996492D02*
X10060101D01*
X10050307Y5994544D01*
X10042004Y5988996D01*
X10036457Y5980693D01*
X10034509Y5970900D01*
Y5921100D01*
X10036457Y5911307D01*
X10042004Y5903004D01*
X10050307Y5897457D01*
X10060101Y5895508D01*
X10194900D01*
X10204694Y5897457D01*
X10212997Y5903004D01*
X10218544Y5911307D01*
X10220492Y5921100D01*
Y5970900D01*
X10218544Y5980693D01*
X10212997Y5988996D01*
X10204694Y5994544D01*
X10194900Y5996492D01*
D02*
G37*
G36*
X10450000Y6006077D02*
X10428540Y6001809D01*
X10410347Y5989653D01*
X10398191Y5971460D01*
X10393923Y5950000D01*
X10398191Y5928540D01*
X10410347Y5910347D01*
X10428540Y5898191D01*
X10450000Y5893923D01*
X10465573Y5897020D01*
X10597499D01*
X10605100Y5895508D01*
X10670047D01*
X10672500Y5895020D01*
X10674954Y5895508D01*
X10739900D01*
X10749694Y5897457D01*
X10757997Y5903004D01*
X10763544Y5911307D01*
X10765492Y5921100D01*
Y5970900D01*
X10763544Y5980693D01*
X10757997Y5988996D01*
X10749694Y5994544D01*
X10739900Y5996492D01*
X10683008D01*
X10670500Y5998980D01*
X10475694D01*
X10471460Y6001809D01*
X10450000Y6006077D01*
D02*
G37*
G36*
X9850000Y6406077D02*
X9828540Y6401809D01*
X9810347Y6389653D01*
X9798191Y6371460D01*
X9793923Y6350000D01*
X9798191Y6328540D01*
X9799021Y6327299D01*
Y6100000D01*
X9780000D01*
Y5900000D01*
X9799265D01*
X9802901Y5881723D01*
X9813952Y5865184D01*
X9896184Y5782952D01*
X9912723Y5771901D01*
X9932232Y5768020D01*
X10127500D01*
X10129953Y5768508D01*
X10194900D01*
X10204694Y5770457D01*
X10212997Y5776004D01*
X10218544Y5784307D01*
X10220492Y5794100D01*
Y5843900D01*
X10218544Y5853693D01*
X10212997Y5861996D01*
X10204694Y5867544D01*
X10194900Y5869492D01*
X10129953D01*
X10127500Y5869980D01*
X9953348D01*
X9920000Y5903328D01*
Y6100000D01*
X9900980D01*
Y6327299D01*
X9901809Y6328540D01*
X9906077Y6350000D01*
X9901809Y6371460D01*
X9889653Y6389653D01*
X9871460Y6401809D01*
X9850000Y6406077D01*
D02*
G37*
G36*
X12699999Y5920604D02*
X12099999D01*
X12095412Y5920000D01*
X12000000D01*
Y5780000D01*
X12049020D01*
Y5647700D01*
X12048191Y5646460D01*
X12043923Y5625000D01*
X12048191Y5603540D01*
X12060347Y5585347D01*
X12078540Y5573191D01*
X12100000Y5568923D01*
X12121460Y5573191D01*
X12139653Y5585347D01*
X12151809Y5603540D01*
X12156077Y5625000D01*
X12151809Y5646460D01*
X12150979Y5647701D01*
Y5779396D01*
X12649020D01*
Y5647700D01*
X12648191Y5646460D01*
X12643923Y5625000D01*
X12648191Y5603540D01*
X12660347Y5585347D01*
X12678540Y5573191D01*
X12700000Y5568923D01*
X12721460Y5573191D01*
X12739653Y5585347D01*
X12751809Y5603540D01*
X12756077Y5625000D01*
X12751809Y5646460D01*
X12750979Y5647701D01*
Y5780000D01*
X12799999D01*
Y5920000D01*
X12704587D01*
X12699999Y5920604D01*
D02*
G37*
G36*
X14850000Y5370604D02*
X14849998Y5370604D01*
X14600000D01*
X14595412Y5370000D01*
X14500000D01*
Y5230000D01*
X14595412D01*
X14600000Y5229396D01*
X14850000D01*
X14868272Y5231802D01*
X14885303Y5238855D01*
X14899924Y5250075D01*
X14911143Y5264698D01*
X14918198Y5281727D01*
X14920604Y5300000D01*
X14918198Y5318274D01*
X14911143Y5335302D01*
X14899924Y5349925D01*
X14885303Y5361144D01*
X14868274Y5368198D01*
X14850000Y5370604D01*
D02*
G37*
G36*
X9135000Y5105000D02*
X9065000D01*
Y4945000D01*
X9135000D01*
Y5105000D01*
D02*
G37*
G36*
X15750000Y5126949D02*
X15721284Y5123168D01*
X15694527Y5112085D01*
X15671547Y5094453D01*
X15653915Y5071474D01*
X15642831Y5044716D01*
X15639050Y5016000D01*
X15642831Y4987284D01*
X15653915Y4960525D01*
X15671547Y4937547D01*
X15694527Y4919915D01*
X15721284Y4908831D01*
X15750000Y4905051D01*
X15778716Y4908831D01*
X15805473Y4919915D01*
X15828453Y4937547D01*
X15846085Y4960525D01*
X15857169Y4987284D01*
X15860950Y5016000D01*
X15857169Y5044716D01*
X15846085Y5071474D01*
X15828453Y5094453D01*
X15805473Y5112085D01*
X15778716Y5123168D01*
X15750000Y5126949D01*
D02*
G37*
G36*
X6927000Y5680000D02*
X6827000D01*
Y5440000D01*
X6841314D01*
Y5023000D01*
X6844031Y5009344D01*
X6851766Y4997766D01*
X7002114Y4847419D01*
X6997253Y4835686D01*
X6914782D01*
X6785686Y4964782D01*
Y5440000D01*
X6800000D01*
Y5680000D01*
X6700000D01*
Y5440000D01*
X6714314D01*
Y4950000D01*
X6717031Y4936344D01*
X6724766Y4924767D01*
X6852114Y4797419D01*
X6847254Y4785686D01*
X6764782D01*
X6658686Y4891782D01*
Y5440000D01*
X6673000D01*
Y5680000D01*
X6573000D01*
Y5440000D01*
X6587314D01*
Y4879512D01*
X6581286Y4875474D01*
X6574986Y4873880D01*
X6531686Y4917180D01*
Y5440000D01*
X6546000D01*
Y5680000D01*
X6446000D01*
Y5440000D01*
X6460314D01*
Y4908114D01*
X6447614Y4902853D01*
X6404686Y4945782D01*
Y5440000D01*
X6419000D01*
Y5680000D01*
X6319000D01*
Y5440000D01*
X6333314D01*
Y4935114D01*
X6322564Y4929624D01*
X6321038Y4929429D01*
X6277686Y4972782D01*
Y5440000D01*
X6292000D01*
Y5680000D01*
X6192000D01*
Y5440000D01*
X6206314D01*
Y4962114D01*
X6195565Y4956624D01*
X6194038Y4956429D01*
X6150686Y4999782D01*
Y5440000D01*
X6165000D01*
Y5680000D01*
X6065000D01*
Y5440000D01*
X6079314D01*
Y4985000D01*
X6082031Y4971344D01*
X6089766Y4959767D01*
X6502114Y4547419D01*
X6497254Y4535686D01*
X6414782D01*
X6023686Y4926782D01*
Y5440000D01*
X6038000D01*
Y5680000D01*
X5938000D01*
Y5440000D01*
X5952314D01*
Y4912000D01*
X5955031Y4898344D01*
X5962766Y4886766D01*
X6374767Y4474766D01*
X6386344Y4467031D01*
X6400000Y4464314D01*
X7645000D01*
Y4415000D01*
Y4315000D01*
Y4185000D01*
X7645000D01*
Y4115000D01*
X7645001D01*
Y4085000D01*
X7645000D01*
Y4015000D01*
Y3925587D01*
X7617671D01*
X7459913Y4083345D01*
X7449990Y4089975D01*
X7438285Y4092304D01*
X7438283Y4092303D01*
X6880148D01*
X6880147Y4092304D01*
X6868442Y4089975D01*
X6858518Y4083345D01*
X6858518Y4083344D01*
X6588371Y3813198D01*
X6581741Y3803274D01*
X6579412Y3791569D01*
X6579412Y3791567D01*
Y3113286D01*
X6579412Y3113285D01*
X6581741Y3101579D01*
X6588371Y3091656D01*
X7049412Y2630615D01*
Y2067670D01*
X7002085Y2020342D01*
X6995454Y2010419D01*
X6994376Y2005000D01*
X6955000D01*
Y1855000D01*
X7069412D01*
Y1837034D01*
X7062965Y1830588D01*
X6870000D01*
Y1850000D01*
X6730000D01*
Y1650000D01*
X6769412D01*
Y1537118D01*
X6769412Y1537117D01*
X6771741Y1525411D01*
X6778371Y1515488D01*
X6839412Y1454447D01*
Y1055000D01*
X6825000D01*
Y795000D01*
X7155000D01*
Y1055000D01*
X7040587D01*
Y1217330D01*
X7141628Y1318371D01*
X7141629Y1318371D01*
X7148259Y1328295D01*
X7150588Y1340000D01*
Y1556036D01*
X7154131Y1556741D01*
X7164055Y1563371D01*
X7181628Y1580945D01*
X7181629Y1580945D01*
X7188259Y1590869D01*
X7189081Y1595000D01*
X7245000D01*
Y1745000D01*
X7145000D01*
Y1652956D01*
X7144412Y1650000D01*
X7145000Y1647044D01*
Y1638258D01*
X7138371Y1631629D01*
X7131741Y1621705D01*
X7130714Y1616546D01*
X7129270Y1615101D01*
X7120010Y1613259D01*
X7110087Y1606629D01*
X7110086Y1606628D01*
X7100000Y1596542D01*
X7089913Y1606629D01*
X7079990Y1613259D01*
X7070730Y1615101D01*
X7069286Y1616546D01*
X7068259Y1621705D01*
X7061629Y1631629D01*
X7055000Y1638258D01*
Y1745000D01*
X6955000D01*
Y1595000D01*
X7010919D01*
X7011741Y1590869D01*
X7018371Y1580945D01*
X7035945Y1563372D01*
X7035945Y1563371D01*
X7045869Y1556741D01*
X7049412Y1556036D01*
Y1369238D01*
X6948371Y1268197D01*
X6941740Y1258274D01*
X6939412Y1246568D01*
X6939412Y1246567D01*
Y1055000D01*
X6900588D01*
Y1467115D01*
X6900588Y1467117D01*
X6898259Y1478822D01*
X6891629Y1488746D01*
X6891628Y1488746D01*
X6830588Y1549787D01*
Y1650000D01*
X6870000D01*
Y1769412D01*
X7075634D01*
X7075635Y1769412D01*
X7087341Y1771741D01*
X7097264Y1778371D01*
X7118909Y1800016D01*
X7120765Y1802794D01*
X7121629Y1803371D01*
X7128259Y1813295D01*
X7130588Y1825000D01*
Y1855000D01*
X7245000D01*
Y2005000D01*
X7205624D01*
X7204546Y2010419D01*
X7197916Y2020343D01*
X7150588Y2067671D01*
Y2659853D01*
X7148259Y2671558D01*
X7141629Y2681482D01*
X7141628Y2681482D01*
X6680588Y3142523D01*
Y3762330D01*
X6909385Y3991128D01*
X7409046D01*
X7566803Y3833372D01*
X7566804Y3833371D01*
X7576727Y3826740D01*
X7588432Y3824412D01*
X7645000D01*
Y3785685D01*
X7395000D01*
Y3900000D01*
X7255000D01*
Y3700000D01*
X7395000D01*
Y3714314D01*
X7725000D01*
X7728448Y3715000D01*
X7805000D01*
Y3764314D01*
X7875000D01*
X7888656Y3767031D01*
X7900234Y3774766D01*
X8120321Y3994854D01*
X8125000Y3993923D01*
X8146460Y3998191D01*
X8164653Y4010347D01*
X8176809Y4028540D01*
X8181077Y4050000D01*
X8176809Y4071460D01*
X8164653Y4089653D01*
X8146460Y4101809D01*
X8125000Y4106077D01*
X8103540Y4101809D01*
X8085347Y4089653D01*
X8073191Y4071460D01*
X8068923Y4050000D01*
X8069854Y4045321D01*
X7860218Y3835686D01*
X7805000D01*
Y3965000D01*
Y4065000D01*
X7805000D01*
Y4135000D01*
X7805000D01*
Y4165000D01*
X7805000D01*
Y4215000D01*
Y4315000D01*
Y4415000D01*
Y4515000D01*
Y4615000D01*
Y4735000D01*
X7805000D01*
Y4765000D01*
X7805000D01*
Y4885000D01*
X7728448D01*
X7725000Y4885686D01*
X7064781D01*
X6912686Y5037781D01*
Y5440000D01*
X6927000D01*
Y5680000D01*
D02*
G37*
G36*
X15750000Y4872949D02*
X15721284Y4869168D01*
X15694527Y4858085D01*
X15671547Y4840453D01*
X15653915Y4817474D01*
X15642831Y4790716D01*
X15639050Y4762000D01*
X15642831Y4733284D01*
X15653915Y4706525D01*
X15671547Y4683547D01*
X15694527Y4665915D01*
X15721284Y4654831D01*
X15750000Y4651051D01*
X15778716Y4654831D01*
X15805473Y4665915D01*
X15828453Y4683547D01*
X15846085Y4706525D01*
X15857169Y4733284D01*
X15860950Y4762000D01*
X15857169Y4790716D01*
X15846085Y4817474D01*
X15828453Y4840453D01*
X15805473Y4858085D01*
X15778716Y4869168D01*
X15750000Y4872949D01*
D02*
G37*
G36*
X3603500Y5315000D02*
X3456500D01*
Y5059000D01*
X3459396D01*
Y4520392D01*
X3420000D01*
Y4620000D01*
X2980000D01*
Y4520392D01*
X2100000Y4520392D01*
X2092196Y4518840D01*
X2085581Y4514419D01*
X2081160Y4507804D01*
X2079608Y4500000D01*
Y4000000D01*
X2081160Y3992196D01*
X2085581Y3985581D01*
X2092196Y3981160D01*
X2100000Y3979608D01*
X2980000Y3979608D01*
Y3880000D01*
X3420000D01*
Y3979608D01*
X3650000D01*
X3657803Y3981160D01*
X3664419Y3985580D01*
X3668839Y3992196D01*
X3670391Y4000000D01*
Y4500000D01*
X3668839Y4507803D01*
X3664419Y4514419D01*
X3657803Y4518839D01*
X3650000Y4520392D01*
X3600604D01*
Y5059000D01*
X3603500D01*
Y5315000D01*
D02*
G37*
G36*
X9355000Y4885000D02*
X9195000D01*
Y4815000D01*
Y4715000D01*
Y4615000D01*
X9271552D01*
X9275000Y4614314D01*
X9479608D01*
Y4585686D01*
X9275000D01*
X9271552Y4585000D01*
X9195000D01*
Y4515000D01*
Y4435000D01*
X9195000D01*
Y4365000D01*
X9195000D01*
Y4335000D01*
X9195000D01*
Y4215000D01*
Y4115000D01*
X9271552D01*
X9275000Y4114314D01*
X9385218D01*
X9524766Y3974766D01*
X9536344Y3967031D01*
X9550000Y3964314D01*
X9780000D01*
Y3900000D01*
X9920000D01*
Y3995412D01*
X9920604Y4000000D01*
Y4250000D01*
X9918198Y4268273D01*
X9911145Y4285302D01*
X9899925Y4299924D01*
X9885302Y4311145D01*
X9877515Y4314370D01*
X9880041Y4327070D01*
X9955485D01*
X9972789Y4309767D01*
X9984366Y4302031D01*
X9998022Y4299314D01*
X10350000D01*
Y4230000D01*
X10550000D01*
Y4264314D01*
X10957697D01*
X10960347Y4260347D01*
X10978540Y4248191D01*
X11000000Y4243923D01*
X11021460Y4248191D01*
X11039653Y4260347D01*
X11051809Y4278540D01*
X11056077Y4300000D01*
X11051809Y4321460D01*
X11039653Y4339653D01*
X11021460Y4351809D01*
X11000000Y4356077D01*
X10978540Y4351809D01*
X10960347Y4339653D01*
X10957697Y4335686D01*
X10550000D01*
Y4370000D01*
X10418449D01*
X10415000Y4370686D01*
X10012804D01*
X9995500Y4387989D01*
X9983923Y4395725D01*
X9970267Y4398442D01*
X9583290D01*
X9569634Y4395725D01*
X9558056Y4387989D01*
X9505753Y4335686D01*
X9355000D01*
Y4385000D01*
X9354999D01*
Y4415000D01*
X9355000D01*
Y4514314D01*
X9479608D01*
Y4500000D01*
X9481160Y4492196D01*
X9485580Y4485580D01*
X9492196Y4481160D01*
X9500000Y4479608D01*
X11050000Y4479608D01*
X11057803Y4481160D01*
X11064419Y4485580D01*
X11068839Y4492196D01*
X11070392Y4499999D01*
X11070392Y4750000D01*
X11068840Y4757803D01*
X11064419Y4764419D01*
X11057804Y4768839D01*
X11050000Y4770392D01*
X9500000Y4770392D01*
X9492196Y4768840D01*
X9485581Y4764419D01*
X9481160Y4757804D01*
X9479608Y4750000D01*
Y4735685D01*
X9355000D01*
Y4815000D01*
Y4885000D01*
D02*
G37*
G36*
X15750000Y4618949D02*
X15721284Y4615168D01*
X15694527Y4604085D01*
X15671547Y4586453D01*
X15653915Y4563474D01*
X15642831Y4536716D01*
X15639050Y4508000D01*
X15642831Y4479284D01*
X15653915Y4452525D01*
X15671547Y4429547D01*
X15694527Y4411915D01*
X15721284Y4400831D01*
X15750000Y4397051D01*
X15778716Y4400831D01*
X15805473Y4411915D01*
X15828453Y4429547D01*
X15846085Y4452525D01*
X15857169Y4479284D01*
X15860950Y4508000D01*
X15857169Y4536716D01*
X15846085Y4563474D01*
X15828453Y4586453D01*
X15805473Y4604085D01*
X15778716Y4615168D01*
X15750000Y4618949D01*
D02*
G37*
G36*
X14700000Y4470000D02*
X14500000D01*
Y4390588D01*
X14423531D01*
X14423531Y4390588D01*
X14411826Y4388259D01*
X14401901Y4381629D01*
X14396460Y4376809D01*
X14375000Y4381077D01*
X14353540Y4376809D01*
X14335347Y4364653D01*
X14323190Y4346460D01*
X14318922Y4325000D01*
X14323190Y4303540D01*
X14335347Y4285347D01*
X14353540Y4273191D01*
X14375000Y4268923D01*
X14385693Y4271050D01*
X14427983Y4228760D01*
Y4144004D01*
X14427982Y4144003D01*
X14430312Y4132298D01*
X14436942Y4122374D01*
X14557146Y4002171D01*
X14557146Y4002171D01*
X14567068Y3995540D01*
X14578773Y3993211D01*
X14578775Y3993212D01*
X15160057D01*
X15308897Y3844372D01*
X15308897Y3844371D01*
X15318822Y3837741D01*
X15330527Y3835412D01*
X15617329D01*
X15653140Y3799602D01*
X15642831Y3774716D01*
X15639050Y3746000D01*
X15642831Y3717284D01*
X15653915Y3690525D01*
X15671547Y3667547D01*
X15694527Y3649915D01*
X15721284Y3638831D01*
X15750000Y3635051D01*
X15778716Y3638831D01*
X15805473Y3649915D01*
X15828453Y3667547D01*
X15846085Y3690525D01*
X15857169Y3717284D01*
X15860950Y3746000D01*
X15857169Y3774716D01*
X15846085Y3801474D01*
X15828453Y3824453D01*
X15805473Y3842085D01*
X15778716Y3853168D01*
X15750000Y3856949D01*
X15721284Y3853168D01*
X15696397Y3842860D01*
X15651630Y3887629D01*
X15641705Y3894259D01*
X15630000Y3896588D01*
X15629999Y3896588D01*
X15343196D01*
X15194356Y4045428D01*
X15184431Y4052059D01*
X15172726Y4054387D01*
X15172726Y4054387D01*
X14591444D01*
X14577563Y4068267D01*
X14582423Y4080000D01*
X14620412D01*
X14625000Y4079396D01*
X14825000D01*
X14843272Y4081802D01*
X14860303Y4088855D01*
X14874924Y4100075D01*
X14886143Y4114698D01*
X14893198Y4131727D01*
X14895604Y4150000D01*
X14893198Y4168274D01*
X14886143Y4185302D01*
X14874925Y4199925D01*
X14860303Y4211144D01*
X14843274Y4218198D01*
X14825000Y4220604D01*
X14824998Y4220604D01*
X14625000D01*
X14620412Y4220000D01*
X14525000D01*
Y4137424D01*
X14513268Y4132564D01*
X14489159Y4156673D01*
Y4241430D01*
X14486830Y4253135D01*
X14480199Y4263059D01*
X14480199Y4263059D01*
X14428951Y4314307D01*
X14430901Y4324113D01*
X14436200Y4329412D01*
X14559999D01*
X14560001Y4329412D01*
X14562956Y4330000D01*
X14700000D01*
Y4470000D01*
D02*
G37*
G36*
Y5070000D02*
X14500000D01*
Y4930000D01*
X14700000D01*
Y4958564D01*
X14901947D01*
X14904597Y4954597D01*
X14913663Y4948540D01*
Y4755751D01*
X14913663Y4755750D01*
X14915991Y4744045D01*
X14922621Y4734121D01*
X15290372Y4366371D01*
X15300294Y4359741D01*
X15312000Y4357412D01*
X15312001Y4357412D01*
X15603329D01*
X15653140Y4307602D01*
X15642831Y4282716D01*
X15639050Y4254000D01*
X15642831Y4225284D01*
X15653915Y4198525D01*
X15671547Y4175547D01*
X15694527Y4157915D01*
X15721284Y4146831D01*
X15750000Y4143051D01*
X15778716Y4146831D01*
X15805473Y4157915D01*
X15828453Y4175547D01*
X15846085Y4198525D01*
X15857169Y4225284D01*
X15860950Y4254000D01*
X15857169Y4282716D01*
X15846085Y4309474D01*
X15828453Y4332453D01*
X15805473Y4350085D01*
X15778716Y4361168D01*
X15750000Y4364949D01*
X15721284Y4361168D01*
X15696397Y4350860D01*
X15637630Y4409629D01*
X15627705Y4416259D01*
X15616000Y4418588D01*
X15615999Y4418588D01*
X15324670D01*
X14974838Y4768420D01*
Y4948540D01*
X14983904Y4954597D01*
X14996059Y4972790D01*
X15000327Y4994250D01*
X14996059Y5015710D01*
X14983904Y5033903D01*
X14965710Y5046058D01*
X14944250Y5050327D01*
X14922791Y5046058D01*
X14904597Y5033903D01*
X14901947Y5029936D01*
X14700000D01*
Y5070000D01*
D02*
G37*
G36*
X8425000Y4056077D02*
X8403540Y4051809D01*
X8385347Y4039653D01*
X8373191Y4021460D01*
X8368923Y4000000D01*
X8369853Y3995321D01*
X8285219Y3910686D01*
X8125000D01*
X8111344Y3907969D01*
X8099766Y3900234D01*
X7874766Y3675234D01*
X7867031Y3663656D01*
X7864314Y3650000D01*
Y3475000D01*
X7865000Y3471552D01*
Y3395000D01*
X7965000D01*
Y3395000D01*
X8014314D01*
Y2071427D01*
X8017030Y2057771D01*
X8024766Y2046193D01*
X8264314Y1806645D01*
Y1753000D01*
X8200000D01*
Y1613000D01*
X8400000D01*
Y1753000D01*
X8335686D01*
Y1821426D01*
X8332969Y1835083D01*
X8325234Y1846660D01*
X8085685Y2086208D01*
Y2347254D01*
X8097419Y2352114D01*
X8564314Y1885218D01*
Y1753000D01*
X8500000D01*
Y1613000D01*
X8700000D01*
Y1753000D01*
X8635686D01*
Y1900000D01*
X8632969Y1913656D01*
X8625234Y1925233D01*
X8135686Y2414781D01*
Y2597253D01*
X8147419Y2602114D01*
X8864314Y1885218D01*
Y1753000D01*
X8800000D01*
Y1613000D01*
X9000000D01*
Y1753000D01*
X8935686D01*
Y1900000D01*
X8932969Y1913656D01*
X8925234Y1925234D01*
X8185686Y2664782D01*
Y2772191D01*
X8197419Y2777051D01*
X9164314Y1810156D01*
Y1753000D01*
X9100000D01*
Y1613000D01*
X9300000D01*
Y1753000D01*
X9235686D01*
Y1824937D01*
X9232969Y1838594D01*
X9225234Y1850171D01*
X8235686Y2839719D01*
Y2897254D01*
X8247419Y2902114D01*
X9400001Y1749533D01*
Y1613000D01*
X9600000D01*
Y1753000D01*
X9477366D01*
Y1758320D01*
X9474650Y1771976D01*
X9466914Y1783553D01*
X9365161Y1885307D01*
X9365356Y1886832D01*
X9370846Y1897583D01*
X9651950D01*
X9764314Y1785218D01*
Y1753000D01*
X9700000D01*
Y1613000D01*
X9900000D01*
Y1753000D01*
X9835686D01*
Y1800000D01*
X9832969Y1813656D01*
X9825234Y1825233D01*
X9691965Y1958502D01*
X9680388Y1966238D01*
X9666731Y1968954D01*
X9381513D01*
X9298429Y2052039D01*
X9298624Y2053565D01*
X9304113Y2064314D01*
X9928837D01*
X10064314Y1928837D01*
Y1753000D01*
X10000000D01*
Y1613000D01*
X10200000D01*
Y1753000D01*
X10135686D01*
Y1943618D01*
X10132969Y1957274D01*
X10125234Y1968852D01*
X9968852Y2125234D01*
X9957274Y2132969D01*
X9943618Y2135686D01*
X9314781D01*
X9198429Y2252038D01*
X9198624Y2253565D01*
X9204114Y2264314D01*
X10185219D01*
X10364314Y2085219D01*
Y1753000D01*
X10300000D01*
Y1613000D01*
X10500000D01*
Y1753000D01*
X10435686D01*
Y2100000D01*
X10432969Y2113656D01*
X10425234Y2125234D01*
X10225234Y2325234D01*
X10213656Y2332969D01*
X10200000Y2335686D01*
X9214782D01*
X9198429Y2352038D01*
X9198624Y2353566D01*
X9204114Y2364314D01*
X11157938D01*
X11171594Y2367031D01*
X11183171Y2374766D01*
X11290219Y2481814D01*
X11510000D01*
Y2467500D01*
X11750000D01*
Y2567500D01*
X11510000D01*
Y2553186D01*
X11275438D01*
X11261782Y2550469D01*
X11250204Y2542734D01*
X11143156Y2435686D01*
X9214782D01*
X9173429Y2477038D01*
X9173625Y2478565D01*
X9179114Y2489314D01*
X11150000D01*
X11163656Y2492031D01*
X11175234Y2499766D01*
X11284282Y2608814D01*
X11510000D01*
Y2594500D01*
X11750000D01*
Y2694500D01*
X11510000D01*
Y2680186D01*
X11269500D01*
X11255844Y2677469D01*
X11244267Y2669734D01*
X11135219Y2560686D01*
X9189782D01*
X9148429Y2602038D01*
X9148624Y2603565D01*
X9154114Y2614314D01*
X10375000D01*
X10388656Y2617031D01*
X10400233Y2624766D01*
X10470321Y2694854D01*
X10475000Y2693923D01*
X10496460Y2698191D01*
X10514653Y2710347D01*
X10526809Y2728540D01*
X10531077Y2750000D01*
X10526809Y2771460D01*
X10514653Y2789653D01*
X10496460Y2801809D01*
X10475000Y2806077D01*
X10453540Y2801809D01*
X10435347Y2789653D01*
X10423191Y2771460D01*
X10418923Y2750000D01*
X10419853Y2745321D01*
X10360218Y2685686D01*
X9164782D01*
X9098429Y2752038D01*
X9098624Y2753566D01*
X9104114Y2764314D01*
X9607697D01*
X9610347Y2760347D01*
X9628540Y2748191D01*
X9650000Y2743923D01*
X9671460Y2748191D01*
X9689653Y2760347D01*
X9701809Y2778540D01*
X9706077Y2800000D01*
X9701809Y2821460D01*
X9689653Y2839653D01*
X9671460Y2851809D01*
X9650000Y2856077D01*
X9628540Y2851809D01*
X9610347Y2839653D01*
X9607697Y2835686D01*
X9114782D01*
X8850110Y3100358D01*
X8856041Y3112387D01*
X8868491Y3110748D01*
X9030682D01*
Y3079200D01*
X9170682D01*
Y3172278D01*
X9171286Y3176866D01*
Y3181352D01*
X9170682Y3185939D01*
Y3279199D01*
X9135686D01*
Y3475000D01*
X9135000Y3478447D01*
Y3555000D01*
X9065000D01*
Y3478447D01*
X9064314Y3475000D01*
Y3279199D01*
X9030682D01*
Y3251955D01*
X8882685D01*
X8866338Y3254108D01*
X8848065Y3251702D01*
X8831036Y3244648D01*
X8816414Y3233428D01*
X8805194Y3218806D01*
X8798140Y3201777D01*
X8795735Y3183504D01*
X8797374Y3171055D01*
X8785345Y3165123D01*
X8635686Y3314782D01*
Y3395001D01*
X8665000D01*
Y3395000D01*
X8785000D01*
Y3555000D01*
X8685000D01*
Y3555000D01*
X8615000D01*
Y3554999D01*
X8585000D01*
Y3555000D01*
X8015000D01*
Y3554999D01*
X7985686D01*
Y3585218D01*
X8164782Y3764314D01*
X8532697D01*
X8535347Y3760347D01*
X8553540Y3748191D01*
X8575000Y3743923D01*
X8596460Y3748191D01*
X8614653Y3760347D01*
X8626809Y3778540D01*
X8631077Y3800000D01*
X8626809Y3821460D01*
X8614653Y3839653D01*
X8596460Y3851809D01*
X8575000Y3856077D01*
X8553540Y3851809D01*
X8535347Y3839653D01*
X8532697Y3835686D01*
X8327020D01*
X8323168Y3848386D01*
X8325234Y3849766D01*
X8420321Y3944853D01*
X8425000Y3943923D01*
X8446460Y3948191D01*
X8464653Y3960347D01*
X8476809Y3978540D01*
X8481077Y4000000D01*
X8476809Y4021460D01*
X8464653Y4039653D01*
X8446460Y4051809D01*
X8425000Y4056077D01*
D02*
G37*
G36*
X15750000Y4110949D02*
X15721284Y4107168D01*
X15694527Y4096085D01*
X15671547Y4078453D01*
X15653915Y4055474D01*
X15642831Y4028716D01*
X15639050Y4000000D01*
X15642831Y3971284D01*
X15653915Y3944525D01*
X15671547Y3921547D01*
X15694527Y3903915D01*
X15721284Y3892831D01*
X15750000Y3889051D01*
X15778716Y3892831D01*
X15805473Y3903915D01*
X15828453Y3921547D01*
X15846085Y3944525D01*
X15857169Y3971284D01*
X15860950Y4000000D01*
X15857169Y4028716D01*
X15846085Y4055474D01*
X15828453Y4078453D01*
X15805473Y4096085D01*
X15778716Y4107168D01*
X15750000Y4110949D01*
D02*
G37*
G36*
X3943500Y5315000D02*
X3796500D01*
Y5059000D01*
X3799396D01*
Y4670272D01*
X3792196Y4668840D01*
X3785580Y4664419D01*
X3781160Y4657804D01*
X3779608Y4650000D01*
Y3900000D01*
X3781160Y3892196D01*
X3785580Y3885581D01*
X3792196Y3881160D01*
X3800000Y3879608D01*
X5850000D01*
X5857804Y3881160D01*
X5864419Y3885581D01*
X5868840Y3892196D01*
X5870392Y3900000D01*
Y4650000D01*
X5868840Y4657804D01*
X5864419Y4664419D01*
X5857804Y4668840D01*
X5850000Y4670392D01*
X3940604D01*
Y5059000D01*
X3943500D01*
Y5315000D01*
D02*
G37*
G36*
X14275000Y4056077D02*
X14253540Y4051809D01*
X14235347Y4039653D01*
X14223190Y4021460D01*
X14218922Y4000000D01*
X14223190Y3978540D01*
X14235347Y3960347D01*
X14239314Y3957696D01*
Y3435776D01*
X14242030Y3422120D01*
X14249767Y3410543D01*
X14435542Y3224766D01*
X14447121Y3217031D01*
X14460776Y3214314D01*
X14500000D01*
Y3180000D01*
X14631551D01*
X14635001Y3179314D01*
X15043536D01*
X15137436Y3085414D01*
X15149013Y3077679D01*
X15162669Y3074962D01*
X15622649D01*
X15636304Y3077679D01*
X15647882Y3085414D01*
X15701495Y3139028D01*
X15721284Y3130831D01*
X15750000Y3127051D01*
X15778716Y3130831D01*
X15805473Y3141915D01*
X15828453Y3159547D01*
X15846085Y3182525D01*
X15857169Y3209284D01*
X15860950Y3238000D01*
X15857169Y3266716D01*
X15846085Y3293474D01*
X15828453Y3316453D01*
X15805473Y3334085D01*
X15778716Y3345168D01*
X15750000Y3348949D01*
X15721284Y3345168D01*
X15694527Y3334085D01*
X15671547Y3316453D01*
X15653915Y3293474D01*
X15642831Y3266716D01*
X15639050Y3238000D01*
X15642831Y3209284D01*
X15651028Y3189495D01*
X15607866Y3146334D01*
X15177451D01*
X15083551Y3240234D01*
X15071974Y3247969D01*
X15058318Y3250686D01*
X14700000D01*
Y3320000D01*
X14500000D01*
Y3285686D01*
X14475558D01*
X14310686Y3450558D01*
Y3701312D01*
X14323190Y3703540D01*
X14335347Y3685347D01*
X14353540Y3673191D01*
X14375000Y3668923D01*
X14396460Y3673191D01*
X14414653Y3685347D01*
X14420711Y3694412D01*
X15131607D01*
X15235648Y3590371D01*
X15245572Y3583741D01*
X15257277Y3581412D01*
X15533035D01*
X15613461Y3500986D01*
X15613461Y3500986D01*
X15623386Y3494355D01*
X15635091Y3492027D01*
X15639027D01*
X15639050Y3492000D01*
X15642831Y3463284D01*
X15653915Y3436525D01*
X15671547Y3413547D01*
X15694527Y3395915D01*
X15721284Y3384831D01*
X15750000Y3381051D01*
X15778716Y3384831D01*
X15805473Y3395915D01*
X15828453Y3413547D01*
X15846085Y3436525D01*
X15857169Y3463284D01*
X15860950Y3492000D01*
X15857169Y3520716D01*
X15846085Y3547474D01*
X15828453Y3570453D01*
X15805473Y3588085D01*
X15778716Y3599168D01*
X15750000Y3602949D01*
X15721284Y3599168D01*
X15694527Y3588085D01*
X15671547Y3570453D01*
X15659708Y3555022D01*
X15646501Y3554462D01*
X15567334Y3633629D01*
X15557411Y3640259D01*
X15545706Y3642588D01*
X15545705Y3642588D01*
X15269946D01*
X15165906Y3746629D01*
X15155981Y3753259D01*
X15144276Y3755588D01*
X15144276Y3755588D01*
X14465439D01*
X14460579Y3767321D01*
X14512300Y3819043D01*
X14525000Y3818520D01*
Y3780000D01*
X14725000D01*
Y3920000D01*
X14525000D01*
Y3880588D01*
X14500000D01*
X14488295Y3878259D01*
X14478371Y3871629D01*
X14478371Y3871628D01*
X14385693Y3778950D01*
X14375000Y3781077D01*
X14353540Y3776809D01*
X14335347Y3764653D01*
X14323190Y3746460D01*
X14310686Y3748688D01*
Y3957696D01*
X14314653Y3960347D01*
X14326810Y3978540D01*
X14331078Y4000000D01*
X14326810Y4021460D01*
X14314653Y4039653D01*
X14296460Y4051809D01*
X14275000Y4056077D01*
D02*
G37*
G36*
X14850000Y3620604D02*
X14600000D01*
X14595412Y3620000D01*
X14500000D01*
Y3480000D01*
X14595412D01*
X14600000Y3479396D01*
X14850000D01*
X14868274Y3481802D01*
X14885303Y3488855D01*
X14899924Y3500076D01*
X14911145Y3514698D01*
X14918198Y3531726D01*
X14920604Y3550000D01*
X14918198Y3568274D01*
X14911145Y3585302D01*
X14899924Y3599924D01*
X14885303Y3611145D01*
X14868274Y3618198D01*
X14850000Y3620604D01*
D02*
G37*
G36*
X9355000Y4085000D02*
X9195000D01*
Y3965000D01*
Y3865000D01*
Y3765000D01*
X9195000D01*
Y3735000D01*
X9195000D01*
Y3615000D01*
X9355000D01*
Y3715000D01*
X9355000D01*
Y3785000D01*
X9355000D01*
Y3864314D01*
X9485219D01*
X9674766Y3674766D01*
X9686344Y3667031D01*
X9700000Y3664314D01*
X9779396D01*
Y3500000D01*
X9781802Y3481727D01*
X9788855Y3464698D01*
X9800076Y3450076D01*
X9814698Y3438855D01*
X9831727Y3431802D01*
X9850000Y3429396D01*
X9868274Y3431802D01*
X9885302Y3438855D01*
X9899925Y3450076D01*
X9911145Y3464698D01*
X9918198Y3481727D01*
X9920604Y3500000D01*
Y3700000D01*
X9920000Y3704588D01*
Y3800000D01*
X9780000D01*
Y3735686D01*
X9714781D01*
X9525234Y3925233D01*
X9513656Y3932969D01*
X9500000Y3935686D01*
X9355000D01*
Y4015000D01*
Y4085000D01*
D02*
G37*
G36*
X9035000Y3555000D02*
X8815000D01*
Y3395000D01*
X9035000D01*
Y3555000D01*
D02*
G37*
G36*
X7725000Y3685686D02*
X7275000D01*
X7261344Y3682969D01*
X7249766Y3675233D01*
X7199766Y3625234D01*
X7192031Y3613656D01*
X7189314Y3600000D01*
X7155000D01*
Y3505161D01*
X7154309Y3499913D01*
Y3317340D01*
X7156715Y3299066D01*
X7163769Y3282038D01*
X7174989Y3267415D01*
X7189611Y3256195D01*
X7206640Y3249142D01*
X7224913Y3246736D01*
X7243187Y3249142D01*
X7260215Y3256195D01*
X7274838Y3267415D01*
X7286058Y3282038D01*
X7293111Y3299066D01*
X7295517Y3317340D01*
Y3499340D01*
X7295604Y3500000D01*
X7295000Y3504588D01*
Y3600000D01*
X7295000D01*
X7297976Y3611467D01*
X7299878Y3614314D01*
X7725000D01*
X7728448Y3615000D01*
X7805000D01*
Y3685000D01*
X7728448D01*
X7725000Y3685686D01*
D02*
G37*
G36*
X14900000Y3070604D02*
X14892694D01*
X14874420Y3068198D01*
X14857391Y3061145D01*
X14842769Y3049925D01*
X14813449Y3020604D01*
X14600000D01*
X14595412Y3020000D01*
X14500000D01*
Y2880000D01*
X14595412D01*
X14600000Y2879396D01*
X14842694D01*
X14860966Y2881802D01*
X14877995Y2888855D01*
X14892618Y2900075D01*
X14928638Y2936095D01*
X14935303Y2938855D01*
X14949924Y2950076D01*
X14961145Y2964698D01*
X14968198Y2981727D01*
X14970604Y3000000D01*
X14968198Y3018274D01*
X14961145Y3035302D01*
X14949924Y3049925D01*
X14935303Y3061145D01*
X14918272Y3068198D01*
X14900000Y3070604D01*
D02*
G37*
G36*
X15750000Y3094949D02*
X15721284Y3091168D01*
X15694527Y3080085D01*
X15671547Y3062453D01*
X15653915Y3039474D01*
X15642831Y3012716D01*
X15639050Y2984000D01*
X15642831Y2955284D01*
X15651028Y2935495D01*
X15608711Y2893178D01*
X15115614D01*
X15101959Y2890462D01*
X15090382Y2882726D01*
X14893341Y2685686D01*
X14700000D01*
Y2720000D01*
X14604588D01*
X14600000Y2720604D01*
X14595412Y2720000D01*
X14500000D01*
Y2580000D01*
X14529396D01*
Y2425000D01*
X14531802Y2406726D01*
X14538855Y2389698D01*
X14550076Y2375076D01*
X14564697Y2363855D01*
X14581726Y2356802D01*
X14600000Y2354396D01*
X14618274Y2356802D01*
X14635303Y2363855D01*
X14649924Y2375076D01*
X14661145Y2389698D01*
X14668198Y2406726D01*
X14670604Y2425000D01*
Y2580000D01*
X14700000D01*
Y2614314D01*
X14908122D01*
X14921779Y2617031D01*
X14933356Y2624766D01*
X15130397Y2821807D01*
X15415196D01*
X15419278Y2809781D01*
X15417548Y2808453D01*
X15399915Y2785474D01*
X15388832Y2758716D01*
X15385051Y2730000D01*
X15388832Y2701284D01*
X15399915Y2674525D01*
X15417548Y2651547D01*
X15440526Y2633915D01*
X15467284Y2622831D01*
X15496001Y2619051D01*
X15524716Y2622831D01*
X15551474Y2633915D01*
X15574454Y2651547D01*
X15592085Y2674525D01*
X15603168Y2701284D01*
X15606949Y2730000D01*
X15603168Y2758716D01*
X15592085Y2785474D01*
X15574454Y2808453D01*
X15572722Y2809781D01*
X15576804Y2821807D01*
X15623492D01*
X15637149Y2824523D01*
X15648726Y2832259D01*
X15701495Y2885028D01*
X15721284Y2876831D01*
X15750000Y2873051D01*
X15778716Y2876831D01*
X15805473Y2887915D01*
X15828453Y2905547D01*
X15846085Y2928525D01*
X15857169Y2955284D01*
X15860950Y2984000D01*
X15857169Y3012716D01*
X15846085Y3039474D01*
X15828453Y3062453D01*
X15805473Y3080085D01*
X15778716Y3091168D01*
X15750000Y3094949D01*
D02*
G37*
G36*
X11750000Y2970392D02*
X11100000D01*
X11092196Y2968840D01*
X11085581Y2964419D01*
X11081160Y2957804D01*
X11079608Y2950000D01*
Y2920604D01*
X11000000D01*
X10981727Y2918198D01*
X10964698Y2911145D01*
X10950076Y2899925D01*
X10938855Y2885302D01*
X10931802Y2868273D01*
X10929396Y2850000D01*
X10931802Y2831726D01*
X10938855Y2814698D01*
X10950076Y2800075D01*
X10964698Y2788855D01*
X10981727Y2781802D01*
X11000000Y2779396D01*
X11000002Y2779396D01*
X11079608D01*
Y2750000D01*
X11081160Y2742196D01*
X11085581Y2735581D01*
X11092196Y2731160D01*
X11100000Y2729608D01*
X11510000D01*
Y2721500D01*
X11750000D01*
Y2729608D01*
X11757804Y2731160D01*
X11764419Y2735581D01*
X11768840Y2742196D01*
X11770392Y2750000D01*
Y2950000D01*
X11768840Y2957804D01*
X11764419Y2964419D01*
X11757804Y2968840D01*
X11750000Y2970392D01*
D02*
G37*
G36*
X15805000Y2840000D02*
X15695000D01*
X15639999Y2785000D01*
Y2675000D01*
X15695000Y2620000D01*
X15805000D01*
X15860001Y2675000D01*
Y2785000D01*
X15805000Y2840000D01*
D02*
G37*
G36*
X12690000Y2567500D02*
X12450000D01*
Y2553186D01*
X12217500D01*
X12203844Y2550469D01*
X12192266Y2542734D01*
X11974766Y2325234D01*
X11967031Y2313656D01*
X11964314Y2300000D01*
Y1514781D01*
X11658766Y1209234D01*
X11651031Y1197656D01*
X11648314Y1184000D01*
Y1146929D01*
X11618439Y1134555D01*
X11591283Y1113717D01*
X11570445Y1086561D01*
X11557346Y1054937D01*
X11552878Y1021000D01*
X11557346Y987063D01*
X11570445Y955439D01*
X11591283Y928283D01*
X11618439Y907445D01*
X11650063Y894346D01*
X11684000Y889878D01*
X11717937Y894346D01*
X11749561Y907445D01*
X11776717Y928283D01*
X11797555Y955439D01*
X11810654Y987063D01*
X11815122Y1021000D01*
X11810654Y1054937D01*
X11797555Y1086561D01*
X11776717Y1113717D01*
X11749561Y1134555D01*
X11719686Y1146929D01*
Y1169218D01*
X12025234Y1474766D01*
X12032969Y1486343D01*
X12035686Y1500000D01*
Y2285218D01*
X12232282Y2481814D01*
X12450000D01*
Y2467500D01*
X12690000D01*
Y2567500D01*
D02*
G37*
G36*
Y2440500D02*
X12450000D01*
Y2426186D01*
X12315500D01*
X12301844Y2423469D01*
X12290267Y2415734D01*
X12166766Y2292234D01*
X12159031Y2280656D01*
X12156314Y2267000D01*
Y1146929D01*
X12126439Y1134555D01*
X12099283Y1113717D01*
X12078445Y1086561D01*
X12065346Y1054937D01*
X12060878Y1021000D01*
X12065346Y987063D01*
X12078445Y955439D01*
X12099283Y928283D01*
X12126439Y907445D01*
X12158063Y894346D01*
X12192000Y889878D01*
X12225937Y894346D01*
X12257561Y907445D01*
X12284717Y928283D01*
X12305555Y955439D01*
X12318654Y987063D01*
X12323122Y1021000D01*
X12318654Y1054937D01*
X12305555Y1086561D01*
X12284717Y1113717D01*
X12257561Y1134555D01*
X12227686Y1146929D01*
Y2252219D01*
X12330282Y2354814D01*
X12450000D01*
Y2340500D01*
X12690000D01*
Y2440500D01*
D02*
G37*
G36*
X11750000D02*
X11510000D01*
Y2340500D01*
X11750000D01*
Y2440500D01*
D02*
G37*
G36*
X12690000Y2313500D02*
X12450000D01*
Y2213500D01*
X12690000D01*
Y2313500D01*
D02*
G37*
G36*
X11750000D02*
X11510000D01*
Y2213500D01*
X11750000D01*
Y2313500D01*
D02*
G37*
G36*
X12690000Y2186500D02*
X12450000D01*
Y2086500D01*
X12690000D01*
Y2186500D01*
D02*
G37*
G36*
X11750000D02*
X11510000D01*
Y2086500D01*
X11750000D01*
Y2186500D01*
D02*
G37*
G36*
X13100000Y3270392D02*
X12450000D01*
X12442196Y3268840D01*
X12435581Y3264419D01*
X12431160Y3257804D01*
X12429608Y3250000D01*
Y2725000D01*
X12431160Y2717196D01*
X12435581Y2710581D01*
X12442196Y2706160D01*
X12450000Y2704608D01*
X12929396D01*
Y2125000D01*
X12931802Y2106727D01*
X12938855Y2089698D01*
X12950075Y2075076D01*
X12964697Y2063855D01*
X12981726Y2056802D01*
X13000000Y2054396D01*
X13018272Y2056802D01*
X13035303Y2063855D01*
X13049924Y2075076D01*
X13061145Y2089698D01*
X13068198Y2106727D01*
X13070604Y2125000D01*
Y2704608D01*
X13100000D01*
X13107803Y2706160D01*
X13114420Y2710581D01*
X13118840Y2717196D01*
X13120392Y2725000D01*
X13120392Y3250000D01*
X13118840Y3257804D01*
X13114420Y3264419D01*
X13107803Y3268840D01*
X13100000Y3270392D01*
D02*
G37*
G36*
X12690000Y2059500D02*
X12450000D01*
Y1959500D01*
X12690000D01*
Y2059500D01*
D02*
G37*
G36*
X11750000D02*
X11510000D01*
Y1959500D01*
X11750000D01*
Y2059500D01*
D02*
G37*
G36*
X12690000Y1932500D02*
X12450000D01*
Y1832500D01*
X12690000D01*
Y1932500D01*
D02*
G37*
G36*
X11750000D02*
X11510000D01*
Y1832500D01*
X11750000D01*
Y1932500D01*
D02*
G37*
G36*
X12690000Y1805500D02*
X12450000D01*
Y1705500D01*
X12690000D01*
Y1805500D01*
D02*
G37*
G36*
X11750000D02*
X11510000D01*
Y1705500D01*
X11750000D01*
Y1805500D01*
D02*
G37*
G36*
X12690000Y1678500D02*
X12450000D01*
Y1578500D01*
X12690000D01*
Y1678500D01*
D02*
G37*
G36*
Y1551500D02*
X12450000D01*
Y1451500D01*
X12690000D01*
Y1551500D01*
D02*
G37*
G36*
X12865500Y6681000D02*
X12734500D01*
Y6591096D01*
X12663952Y6520548D01*
X12652901Y6504009D01*
X12649020Y6484500D01*
Y6220000D01*
X12600000D01*
Y6080000D01*
X12727903D01*
X12973952Y5833952D01*
X12990491Y5822901D01*
X13000000Y5821010D01*
Y5780000D01*
X13103229D01*
X13113953Y5763952D01*
X14074020Y4803883D01*
Y1131296D01*
X14077901Y1111787D01*
X14087164Y1097924D01*
X14078445Y1086561D01*
X14065346Y1054937D01*
X14060878Y1021000D01*
X14065346Y987063D01*
X14078445Y955439D01*
X14099283Y928283D01*
X14126439Y907445D01*
X14158063Y894346D01*
X14192000Y889878D01*
X14225937Y894346D01*
X14257561Y907445D01*
X14284717Y928283D01*
X14305556Y955439D01*
X14318654Y987063D01*
X14323122Y1021000D01*
X14318654Y1054937D01*
X14305556Y1086561D01*
X14284717Y1113717D01*
X14257561Y1134555D01*
X14225937Y1147654D01*
X14192000Y1152122D01*
X14188361Y1151643D01*
X14175980Y1162616D01*
Y4824999D01*
X14172099Y4844508D01*
X14161047Y4861047D01*
X13200980Y5821116D01*
Y5830000D01*
X13199998Y5834926D01*
Y5920000D01*
X13084926D01*
X13079999Y5920980D01*
X13031116D01*
X12799999Y6152096D01*
Y6220000D01*
X12750979D01*
Y6463384D01*
X12806596Y6519000D01*
X12865500D01*
Y6681000D01*
D02*
G37*
G36*
X12165499D02*
X12034499D01*
Y6519000D01*
X12049020D01*
Y6220000D01*
X12000000D01*
Y6178990D01*
X11990490Y6177099D01*
X11973951Y6166048D01*
X11727903Y5920000D01*
X11600000D01*
Y5780000D01*
X11689021D01*
Y5710000D01*
X11692901Y5690491D01*
X11703952Y5673952D01*
X13649020Y3728884D01*
Y1147222D01*
X13618439Y1134555D01*
X13591283Y1113717D01*
X13570445Y1086561D01*
X13557346Y1054937D01*
X13552878Y1021000D01*
X13557346Y987063D01*
X13570445Y955439D01*
X13591283Y928283D01*
X13618439Y907445D01*
X13650063Y894346D01*
X13684000Y889878D01*
X13717937Y894346D01*
X13749561Y907445D01*
X13776717Y928283D01*
X13797556Y955439D01*
X13810654Y987063D01*
X13815121Y1021000D01*
X13810654Y1054937D01*
X13797556Y1086561D01*
X13776717Y1113717D01*
X13750980Y1133466D01*
Y3750000D01*
X13747099Y3769509D01*
X13736047Y3786048D01*
X11790980Y5731116D01*
Y5780000D01*
X11799999D01*
Y5847904D01*
X12031115Y6079020D01*
X12079999D01*
X12084926Y6080000D01*
X12199999D01*
Y6220000D01*
X12150979D01*
Y6519000D01*
X12165499D01*
Y6681000D01*
D02*
G37*
G36*
X7640000Y1120000D02*
X7400000D01*
Y730000D01*
X7640000D01*
Y1120000D01*
D02*
G37*
G36*
X6660000D02*
X6420000D01*
Y730000D01*
X6660000D01*
Y1120000D01*
D02*
G37*
G36*
X9300000Y1453000D02*
X9100000D01*
Y1313000D01*
X9149021D01*
Y707648D01*
X9138256Y697915D01*
X9138000Y697949D01*
X9109284Y694169D01*
X9082525Y683085D01*
X9059547Y665453D01*
X9041915Y642475D01*
X9030832Y615716D01*
X9027051Y587000D01*
X9030832Y558284D01*
X9041915Y531525D01*
X9059547Y508547D01*
X9082525Y490915D01*
X9109284Y479832D01*
X9138000Y476051D01*
X9166716Y479832D01*
X9193475Y490915D01*
X9216453Y508547D01*
X9234085Y531525D01*
X9245168Y558284D01*
X9248949Y587000D01*
X9245168Y615716D01*
X9234085Y642475D01*
X9233657Y643032D01*
X9236048Y645424D01*
X9247099Y661963D01*
X9250980Y681472D01*
Y1313000D01*
X9300000D01*
Y1453000D01*
D02*
G37*
G36*
X9600000D02*
X9400001D01*
Y1313000D01*
X9449021D01*
Y716117D01*
X9425211Y692307D01*
X9420716Y694169D01*
X9392000Y697949D01*
X9363284Y694169D01*
X9336525Y683085D01*
X9313547Y665453D01*
X9295915Y642475D01*
X9284832Y615716D01*
X9281051Y587000D01*
X9284832Y558284D01*
X9295915Y531525D01*
X9313547Y508547D01*
X9336525Y490915D01*
X9363284Y479832D01*
X9392000Y476051D01*
X9420716Y479832D01*
X9447475Y490915D01*
X9470453Y508547D01*
X9488085Y531525D01*
X9499168Y558284D01*
X9502949Y587000D01*
X9499168Y615716D01*
X9497307Y620211D01*
X9536048Y658952D01*
X9547099Y675491D01*
X9550980Y695000D01*
Y1313000D01*
X9600000D01*
Y1453000D01*
D02*
G37*
G36*
X7250000Y675604D02*
X7231726Y673198D01*
X7214698Y666144D01*
X7200076Y654924D01*
X7188855Y640302D01*
X7181802Y623273D01*
X7179396Y605000D01*
X7181802Y586726D01*
X7188855Y569698D01*
X7200076Y555075D01*
X7214698Y543855D01*
X7231726Y536802D01*
X7250000Y534396D01*
X7268273Y536802D01*
X7285302Y543855D01*
X7299924Y555075D01*
X7311145Y569698D01*
X7318198Y586726D01*
X7320604Y605000D01*
X7318198Y623273D01*
X7311145Y640302D01*
X7299924Y654924D01*
X7285302Y666144D01*
X7268273Y673198D01*
X7250000Y675604D01*
D02*
G37*
G36*
X6810000D02*
X6791726Y673198D01*
X6774698Y666144D01*
X6760075Y654924D01*
X6748855Y640302D01*
X6741802Y623273D01*
X6739396Y605000D01*
X6741802Y586726D01*
X6748855Y569698D01*
X6760075Y555075D01*
X6774698Y543855D01*
X6791726Y536802D01*
X6810000Y534396D01*
X6828273Y536802D01*
X6845302Y543855D01*
X6859924Y555075D01*
X6871144Y569698D01*
X6878198Y586726D01*
X6880604Y605000D01*
X6878198Y623273D01*
X6871144Y640302D01*
X6859924Y654924D01*
X6845302Y666144D01*
X6828273Y673198D01*
X6810000Y675604D01*
D02*
G37*
G36*
X10500000Y1453000D02*
X10300000D01*
Y1313000D01*
X10349020D01*
Y1153255D01*
X10117952Y922186D01*
X10106901Y905647D01*
X10103020Y886138D01*
Y697000D01*
X10099000D01*
X10044000Y642000D01*
Y532000D01*
X10099000Y477000D01*
X10209000D01*
X10264000Y532000D01*
Y642000D01*
X10209000Y697000D01*
X10204980D01*
Y865022D01*
X10436048Y1096090D01*
X10447099Y1112629D01*
X10450980Y1132138D01*
Y1313000D01*
X10500000D01*
Y1453000D01*
D02*
G37*
G36*
X10200000D02*
X10000000D01*
Y1313000D01*
X10049021D01*
Y1177832D01*
X9863952Y992764D01*
X9852901Y976225D01*
X9849020Y956716D01*
Y684947D01*
X9844525Y683085D01*
X9821547Y665453D01*
X9803915Y642475D01*
X9792832Y615716D01*
X9789051Y587000D01*
X9792832Y558284D01*
X9803915Y531525D01*
X9821547Y508547D01*
X9844525Y490915D01*
X9871284Y479832D01*
X9900000Y476051D01*
X9928716Y479832D01*
X9955475Y490915D01*
X9978453Y508547D01*
X9996085Y531525D01*
X10007168Y558284D01*
X10010949Y587000D01*
X10007168Y615716D01*
X9996085Y642475D01*
X9978453Y665453D01*
X9955475Y683085D01*
X9950980Y684947D01*
Y935599D01*
X10136048Y1120668D01*
X10147099Y1137207D01*
X10150980Y1156716D01*
Y1313000D01*
X10200000D01*
Y1453000D01*
D02*
G37*
G36*
X9900000D02*
X9700000D01*
Y1313000D01*
X9749021D01*
Y1121117D01*
X9609952Y982048D01*
X9598901Y965509D01*
X9595020Y946000D01*
Y684947D01*
X9590525Y683085D01*
X9567547Y665453D01*
X9549915Y642475D01*
X9538832Y615716D01*
X9535051Y587000D01*
X9538832Y558284D01*
X9549915Y531525D01*
X9567547Y508547D01*
X9590525Y490915D01*
X9617284Y479832D01*
X9646000Y476051D01*
X9674716Y479832D01*
X9701475Y490915D01*
X9724453Y508547D01*
X9742085Y531525D01*
X9753168Y558284D01*
X9756949Y587000D01*
X9753168Y615716D01*
X9742085Y642475D01*
X9724453Y665453D01*
X9701475Y683085D01*
X9696980Y684947D01*
Y924884D01*
X9836048Y1063952D01*
X9847099Y1080491D01*
X9850980Y1100000D01*
Y1313000D01*
X9900000D01*
Y1453000D01*
D02*
G37*
G36*
X9000000D02*
X8800000D01*
Y1313000D01*
X8849020D01*
Y691574D01*
X8828525Y683085D01*
X8805547Y665453D01*
X8787915Y642475D01*
X8776832Y615716D01*
X8773051Y587000D01*
X8776832Y558284D01*
X8787915Y531525D01*
X8805547Y508547D01*
X8828525Y490915D01*
X8855284Y479832D01*
X8884000Y476051D01*
X8912716Y479832D01*
X8939475Y490915D01*
X8962453Y508547D01*
X8980085Y531525D01*
X8991168Y558284D01*
X8994949Y587000D01*
X8991168Y615716D01*
X8980085Y642475D01*
X8962453Y665453D01*
X8950980Y674257D01*
Y1313000D01*
X9000000D01*
Y1453000D01*
D02*
G37*
G36*
X8700000D02*
X8500000D01*
Y1313000D01*
X8549020D01*
Y662160D01*
X8533915Y642475D01*
X8522832Y615716D01*
X8519051Y587000D01*
X8522832Y558284D01*
X8533915Y531525D01*
X8551547Y508547D01*
X8574525Y490915D01*
X8601284Y479832D01*
X8630000Y476051D01*
X8658716Y479832D01*
X8685475Y490915D01*
X8708453Y508547D01*
X8726085Y531525D01*
X8737168Y558284D01*
X8740949Y587000D01*
X8737168Y615716D01*
X8726085Y642475D01*
X8708453Y665453D01*
X8685475Y683085D01*
X8658716Y694169D01*
X8650980Y695187D01*
Y1313000D01*
X8700000D01*
Y1453000D01*
D02*
G37*
G36*
X8400000D02*
X8200000D01*
Y1313000D01*
X8249021D01*
Y682147D01*
X8252901Y662639D01*
X8263952Y646100D01*
X8276301Y633750D01*
X8268832Y615716D01*
X8265051Y587000D01*
X8268832Y558284D01*
X8279915Y531525D01*
X8297547Y508547D01*
X8320525Y490915D01*
X8347284Y479832D01*
X8376000Y476051D01*
X8404716Y479832D01*
X8431475Y490915D01*
X8454453Y508547D01*
X8472085Y531525D01*
X8483168Y558284D01*
X8486949Y587000D01*
X8483168Y615716D01*
X8472085Y642475D01*
X8454453Y665453D01*
X8431475Y683085D01*
X8404716Y694169D01*
X8376000Y697949D01*
X8360641Y695927D01*
X8350980Y704813D01*
Y1313000D01*
X8400000D01*
Y1453000D01*
D02*
G37*
G36*
X3603500Y2065000D02*
X3456500D01*
Y1809000D01*
X3459396D01*
Y1320000D01*
X3030000D01*
Y1220392D01*
X2150000D01*
X2142196Y1218840D01*
X2135580Y1214419D01*
X2131160Y1207804D01*
X2129608Y1200000D01*
X2129608Y450000D01*
X2131160Y442196D01*
X2135580Y435581D01*
X2142196Y431160D01*
X2150000Y429608D01*
X3650000D01*
X3657803Y431160D01*
X3664419Y435581D01*
X3668839Y442196D01*
X3670391Y450000D01*
X3670392Y1200000D01*
X3668839Y1207804D01*
X3664419Y1214419D01*
X3657803Y1218840D01*
X3650000Y1220392D01*
X3600604D01*
Y1809000D01*
X3603500D01*
Y2065000D01*
D02*
G37*
G36*
X3943500D02*
X3796500D01*
Y1809000D01*
X3799396D01*
Y1220271D01*
X3792196Y1218839D01*
X3785581Y1214419D01*
X3781160Y1207803D01*
X3779608Y1200000D01*
X3779608Y450000D01*
X3781160Y442196D01*
X3785580Y435580D01*
X3792196Y431160D01*
X3800000Y429608D01*
X5900000Y429608D01*
X5907803Y431160D01*
X5914419Y435581D01*
X5918839Y442196D01*
X5920392Y450000D01*
X5920392Y1200000D01*
X5918840Y1207804D01*
X5914419Y1214419D01*
X5907804Y1218840D01*
X5900000Y1220392D01*
X4470000Y1220392D01*
Y1320000D01*
X4030000D01*
Y1220392D01*
X3940604D01*
Y1809000D01*
X3943500D01*
Y2065000D01*
D02*
G37*
G36*
X7640000Y635000D02*
X7400000D01*
Y195000D01*
X7640000D01*
Y635000D01*
D02*
G37*
G36*
X6660000D02*
X6420000D01*
Y195000D01*
X6660000D01*
Y635000D01*
D02*
G37*
%LPD*%
G36*
X14800000Y8700000D02*
Y8000000D01*
X1500000Y8000000D01*
X1250000Y7750000D01*
Y6100000D01*
X3200000D01*
Y5550000D01*
X3400000D01*
Y5050000D01*
X2900000D01*
X2700000Y5250000D01*
Y5550000D01*
X1950000D01*
X1950000Y2350000D01*
X1100000Y2350000D01*
X1100000Y4000000D01*
X200000Y4000000D01*
Y8700000D01*
X1500000D01*
X14800000Y8700000D01*
D02*
G37*
G36*
X3400000Y2350000D02*
Y1800000D01*
X2650000D01*
Y2462281D01*
X2650000Y2450000D01*
X2649999Y2450000D01*
X2650000Y2449999D01*
Y2350001D01*
X2650000Y2350000D01*
X1950000D01*
Y3100000D01*
X2650000D01*
X3400000Y2350000D01*
D02*
G37*
G36*
X3650000Y4500000D02*
Y4000000D01*
X2100000Y4000000D01*
Y4500000D01*
X3650000Y4500000D01*
D02*
G37*
G36*
X11050000Y4750000D02*
X11050000Y4499999D01*
X9500000Y4500000D01*
X9500000Y4750000D01*
X11050000Y4750000D01*
D02*
G37*
G36*
X9822485Y4314370D02*
X9814698Y4311145D01*
X9800076Y4299924D01*
X9788855Y4285302D01*
X9781802Y4268273D01*
X9779396Y4250000D01*
Y4035686D01*
X9564781D01*
X9515003Y4085465D01*
X9521259Y4097169D01*
X9537579Y4093923D01*
X9559039Y4098191D01*
X9577232Y4110347D01*
X9589387Y4128540D01*
X9593656Y4150000D01*
X9589387Y4171460D01*
X9577232Y4189653D01*
X9559039Y4201809D01*
X9561268Y4214314D01*
X9660358D01*
X9674822Y4204649D01*
X9696282Y4200380D01*
X9717742Y4204649D01*
X9735935Y4216805D01*
X9748091Y4234998D01*
X9752360Y4256458D01*
X9748091Y4277918D01*
X9735935Y4296111D01*
X9717742Y4308266D01*
X9696282Y4312535D01*
X9674822Y4308266D01*
X9656630Y4296111D01*
X9649664Y4285686D01*
X9573281D01*
X9568420Y4297419D01*
X9598071Y4327070D01*
X9819959D01*
X9822485Y4314370D01*
D02*
G37*
G36*
X5850000Y3900000D02*
X3800000D01*
Y4650000D01*
X5850000D01*
Y3900000D01*
D02*
G37*
G36*
X11750000Y2750000D02*
X11100000D01*
Y2950000D01*
X11750000D01*
Y2750000D01*
D02*
G37*
G36*
X13100000Y2725000D02*
X12450000D01*
Y3250000D01*
X13100000D01*
X13100000Y2725000D01*
D02*
G37*
G36*
X3650000Y450000D02*
X2150000D01*
X2150000Y1200000D01*
X3650000D01*
X3650000Y450000D01*
D02*
G37*
G36*
X5900000D02*
X3800000Y450000D01*
X3800000Y1200000D01*
X5900000Y1200000D01*
X5900000Y450000D01*
D02*
G37*
D10*
X8590500Y6470000D02*
D03*
X8463500D02*
D03*
X8336500D02*
D03*
X8209500D02*
D03*
Y5930000D02*
D03*
X8336500D02*
D03*
X8463500D02*
D03*
X8590500D02*
D03*
D11*
X8900000Y6850000D02*
D03*
Y6550000D02*
D03*
X9800000Y4950000D02*
D03*
Y4650000D02*
D03*
X10100000Y4950000D02*
D03*
Y4650000D02*
D03*
X10400000Y4950000D02*
D03*
Y4650000D02*
D03*
X10450000Y4000000D02*
D03*
Y4300000D02*
D03*
X5650000Y4550000D02*
D03*
Y4850000D02*
D03*
X11200000Y2850000D02*
D03*
Y3150000D02*
D03*
X8300000Y1683000D02*
D03*
Y1383000D02*
D03*
X8600000D02*
D03*
Y1683000D02*
D03*
X9200000D02*
D03*
Y1383000D02*
D03*
X9800000Y1683000D02*
D03*
Y1383000D02*
D03*
X10100000Y1683000D02*
D03*
Y1383000D02*
D03*
X10400000Y1683000D02*
D03*
Y1383000D02*
D03*
X8900000Y1683000D02*
D03*
Y1383000D02*
D03*
X9500000Y1683000D02*
D03*
Y1383000D02*
D03*
X14625000Y4150000D02*
D03*
Y3850000D02*
D03*
X14600000Y4400000D02*
D03*
Y4700000D02*
D03*
Y3550000D02*
D03*
Y3250000D02*
D03*
Y2950000D02*
D03*
Y2650000D02*
D03*
X11299999Y6150000D02*
D03*
Y5850000D02*
D03*
X14600000Y5000000D02*
D03*
Y5300000D02*
D03*
X5750000Y1400000D02*
D03*
Y1100000D02*
D03*
X13499998Y5850000D02*
D03*
Y6150000D02*
D03*
X13099998D02*
D03*
Y5850000D02*
D03*
X12699999Y6150000D02*
D03*
Y5850000D02*
D03*
X11699999Y6150000D02*
D03*
Y5850000D02*
D03*
X12099999Y6150000D02*
D03*
Y5850000D02*
D03*
D12*
X3200000Y4250000D02*
D03*
X4200000D02*
D03*
X3250000Y950000D02*
D03*
X4250000D02*
D03*
D13*
X6800000Y1750000D02*
D03*
X6500000D02*
D03*
X7400000Y5400000D02*
D03*
X7700000D02*
D03*
X10150000Y3700000D02*
D03*
X9850000D02*
D03*
X10150000Y4000000D02*
D03*
X9850000D02*
D03*
X9350000Y5500000D02*
D03*
X9050000D02*
D03*
X9400682Y3179199D02*
D03*
X9100682D02*
D03*
X7525000Y3500000D02*
D03*
X7225000D02*
D03*
X8350000Y5400000D02*
D03*
X8050000D02*
D03*
X7025000Y3800000D02*
D03*
X7325000D02*
D03*
X13300000Y3100000D02*
D03*
X13000000D02*
D03*
Y2800000D02*
D03*
X13300000D02*
D03*
X9550000Y6000000D02*
D03*
X9850000D02*
D03*
D14*
X8000000Y6750000D02*
D03*
Y6550000D02*
D03*
D15*
X2500000Y4830000D02*
D03*
Y4170000D02*
D03*
X2450000Y840000D02*
D03*
Y1500000D02*
D03*
D16*
X10127500Y6581000D02*
D03*
Y6454000D02*
D03*
Y6327000D02*
D03*
Y6200000D02*
D03*
Y6073000D02*
D03*
Y5946000D02*
D03*
Y5819000D02*
D03*
X10672500Y6581000D02*
D03*
Y6454000D02*
D03*
Y6327000D02*
D03*
Y6200000D02*
D03*
Y6073000D02*
D03*
Y5946000D02*
D03*
Y5819000D02*
D03*
D17*
X9275000Y3650000D02*
D03*
Y3700000D02*
D03*
X9275000Y3750000D02*
D03*
X9275000Y3800000D02*
D03*
Y3850000D02*
D03*
Y3900000D02*
D03*
Y3950000D02*
D03*
Y4000000D02*
D03*
Y4050000D02*
D03*
Y4100000D02*
D03*
Y4150000D02*
D03*
Y4200000D02*
D03*
Y4250000D02*
D03*
Y4300000D02*
D03*
X9275000Y4350000D02*
D03*
X9274999Y4400000D02*
D03*
X9275000Y4450000D02*
D03*
Y4500000D02*
D03*
Y4550000D02*
D03*
Y4600000D02*
D03*
Y4650000D02*
D03*
Y4700000D02*
D03*
Y4750000D02*
D03*
Y4800000D02*
D03*
Y4850000D02*
D03*
X7725000D02*
D03*
Y4800000D02*
D03*
X7725000Y4750000D02*
D03*
X7725000Y4700000D02*
D03*
Y4650000D02*
D03*
Y4600000D02*
D03*
Y4550000D02*
D03*
Y4500000D02*
D03*
Y4450000D02*
D03*
Y4400000D02*
D03*
Y4350000D02*
D03*
Y4300000D02*
D03*
Y4250000D02*
D03*
Y4200000D02*
D03*
X7725000Y4150000D02*
D03*
X7725001Y4100000D02*
D03*
X7725000Y4050000D02*
D03*
Y4000000D02*
D03*
Y3950000D02*
D03*
Y3900000D02*
D03*
Y3850000D02*
D03*
Y3800000D02*
D03*
Y3750000D02*
D03*
Y3700000D02*
D03*
Y3650000D02*
D03*
D18*
X9100000Y5025000D02*
D03*
X9050000D02*
D03*
X9000000Y5025000D02*
D03*
X8950000Y5025000D02*
D03*
X8900000D02*
D03*
X8850000D02*
D03*
X8800000D02*
D03*
X8750000D02*
D03*
X8700000D02*
D03*
X8650000D02*
D03*
X8600000D02*
D03*
X8550000D02*
D03*
X8500000D02*
D03*
X8450000D02*
D03*
X8400000Y5025000D02*
D03*
X8350000Y5024999D02*
D03*
X8300000Y5025000D02*
D03*
X8250000D02*
D03*
X8200000D02*
D03*
X8150000D02*
D03*
X8100000D02*
D03*
X8050000D02*
D03*
X8000000D02*
D03*
X7950000D02*
D03*
X7900000D02*
D03*
Y3475000D02*
D03*
X7950000D02*
D03*
X8000000Y3475000D02*
D03*
X8050000Y3475000D02*
D03*
X8100000D02*
D03*
X8150000D02*
D03*
X8200000D02*
D03*
X8250000D02*
D03*
X8300000D02*
D03*
X8350000D02*
D03*
X8400000D02*
D03*
X8450000D02*
D03*
X8500000D02*
D03*
X8550000D02*
D03*
X8600000Y3475000D02*
D03*
X8650000Y3475000D02*
D03*
X8700000Y3475000D02*
D03*
X8750000D02*
D03*
X8800000D02*
D03*
X8850000D02*
D03*
X8900000D02*
D03*
X8950000D02*
D03*
X9000000D02*
D03*
X9050000D02*
D03*
X9100000D02*
D03*
D19*
X12800000Y6600000D02*
D03*
X13127499D02*
D03*
X12099999D02*
D03*
X11772499D02*
D03*
D20*
X5988000Y6500000D02*
D03*
X6115000D02*
D03*
X6242000D02*
D03*
X6369000D02*
D03*
X6496000D02*
D03*
X6623000D02*
D03*
X6750000D02*
D03*
X6877000D02*
D03*
X7004000D02*
D03*
Y5560000D02*
D03*
X6877000D02*
D03*
X6750000D02*
D03*
X6623000D02*
D03*
X6496000D02*
D03*
X6369000D02*
D03*
X6242000D02*
D03*
X6115000D02*
D03*
X5988000D02*
D03*
D21*
X12570000Y2898500D02*
D03*
Y2771500D02*
D03*
Y2644500D02*
D03*
Y2517500D02*
D03*
Y2390500D02*
D03*
Y2263500D02*
D03*
Y2136500D02*
D03*
Y2009500D02*
D03*
Y1882500D02*
D03*
Y1755500D02*
D03*
Y1628500D02*
D03*
Y1501500D02*
D03*
X11630000D02*
D03*
Y1628500D02*
D03*
Y1755500D02*
D03*
Y1882500D02*
D03*
Y2009500D02*
D03*
Y2136500D02*
D03*
Y2263500D02*
D03*
Y2390500D02*
D03*
Y2517500D02*
D03*
Y2644500D02*
D03*
Y2771500D02*
D03*
Y2898500D02*
D03*
D22*
X3700000Y6254500D02*
D03*
Y3004500D02*
D03*
D23*
X3360000Y5187000D02*
D03*
X3530000D02*
D03*
X3700000D02*
D03*
X3870000D02*
D03*
X4040000D02*
D03*
X3360000Y1937000D02*
D03*
X3530000D02*
D03*
X3700000D02*
D03*
X3870000D02*
D03*
X4040000D02*
D03*
D24*
X7005000Y1930000D02*
D03*
X7100000D02*
D03*
X7195000D02*
D03*
Y1670000D02*
D03*
X7100000D02*
D03*
X7005000D02*
D03*
D25*
X6540000Y415000D02*
D03*
X7520000D02*
D03*
D26*
X6540000Y925000D02*
D03*
X7520000D02*
D03*
D27*
X7190000D02*
D03*
X7110000D02*
D03*
X7030000D02*
D03*
X6950000D02*
D03*
X6870000D02*
D03*
D28*
X9000000Y5229041D02*
X9010000Y5239041D01*
Y5460000D01*
X9015000Y5465000D01*
X9000000Y5025000D02*
Y5229041D01*
X7175000Y1650000D02*
X7195000Y1670000D01*
X6950000Y925000D02*
Y1010000D01*
X6970000Y1246568D02*
X7080000Y1356569D01*
X6970000Y1030000D02*
Y1246568D01*
X7080000Y1356569D02*
Y1573284D01*
X7040000Y1602574D02*
X7057574Y1585000D01*
X7005000Y1645000D02*
X7040000Y1610000D01*
X7005000Y1645000D02*
Y1670000D01*
X7120000Y1340000D02*
Y1573284D01*
X6950000Y1010000D02*
X6970000Y1030000D01*
X7131716Y1585000D02*
X7142426D01*
X7160000Y1602574D01*
X7120000Y1573284D02*
X7131716Y1585000D01*
X7010000Y1030000D02*
X7030000Y1010000D01*
Y925000D02*
Y1010000D01*
X7160000Y1602574D02*
Y1610000D01*
X7010000Y1030000D02*
Y1230000D01*
X7040000Y1602574D02*
Y1610000D01*
X7195000Y1645000D02*
Y1670000D01*
X7160000Y1610000D02*
X7195000Y1645000D01*
X7057574Y1585000D02*
X7068284D01*
X7080000Y1573284D01*
X7010000Y1230000D02*
X7120000Y1340000D01*
X14375000Y3725000D02*
X14500000Y3850000D01*
X14625000D01*
X14388530Y4325000D02*
X14423531Y4360000D01*
X14375000Y4325000D02*
X14388530D01*
X14560001Y4360000D02*
X14600000Y4400000D01*
X14423531Y4360000D02*
X14560001D01*
X14375000Y3725000D02*
X15144276D01*
X15257277Y3612000D01*
X15545706D01*
X15635091Y3522614D01*
X15719385D01*
X15750000Y3492000D01*
X14375000Y4325000D02*
X14458569Y4241430D01*
Y4144003D02*
Y4241430D01*
Y4144003D02*
X14578773Y4023799D01*
X15172726D01*
X15330527Y3866000D01*
X15630000D01*
X15750000Y3746000D01*
X14944250Y4755750D02*
Y4994250D01*
Y4755750D02*
X15312000Y4388000D01*
X15616000D01*
X15750000Y4254000D01*
X8295000Y6182500D02*
Y6254000D01*
Y6177500D02*
Y6182500D01*
X8462500Y5675000D02*
X8765000D01*
X8336500Y5801000D02*
Y5930000D01*
Y5801000D02*
X8462500Y5675000D01*
X8295000Y6254000D02*
X8463500Y6422500D01*
Y6470000D01*
X8765000Y5675000D02*
X8900000Y5540000D01*
Y5025000D02*
Y5540000D01*
X7438285Y4061716D02*
X7605001Y3895000D01*
X7023713Y1998713D02*
X7080000Y2055000D01*
X7605001Y3895000D02*
X7665000D01*
X7023713Y1948713D02*
Y1998713D01*
X7665000Y3895000D02*
X7665000Y3895000D01*
X7005000Y1930000D02*
X7023713Y1948713D01*
X7665000Y3895000D02*
X7720000D01*
X6610000Y3791569D02*
X6880147Y4061716D01*
X7080000Y2055000D02*
Y2643285D01*
X6880147Y4061716D02*
X7438285D01*
X6610000Y3113285D02*
X7080000Y2643285D01*
X7720000Y3895000D02*
X7725000Y3900000D01*
X6610000Y3113285D02*
Y3791569D01*
X6896715Y4021716D02*
X7421716D01*
X7588432Y3855000D02*
X7720000D01*
X7176287Y1948713D02*
Y1998714D01*
X7720000Y3855000D02*
X7725000Y3850000D01*
X6650000Y3129853D02*
Y3775000D01*
X7120000Y2055001D02*
Y2659853D01*
X6650000Y3129853D02*
X7120000Y2659853D01*
Y2055001D02*
X7176287Y1998714D01*
X7421716Y4021716D02*
X7588432Y3855000D01*
X6650000Y3775000D02*
X6896715Y4021716D01*
X7176287Y1948713D02*
X7195000Y1930000D01*
X7075635Y1800000D02*
X7097280Y1821644D01*
X6800000Y1760000D02*
X6840000Y1800000D01*
X7075635D01*
X6800000Y1537117D02*
Y1760000D01*
X6870000Y925000D02*
Y1467117D01*
X6800000Y1537117D02*
X6870000Y1467117D01*
X7100000Y1825000D02*
Y1930000D01*
D29*
X14605750Y4994250D02*
X14944250D01*
X14600000Y5000000D02*
X14605750Y4994250D01*
X8702500Y5497500D02*
X8850000Y5350000D01*
Y5025000D02*
Y5350000D01*
X8209500Y5805500D02*
X8800000Y5215000D01*
Y5025000D02*
Y5215000D01*
X8209500Y5805500D02*
Y5930000D01*
X8897500Y6552500D02*
X8912500D01*
X8950000Y5025000D02*
Y6515000D01*
X8912500Y6552500D02*
X8950000Y6515000D01*
X9015000Y5465000D02*
X9050000Y5500000D01*
X7360000Y3750000D02*
X7725000D01*
X7325000Y3785000D02*
X7360000Y3750000D01*
X7325000Y3785000D02*
Y3800000D01*
X7225000Y3500000D02*
Y3600000D01*
X9100000Y3181352D02*
Y3475000D01*
Y3150000D02*
Y3181352D01*
X7225000Y3600000D02*
X7275000Y3650000D01*
X12192000Y1021000D02*
Y2267000D01*
X12315500Y2390500D02*
X12570000D01*
X12192000Y2267000D02*
X12315500Y2390500D01*
X14275000Y3435776D02*
X14460776Y3250000D01*
X14275000Y3435776D02*
Y4000000D01*
X14460776Y3250000D02*
X14600000D01*
X14635001Y3215000D01*
X11157938Y2400000D02*
X11275438Y2517500D01*
X9200000Y2400000D02*
X11157938D01*
X11275438Y2517500D02*
X11630000D01*
X11150000Y2525000D02*
X11269500Y2644500D01*
X9175000Y2525000D02*
X11150000D01*
X11269500Y2644500D02*
X11630000D01*
X8500000Y3200000D02*
X9175000Y2525000D01*
X9100000Y2800000D02*
X9650000D01*
X8600000Y3300000D02*
X9100000Y2800000D01*
X9150000Y2650000D02*
X10375000D01*
X8550000Y3250000D02*
X9150000Y2650000D01*
X10375000D02*
X10475000Y2750000D01*
X8600000Y3300000D02*
Y3475000D01*
X8450000Y3150000D02*
X9200000Y2400000D01*
X8300000Y3875000D02*
X8425000Y4000000D01*
X7950000Y3600000D02*
X8150000Y3800000D01*
X8550000D01*
X7950000Y3475000D02*
Y3600000D01*
X7900000Y3650000D02*
X8125000Y3875000D01*
X8300000D01*
X7875000Y3800000D02*
X8125000Y4050000D01*
X7725000Y3800000D02*
X7875000D01*
X7900000Y3475000D02*
Y3650000D01*
X8550000Y4550000D02*
Y5025000D01*
X8800000Y4600000D02*
Y4650000D01*
X8600000Y4850000D02*
X8800000Y4650000D01*
X8600000Y4850000D02*
Y5025000D01*
X7275000Y3650000D02*
X7725000D01*
X7900000Y5025000D02*
Y5170000D01*
X7723465Y5346535D02*
X7900000Y5170000D01*
X7723465Y5346535D02*
Y5393032D01*
X7950000Y5025000D02*
Y5270000D01*
X8050000Y5370000D01*
Y5400000D01*
X9520534Y4300000D02*
X9583290Y4362756D01*
X9275000Y4300000D02*
X9520534D01*
X9583290Y4362756D02*
X9970267D01*
X9998022Y4335000D01*
X10415000D01*
X10450000Y4300000D01*
X11000000D01*
X9689824Y4250000D02*
X9696282Y4256458D01*
X9275000Y4250000D02*
X9689824D01*
X9525157Y4150000D02*
X9537579D01*
X9475158Y4200000D02*
X9525157Y4150000D01*
X9275000Y4200000D02*
X9475158D01*
X9550000Y4000000D02*
X9850000D01*
X9275000Y4150000D02*
X9400000D01*
X9550000Y4000000D01*
X9275000Y4700000D02*
X9550000D01*
X9550000Y4700000D01*
X9275000Y4650000D02*
X9550000D01*
X9275000Y4550000D02*
X9550000D01*
X9550000Y4550000D01*
X9700000Y3700000D02*
X9850000D01*
X9500000Y3900000D02*
X9700000Y3700000D01*
X9275000Y3900000D02*
X9500000D01*
X8550000Y3250000D02*
Y3475000D01*
X8500000Y3200000D02*
Y3475000D01*
X8450000Y3150000D02*
Y3475000D01*
X8400000Y3100000D02*
X9200000Y2300000D01*
X8400000Y3100000D02*
Y3475000D01*
X9200000Y2300000D02*
X10200000D01*
X9300000Y2100000D02*
X9943618D01*
X8350000Y3050000D02*
Y3475000D01*
Y3050000D02*
X9300000Y2100000D01*
X9366732Y1933268D02*
X9666731D01*
X8300000Y3000000D02*
Y3475000D01*
Y3000000D02*
X9366732Y1933268D01*
X14600000Y2650000D02*
X14908122D01*
X15115614Y2857493D02*
X15623492D01*
X14908122Y2650000D02*
X15115614Y2857493D01*
X15623492D02*
X15750000Y2984000D01*
X15162669Y3110648D02*
X15622649D01*
X15058318Y3215000D02*
X15162669Y3110648D01*
X15622649D02*
X15750000Y3238000D01*
X14635001Y3215000D02*
X15058318D01*
X11684000Y1021000D02*
Y1184000D01*
X12000000Y1500000D02*
Y2300000D01*
X11684000Y1184000D02*
X12000000Y1500000D01*
X12217500Y2517500D02*
X12570000D01*
X12000000Y2300000D02*
X12217500Y2517500D01*
X10100000Y1683000D02*
Y1943618D01*
X9943618Y2100000D02*
X10100000Y1943618D01*
X9800000Y1683000D02*
Y1800000D01*
X9666731Y1933268D02*
X9800000Y1800000D01*
X8250000Y2950000D02*
Y3475000D01*
X9476681Y1683000D02*
X9500000D01*
X9441681Y1718000D02*
X9476681Y1683000D01*
X9441681Y1718000D02*
Y1758320D01*
X8250000Y2950000D02*
X9441681Y1758320D01*
X8050000Y2071427D02*
X8300000Y1821426D01*
X8050000Y2071427D02*
Y3475000D01*
X8300000Y1683000D02*
Y1821426D01*
X8100000Y2400000D02*
Y3475000D01*
X8600000Y1683000D02*
Y1900000D01*
X8100000Y2400000D02*
X8600000Y1900000D01*
X8900000Y1683000D02*
Y1900000D01*
X8150000Y2650000D02*
X8900000Y1900000D01*
X8150000Y2650000D02*
Y3475000D01*
X8200000Y2824937D02*
X9200000Y1824937D01*
Y1683000D02*
Y1824937D01*
X8200000Y2824937D02*
Y3475000D01*
X10200000Y2300000D02*
X10400000Y2100000D01*
Y1683000D02*
X10400000Y1683000D01*
X10400000Y1683000D02*
Y2100000D01*
X7050000Y4850000D02*
X7725000D01*
X6877000Y5023000D02*
Y5560000D01*
Y5023000D02*
X7050000Y4850000D01*
X6750000Y4950000D02*
X6900000Y4800000D01*
X7725000D01*
X6750000Y4950000D02*
Y5560000D01*
X6750000Y4750000D02*
X7725000D01*
X6623000Y4877000D02*
Y5560000D01*
Y4877000D02*
X6750000Y4750000D01*
X6650000Y4650000D02*
X7725000D01*
X6369000Y4931000D02*
Y5560000D01*
Y4931000D02*
X6650000Y4650000D01*
X6496000Y4902398D02*
Y5560000D01*
Y4902398D02*
X6698398Y4700000D01*
X7725000D01*
X6600000Y4600000D02*
X7725000D01*
X6242000Y4958000D02*
Y5560000D01*
Y4958000D02*
X6600000Y4600000D01*
X6400000Y4500000D02*
X7725000D01*
X5988000Y4912000D02*
Y5560000D01*
Y4912000D02*
X6400000Y4500000D01*
X6115000Y4985000D02*
X6550000Y4550000D01*
X6115000Y4985000D02*
Y5560000D01*
X6550000Y4550000D02*
X7725000D01*
D30*
X13750000Y9250000D02*
X14500000D01*
X15147501Y9755000D02*
Y10610500D01*
X14500000Y9250000D02*
X14642500D01*
X14758000Y11000000D02*
X15147501Y10610500D01*
X14642500Y9250000D02*
X15147501Y9755000D01*
X13750000Y9750000D02*
X14652499D01*
X14847501Y9945000D01*
Y10402500D01*
X14250000Y11000000D02*
X14847501Y10402500D01*
X12499999Y11000000D02*
X13002499Y10497499D01*
X12829854Y9761480D02*
X13002499Y9934126D01*
Y10497499D01*
X12761480Y9761480D02*
X12829854D01*
X12750000Y9750000D02*
X12761480Y9761480D01*
X12000000Y9750000D02*
X12750000D01*
X13007999Y11000000D02*
X13212500Y10795499D01*
X12816479Y9261480D02*
X13212500Y9657500D01*
Y10795499D01*
X12750000Y9250000D02*
X12761480Y9261480D01*
X12816479D01*
X12000000Y9250000D02*
X12750000D01*
X10741999Y11000000D02*
X10774471D01*
X10834471Y10940000D02*
X10845000D01*
X11275000Y10025000D02*
Y10510000D01*
X10774471Y11000000D02*
X10834471Y10940000D01*
X10845000D02*
X11275000Y10510000D01*
X11000000Y9750000D02*
X11275000Y10025000D01*
X11437500Y9687500D02*
Y10812499D01*
X11249999Y11000000D02*
X11437500Y10812499D01*
X11000000Y9250000D02*
X11437500Y9687500D01*
X10250000Y9250000D02*
X11000000D01*
X9250000Y9750000D02*
X9515000Y10015000D01*
X8999999Y11000000D02*
X9515000Y10484999D01*
Y10015000D02*
Y10484999D01*
X9250000Y9250000D02*
X9565000D01*
X9507999Y11000000D02*
X9720000Y10787999D01*
X9565000Y9250000D02*
X9720000Y9405000D01*
Y10787999D01*
X8500000Y9250000D02*
X9250000D01*
X6750000Y9750000D02*
X7657500D01*
X7750000Y9842500D02*
Y10508000D01*
X7657500Y9750000D02*
X7750000Y9842500D01*
X7500000Y9250000D02*
X7732500D01*
X7950000Y9467500D02*
Y10815999D01*
X7732500Y9250000D02*
X7950000Y9467500D01*
X6750000Y9250000D02*
X7500000D01*
X5846480Y9761480D02*
X5992500Y9907500D01*
X5761480Y9761480D02*
X5846480D01*
X5992500Y9907500D02*
Y10499499D01*
X5750000Y9750000D02*
X5761480Y9761480D01*
X5000000Y9750000D02*
X5750000D01*
X5491999Y11000000D02*
X5992500Y10499499D01*
X5750000Y9250000D02*
X5761480Y9261480D01*
X5848980D02*
X6150000Y9562500D01*
Y10850000D01*
X5761480Y9261480D02*
X5848980D01*
X5000000Y9250000D02*
X5750000D01*
X4232500Y10042500D02*
Y10517500D01*
X4011480Y9821480D02*
X4232500Y10042500D01*
X3750000Y11000000D02*
X4232500Y10517500D01*
X4011480Y9761480D02*
Y9821480D01*
X4157500Y9250000D02*
X4400000Y9492500D01*
X3250000Y9250000D02*
X4157500D01*
X4400000Y9492500D02*
Y10858000D01*
X2261480Y9761480D02*
X2341480D01*
X2000000Y11000000D02*
X2507500Y10492500D01*
Y9927500D02*
Y10492500D01*
X2341480Y9761480D02*
X2507500Y9927500D01*
X2250000Y9750000D02*
X2261480Y9761480D01*
X1500000Y9750000D02*
X2250000D01*
X2296236Y9280000D02*
X2310000D01*
X1500000Y9250000D02*
X2266236D01*
X2700000Y9670000D02*
Y10808000D01*
X2266236Y9250000D02*
X2296236Y9280000D01*
X2310000D02*
X2700000Y9670000D01*
X13750000Y10250000D02*
X14500000D01*
X8500000Y9750000D02*
X9250000D01*
X9051140Y5651141D02*
X9200000Y5800000D01*
X9051140Y5501140D02*
Y5651141D01*
X9050000Y5500000D02*
X9051140Y5501140D01*
X14600000Y2950000D02*
X14842694D01*
X14892694Y3000000D01*
X14900000D01*
X9100682Y3179199D02*
Y3181352D01*
Y3176866D02*
Y3179199D01*
X9100000Y3181352D02*
X9100682D01*
X8868491D02*
X9100000D01*
X13000000Y2125000D02*
Y2800000D01*
X14600000Y2425000D02*
Y2650000D01*
X14625000Y4150000D02*
X14825000D01*
X14825000Y4150000D01*
X12099999Y5850000D02*
X12699999D01*
X9850000Y3500000D02*
Y3700000D01*
X8866338Y3183504D02*
X8868491Y3181352D01*
X11000000Y2850000D02*
X11200000D01*
X11000000Y2850000D02*
X11000000Y2850000D01*
X14600000Y3550000D02*
X14850000D01*
X9350000Y5500000D02*
X9550000D01*
X9350000Y6000000D02*
X9550000D01*
X10400000Y4950000D02*
Y5200000D01*
X10100000Y4950000D02*
Y5200000D01*
X9800000Y4950000D02*
Y5200000D01*
X4040000Y1667306D02*
Y1937000D01*
Y1667306D02*
X4050000Y1657306D01*
Y1650000D02*
Y1657306D01*
X3700000Y1650000D02*
Y1937000D01*
X4040000Y4917306D02*
Y5187000D01*
Y4917306D02*
X4050000Y4907306D01*
Y4900000D02*
Y4907306D01*
X3700000Y4900000D02*
Y5187000D01*
X14600000Y5300000D02*
X14850000D01*
X14850000Y5300000D01*
X9850000Y4000000D02*
Y4250000D01*
X7857306Y6750000D02*
X8000000D01*
X7807306Y6800000D02*
X7857306Y6750000D01*
X7800000Y6800000D02*
X7807306D01*
X7700000Y5400000D02*
Y5650000D01*
X7224913Y3317340D02*
Y3499913D01*
X7225000Y3500000D01*
X10250000Y9750000D02*
X11000000D01*
X10250000Y10250000D02*
X11000000D01*
X10242000Y10258001D02*
X10250000Y10250000D01*
X10242000Y10258001D02*
Y10992000D01*
X10233999Y11000000D02*
X10242000Y10992000D01*
X7257999Y11000000D02*
X7750000Y10508000D01*
X7765999Y11000000D02*
X7950000Y10815999D01*
X8500000Y10250000D02*
X9250000D01*
X8496000Y10254001D02*
X8500000Y10250000D01*
X8496000Y10254001D02*
Y10996000D01*
X8491999Y11000000D02*
X8496000Y10996000D01*
X6750000Y10250000D02*
X6750000Y10250000D01*
X6750000Y10250000D02*
Y11000000D01*
X6749999Y11000000D02*
X6750000Y11000000D01*
X2508000Y11000000D02*
X2700000Y10808000D01*
X4258000Y11000000D02*
X4400000Y10858000D01*
X5999999Y11000000D02*
X6150000Y10850000D01*
X6750000Y10250000D02*
X7500000D01*
X4992000Y10258000D02*
X5000000Y10250000D01*
X4992000Y10258000D02*
Y10992000D01*
X4983999Y11000000D02*
X4992000Y10992000D01*
X5000000Y10250000D02*
X5750000D01*
X3250000Y9750000D02*
X4000000D01*
X3246000Y10254000D02*
X3250000Y10250000D01*
X3246000Y10254000D02*
Y10996000D01*
X3242000Y11000000D02*
X3246000Y10996000D01*
X3250000Y10250000D02*
X4000000D01*
Y9750000D02*
X4011480Y9761480D01*
X1500000Y10250000D02*
X2250000D01*
X1496000Y10254000D02*
X1500000Y10250000D01*
X1496000Y10254000D02*
Y10996000D01*
X1492000Y11000000D02*
X1496000Y10996000D01*
X3870000Y1050000D02*
Y1937000D01*
X3530000Y1030000D02*
Y1937000D01*
X3500000Y1000000D02*
X3530000Y1030000D01*
X3870000Y4525000D02*
X4145000Y4250000D01*
X3870000Y4525000D02*
Y5187000D01*
X3530000Y4320000D02*
Y5187000D01*
Y4320000D02*
X3550000Y4300000D01*
X11996000Y10254000D02*
X12000000Y10250000D01*
X11996000Y10254000D02*
Y10996000D01*
X11991999Y11000000D02*
X11996000Y10996000D01*
X12000000Y10250000D02*
X12750000D01*
X13746001Y10254000D02*
X13750000Y10250000D01*
X13746001Y10254000D02*
Y10996000D01*
X13742000Y11000000D02*
X13746001Y10996000D01*
D31*
X8777148Y5895278D02*
X8807420D01*
X8463500Y5845000D02*
X8726870D01*
X8777148Y5895278D01*
X8677581Y6870000D02*
X8880000D01*
X8661258Y6853677D02*
X8677581Y6870000D01*
X8880000D02*
X8900000Y6850000D01*
X13150000Y5800000D02*
X14125000Y4824999D01*
X14192000Y1021000D02*
Y1064296D01*
X14125000Y1131296D02*
X14192000Y1064296D01*
X14125000Y1131296D02*
Y4824999D01*
X12699999Y5850000D02*
X12700000Y5850000D01*
Y5625000D02*
Y5850000D01*
Y5625000D02*
X12700000Y5625000D01*
X12099999Y5850000D02*
X12100000Y5850000D01*
Y5625000D02*
Y5850000D01*
Y5625000D02*
X12100000Y5625000D01*
X7004000Y6500000D02*
Y6846000D01*
X6877000Y6500000D02*
Y7014853D01*
X6912147Y7050000D01*
X12550000D01*
X10450000Y6200000D02*
X10672500D01*
X10670500Y5948000D02*
X10672500Y5946000D01*
X10452000Y5948000D02*
X10670500D01*
X10450000Y5950000D02*
X10452000Y5948000D01*
X9850000Y6000000D02*
Y6350000D01*
X9850000Y6000000D02*
X9850000Y6000000D01*
X13099998Y5850000D02*
X13129999D01*
X13150000Y5830000D01*
Y5800000D02*
Y5830000D01*
X13684000Y1021000D02*
X13700000Y1037000D01*
Y3750000D01*
X11740000Y5710000D02*
X13700000Y3750000D01*
X11720000Y5850000D02*
X11729999D01*
X11699999D02*
X11720000D01*
X11740000Y5830000D01*
Y5710000D02*
Y5830000D01*
X8336500Y6555000D02*
Y6714853D01*
X8000000Y6750000D02*
X8301353D01*
X8336500Y6714853D01*
X12550000Y7050000D02*
X13250000Y7750000D01*
X11400000Y7150000D02*
X12000000Y7750000D01*
X6750000Y6500000D02*
Y7114853D01*
X6785147Y7150000D01*
X11400000D01*
X10214853Y7300000D02*
X10250000Y7335147D01*
X6623000Y7264853D02*
X6658147Y7300000D01*
X10250000Y7335147D02*
Y7750000D01*
X6623000Y6500000D02*
Y7264853D01*
X6658147Y7300000D02*
X10214853D01*
X6496000Y7296000D02*
X6685375Y7485375D01*
X8235375D01*
X6496000Y6500000D02*
Y7296000D01*
X9850000Y5901232D02*
X9932232Y5819000D01*
X9850000Y5901232D02*
Y6000000D01*
X9932232Y5819000D02*
X10127500D01*
X13250000Y7750000D02*
X13750000D01*
X8300000Y682147D02*
Y1383000D01*
Y682147D02*
X8376000Y606148D01*
Y587000D02*
Y606148D01*
X8600000Y649472D02*
Y1383000D01*
X8630000Y587000D02*
Y619472D01*
X8600000Y649472D02*
X8630000Y619472D01*
X8900000Y603000D02*
Y1383000D01*
X8884000Y587000D02*
X8900000Y603000D01*
X9138000Y587000D02*
Y619472D01*
X9200000Y681472D01*
Y1383000D01*
X9392000Y587000D02*
X9500000Y695000D01*
Y1383000D01*
X9800000Y1100000D02*
Y1383000D01*
X9646000Y946000D02*
X9800000Y1100000D01*
X9646000Y587000D02*
Y946000D01*
X9900000Y956716D02*
X10100000Y1156716D01*
Y1383000D01*
X9900000Y587000D02*
Y956716D01*
X10154000Y886138D02*
X10400000Y1132138D01*
Y1383000D02*
X10400000Y1383000D01*
X10400000Y1132138D02*
Y1383000D01*
X10154000Y587000D02*
Y886138D01*
X11729999Y5850000D02*
X12009999Y6130000D01*
X12079999D01*
X12099999Y6150000D01*
X12699999D02*
Y6484500D01*
X12800000Y6584500D01*
Y6600000D01*
X12699999Y6150000D02*
X12729999D01*
X13009999Y5870000D01*
X13079999D01*
X13099998Y5850000D01*
X12099999Y6150000D02*
Y6600000D01*
X8235375Y7485375D02*
X8500000Y7750000D01*
X6369000Y7369000D02*
X6750000Y7750000D01*
X6369000Y6500000D02*
Y7369000D01*
X5000000Y7379489D02*
X5230556Y7148933D01*
X6101698D02*
X6242000Y7008631D01*
X5230556Y7148933D02*
X6101698D01*
X5000000Y7379489D02*
Y7750000D01*
X6242000Y6500000D02*
Y7008631D01*
X6000000Y7000000D02*
X6115000Y6885000D01*
Y6500000D02*
Y6885000D01*
X3400000Y7000000D02*
X6000000D01*
X3250000Y7150000D02*
Y7750000D01*
Y7150000D02*
X3400000Y7000000D01*
X5988000Y6500000D02*
Y6712000D01*
X5900000Y6800000D02*
X5988000Y6712000D01*
X1871236Y6800000D02*
X5900000D01*
X1500000Y7171236D02*
Y7750000D01*
Y7171236D02*
X1871236Y6800000D01*
D32*
X8593000Y6552500D02*
X8897500D01*
X8590500Y6555000D02*
X8593000Y6552500D01*
X11699999Y6150000D02*
Y6512000D01*
X11772499Y6584500D01*
Y6600000D01*
X11299999Y6150000D02*
X11699999D01*
X13099998D02*
Y6740395D01*
Y6150000D02*
X13499998D01*
X11563827Y6763826D02*
X13076569D01*
X10873000Y6073000D02*
X11563827Y6763826D01*
X10672500Y6073000D02*
X10873000D01*
X10672500Y5819000D02*
X10819000D01*
X11150000Y6150000D01*
X11299999D01*
D33*
X14500000Y7750000D02*
Y8100000D01*
X14400000Y8200000D02*
X14500000Y8100000D01*
X12750000Y7750000D02*
Y8150000D01*
X12800000Y8200000D01*
X11000000Y7750000D02*
Y8300000D01*
X9250000Y7750000D02*
Y8250000D01*
X9200000Y8300000D02*
X9250000Y8250000D01*
X7500000Y7750000D02*
Y8200000D01*
X5750000Y7750000D02*
Y8150000D01*
X5700000Y8200000D02*
X5750000Y8150000D01*
X4000000Y7750000D02*
Y8200000D01*
X2250000Y7750000D02*
Y8250000D01*
X2200000Y8300000D02*
X2250000Y8250000D01*
D34*
X15496001Y3492000D02*
D03*
X15750000D02*
D03*
X15496001Y3238000D02*
D03*
X15750000D02*
D03*
X15496001Y2984000D02*
D03*
X15750000D02*
D03*
X15496001Y2730000D02*
D03*
X15750000Y3746000D02*
D03*
X15496001D02*
D03*
X15750000Y4000000D02*
D03*
X15496001D02*
D03*
X15750000Y4254000D02*
D03*
X15496001D02*
D03*
X15750000Y4508000D02*
D03*
X15496001D02*
D03*
Y4762000D02*
D03*
X15750000D02*
D03*
Y5016000D02*
D03*
X15496001D02*
D03*
X2500000Y5350000D02*
D03*
X8376000Y333000D02*
D03*
Y587000D02*
D03*
X8630000Y333000D02*
D03*
Y587000D02*
D03*
X8884000Y333000D02*
D03*
Y587000D02*
D03*
X9138000Y333000D02*
D03*
Y587000D02*
D03*
X10154000Y333000D02*
D03*
X9900000Y587000D02*
D03*
Y333000D02*
D03*
X9646000Y587000D02*
D03*
Y333000D02*
D03*
X9392000Y587000D02*
D03*
Y333000D02*
D03*
X5000000Y1550000D02*
D03*
X2500000Y2650000D02*
D03*
X4950000Y5000000D02*
D03*
D35*
X15750000Y2730000D02*
D03*
X2500000Y5850000D02*
D03*
X5000000Y1050000D02*
D03*
X2500000Y2150000D02*
D03*
X4950000Y4500000D02*
D03*
D36*
X13742000Y11000000D02*
D03*
X14250000D02*
D03*
X14758000D02*
D03*
X11991999D02*
D03*
X12499999D02*
D03*
X13007999D02*
D03*
X10233999D02*
D03*
X10741999D02*
D03*
X11249999D02*
D03*
X8491999D02*
D03*
X8999999D02*
D03*
X9507999D02*
D03*
X6749999D02*
D03*
X7257999D02*
D03*
X7765999D02*
D03*
X4983999D02*
D03*
X5491999D02*
D03*
X5999999D02*
D03*
X3242000D02*
D03*
X3750000D02*
D03*
X4258000D02*
D03*
X1492000D02*
D03*
X2000000D02*
D03*
X2508000D02*
D03*
X14700000Y1021000D02*
D03*
X14192000D02*
D03*
X13684000D02*
D03*
X12700000D02*
D03*
X12192000D02*
D03*
X11684000D02*
D03*
X500000Y4150000D02*
D03*
Y3800000D02*
D03*
D37*
X10154000Y587000D02*
D03*
D38*
X14500000Y9250000D02*
D03*
Y10250000D02*
D03*
Y7750000D02*
D03*
Y9750000D02*
D03*
X13750000D02*
D03*
Y9250000D02*
D03*
Y7750000D02*
D03*
Y10250000D02*
D03*
X2250000Y9250000D02*
D03*
Y10250000D02*
D03*
Y7750000D02*
D03*
Y9750000D02*
D03*
X1500000D02*
D03*
Y9250000D02*
D03*
Y7750000D02*
D03*
Y10250000D02*
D03*
X4000000Y9250000D02*
D03*
Y10250000D02*
D03*
Y7750000D02*
D03*
Y9750000D02*
D03*
X3250000D02*
D03*
Y9250000D02*
D03*
Y7750000D02*
D03*
Y10250000D02*
D03*
X5750000Y9250000D02*
D03*
Y10250000D02*
D03*
Y7750000D02*
D03*
Y9750000D02*
D03*
X5000000D02*
D03*
Y9250000D02*
D03*
Y7750000D02*
D03*
Y10250000D02*
D03*
X7500000Y9250000D02*
D03*
Y10250000D02*
D03*
Y7750000D02*
D03*
Y9750000D02*
D03*
X6750000D02*
D03*
Y9250000D02*
D03*
Y7750000D02*
D03*
Y10250000D02*
D03*
X9250000Y9250000D02*
D03*
Y10250000D02*
D03*
Y7750000D02*
D03*
Y9750000D02*
D03*
X8500000D02*
D03*
Y9250000D02*
D03*
Y7750000D02*
D03*
Y10250000D02*
D03*
X12750000Y9250000D02*
D03*
Y10250000D02*
D03*
Y7750000D02*
D03*
Y9750000D02*
D03*
X12000000D02*
D03*
Y9250000D02*
D03*
Y7750000D02*
D03*
Y10250000D02*
D03*
X11000000Y9250000D02*
D03*
Y10250000D02*
D03*
Y7750000D02*
D03*
Y9750000D02*
D03*
X10250000D02*
D03*
Y9250000D02*
D03*
Y7750000D02*
D03*
Y10250000D02*
D03*
D39*
X500000Y11250000D02*
D03*
X750000Y750000D02*
D03*
X15750000D02*
D03*
Y11250000D02*
D03*
D40*
X8295000Y6182500D02*
D03*
X8702500Y5497500D02*
D03*
X8365000Y5230000D02*
D03*
X8000000Y6350000D02*
D03*
X8800000Y5900000D02*
D03*
X9200000Y5800000D02*
D03*
X8661258Y6853677D02*
D03*
X14900000Y3000000D02*
D03*
X13000000Y2125000D02*
D03*
X6300000Y1750000D02*
D03*
X14600000Y2425000D02*
D03*
X14375000Y3725000D02*
D03*
X14275000Y4000000D02*
D03*
X14825000Y4150000D02*
D03*
X14944250Y4994250D02*
D03*
X14375000Y4325000D02*
D03*
X12825000Y3100000D02*
D03*
X12575000D02*
D03*
X12700000Y5625000D02*
D03*
X12100000D02*
D03*
X7004000Y6846000D02*
D03*
X7950000Y8125000D02*
D03*
Y8350000D02*
D03*
X9650000Y2800000D02*
D03*
X9850000Y3500000D02*
D03*
X8866338Y3183504D02*
D03*
X9600000Y3200000D02*
D03*
X8575000Y3800000D02*
D03*
X8425000Y4000000D02*
D03*
X8125000Y4050000D02*
D03*
X11200079Y3349921D02*
D03*
X11000000Y2850000D02*
D03*
X13500000Y2838500D02*
D03*
Y3100000D02*
D03*
X14850000Y3550000D02*
D03*
X10475000Y2750000D02*
D03*
X10450000Y5950000D02*
D03*
Y6200000D02*
D03*
X9850000Y6350000D02*
D03*
X9550000Y5500000D02*
D03*
X8550000Y4550000D02*
D03*
X8800000Y4600000D02*
D03*
X10450000Y300000D02*
D03*
X8100000D02*
D03*
X14700000Y800000D02*
D03*
X12700000D02*
D03*
X14800000Y4700000D02*
D03*
X11000000Y4300000D02*
D03*
X5600000Y4000000D02*
D03*
X5350000D02*
D03*
X5600000Y4250000D02*
D03*
X5350000D02*
D03*
X7800000Y6800000D02*
D03*
X14850000Y5300000D02*
D03*
X9850000Y4250000D02*
D03*
X10650000Y4650000D02*
D03*
X10900000D02*
D03*
X7700000Y5650000D02*
D03*
X9800000Y5200000D02*
D03*
X10100000D02*
D03*
X10400000D02*
D03*
X10550000Y3700000D02*
D03*
X10350000D02*
D03*
X7525000Y3300000D02*
D03*
X7200000Y1225000D02*
D03*
X13550000Y5650000D02*
D03*
X11300000D02*
D03*
X9350000Y6000000D02*
D03*
X7200000Y5400000D02*
D03*
X7224913Y3317340D02*
D03*
X9696282Y4256458D02*
D03*
X9537579Y4150000D02*
D03*
X5500000Y650000D02*
D03*
X5750000D02*
D03*
Y900000D02*
D03*
X5500000D02*
D03*
X5750000Y1650000D02*
D03*
X4050000Y4900000D02*
D03*
X3700000D02*
D03*
Y1650000D02*
D03*
X4050000D02*
D03*
X5300000Y1950000D02*
D03*
X5000000D02*
D03*
X4650000D02*
D03*
X5300000Y5400000D02*
D03*
X4650000D02*
D03*
X4950000D02*
D03*
X2800000Y5000000D02*
D03*
X2200000D02*
D03*
X2550000Y1750000D02*
D03*
X2200000D02*
D03*
X3950000Y3200000D02*
D03*
Y2850000D02*
D03*
X3700000D02*
D03*
Y3200000D02*
D03*
X3450000Y2850000D02*
D03*
Y3200000D02*
D03*
X3950000Y6150000D02*
D03*
X3700000D02*
D03*
X3450000D02*
D03*
X3950000Y6450000D02*
D03*
X3700000D02*
D03*
X3450000D02*
D03*
%TF.MD5,f9708b61174a7766005924a1d0b942df*%
M02*
