%TF.GenerationSoftware,Altium Limited,Altium Designer,22.4.2 (48)*%
G04 Layer_Physical_Order=1*
G04 Layer_Color=255*
%FSLAX45Y45*%
%MOMM*%
%TF.SameCoordinates,D9E3D5A9-656C-4745-A5A9-85A6BD0C2532*%
%TF.FilePolarity,Positive*%
%TF.FileFunction,Copper,L1,Top,Signal*%
%TF.Part,Single*%
G01*
G75*
%TA.AperFunction,SMDPad,CuDef*%
G04:AMPARAMS|DCode=10|XSize=1.55mm|YSize=0.6mm|CornerRadius=0.3mm|HoleSize=0mm|Usage=FLASHONLY|Rotation=270.000|XOffset=0mm|YOffset=0mm|HoleType=Round|Shape=RoundedRectangle|*
%AMROUNDEDRECTD10*
21,1,1.55000,0.00000,0,0,270.0*
21,1,0.95000,0.60000,0,0,270.0*
1,1,0.60000,0.00000,-0.47500*
1,1,0.60000,0.00000,0.47500*
1,1,0.60000,0.00000,0.47500*
1,1,0.60000,0.00000,-0.47500*
%
%ADD10ROUNDEDRECTD10*%
%ADD11R,1.60000X1.00000*%
%ADD12R,4.00000X7.00000*%
%ADD13R,1.00000X1.60000*%
%ADD14R,1.25000X1.00000*%
%ADD15R,3.30000X2.40000*%
G04:AMPARAMS|DCode=16|XSize=0.6mm|YSize=1.45mm|CornerRadius=0.051mm|HoleSize=0mm|Usage=FLASHONLY|Rotation=270.000|XOffset=0mm|YOffset=0mm|HoleType=Round|Shape=RoundedRectangle|*
%AMROUNDEDRECTD16*
21,1,0.60000,1.34800,0,0,270.0*
21,1,0.49800,1.45000,0,0,270.0*
1,1,0.10200,-0.67400,-0.24900*
1,1,0.10200,-0.67400,0.24900*
1,1,0.10200,0.67400,0.24900*
1,1,0.10200,0.67400,-0.24900*
%
%ADD16ROUNDEDRECTD16*%
%ADD17R,1.20000X0.30000*%
%ADD18R,0.30000X1.20000*%
%ADD19R,0.91000X1.22000*%
%ADD20R,0.60000X2.00000*%
%ADD21R,2.00000X0.60000*%
%ADD22C,6.29100*%
%ADD23R,1.07000X2.16000*%
%ADD24R,0.60000X1.10000*%
%TA.AperFunction,ConnectorPad*%
%ADD25R,2.00000X4.00000*%
%ADD26R,2.00000X3.50000*%
%ADD27R,0.50000X2.20000*%
%TA.AperFunction,Conductor*%
%ADD28C,0.20000*%
%ADD29C,0.30000*%
%ADD30C,1.00000*%
%ADD31C,0.60000*%
%ADD32C,0.40000*%
%ADD33C,2.00000*%
%TA.AperFunction,ComponentPad*%
%ADD34C,1.80000*%
G04:AMPARAMS|DCode=35|XSize=1.8mm|YSize=1.8mm|CornerRadius=0mm|HoleSize=0mm|Usage=FLASHONLY|Rotation=90.000|XOffset=0mm|YOffset=0mm|HoleType=Round|Shape=Octagon|*
%AMOCTAGOND35*
4,1,8,0.45000,0.90000,-0.45000,0.90000,-0.90000,0.45000,-0.90000,-0.45000,-0.45000,-0.90000,0.45000,-0.90000,0.90000,-0.45000,0.90000,0.45000,0.45000,0.90000,0.0*
%
%ADD35OCTAGOND35*%

%ADD36C,2.20000*%
G04:AMPARAMS|DCode=37|XSize=1.8mm|YSize=1.8mm|CornerRadius=0mm|HoleSize=0mm|Usage=FLASHONLY|Rotation=180.000|XOffset=0mm|YOffset=0mm|HoleType=Round|Shape=Octagon|*
%AMOCTAGOND37*
4,1,8,-0.90000,0.45000,-0.90000,-0.45000,-0.45000,-0.90000,0.45000,-0.90000,0.90000,-0.45000,0.90000,0.45000,0.45000,0.90000,-0.45000,0.90000,-0.90000,0.45000,0.0*
%
%ADD37OCTAGOND37*%

%ADD38C,1.60000*%
%TA.AperFunction,ViaPad*%
%ADD39C,7.00000*%
%ADD40C,0.70000*%
G36*
X16400000Y100000D02*
X100000D01*
Y11900000D01*
X16400000D01*
Y100000D01*
D02*
G37*
%LPC*%
G36*
X4258000Y11146251D02*
X4220147Y11141268D01*
X4184874Y11126657D01*
X4154585Y11103415D01*
X4131343Y11073126D01*
X4116732Y11037853D01*
X4111749Y11000000D01*
X4116732Y10962147D01*
X4131343Y10926875D01*
X4154585Y10896585D01*
X4184874Y10873343D01*
X4220147Y10858732D01*
X4258000Y10853749D01*
X4280097Y10856658D01*
X4314267Y10822488D01*
Y10571429D01*
X4301567Y10567118D01*
X4293123Y10578123D01*
X3893342Y10977903D01*
X3896251Y11000000D01*
X3891268Y11037853D01*
X3876657Y11073126D01*
X3853415Y11103415D01*
X3823125Y11126657D01*
X3787852Y11141268D01*
X3750000Y11146251D01*
X3712147Y11141268D01*
X3676874Y11126657D01*
X3646585Y11103415D01*
X3623343Y11073126D01*
X3608732Y11037853D01*
X3603749Y11000000D01*
X3608732Y10962147D01*
X3623343Y10926875D01*
X3646585Y10896585D01*
X3676874Y10873343D01*
X3712147Y10858732D01*
X3750000Y10853749D01*
X3772097Y10856658D01*
X4146767Y10481988D01*
Y10078012D01*
X3950857Y9882103D01*
X3937233Y9864347D01*
X3928668Y9843670D01*
X3928163Y9839832D01*
X3922822Y9835733D01*
X3327178D01*
X3307996Y9850452D01*
X3280021Y9862040D01*
X3250000Y9865992D01*
X3219979Y9862040D01*
X3192004Y9850452D01*
X3167981Y9832019D01*
X3149548Y9807996D01*
X3137960Y9780021D01*
X3134008Y9750000D01*
X3137960Y9719979D01*
X3149548Y9692004D01*
X3167981Y9667981D01*
X3192004Y9649548D01*
X3219979Y9637960D01*
X3250000Y9634008D01*
X3280021Y9637960D01*
X3307996Y9649548D01*
X3327178Y9664267D01*
X3922822D01*
X3942004Y9649548D01*
X3969979Y9637960D01*
X4000000Y9634008D01*
X4030021Y9637960D01*
X4057996Y9649548D01*
X4082019Y9667981D01*
X4100452Y9692004D01*
X4112040Y9719979D01*
X4115992Y9750000D01*
X4112040Y9780021D01*
X4105955Y9794710D01*
X4293123Y9981877D01*
X4301567Y9992882D01*
X4314267Y9988571D01*
Y9528012D01*
X4121988Y9335733D01*
X4077178D01*
X4057996Y9350452D01*
X4030021Y9362040D01*
X4000000Y9365992D01*
X3969979Y9362040D01*
X3942004Y9350452D01*
X3922822Y9335733D01*
X3327178D01*
X3307996Y9350452D01*
X3280021Y9362040D01*
X3250000Y9365992D01*
X3219979Y9362040D01*
X3192004Y9350452D01*
X3167981Y9332019D01*
X3149548Y9307996D01*
X3137960Y9280021D01*
X3134008Y9250000D01*
X3137960Y9219979D01*
X3149548Y9192004D01*
X3167981Y9167981D01*
X3192004Y9149548D01*
X3219979Y9137960D01*
X3250000Y9134008D01*
X3280021Y9137960D01*
X3307996Y9149548D01*
X3327178Y9164267D01*
X3922822D01*
X3942004Y9149548D01*
X3969979Y9137960D01*
X4000000Y9134008D01*
X4030021Y9137960D01*
X4057996Y9149548D01*
X4077178Y9164267D01*
X4157500D01*
X4179690Y9167188D01*
X4200367Y9175753D01*
X4218123Y9189377D01*
X4460623Y9431877D01*
X4474248Y9449633D01*
X4482812Y9470310D01*
X4485733Y9492500D01*
Y10858000D01*
X4482812Y10880189D01*
X4474248Y10900866D01*
X4460623Y10918623D01*
X4401342Y10977903D01*
X4404251Y11000000D01*
X4399268Y11037853D01*
X4384657Y11073126D01*
X4361415Y11103415D01*
X4331125Y11126657D01*
X4295852Y11141268D01*
X4258000Y11146251D01*
D02*
G37*
G36*
X11249999D02*
X11212147Y11141268D01*
X11176874Y11126657D01*
X11146584Y11103415D01*
X11123342Y11073126D01*
X11108732Y11037853D01*
X11103748Y11000000D01*
X11108732Y10962147D01*
X11123342Y10926875D01*
X11146584Y10896585D01*
X11176874Y10873343D01*
X11212147Y10858732D01*
X11249999Y10853749D01*
X11272096Y10856658D01*
X11351767Y10776987D01*
Y10570446D01*
X11339067Y10566135D01*
X11335623Y10570623D01*
X10905623Y11000623D01*
X10887867Y11014247D01*
X10886289Y11014901D01*
X10883267Y11037853D01*
X10868656Y11073126D01*
X10845414Y11103415D01*
X10815125Y11126657D01*
X10779852Y11141268D01*
X10741999Y11146251D01*
X10704147Y11141268D01*
X10668874Y11126657D01*
X10638584Y11103415D01*
X10615342Y11073126D01*
X10600732Y11037853D01*
X10595748Y11000000D01*
X10600732Y10962147D01*
X10615342Y10926875D01*
X10638584Y10896585D01*
X10668874Y10873343D01*
X10704147Y10858732D01*
X10741999Y10853749D01*
X10779852Y10858732D01*
X10794202Y10864677D01*
X10802526Y10861229D01*
X11189267Y10474488D01*
Y10060512D01*
X10993950Y9865196D01*
X10969979Y9862040D01*
X10942004Y9850452D01*
X10922822Y9835733D01*
X10327178D01*
X10307996Y9850452D01*
X10280021Y9862040D01*
X10250000Y9865992D01*
X10219979Y9862040D01*
X10192004Y9850452D01*
X10167981Y9832019D01*
X10149548Y9807996D01*
X10137960Y9780021D01*
X10134008Y9750000D01*
X10137960Y9719979D01*
X10149548Y9692004D01*
X10167981Y9667981D01*
X10192004Y9649548D01*
X10219979Y9637960D01*
X10250000Y9634008D01*
X10280021Y9637960D01*
X10307996Y9649548D01*
X10327178Y9664267D01*
X10922822D01*
X10942004Y9649548D01*
X10969979Y9637960D01*
X11000000Y9634008D01*
X11030021Y9637960D01*
X11057996Y9649548D01*
X11082019Y9667981D01*
X11100452Y9692004D01*
X11112040Y9719979D01*
X11115196Y9743950D01*
X11335623Y9964377D01*
X11339067Y9968866D01*
X11351767Y9964554D01*
Y9723012D01*
X10993950Y9365196D01*
X10969979Y9362040D01*
X10942004Y9350452D01*
X10922822Y9335733D01*
X10327178D01*
X10307996Y9350452D01*
X10280021Y9362040D01*
X10250000Y9365992D01*
X10219979Y9362040D01*
X10192004Y9350452D01*
X10167981Y9332019D01*
X10149548Y9307996D01*
X10137960Y9280021D01*
X10134008Y9250000D01*
X10137960Y9219979D01*
X10149548Y9192004D01*
X10167981Y9167981D01*
X10192004Y9149548D01*
X10219979Y9137960D01*
X10250000Y9134008D01*
X10280021Y9137960D01*
X10307996Y9149548D01*
X10327178Y9164267D01*
X10922822D01*
X10942004Y9149548D01*
X10969979Y9137960D01*
X11000000Y9134008D01*
X11030021Y9137960D01*
X11057996Y9149548D01*
X11082019Y9167981D01*
X11100452Y9192004D01*
X11112040Y9219979D01*
X11115196Y9243950D01*
X11498123Y9626877D01*
X11511747Y9644633D01*
X11520312Y9665311D01*
X11523233Y9687500D01*
Y10812499D01*
X11520312Y10834689D01*
X11511747Y10855366D01*
X11498123Y10873122D01*
X11393341Y10977903D01*
X11396251Y11000000D01*
X11391267Y11037853D01*
X11376656Y11073126D01*
X11353414Y11103415D01*
X11323125Y11126657D01*
X11287852Y11141268D01*
X11249999Y11146251D01*
D02*
G37*
G36*
X5999999D02*
X5962147Y11141268D01*
X5926874Y11126657D01*
X5896584Y11103415D01*
X5873342Y11073126D01*
X5858732Y11037853D01*
X5853748Y11000000D01*
X5858732Y10962147D01*
X5873342Y10926875D01*
X5896584Y10896585D01*
X5926874Y10873343D01*
X5962147Y10858732D01*
X5999999Y10853749D01*
X6022096Y10856658D01*
X6064267Y10814488D01*
Y10563905D01*
X6064112Y10563853D01*
X6051567Y10561678D01*
X5635342Y10977903D01*
X5638251Y11000000D01*
X5633267Y11037853D01*
X5618657Y11073126D01*
X5595415Y11103415D01*
X5565125Y11126657D01*
X5529852Y11141268D01*
X5491999Y11146251D01*
X5454147Y11141268D01*
X5418874Y11126657D01*
X5388584Y11103415D01*
X5365342Y11073126D01*
X5350732Y11037853D01*
X5345748Y11000000D01*
X5350732Y10962147D01*
X5365342Y10926875D01*
X5388584Y10896585D01*
X5418874Y10873343D01*
X5454147Y10858732D01*
X5491999Y10853749D01*
X5514096Y10856658D01*
X5906767Y10463987D01*
Y9943012D01*
X5811510Y9847756D01*
X5807996Y9850452D01*
X5780021Y9862040D01*
X5750000Y9865992D01*
X5719979Y9862040D01*
X5692004Y9850452D01*
X5672822Y9835733D01*
X5077178D01*
X5057996Y9850452D01*
X5030021Y9862040D01*
X5000000Y9865992D01*
X4969979Y9862040D01*
X4942004Y9850452D01*
X4917981Y9832019D01*
X4899548Y9807996D01*
X4887960Y9780021D01*
X4884008Y9750000D01*
X4887960Y9719979D01*
X4899548Y9692004D01*
X4917981Y9667981D01*
X4942004Y9649548D01*
X4969979Y9637960D01*
X5000000Y9634008D01*
X5030021Y9637960D01*
X5057996Y9649548D01*
X5077178Y9664267D01*
X5672822D01*
X5692004Y9649548D01*
X5719979Y9637960D01*
X5750000Y9634008D01*
X5780021Y9637960D01*
X5807996Y9649548D01*
X5832019Y9667981D01*
X5837978Y9675747D01*
X5846480D01*
X5868670Y9678668D01*
X5889347Y9687233D01*
X5907103Y9700858D01*
X6051567Y9845321D01*
X6064112Y9843147D01*
X6064267Y9843094D01*
Y9598012D01*
X5813468Y9347214D01*
X5812216D01*
X5807996Y9350452D01*
X5780021Y9362040D01*
X5750000Y9365992D01*
X5719979Y9362040D01*
X5692004Y9350452D01*
X5672822Y9335733D01*
X5077178D01*
X5057996Y9350452D01*
X5030021Y9362040D01*
X5000000Y9365992D01*
X4969979Y9362040D01*
X4942004Y9350452D01*
X4917981Y9332019D01*
X4899548Y9307996D01*
X4887960Y9280021D01*
X4884008Y9250000D01*
X4887960Y9219979D01*
X4899548Y9192004D01*
X4917981Y9167981D01*
X4942004Y9149548D01*
X4969979Y9137960D01*
X5000000Y9134008D01*
X5030021Y9137960D01*
X5057996Y9149548D01*
X5077178Y9164267D01*
X5672822D01*
X5692004Y9149548D01*
X5719979Y9137960D01*
X5750000Y9134008D01*
X5780021Y9137960D01*
X5807996Y9149548D01*
X5832019Y9167981D01*
X5837978Y9175747D01*
X5848980D01*
X5871170Y9178668D01*
X5891847Y9187233D01*
X5909603Y9200858D01*
X6210623Y9501877D01*
X6224247Y9519633D01*
X6232812Y9540310D01*
X6235733Y9562500D01*
Y10850000D01*
X6232812Y10872189D01*
X6224247Y10892866D01*
X6210623Y10910622D01*
X6143342Y10977903D01*
X6146251Y11000000D01*
X6141267Y11037853D01*
X6126657Y11073126D01*
X6103415Y11103415D01*
X6073125Y11126657D01*
X6037852Y11141268D01*
X5999999Y11146251D01*
D02*
G37*
G36*
X13742000D02*
X13704147Y11141268D01*
X13668874Y11126657D01*
X13638585Y11103415D01*
X13615343Y11073126D01*
X13600732Y11037853D01*
X13595749Y11000000D01*
X13600732Y10962147D01*
X13615343Y10926875D01*
X13638585Y10896585D01*
X13660268Y10879948D01*
Y10321965D01*
X13649548Y10307996D01*
X13637959Y10280021D01*
X13634007Y10250000D01*
X13637959Y10219979D01*
X13649548Y10192004D01*
X13667981Y10167981D01*
X13692004Y10149548D01*
X13719978Y10137960D01*
X13750000Y10134008D01*
X13780022Y10137960D01*
X13807996Y10149548D01*
X13827177Y10164267D01*
X14422823D01*
X14442004Y10149548D01*
X14469978Y10137960D01*
X14500000Y10134008D01*
X14530022Y10137960D01*
X14557996Y10149548D01*
X14582019Y10167981D01*
X14600452Y10192004D01*
X14612041Y10219979D01*
X14615993Y10250000D01*
X14612041Y10280021D01*
X14600452Y10307996D01*
X14582019Y10332019D01*
X14557996Y10350452D01*
X14530022Y10362040D01*
X14500000Y10365992D01*
X14469978Y10362040D01*
X14442004Y10350452D01*
X14422823Y10335733D01*
X13831734D01*
Y10886087D01*
X13845415Y10896585D01*
X13868657Y10926875D01*
X13883269Y10962147D01*
X13888251Y11000000D01*
X13883269Y11037853D01*
X13868657Y11073126D01*
X13845415Y11103415D01*
X13815126Y11126657D01*
X13779852Y11141268D01*
X13742000Y11146251D01*
D02*
G37*
G36*
X11991999D02*
X11954147Y11141268D01*
X11918874Y11126657D01*
X11888584Y11103415D01*
X11865342Y11073126D01*
X11850732Y11037853D01*
X11845748Y11000000D01*
X11850732Y10962147D01*
X11865342Y10926875D01*
X11888584Y10896585D01*
X11910266Y10879948D01*
Y10321965D01*
X11899548Y10307996D01*
X11887960Y10280021D01*
X11884008Y10250000D01*
X11887960Y10219979D01*
X11899548Y10192004D01*
X11917981Y10167981D01*
X11942004Y10149548D01*
X11969979Y10137960D01*
X12000000Y10134008D01*
X12030021Y10137960D01*
X12057996Y10149548D01*
X12077178Y10164267D01*
X12672822D01*
X12692004Y10149548D01*
X12719979Y10137960D01*
X12750000Y10134008D01*
X12780021Y10137960D01*
X12807996Y10149548D01*
X12832019Y10167981D01*
X12850452Y10192004D01*
X12862041Y10219979D01*
X12865993Y10250000D01*
X12862041Y10280021D01*
X12850452Y10307996D01*
X12832019Y10332019D01*
X12807996Y10350452D01*
X12780021Y10362040D01*
X12750000Y10365992D01*
X12719979Y10362040D01*
X12692004Y10350452D01*
X12672822Y10335733D01*
X12081733D01*
Y10886087D01*
X12095414Y10896585D01*
X12118656Y10926875D01*
X12133267Y10962147D01*
X12138251Y11000000D01*
X12133267Y11037853D01*
X12118656Y11073126D01*
X12095414Y11103415D01*
X12065125Y11126657D01*
X12029852Y11141268D01*
X11991999Y11146251D01*
D02*
G37*
G36*
X10233999D02*
X10196147Y11141268D01*
X10160874Y11126657D01*
X10130584Y11103415D01*
X10107342Y11073126D01*
X10092732Y11037853D01*
X10087748Y11000000D01*
X10092732Y10962147D01*
X10107342Y10926875D01*
X10130584Y10896585D01*
X10156266Y10876878D01*
Y10316752D01*
X10149548Y10307996D01*
X10137960Y10280021D01*
X10134008Y10250000D01*
X10137960Y10219979D01*
X10149548Y10192004D01*
X10167981Y10167981D01*
X10192004Y10149548D01*
X10219979Y10137960D01*
X10250000Y10134008D01*
X10280021Y10137960D01*
X10307996Y10149548D01*
X10327178Y10164267D01*
X10922822D01*
X10942004Y10149548D01*
X10969979Y10137960D01*
X11000000Y10134008D01*
X11030021Y10137960D01*
X11057996Y10149548D01*
X11082019Y10167981D01*
X11100452Y10192004D01*
X11112040Y10219979D01*
X11115992Y10250000D01*
X11112040Y10280021D01*
X11100452Y10307996D01*
X11082019Y10332019D01*
X11057996Y10350452D01*
X11030021Y10362040D01*
X11000000Y10365992D01*
X10969979Y10362040D01*
X10942004Y10350452D01*
X10922822Y10335733D01*
X10327733D01*
Y10889156D01*
X10337414Y10896585D01*
X10360656Y10926875D01*
X10375267Y10962147D01*
X10380251Y11000000D01*
X10375267Y11037853D01*
X10360656Y11073126D01*
X10337414Y11103415D01*
X10307125Y11126657D01*
X10271852Y11141268D01*
X10233999Y11146251D01*
D02*
G37*
G36*
X8491999D02*
X8454147Y11141268D01*
X8418874Y11126657D01*
X8388584Y11103415D01*
X8365342Y11073126D01*
X8350732Y11037853D01*
X8345748Y11000000D01*
X8350732Y10962147D01*
X8365342Y10926875D01*
X8388584Y10896585D01*
X8410266Y10879948D01*
Y10321965D01*
X8399548Y10307996D01*
X8387960Y10280021D01*
X8384008Y10250000D01*
X8387960Y10219979D01*
X8399548Y10192004D01*
X8417981Y10167981D01*
X8442004Y10149548D01*
X8469979Y10137960D01*
X8500000Y10134008D01*
X8530021Y10137960D01*
X8557996Y10149548D01*
X8577178Y10164267D01*
X9172822D01*
X9192004Y10149548D01*
X9219979Y10137960D01*
X9250000Y10134008D01*
X9280021Y10137960D01*
X9307996Y10149548D01*
X9332019Y10167981D01*
X9350452Y10192004D01*
X9362040Y10219979D01*
X9365992Y10250000D01*
X9362040Y10280021D01*
X9350452Y10307996D01*
X9332019Y10332019D01*
X9307996Y10350452D01*
X9280021Y10362040D01*
X9250000Y10365992D01*
X9219979Y10362040D01*
X9192004Y10350452D01*
X9172822Y10335733D01*
X8581733D01*
Y10886087D01*
X8595414Y10896585D01*
X8618656Y10926875D01*
X8633267Y10962147D01*
X8638250Y11000000D01*
X8633267Y11037853D01*
X8618656Y11073126D01*
X8595414Y11103415D01*
X8565125Y11126657D01*
X8529852Y11141268D01*
X8491999Y11146251D01*
D02*
G37*
G36*
X6749999D02*
X6712147Y11141268D01*
X6676874Y11126657D01*
X6646584Y11103415D01*
X6623342Y11073126D01*
X6608732Y11037853D01*
X6603748Y11000000D01*
X6608732Y10962147D01*
X6623342Y10926875D01*
X6646584Y10896585D01*
X6664266Y10883017D01*
Y10327178D01*
X6649548Y10307996D01*
X6637960Y10280021D01*
X6634008Y10250000D01*
X6637960Y10219979D01*
X6649548Y10192004D01*
X6667981Y10167981D01*
X6692004Y10149548D01*
X6719979Y10137960D01*
X6750000Y10134008D01*
X6780021Y10137960D01*
X6807996Y10149548D01*
X6827178Y10164267D01*
X7422822D01*
X7442004Y10149548D01*
X7469979Y10137960D01*
X7500000Y10134008D01*
X7530021Y10137960D01*
X7557996Y10149548D01*
X7582019Y10167981D01*
X7600452Y10192004D01*
X7612040Y10219979D01*
X7615992Y10250000D01*
X7612040Y10280021D01*
X7600452Y10307996D01*
X7582019Y10332019D01*
X7557996Y10350452D01*
X7530021Y10362040D01*
X7500000Y10365992D01*
X7469979Y10362040D01*
X7442004Y10350452D01*
X7422822Y10335733D01*
X6835733D01*
Y10883018D01*
X6853415Y10896585D01*
X6876657Y10926875D01*
X6891267Y10962147D01*
X6896251Y11000000D01*
X6891267Y11037853D01*
X6876657Y11073126D01*
X6853415Y11103415D01*
X6823125Y11126657D01*
X6787852Y11141268D01*
X6749999Y11146251D01*
D02*
G37*
G36*
X4983999D02*
X4946147Y11141268D01*
X4910874Y11126657D01*
X4880584Y11103415D01*
X4857342Y11073126D01*
X4842732Y11037853D01*
X4837748Y11000000D01*
X4842732Y10962147D01*
X4857342Y10926875D01*
X4880584Y10896585D01*
X4906266Y10876878D01*
Y10316752D01*
X4899548Y10307996D01*
X4887960Y10280021D01*
X4884008Y10250000D01*
X4887960Y10219979D01*
X4899548Y10192004D01*
X4917981Y10167981D01*
X4942004Y10149548D01*
X4969979Y10137960D01*
X5000000Y10134008D01*
X5030021Y10137960D01*
X5057996Y10149548D01*
X5077178Y10164267D01*
X5672822D01*
X5692004Y10149548D01*
X5719979Y10137960D01*
X5750000Y10134008D01*
X5780021Y10137960D01*
X5807996Y10149548D01*
X5832019Y10167981D01*
X5850452Y10192004D01*
X5862040Y10219979D01*
X5865992Y10250000D01*
X5862040Y10280021D01*
X5850452Y10307996D01*
X5832019Y10332019D01*
X5807996Y10350452D01*
X5780021Y10362040D01*
X5750000Y10365992D01*
X5719979Y10362040D01*
X5692004Y10350452D01*
X5672822Y10335733D01*
X5077733D01*
Y10889156D01*
X5087415Y10896585D01*
X5110657Y10926875D01*
X5125267Y10962147D01*
X5130251Y11000000D01*
X5125267Y11037853D01*
X5110657Y11073126D01*
X5087415Y11103415D01*
X5057125Y11126657D01*
X5021852Y11141268D01*
X4983999Y11146251D01*
D02*
G37*
G36*
X3242000D02*
X3204147Y11141268D01*
X3168874Y11126657D01*
X3138585Y11103415D01*
X3115343Y11073126D01*
X3100732Y11037853D01*
X3095749Y11000000D01*
X3100732Y10962147D01*
X3115343Y10926875D01*
X3138585Y10896585D01*
X3160266Y10879948D01*
Y10321965D01*
X3149548Y10307996D01*
X3137960Y10280021D01*
X3134008Y10250000D01*
X3137960Y10219979D01*
X3149548Y10192004D01*
X3167981Y10167981D01*
X3192004Y10149548D01*
X3219979Y10137960D01*
X3250000Y10134008D01*
X3280021Y10137960D01*
X3307996Y10149548D01*
X3327178Y10164267D01*
X3922822D01*
X3942004Y10149548D01*
X3969979Y10137960D01*
X4000000Y10134008D01*
X4030021Y10137960D01*
X4057996Y10149548D01*
X4082019Y10167981D01*
X4100452Y10192004D01*
X4112040Y10219979D01*
X4115992Y10250000D01*
X4112040Y10280021D01*
X4100452Y10307996D01*
X4082019Y10332019D01*
X4057996Y10350452D01*
X4030021Y10362040D01*
X4000000Y10365992D01*
X3969979Y10362040D01*
X3942004Y10350452D01*
X3922822Y10335733D01*
X3331733D01*
Y10886087D01*
X3345415Y10896585D01*
X3368657Y10926875D01*
X3383268Y10962147D01*
X3388251Y11000000D01*
X3383268Y11037853D01*
X3368657Y11073126D01*
X3345415Y11103415D01*
X3315125Y11126657D01*
X3279852Y11141268D01*
X3242000Y11146251D01*
D02*
G37*
G36*
X1492000D02*
X1454147Y11141268D01*
X1418874Y11126657D01*
X1388585Y11103415D01*
X1365343Y11073126D01*
X1350732Y11037853D01*
X1345749Y11000000D01*
X1350732Y10962147D01*
X1365343Y10926875D01*
X1388585Y10896585D01*
X1410267Y10879948D01*
Y10321965D01*
X1399548Y10307996D01*
X1387960Y10280021D01*
X1384008Y10250000D01*
X1387960Y10219979D01*
X1399548Y10192004D01*
X1417981Y10167981D01*
X1442004Y10149548D01*
X1469979Y10137960D01*
X1500000Y10134008D01*
X1530021Y10137960D01*
X1557996Y10149548D01*
X1577178Y10164267D01*
X2172822D01*
X2192004Y10149548D01*
X2219979Y10137960D01*
X2250000Y10134008D01*
X2280021Y10137960D01*
X2307996Y10149548D01*
X2332019Y10167981D01*
X2350452Y10192004D01*
X2362040Y10219979D01*
X2365992Y10250000D01*
X2362040Y10280021D01*
X2350452Y10307996D01*
X2332019Y10332019D01*
X2307996Y10350452D01*
X2280021Y10362040D01*
X2250000Y10365992D01*
X2219979Y10362040D01*
X2192004Y10350452D01*
X2172822Y10335733D01*
X1581733D01*
Y10886087D01*
X1595415Y10896585D01*
X1618657Y10926875D01*
X1633267Y10962147D01*
X1638251Y11000000D01*
X1633267Y11037853D01*
X1618657Y11073126D01*
X1595415Y11103415D01*
X1565125Y11126657D01*
X1529852Y11141268D01*
X1492000Y11146251D01*
D02*
G37*
G36*
X12499999D02*
X12462147Y11141268D01*
X12426874Y11126657D01*
X12396584Y11103415D01*
X12373342Y11073126D01*
X12358732Y11037853D01*
X12353748Y11000000D01*
X12358732Y10962147D01*
X12373342Y10926875D01*
X12396584Y10896585D01*
X12426874Y10873343D01*
X12462147Y10858732D01*
X12499999Y10853749D01*
X12522096Y10856658D01*
X12916766Y10461987D01*
Y9969638D01*
X12800632Y9853503D01*
X12780021Y9862040D01*
X12750000Y9865992D01*
X12719979Y9862040D01*
X12692004Y9850452D01*
X12672822Y9835733D01*
X12077178D01*
X12057996Y9850452D01*
X12030021Y9862040D01*
X12000000Y9865992D01*
X11969979Y9862040D01*
X11942004Y9850452D01*
X11917981Y9832019D01*
X11899548Y9807996D01*
X11887960Y9780021D01*
X11884008Y9750000D01*
X11887960Y9719979D01*
X11899548Y9692004D01*
X11917981Y9667981D01*
X11942004Y9649548D01*
X11969979Y9637960D01*
X12000000Y9634008D01*
X12030021Y9637960D01*
X12057996Y9649548D01*
X12077178Y9664267D01*
X12672822D01*
X12692004Y9649548D01*
X12719979Y9637960D01*
X12750000Y9634008D01*
X12780021Y9637960D01*
X12807996Y9649548D01*
X12832019Y9667981D01*
X12838892Y9676937D01*
X12852043Y9678668D01*
X12872720Y9687233D01*
X12890477Y9700858D01*
X13063123Y9873504D01*
X13076749Y9891260D01*
X13085312Y9911937D01*
X13088232Y9934126D01*
Y10497499D01*
X13085312Y10519689D01*
X13076747Y10540366D01*
X13063123Y10558122D01*
X12643341Y10977903D01*
X12646251Y11000000D01*
X12641267Y11037853D01*
X12626656Y11073126D01*
X12603414Y11103415D01*
X12573125Y11126657D01*
X12537852Y11141268D01*
X12499999Y11146251D01*
D02*
G37*
G36*
X2000000D02*
X1962147Y11141268D01*
X1926874Y11126657D01*
X1896585Y11103415D01*
X1873343Y11073126D01*
X1858732Y11037853D01*
X1853749Y11000000D01*
X1858732Y10962147D01*
X1873343Y10926875D01*
X1896585Y10896585D01*
X1926874Y10873343D01*
X1962147Y10858732D01*
X2000000Y10853749D01*
X2022097Y10856658D01*
X2421767Y10456988D01*
Y9963012D01*
X2308681Y9849927D01*
X2307996Y9850452D01*
X2280021Y9862040D01*
X2250000Y9865992D01*
X2219979Y9862040D01*
X2192004Y9850452D01*
X2172822Y9835733D01*
X1577178D01*
X1557996Y9850452D01*
X1530021Y9862040D01*
X1500000Y9865992D01*
X1469979Y9862040D01*
X1442004Y9850452D01*
X1417981Y9832019D01*
X1399548Y9807996D01*
X1387960Y9780021D01*
X1384008Y9750000D01*
X1387960Y9719979D01*
X1399548Y9692004D01*
X1417981Y9667981D01*
X1442004Y9649548D01*
X1469979Y9637960D01*
X1500000Y9634008D01*
X1530021Y9637960D01*
X1557996Y9649548D01*
X1577178Y9664267D01*
X2172822D01*
X2192004Y9649548D01*
X2219979Y9637960D01*
X2250000Y9634008D01*
X2280021Y9637960D01*
X2307996Y9649548D01*
X2332019Y9667981D01*
X2337978Y9675747D01*
X2341480D01*
X2363670Y9678668D01*
X2384347Y9687233D01*
X2402103Y9700858D01*
X2568123Y9866877D01*
X2581747Y9884634D01*
X2590312Y9905311D01*
X2593233Y9927500D01*
Y10492500D01*
X2590312Y10514689D01*
X2581747Y10535367D01*
X2568123Y10553123D01*
X2143342Y10977903D01*
X2146251Y11000000D01*
X2141267Y11037853D01*
X2126657Y11073126D01*
X2103415Y11103415D01*
X2073125Y11126657D01*
X2037852Y11141268D01*
X2000000Y11146251D01*
D02*
G37*
G36*
X14250000D02*
X14212148Y11141268D01*
X14176874Y11126657D01*
X14146585Y11103415D01*
X14123343Y11073126D01*
X14108733Y11037853D01*
X14103749Y11000000D01*
X14108733Y10962147D01*
X14123343Y10926875D01*
X14146585Y10896585D01*
X14176874Y10873343D01*
X14212148Y10858732D01*
X14250000Y10853749D01*
X14272096Y10856658D01*
X14761768Y10366988D01*
Y9980512D01*
X14616988Y9835733D01*
X14577177D01*
X14557996Y9850452D01*
X14530022Y9862040D01*
X14500000Y9865992D01*
X14469978Y9862040D01*
X14442004Y9850452D01*
X14422823Y9835733D01*
X13827177D01*
X13807996Y9850452D01*
X13780022Y9862040D01*
X13750000Y9865992D01*
X13719978Y9862040D01*
X13692004Y9850452D01*
X13667981Y9832019D01*
X13649548Y9807996D01*
X13637959Y9780021D01*
X13634007Y9750000D01*
X13637959Y9719979D01*
X13649548Y9692004D01*
X13667981Y9667981D01*
X13692004Y9649548D01*
X13719978Y9637960D01*
X13750000Y9634008D01*
X13780022Y9637960D01*
X13807996Y9649548D01*
X13827177Y9664267D01*
X14422823D01*
X14442004Y9649548D01*
X14469978Y9637960D01*
X14500000Y9634008D01*
X14530022Y9637960D01*
X14557996Y9649548D01*
X14577177Y9664267D01*
X14652499D01*
X14674689Y9667188D01*
X14695367Y9675753D01*
X14713123Y9689377D01*
X14908122Y9884377D01*
X14921747Y9902133D01*
X14930312Y9922810D01*
X14933234Y9945000D01*
Y10402500D01*
X14930312Y10424690D01*
X14921747Y10445367D01*
X14908122Y10463123D01*
X14393343Y10977903D01*
X14396251Y11000000D01*
X14391267Y11037853D01*
X14376657Y11073126D01*
X14353415Y11103415D01*
X14323126Y11126657D01*
X14287852Y11141268D01*
X14250000Y11146251D01*
D02*
G37*
G36*
X8999999D02*
X8962147Y11141268D01*
X8926874Y11126657D01*
X8896584Y11103415D01*
X8873342Y11073126D01*
X8858732Y11037853D01*
X8853748Y11000000D01*
X8858732Y10962147D01*
X8873342Y10926875D01*
X8896584Y10896585D01*
X8926874Y10873343D01*
X8962147Y10858732D01*
X8999999Y10853749D01*
X9022096Y10856658D01*
X9429267Y10449487D01*
Y10050512D01*
X9243950Y9865196D01*
X9219979Y9862040D01*
X9192004Y9850452D01*
X9172822Y9835733D01*
X8577178D01*
X8557996Y9850452D01*
X8530021Y9862040D01*
X8500000Y9865992D01*
X8469979Y9862040D01*
X8442004Y9850452D01*
X8417981Y9832019D01*
X8399548Y9807996D01*
X8387960Y9780021D01*
X8384008Y9750000D01*
X8387960Y9719979D01*
X8399548Y9692004D01*
X8417981Y9667981D01*
X8442004Y9649548D01*
X8469979Y9637960D01*
X8500000Y9634008D01*
X8530021Y9637960D01*
X8557996Y9649548D01*
X8577178Y9664267D01*
X9172822D01*
X9192004Y9649548D01*
X9219979Y9637960D01*
X9250000Y9634008D01*
X9280021Y9637960D01*
X9307996Y9649548D01*
X9332019Y9667981D01*
X9350452Y9692004D01*
X9362040Y9719979D01*
X9365196Y9743950D01*
X9575623Y9954377D01*
X9589247Y9972133D01*
X9597812Y9992811D01*
X9600733Y10015000D01*
Y10484999D01*
X9597812Y10507189D01*
X9589248Y10527866D01*
X9575623Y10545622D01*
X9143341Y10977903D01*
X9146250Y11000000D01*
X9141267Y11037853D01*
X9126656Y11073126D01*
X9103414Y11103415D01*
X9073125Y11126657D01*
X9037852Y11141268D01*
X8999999Y11146251D01*
D02*
G37*
G36*
X7257999D02*
X7220147Y11141268D01*
X7184874Y11126657D01*
X7154584Y11103415D01*
X7131342Y11073126D01*
X7116732Y11037853D01*
X7111748Y11000000D01*
X7116732Y10962147D01*
X7131342Y10926875D01*
X7154584Y10896585D01*
X7184874Y10873343D01*
X7220147Y10858732D01*
X7257999Y10853749D01*
X7280096Y10856658D01*
X7664267Y10472488D01*
Y9878012D01*
X7621988Y9835733D01*
X7577178D01*
X7557996Y9850452D01*
X7530021Y9862040D01*
X7500000Y9865992D01*
X7469979Y9862040D01*
X7442004Y9850452D01*
X7422822Y9835733D01*
X6827178D01*
X6807996Y9850452D01*
X6780021Y9862040D01*
X6750000Y9865992D01*
X6719979Y9862040D01*
X6692004Y9850452D01*
X6667981Y9832019D01*
X6649548Y9807996D01*
X6637960Y9780021D01*
X6634008Y9750000D01*
X6637960Y9719979D01*
X6649548Y9692004D01*
X6667981Y9667981D01*
X6692004Y9649548D01*
X6719979Y9637960D01*
X6750000Y9634008D01*
X6780021Y9637960D01*
X6807996Y9649548D01*
X6827178Y9664267D01*
X7422822D01*
X7442004Y9649548D01*
X7469979Y9637960D01*
X7500000Y9634008D01*
X7530021Y9637960D01*
X7557996Y9649548D01*
X7577178Y9664267D01*
X7657500D01*
X7679689Y9667188D01*
X7700367Y9675753D01*
X7718123Y9689377D01*
X7810623Y9781877D01*
X7824247Y9799633D01*
X7832812Y9820311D01*
X7835733Y9842500D01*
Y10508000D01*
X7832812Y10530189D01*
X7824247Y10550866D01*
X7810623Y10568622D01*
X7401342Y10977903D01*
X7404251Y11000000D01*
X7399267Y11037853D01*
X7384657Y11073126D01*
X7361415Y11103415D01*
X7331125Y11126657D01*
X7295852Y11141268D01*
X7257999Y11146251D01*
D02*
G37*
G36*
X2508000D02*
X2470147Y11141268D01*
X2434874Y11126657D01*
X2404585Y11103415D01*
X2381343Y11073126D01*
X2366732Y11037853D01*
X2361749Y11000000D01*
X2366732Y10962147D01*
X2381343Y10926875D01*
X2404585Y10896585D01*
X2434874Y10873343D01*
X2470147Y10858732D01*
X2508000Y10853749D01*
X2530097Y10856658D01*
X2614267Y10772488D01*
Y9705512D01*
X2271868Y9363113D01*
X2250000Y9365992D01*
X2219979Y9362040D01*
X2192004Y9350452D01*
X2172822Y9335733D01*
X1577178D01*
X1557996Y9350452D01*
X1530021Y9362040D01*
X1500000Y9365992D01*
X1469979Y9362040D01*
X1442004Y9350452D01*
X1417981Y9332019D01*
X1399548Y9307996D01*
X1387960Y9280021D01*
X1384008Y9250000D01*
X1387960Y9219979D01*
X1399548Y9192004D01*
X1417981Y9167981D01*
X1442004Y9149548D01*
X1469979Y9137960D01*
X1500000Y9134008D01*
X1530021Y9137960D01*
X1557996Y9149548D01*
X1577178Y9164267D01*
X2172822D01*
X2192004Y9149548D01*
X2219979Y9137960D01*
X2250000Y9134008D01*
X2280021Y9137960D01*
X2307996Y9149548D01*
X2332019Y9167981D01*
X2350452Y9192004D01*
X2357675Y9209442D01*
X2370623Y9219377D01*
X2760623Y9609377D01*
X2774247Y9627133D01*
X2782812Y9647810D01*
X2785733Y9670000D01*
Y10807998D01*
X2785734Y10808000D01*
X2782812Y10830189D01*
X2774247Y10850867D01*
X2760623Y10868623D01*
X2651342Y10977903D01*
X2654251Y11000000D01*
X2649267Y11037853D01*
X2634657Y11073126D01*
X2611415Y11103415D01*
X2581125Y11126657D01*
X2545852Y11141268D01*
X2508000Y11146251D01*
D02*
G37*
G36*
X13007999D02*
X12970148Y11141268D01*
X12934874Y11126657D01*
X12904584Y11103415D01*
X12881342Y11073126D01*
X12866731Y11037853D01*
X12861748Y11000000D01*
X12866731Y10962147D01*
X12881342Y10926875D01*
X12904584Y10896585D01*
X12934874Y10873343D01*
X12970148Y10858732D01*
X13007999Y10853749D01*
X13030096Y10856658D01*
X13126767Y10759987D01*
Y9693012D01*
X12791175Y9357420D01*
X12780021Y9362040D01*
X12750000Y9365992D01*
X12719979Y9362040D01*
X12692004Y9350452D01*
X12672822Y9335733D01*
X12077178D01*
X12057996Y9350452D01*
X12030021Y9362040D01*
X12000000Y9365992D01*
X11969979Y9362040D01*
X11942004Y9350452D01*
X11917981Y9332019D01*
X11899548Y9307996D01*
X11887960Y9280021D01*
X11884008Y9250000D01*
X11887960Y9219979D01*
X11899548Y9192004D01*
X11917981Y9167981D01*
X11942004Y9149548D01*
X11969979Y9137960D01*
X12000000Y9134008D01*
X12030021Y9137960D01*
X12057996Y9149548D01*
X12077178Y9164267D01*
X12672822D01*
X12692004Y9149548D01*
X12719979Y9137960D01*
X12750000Y9134008D01*
X12780021Y9137960D01*
X12807996Y9149548D01*
X12832019Y9167981D01*
X12840941Y9179609D01*
X12859348Y9187233D01*
X12877103Y9200858D01*
X13273123Y9596877D01*
X13286748Y9614633D01*
X13295312Y9635311D01*
X13298233Y9657500D01*
Y10795499D01*
X13295312Y10817689D01*
X13286748Y10838366D01*
X13273123Y10856122D01*
X13151341Y10977903D01*
X13154251Y11000000D01*
X13149268Y11037853D01*
X13134656Y11073126D01*
X13111414Y11103415D01*
X13081125Y11126657D01*
X13045853Y11141268D01*
X13007999Y11146251D01*
D02*
G37*
G36*
X14758000D02*
X14720148Y11141268D01*
X14684874Y11126657D01*
X14654585Y11103415D01*
X14631343Y11073126D01*
X14616731Y11037853D01*
X14611749Y11000000D01*
X14616731Y10962147D01*
X14631343Y10926875D01*
X14654585Y10896585D01*
X14684874Y10873343D01*
X14720148Y10858732D01*
X14758000Y10853749D01*
X14780096Y10856658D01*
X15061768Y10574988D01*
Y9790512D01*
X14606989Y9335733D01*
X14577177D01*
X14557996Y9350452D01*
X14530022Y9362040D01*
X14500000Y9365992D01*
X14469978Y9362040D01*
X14442004Y9350452D01*
X14422823Y9335733D01*
X13827177D01*
X13807996Y9350452D01*
X13780022Y9362040D01*
X13750000Y9365992D01*
X13719978Y9362040D01*
X13692004Y9350452D01*
X13667981Y9332019D01*
X13649548Y9307996D01*
X13637959Y9280021D01*
X13634007Y9250000D01*
X13637959Y9219979D01*
X13649548Y9192004D01*
X13667981Y9167981D01*
X13692004Y9149548D01*
X13719978Y9137960D01*
X13750000Y9134008D01*
X13780022Y9137960D01*
X13807996Y9149548D01*
X13827177Y9164267D01*
X14422823D01*
X14442004Y9149548D01*
X14469978Y9137960D01*
X14500000Y9134008D01*
X14530022Y9137960D01*
X14557996Y9149548D01*
X14577177Y9164267D01*
X14642500D01*
X14664690Y9167188D01*
X14685367Y9175753D01*
X14703123Y9189377D01*
X15208122Y9694377D01*
X15221747Y9712133D01*
X15230312Y9732811D01*
X15233234Y9755000D01*
Y10610500D01*
X15230312Y10632689D01*
X15221747Y10653367D01*
X15208122Y10671123D01*
X14901341Y10977903D01*
X14904251Y11000000D01*
X14899268Y11037853D01*
X14884657Y11073126D01*
X14861415Y11103415D01*
X14831126Y11126657D01*
X14795853Y11141268D01*
X14758000Y11146251D01*
D02*
G37*
G36*
X9507999D02*
X9470147Y11141268D01*
X9434874Y11126657D01*
X9404584Y11103415D01*
X9381342Y11073126D01*
X9366732Y11037853D01*
X9361748Y11000000D01*
X9366732Y10962147D01*
X9381342Y10926875D01*
X9404584Y10896585D01*
X9434874Y10873343D01*
X9470147Y10858732D01*
X9507999Y10853749D01*
X9530096Y10856658D01*
X9634267Y10752487D01*
Y9440512D01*
X9529488Y9335733D01*
X9327178D01*
X9307996Y9350452D01*
X9280021Y9362040D01*
X9250000Y9365992D01*
X9219979Y9362040D01*
X9192004Y9350452D01*
X9172822Y9335733D01*
X8577178D01*
X8557996Y9350452D01*
X8530021Y9362040D01*
X8500000Y9365992D01*
X8469979Y9362040D01*
X8442004Y9350452D01*
X8417981Y9332019D01*
X8399548Y9307996D01*
X8387960Y9280021D01*
X8384008Y9250000D01*
X8387960Y9219979D01*
X8399548Y9192004D01*
X8417981Y9167981D01*
X8442004Y9149548D01*
X8469979Y9137960D01*
X8500000Y9134008D01*
X8530021Y9137960D01*
X8557996Y9149548D01*
X8577178Y9164267D01*
X9172822D01*
X9192004Y9149548D01*
X9219979Y9137960D01*
X9250000Y9134008D01*
X9280021Y9137960D01*
X9307996Y9149548D01*
X9327178Y9164267D01*
X9565000D01*
X9587190Y9167188D01*
X9607867Y9175753D01*
X9625623Y9189377D01*
X9780623Y9344377D01*
X9794247Y9362133D01*
X9802812Y9382811D01*
X9805733Y9405000D01*
Y10787999D01*
X9802812Y10810189D01*
X9794247Y10830866D01*
X9780623Y10848622D01*
X9651341Y10977903D01*
X9654250Y11000000D01*
X9649267Y11037853D01*
X9634656Y11073126D01*
X9611414Y11103415D01*
X9581125Y11126657D01*
X9545852Y11141268D01*
X9507999Y11146251D01*
D02*
G37*
G36*
X7765999D02*
X7728147Y11141268D01*
X7692874Y11126657D01*
X7662584Y11103415D01*
X7639342Y11073126D01*
X7624732Y11037853D01*
X7619748Y11000000D01*
X7624732Y10962147D01*
X7639342Y10926875D01*
X7662584Y10896585D01*
X7692874Y10873343D01*
X7728147Y10858732D01*
X7765999Y10853749D01*
X7788096Y10856658D01*
X7864267Y10780487D01*
Y9503012D01*
X7696988Y9335733D01*
X7577178D01*
X7557996Y9350452D01*
X7530021Y9362040D01*
X7500000Y9365992D01*
X7469979Y9362040D01*
X7442004Y9350452D01*
X7422822Y9335733D01*
X6827178D01*
X6807996Y9350452D01*
X6780021Y9362040D01*
X6750000Y9365992D01*
X6719979Y9362040D01*
X6692004Y9350452D01*
X6667981Y9332019D01*
X6649548Y9307996D01*
X6637960Y9280021D01*
X6634008Y9250000D01*
X6637960Y9219979D01*
X6649548Y9192004D01*
X6667981Y9167981D01*
X6692004Y9149548D01*
X6719979Y9137960D01*
X6750000Y9134008D01*
X6780021Y9137960D01*
X6807996Y9149548D01*
X6827178Y9164267D01*
X7422822D01*
X7442004Y9149548D01*
X7469979Y9137960D01*
X7500000Y9134008D01*
X7530021Y9137960D01*
X7557996Y9149548D01*
X7577178Y9164267D01*
X7732500D01*
X7754690Y9167188D01*
X7775367Y9175753D01*
X7793123Y9189377D01*
X8010623Y9406877D01*
X8024248Y9424633D01*
X8032812Y9445311D01*
X8035733Y9467500D01*
Y10815999D01*
X8032812Y10838189D01*
X8024247Y10858866D01*
X8010623Y10876622D01*
X7909342Y10977903D01*
X7912251Y11000000D01*
X7907267Y11037853D01*
X7892657Y11073126D01*
X7869415Y11103415D01*
X7839125Y11126657D01*
X7803852Y11141268D01*
X7765999Y11146251D01*
D02*
G37*
G36*
X1500000Y8735686D02*
X200000D01*
X186344Y8732969D01*
X174766Y8725234D01*
X167031Y8713656D01*
X164314Y8700000D01*
Y4000000D01*
X167031Y3986344D01*
X174766Y3974766D01*
X186344Y3967031D01*
X200000Y3964314D01*
X1064314Y3964314D01*
Y2350000D01*
X1067031Y2336343D01*
X1074766Y2324766D01*
X1086344Y2317030D01*
X1100000Y2314314D01*
X1950000Y2314314D01*
X2614314D01*
Y1800000D01*
X2617031Y1786344D01*
X2624766Y1774766D01*
X2636343Y1767031D01*
X2650000Y1764314D01*
X3400000D01*
X3413656Y1767031D01*
X3425233Y1774766D01*
X3431567Y1784245D01*
X3441114Y1783307D01*
X3444267Y1782132D01*
Y1335000D01*
X3015000D01*
Y1235686D01*
X2150000D01*
X2136343Y1232969D01*
X2124766Y1225234D01*
X2117031Y1213656D01*
X2114314Y1200000D01*
X2114314Y450000D01*
X2117030Y436344D01*
X2124766Y424766D01*
X2136343Y417031D01*
X2150000Y414314D01*
X3650000D01*
X3663656Y417031D01*
X3675233Y424766D01*
X3682969Y436344D01*
X3685685Y450000D01*
X3685686Y1200000D01*
X3682969Y1213656D01*
X3675233Y1225234D01*
X3663656Y1232969D01*
X3650000Y1235686D01*
X3615733D01*
Y1794000D01*
X3618500D01*
Y2080000D01*
X3435686D01*
Y2350000D01*
X3432969Y2363656D01*
X3425233Y2375234D01*
X2675233Y3125234D01*
X2663656Y3132969D01*
X2650000Y3135686D01*
X1985685D01*
X1985686Y5514314D01*
X2664314D01*
Y5250000D01*
X2667031Y5236344D01*
X2674766Y5224766D01*
X2874766Y5024766D01*
X2886343Y5017031D01*
X2900000Y5014314D01*
X3400000D01*
X3413656Y5017031D01*
X3425233Y5024766D01*
X3431567Y5034245D01*
X3441114Y5033307D01*
X3444267Y5032132D01*
Y4643288D01*
X3434999Y4635000D01*
X2965000D01*
Y4535685D01*
X2100000Y4535686D01*
X2086344Y4532969D01*
X2074766Y4525234D01*
X2067031Y4513656D01*
X2064314Y4500000D01*
Y4000000D01*
X2067031Y3986344D01*
X2074766Y3974766D01*
X2086344Y3967031D01*
X2100000Y3964314D01*
X2965000Y3964314D01*
Y3865000D01*
X3435000D01*
Y3964314D01*
X3650000D01*
X3663656Y3967030D01*
X3675233Y3974766D01*
X3682969Y3986343D01*
X3685685Y4000000D01*
Y4500000D01*
X3682969Y4513656D01*
X3675233Y4525233D01*
X3663656Y4532969D01*
X3650000Y4535685D01*
X3615733D01*
Y5044000D01*
X3618500D01*
Y5330000D01*
X3435686D01*
Y5550000D01*
X3432969Y5563656D01*
X3425233Y5575234D01*
X3413656Y5582969D01*
X3400000Y5585686D01*
X3235686D01*
Y6100000D01*
X3232969Y6113656D01*
X3225234Y6125234D01*
X3213656Y6132969D01*
X3200000Y6135686D01*
X1285686D01*
Y7735218D01*
X1514782Y7964314D01*
X2113835D01*
Y7750000D01*
X2118475Y7714758D01*
X2132078Y7681918D01*
X2153717Y7653717D01*
X2181918Y7632078D01*
X2214758Y7618475D01*
X2250000Y7613835D01*
X2285242Y7618475D01*
X2318082Y7632078D01*
X2346283Y7653717D01*
X2367922Y7681918D01*
X2381525Y7714758D01*
X2386165Y7750000D01*
Y7964314D01*
X3863835D01*
Y7750000D01*
X3868475Y7714758D01*
X3882078Y7681918D01*
X3903717Y7653717D01*
X3931917Y7632078D01*
X3964758Y7618475D01*
X4000000Y7613835D01*
X4035242Y7618475D01*
X4068082Y7632078D01*
X4096283Y7653717D01*
X4117922Y7681918D01*
X4131525Y7714758D01*
X4136165Y7750000D01*
Y7964314D01*
X5613835D01*
Y7750000D01*
X5618475Y7714758D01*
X5632078Y7681918D01*
X5653717Y7653717D01*
X5681918Y7632078D01*
X5714758Y7618475D01*
X5750000Y7613835D01*
X5785242Y7618475D01*
X5818082Y7632078D01*
X5846283Y7653717D01*
X5867922Y7681918D01*
X5881525Y7714758D01*
X5886165Y7750000D01*
Y7964314D01*
X7363835D01*
Y7750000D01*
X7368475Y7714758D01*
X7382078Y7681918D01*
X7403717Y7653717D01*
X7431918Y7632078D01*
X7464758Y7618475D01*
X7500000Y7613835D01*
X7535242Y7618475D01*
X7568082Y7632078D01*
X7596283Y7653717D01*
X7617922Y7681918D01*
X7631525Y7714758D01*
X7636165Y7750000D01*
Y7964314D01*
X9113835Y7964314D01*
Y7750000D01*
X9118475Y7714758D01*
X9132078Y7681918D01*
X9153717Y7653717D01*
X9181918Y7632078D01*
X9214758Y7618475D01*
X9250000Y7613835D01*
X9285242Y7618475D01*
X9318082Y7632078D01*
X9346283Y7653717D01*
X9367922Y7681918D01*
X9381525Y7714758D01*
X9386165Y7750000D01*
Y7964314D01*
X10863835D01*
Y7750000D01*
X10868475Y7714758D01*
X10882078Y7681918D01*
X10903717Y7653717D01*
X10931918Y7632078D01*
X10964758Y7618475D01*
X11000000Y7613835D01*
X11035242Y7618475D01*
X11068083Y7632078D01*
X11096283Y7653717D01*
X11117922Y7681918D01*
X11131525Y7714758D01*
X11136165Y7750000D01*
Y7964314D01*
X12613835D01*
Y7750000D01*
X12618475Y7714758D01*
X12632078Y7681918D01*
X12653717Y7653717D01*
X12681917Y7632078D01*
X12714758Y7618475D01*
X12750000Y7613835D01*
X12785242Y7618475D01*
X12818082Y7632078D01*
X12846283Y7653717D01*
X12867921Y7681918D01*
X12881525Y7714758D01*
X12886165Y7750000D01*
Y7964314D01*
X14363835D01*
Y7750000D01*
X14368475Y7714758D01*
X14382079Y7681918D01*
X14403717Y7653717D01*
X14431918Y7632078D01*
X14464758Y7618475D01*
X14500000Y7613835D01*
X14535242Y7618475D01*
X14568082Y7632078D01*
X14596283Y7653717D01*
X14617921Y7681918D01*
X14631525Y7714758D01*
X14636165Y7750000D01*
Y7964314D01*
X14800000D01*
X14813657Y7967031D01*
X14825233Y7974766D01*
X14832970Y7986343D01*
X14835686Y8000000D01*
Y8700000D01*
X14832970Y8713656D01*
X14825233Y8725234D01*
X14813657Y8732969D01*
X14800000Y8735686D01*
X1500000Y8735686D01*
D02*
G37*
G36*
X13750000Y7865992D02*
X13719978Y7862040D01*
X13692004Y7850452D01*
X13667981Y7832019D01*
X13655351Y7815561D01*
X13250000D01*
X13233032Y7813327D01*
X13217220Y7806778D01*
X13203642Y7796359D01*
X12522844Y7115561D01*
X11474871D01*
X11470010Y7127294D01*
X11979432Y7636716D01*
X12000000Y7634008D01*
X12030021Y7637960D01*
X12057996Y7649548D01*
X12082019Y7667981D01*
X12100452Y7692004D01*
X12112040Y7719979D01*
X12115992Y7750000D01*
X12112040Y7780021D01*
X12100452Y7807996D01*
X12082019Y7832019D01*
X12057996Y7850452D01*
X12030021Y7862040D01*
X12000000Y7865992D01*
X11969979Y7862040D01*
X11942004Y7850452D01*
X11917981Y7832019D01*
X11899548Y7807996D01*
X11887960Y7780021D01*
X11884008Y7750000D01*
X11886715Y7729433D01*
X11372844Y7215561D01*
X6785147D01*
X6768179Y7213327D01*
X6752367Y7206777D01*
X6738789Y7196358D01*
X6703642Y7161211D01*
X6701261Y7158108D01*
X6688561Y7162420D01*
Y7234439D01*
X10214853D01*
X10231821Y7236673D01*
X10247633Y7243222D01*
X10261211Y7253642D01*
X10296359Y7288789D01*
X10306777Y7302367D01*
X10313327Y7318179D01*
X10315561Y7335147D01*
Y7655352D01*
X10332019Y7667981D01*
X10350452Y7692004D01*
X10362040Y7719979D01*
X10365992Y7750000D01*
X10362040Y7780021D01*
X10350452Y7807996D01*
X10332019Y7832019D01*
X10307996Y7850452D01*
X10280021Y7862040D01*
X10250000Y7865992D01*
X10219979Y7862040D01*
X10192004Y7850452D01*
X10167981Y7832019D01*
X10149548Y7807996D01*
X10137960Y7780021D01*
X10134008Y7750000D01*
X10137960Y7719979D01*
X10149548Y7692004D01*
X10167981Y7667981D01*
X10184439Y7655352D01*
Y7365561D01*
X6674871D01*
X6670011Y7377294D01*
X6712531Y7419814D01*
X8235375D01*
X8252343Y7422048D01*
X8268155Y7428598D01*
X8281733Y7439017D01*
X8479432Y7636716D01*
X8500000Y7634008D01*
X8530021Y7637960D01*
X8557996Y7649548D01*
X8582019Y7667981D01*
X8600452Y7692004D01*
X8612040Y7719979D01*
X8615992Y7750000D01*
X8612040Y7780021D01*
X8600452Y7807996D01*
X8582019Y7832019D01*
X8557996Y7850452D01*
X8530021Y7862040D01*
X8500000Y7865992D01*
X8469979Y7862040D01*
X8442004Y7850452D01*
X8417981Y7832019D01*
X8399548Y7807996D01*
X8387960Y7780021D01*
X8384008Y7750000D01*
X8386716Y7729432D01*
X8208219Y7550936D01*
X6685375D01*
X6668407Y7548702D01*
X6652595Y7542152D01*
X6644974Y7552258D01*
X6729432Y7636716D01*
X6750000Y7634008D01*
X6780021Y7637960D01*
X6807996Y7649548D01*
X6832019Y7667981D01*
X6850452Y7692004D01*
X6862040Y7719979D01*
X6865992Y7750000D01*
X6862040Y7780021D01*
X6850452Y7807996D01*
X6832019Y7832019D01*
X6807996Y7850452D01*
X6780021Y7862040D01*
X6750000Y7865992D01*
X6719979Y7862040D01*
X6692004Y7850452D01*
X6667981Y7832019D01*
X6649548Y7807996D01*
X6637960Y7780021D01*
X6634008Y7750000D01*
X6636715Y7729433D01*
X6322642Y7415359D01*
X6312223Y7401780D01*
X6305673Y7385969D01*
X6303439Y7369000D01*
Y7056198D01*
X6290739Y7051887D01*
X6288359Y7054989D01*
X6148056Y7195291D01*
X6134478Y7205711D01*
X6118666Y7212260D01*
X6101698Y7214494D01*
X5257712D01*
X5065561Y7406645D01*
Y7655352D01*
X5082019Y7667981D01*
X5100452Y7692004D01*
X5112040Y7719979D01*
X5115992Y7750000D01*
X5112040Y7780021D01*
X5100452Y7807996D01*
X5082019Y7832019D01*
X5057996Y7850452D01*
X5030021Y7862040D01*
X5000000Y7865992D01*
X4969979Y7862040D01*
X4942004Y7850452D01*
X4917981Y7832019D01*
X4899548Y7807996D01*
X4887960Y7780021D01*
X4884008Y7750000D01*
X4887960Y7719979D01*
X4899548Y7692004D01*
X4917981Y7667981D01*
X4934439Y7655352D01*
Y7379489D01*
X4936673Y7362521D01*
X4943223Y7346709D01*
X4953642Y7333131D01*
X5184198Y7102575D01*
X5197776Y7092156D01*
X5213588Y7085606D01*
X5230556Y7083372D01*
X6074542D01*
X6176439Y6981475D01*
Y6932567D01*
X6163739Y6928256D01*
X6161359Y6931358D01*
X6046358Y7046358D01*
X6032780Y7056777D01*
X6016968Y7063327D01*
X6000000Y7065561D01*
X3427156D01*
X3315561Y7177156D01*
Y7655352D01*
X3332019Y7667981D01*
X3350452Y7692004D01*
X3362040Y7719979D01*
X3365992Y7750000D01*
X3362040Y7780021D01*
X3350452Y7807996D01*
X3332019Y7832019D01*
X3307996Y7850452D01*
X3280021Y7862040D01*
X3250000Y7865992D01*
X3219979Y7862040D01*
X3192004Y7850452D01*
X3167981Y7832019D01*
X3149548Y7807996D01*
X3137960Y7780021D01*
X3134008Y7750000D01*
X3137960Y7719979D01*
X3149548Y7692004D01*
X3167981Y7667981D01*
X3184439Y7655352D01*
Y7150000D01*
X3186673Y7133032D01*
X3193222Y7117220D01*
X3203642Y7103642D01*
X3353642Y6953642D01*
X3367220Y6943223D01*
X3383032Y6936673D01*
X3400000Y6934439D01*
X5972844D01*
X6049439Y6857844D01*
Y6759567D01*
X6036739Y6755256D01*
X6034358Y6758359D01*
X5946358Y6846358D01*
X5932780Y6856777D01*
X5916968Y6863327D01*
X5900000Y6865561D01*
X1898392D01*
X1565561Y7198391D01*
Y7655352D01*
X1582019Y7667981D01*
X1600452Y7692004D01*
X1612040Y7719979D01*
X1615992Y7750000D01*
X1612040Y7780021D01*
X1600452Y7807996D01*
X1582019Y7832019D01*
X1557996Y7850452D01*
X1530021Y7862040D01*
X1500000Y7865992D01*
X1469979Y7862040D01*
X1442004Y7850452D01*
X1417981Y7832019D01*
X1399548Y7807996D01*
X1387960Y7780021D01*
X1384008Y7750000D01*
X1387960Y7719979D01*
X1399548Y7692004D01*
X1417981Y7667981D01*
X1434439Y7655352D01*
Y7171236D01*
X1436673Y7154267D01*
X1443223Y7138455D01*
X1453642Y7124877D01*
X1824877Y6753642D01*
X1838455Y6743223D01*
X1854267Y6736673D01*
X1871236Y6734439D01*
X5872844D01*
X5922439Y6684844D01*
Y6500000D01*
X5923000Y6495740D01*
Y6365000D01*
X7069000D01*
Y6495740D01*
X7069561Y6500000D01*
Y6821359D01*
X7072198Y6827727D01*
X7074604Y6846000D01*
X7072198Y6864274D01*
X7065145Y6881302D01*
X7053924Y6895924D01*
X7039302Y6907145D01*
X7022273Y6914198D01*
X7004000Y6916604D01*
X6985726Y6914198D01*
X6968698Y6907145D01*
X6955261Y6896834D01*
X6950267Y6897861D01*
X6942561Y6901780D01*
Y6984439D01*
X12550000D01*
X12566969Y6986673D01*
X12582780Y6993223D01*
X12596358Y7003642D01*
X13277156Y7684440D01*
X13655351D01*
X13667981Y7667981D01*
X13692004Y7649548D01*
X13719978Y7637960D01*
X13750000Y7634008D01*
X13780022Y7637960D01*
X13807996Y7649548D01*
X13832019Y7667981D01*
X13850452Y7692004D01*
X13862041Y7719979D01*
X13865993Y7750000D01*
X13862041Y7780021D01*
X13850452Y7807996D01*
X13832019Y7832019D01*
X13807996Y7850452D01*
X13780022Y7862040D01*
X13750000Y7865992D01*
D02*
G37*
G36*
X8880000Y6935561D02*
X8677581D01*
X8660612Y6933327D01*
X8644800Y6926778D01*
X8633048Y6917760D01*
X8625956Y6914822D01*
X8611333Y6903602D01*
X8600113Y6888979D01*
X8593060Y6871951D01*
X8590654Y6853677D01*
X8593060Y6835404D01*
X8600113Y6818375D01*
X8611333Y6803753D01*
X8625956Y6792533D01*
X8642984Y6785479D01*
X8661258Y6783074D01*
X8679531Y6785479D01*
X8696560Y6792533D01*
X8711182Y6803753D01*
X8711709Y6804440D01*
X8785000D01*
Y6765000D01*
X9015000D01*
Y6935000D01*
X8884262D01*
X8880000Y6935561D01*
D02*
G37*
G36*
X13076569Y6819904D02*
X11563827D01*
X11542367Y6815635D01*
X11524174Y6803479D01*
X10849772Y6129077D01*
X10777968D01*
X10773259Y6133887D01*
X10768811Y6146190D01*
X10777674Y6159454D01*
X10780786Y6175100D01*
Y6224900D01*
X10777674Y6240546D01*
X10768811Y6253810D01*
X10765739Y6255863D01*
Y6271137D01*
X10768811Y6273190D01*
X10777674Y6286454D01*
X10780786Y6302100D01*
Y6351900D01*
X10777674Y6367546D01*
X10768811Y6380810D01*
X10765739Y6382863D01*
Y6398137D01*
X10768811Y6400190D01*
X10777674Y6413454D01*
X10780786Y6429100D01*
Y6478900D01*
X10777674Y6494546D01*
X10768811Y6507810D01*
X10755546Y6516673D01*
X10739900Y6519786D01*
X10605100D01*
X10589454Y6516673D01*
X10576190Y6507810D01*
X10567327Y6494546D01*
X10564215Y6478900D01*
Y6429100D01*
X10567327Y6413454D01*
X10576190Y6400190D01*
X10579262Y6398137D01*
Y6382863D01*
X10576190Y6380810D01*
X10567327Y6367546D01*
X10564215Y6351900D01*
Y6302100D01*
X10567327Y6286454D01*
X10572802Y6278261D01*
X10566488Y6265561D01*
X10474640D01*
X10468273Y6268198D01*
X10450000Y6270604D01*
X10431726Y6268198D01*
X10414698Y6261145D01*
X10400075Y6249925D01*
X10388855Y6235302D01*
X10381802Y6218274D01*
X10379396Y6200000D01*
X10381802Y6181727D01*
X10388855Y6164698D01*
X10400075Y6150076D01*
X10414698Y6138855D01*
X10431726Y6131802D01*
X10450000Y6129396D01*
X10468273Y6131802D01*
X10474640Y6134439D01*
X10566488D01*
X10572802Y6121739D01*
X10567327Y6113546D01*
X10564215Y6097900D01*
Y6048100D01*
X10567327Y6032454D01*
X10571465Y6026261D01*
X10564677Y6013561D01*
X10479469D01*
X10468273Y6018198D01*
X10450000Y6020604D01*
X10431726Y6018198D01*
X10414698Y6011145D01*
X10400075Y5999924D01*
X10388855Y5985302D01*
X10381802Y5968274D01*
X10379396Y5950000D01*
X10381802Y5931727D01*
X10388855Y5914698D01*
X10400075Y5900076D01*
X10414698Y5888855D01*
X10431726Y5881802D01*
X10450000Y5879396D01*
X10468273Y5881802D01*
X10469812Y5882439D01*
X10568512D01*
X10570306Y5880189D01*
X10574138Y5869739D01*
X10567327Y5859546D01*
X10564215Y5843900D01*
Y5794100D01*
X10567327Y5778454D01*
X10576190Y5765190D01*
X10589454Y5756327D01*
X10605100Y5753215D01*
X10739900D01*
X10755546Y5756327D01*
X10765418Y5762923D01*
X10819000D01*
X10840460Y5767191D01*
X10858653Y5779347D01*
X11172300Y6092994D01*
X11185000Y6091682D01*
Y6065000D01*
X11414999D01*
Y6093923D01*
X11585000D01*
Y6065000D01*
X11814999D01*
Y6235000D01*
X11756077D01*
Y6488772D01*
X11771305Y6504000D01*
X11852999D01*
Y6696000D01*
X11853000D01*
X11855295Y6707749D01*
X12017204D01*
X12019499Y6696000D01*
X12019499Y6695049D01*
Y6504000D01*
X12034439D01*
Y6235000D01*
X11985000D01*
Y6190000D01*
X11977219Y6186777D01*
X11963641Y6176358D01*
X11722283Y5935000D01*
X11585000D01*
Y5765000D01*
X11674439D01*
Y5710000D01*
X11676673Y5693032D01*
X11683223Y5677220D01*
X11693642Y5663642D01*
X13634439Y3722844D01*
Y1157418D01*
X13610873Y1147657D01*
X13580585Y1124415D01*
X13557343Y1094126D01*
X13542732Y1058853D01*
X13537749Y1021000D01*
X13542732Y983147D01*
X13557343Y947874D01*
X13580585Y917585D01*
X13610873Y894343D01*
X13646147Y879732D01*
X13684000Y874749D01*
X13721854Y879732D01*
X13757126Y894343D01*
X13787415Y917585D01*
X13810657Y947874D01*
X13825269Y983147D01*
X13830251Y1021000D01*
X13825269Y1058853D01*
X13810657Y1094126D01*
X13787415Y1124415D01*
X13765561Y1141185D01*
Y3750000D01*
X13763327Y3766969D01*
X13756776Y3782781D01*
X13746358Y3796359D01*
X11805561Y5737156D01*
Y5765000D01*
X11814999D01*
Y5842283D01*
X12037155Y6064439D01*
X12079999D01*
X12084261Y6065000D01*
X12214999D01*
Y6235000D01*
X12165560D01*
Y6504000D01*
X12180499D01*
Y6695049D01*
X12180500Y6696000D01*
X12182795Y6707749D01*
X12717204D01*
X12719499Y6696000D01*
X12719500Y6695049D01*
Y6596717D01*
X12653641Y6530858D01*
X12643222Y6517280D01*
X12636673Y6501468D01*
X12634439Y6484500D01*
Y6235000D01*
X12585000D01*
Y6065000D01*
X12722283D01*
X12963641Y5823642D01*
X12977219Y5813223D01*
X12985001Y5810000D01*
Y5765000D01*
X13094925D01*
X13103641Y5753642D01*
X14059439Y4797843D01*
Y1131296D01*
X14061673Y1114327D01*
X14068224Y1098516D01*
X14068468Y1098197D01*
X14065343Y1094126D01*
X14050732Y1058853D01*
X14045749Y1021000D01*
X14050732Y983147D01*
X14065343Y947874D01*
X14088585Y917585D01*
X14118874Y894343D01*
X14154147Y879732D01*
X14192000Y874749D01*
X14229852Y879732D01*
X14265126Y894343D01*
X14295415Y917585D01*
X14318657Y947874D01*
X14333269Y983147D01*
X14338251Y1021000D01*
X14333269Y1058853D01*
X14318657Y1094126D01*
X14295415Y1124415D01*
X14265126Y1147657D01*
X14229852Y1162268D01*
X14192000Y1167251D01*
X14190561Y1168514D01*
Y4824999D01*
X14188327Y4841968D01*
X14181776Y4857780D01*
X14171358Y4871358D01*
X13215559Y5827156D01*
Y5830000D01*
X13214999Y5834262D01*
Y5935000D01*
X13084261D01*
X13079999Y5935561D01*
X13037155D01*
X12814999Y6157717D01*
Y6235000D01*
X12765560D01*
Y6457344D01*
X12812218Y6504000D01*
X12880499D01*
Y6695049D01*
X12880499Y6696000D01*
X12882796Y6707749D01*
X13043922D01*
Y6235000D01*
X12985001D01*
Y6065000D01*
X13214999D01*
Y6093923D01*
X13385001D01*
Y6065000D01*
X13614999D01*
Y6235000D01*
X13385001D01*
Y6206077D01*
X13214999D01*
Y6235000D01*
X13156078D01*
Y6504000D01*
X13207999D01*
Y6696000D01*
X13156078D01*
Y6740395D01*
X13151808Y6761855D01*
X13139651Y6780048D01*
X13125606Y6789433D01*
X13116222Y6803479D01*
X13098029Y6815635D01*
X13076569Y6819904D01*
D02*
G37*
G36*
X10194900Y6646786D02*
X10060101D01*
X10044454Y6643673D01*
X10031190Y6634810D01*
X10022327Y6621546D01*
X10019215Y6605900D01*
Y6556100D01*
X10022327Y6540454D01*
X10031190Y6527190D01*
X10034262Y6525137D01*
Y6509863D01*
X10031190Y6507810D01*
X10022327Y6494546D01*
X10019215Y6478900D01*
Y6429100D01*
X10022327Y6413454D01*
X10031190Y6400190D01*
X10034262Y6398137D01*
Y6382863D01*
X10031190Y6380810D01*
X10022327Y6367546D01*
X10019215Y6351900D01*
Y6302100D01*
X10022327Y6286454D01*
X10031190Y6273190D01*
X10034262Y6271137D01*
Y6255863D01*
X10031190Y6253810D01*
X10022327Y6240546D01*
X10019215Y6224900D01*
Y6175100D01*
X10022327Y6159454D01*
X10031190Y6146190D01*
X10034262Y6144137D01*
Y6128863D01*
X10031190Y6126810D01*
X10022327Y6113546D01*
X10019215Y6097900D01*
Y6048100D01*
X10022327Y6032454D01*
X10031190Y6019190D01*
X10034262Y6017137D01*
Y6001863D01*
X10031190Y5999810D01*
X10022327Y5986546D01*
X10019215Y5970900D01*
Y5921100D01*
X10022327Y5905454D01*
X10027802Y5897261D01*
X10021488Y5884561D01*
X9959388D01*
X9935000Y5908949D01*
Y6115000D01*
X9915561D01*
Y6325359D01*
X9918198Y6331726D01*
X9920604Y6350000D01*
X9918198Y6368274D01*
X9911145Y6385302D01*
X9899925Y6399924D01*
X9885302Y6411145D01*
X9868274Y6418198D01*
X9850000Y6420604D01*
X9831727Y6418198D01*
X9814698Y6411145D01*
X9800076Y6399924D01*
X9788855Y6385302D01*
X9781802Y6368274D01*
X9779396Y6350000D01*
X9781802Y6331726D01*
X9784439Y6325359D01*
Y6115000D01*
X9765000D01*
Y5885000D01*
X9786576D01*
X9786673Y5884264D01*
X9793222Y5868452D01*
X9803642Y5854874D01*
X9885874Y5772641D01*
X9899452Y5762223D01*
X9915263Y5755673D01*
X9932232Y5753439D01*
X10058970D01*
X10060101Y5753215D01*
X10194900D01*
X10210547Y5756327D01*
X10223811Y5765190D01*
X10232674Y5778454D01*
X10235786Y5794100D01*
Y5843900D01*
X10232674Y5859546D01*
X10223811Y5872810D01*
X10220739Y5874863D01*
Y5890137D01*
X10223811Y5892190D01*
X10232674Y5905454D01*
X10235786Y5921100D01*
Y5970900D01*
X10232674Y5986546D01*
X10223811Y5999810D01*
X10220739Y6001863D01*
Y6017137D01*
X10223811Y6019190D01*
X10232674Y6032454D01*
X10235786Y6048100D01*
Y6097900D01*
X10232674Y6113546D01*
X10223811Y6126810D01*
X10220739Y6128863D01*
Y6144137D01*
X10223811Y6146190D01*
X10232674Y6159454D01*
X10235786Y6175100D01*
Y6224900D01*
X10232674Y6240546D01*
X10223811Y6253810D01*
X10220739Y6255863D01*
Y6271137D01*
X10223811Y6273190D01*
X10232674Y6286454D01*
X10235786Y6302100D01*
Y6351900D01*
X10232674Y6367546D01*
X10223811Y6380810D01*
X10220739Y6382863D01*
Y6398137D01*
X10223811Y6400190D01*
X10232674Y6413454D01*
X10235786Y6429100D01*
Y6478900D01*
X10232674Y6494546D01*
X10223811Y6507810D01*
X10220739Y6509863D01*
Y6525137D01*
X10223811Y6527190D01*
X10232674Y6540454D01*
X10235786Y6556100D01*
Y6605900D01*
X10232674Y6621546D01*
X10223811Y6634810D01*
X10210547Y6643673D01*
X10194900Y6646786D01*
D02*
G37*
G36*
X7807306Y6885733D02*
X7800000D01*
X7777810Y6882812D01*
X7757133Y6874247D01*
X7739377Y6860623D01*
X7725753Y6842867D01*
X7717188Y6822189D01*
X7714267Y6800000D01*
X7717188Y6777810D01*
X7725753Y6757133D01*
X7739377Y6739377D01*
X7757133Y6725753D01*
X7762553Y6723508D01*
X7796683Y6689377D01*
X7814439Y6675753D01*
X7835116Y6667188D01*
X7857306Y6664267D01*
X8000000D01*
X8005572Y6665000D01*
X8097500D01*
Y6684439D01*
X8270939D01*
Y6555000D01*
X8273173Y6538032D01*
X8273911Y6536250D01*
X8273173Y6534469D01*
X8270939Y6517500D01*
Y6422500D01*
X8273173Y6405532D01*
X8279723Y6389720D01*
X8290142Y6376142D01*
X8303719Y6365723D01*
X8317972Y6359819D01*
X8323395Y6347791D01*
X8323524Y6347410D01*
X8262557Y6286443D01*
X8252611Y6271558D01*
X8249118Y6254000D01*
Y6235527D01*
X8245075Y6232424D01*
X8233855Y6217802D01*
X8226802Y6200773D01*
X8224396Y6182500D01*
X8226802Y6164226D01*
X8233855Y6147198D01*
X8245075Y6132575D01*
X8259698Y6121355D01*
X8276726Y6114302D01*
X8295000Y6111896D01*
X8313273Y6114302D01*
X8330302Y6121355D01*
X8344924Y6132575D01*
X8356145Y6147198D01*
X8363198Y6164226D01*
X8365604Y6182500D01*
X8363198Y6200773D01*
X8356145Y6217802D01*
X8344924Y6232424D01*
X8344518Y6238631D01*
X8462904Y6357018D01*
X8463500Y6356939D01*
X8480468Y6359173D01*
X8496280Y6365723D01*
X8509858Y6376142D01*
X8520277Y6389720D01*
X8533723D01*
X8544142Y6376142D01*
X8557719Y6365723D01*
X8573531Y6359173D01*
X8590500Y6356939D01*
X8607468Y6359173D01*
X8623280Y6365723D01*
X8636858Y6376142D01*
X8647277Y6389720D01*
X8653827Y6405532D01*
X8656061Y6422500D01*
Y6496423D01*
X8785000D01*
Y6465000D01*
X8899020D01*
Y5622460D01*
X8887287Y5617599D01*
X8797443Y5707443D01*
X8782558Y5717389D01*
X8765000Y5720882D01*
X8481505D01*
X8425923Y5776463D01*
X8433118Y5787229D01*
X8446531Y5781673D01*
X8463500Y5779439D01*
X8726870D01*
X8743838Y5781673D01*
X8759650Y5788223D01*
X8773228Y5798642D01*
X8804304Y5829717D01*
X8807420D01*
X8824388Y5831951D01*
X8840200Y5838501D01*
X8853778Y5848920D01*
X8864197Y5862498D01*
X8870746Y5878310D01*
X8872980Y5895278D01*
X8870746Y5912246D01*
X8864197Y5928058D01*
X8864084Y5928205D01*
X8861145Y5935302D01*
X8849924Y5949924D01*
X8835302Y5961145D01*
X8818273Y5968198D01*
X8800000Y5970604D01*
X8781726Y5968198D01*
X8764698Y5961145D01*
X8761639Y5958797D01*
X8760179Y5958605D01*
X8744368Y5952055D01*
X8730789Y5941637D01*
X8699714Y5910561D01*
X8656061D01*
Y5977500D01*
X8653827Y5994469D01*
X8647277Y6010280D01*
X8636858Y6023858D01*
X8623280Y6034277D01*
X8607468Y6040827D01*
X8590500Y6043061D01*
X8573531Y6040827D01*
X8557719Y6034277D01*
X8544142Y6023858D01*
X8533723Y6010281D01*
X8520277D01*
X8509858Y6023858D01*
X8496280Y6034277D01*
X8480468Y6040827D01*
X8463500Y6043061D01*
X8446531Y6040827D01*
X8430719Y6034277D01*
X8417142Y6023858D01*
X8406723Y6010281D01*
X8393277D01*
X8382858Y6023858D01*
X8369280Y6034277D01*
X8353468Y6040827D01*
X8336500Y6043061D01*
X8319531Y6040827D01*
X8303719Y6034277D01*
X8290142Y6023858D01*
X8279723Y6010281D01*
X8266277D01*
X8255858Y6023858D01*
X8242280Y6034277D01*
X8226468Y6040827D01*
X8209500Y6043061D01*
X8192531Y6040827D01*
X8176719Y6034277D01*
X8163142Y6023858D01*
X8152723Y6010280D01*
X8146173Y5994469D01*
X8143939Y5977500D01*
Y5882500D01*
X8146173Y5865532D01*
X8152723Y5849720D01*
X8158520Y5842164D01*
Y5805500D01*
X8162401Y5785991D01*
X8173452Y5769452D01*
X8749020Y5193884D01*
Y5120000D01*
X8450000D01*
Y5120000D01*
X8350000D01*
Y5120000D01*
X8350000Y5120000D01*
X8000980D01*
Y5248884D01*
X8037096Y5285000D01*
X8135000D01*
Y5515000D01*
X7965000D01*
Y5357096D01*
X7913952Y5306048D01*
X7902901Y5289509D01*
X7899021Y5270000D01*
Y5259669D01*
X7887287Y5254809D01*
X7785000Y5357096D01*
Y5394428D01*
X7785733Y5400000D01*
Y5650000D01*
X7782812Y5672189D01*
X7774247Y5692866D01*
X7760623Y5710623D01*
X7742867Y5724247D01*
X7722190Y5732812D01*
X7700000Y5735733D01*
X7677811Y5732812D01*
X7657133Y5724247D01*
X7639377Y5710623D01*
X7625753Y5692866D01*
X7617188Y5672189D01*
X7614267Y5650000D01*
Y5400000D01*
X7615000Y5394428D01*
Y5285000D01*
X7712904D01*
X7849020Y5148884D01*
Y5025000D01*
X7850000Y5020075D01*
Y4930000D01*
X8300000D01*
Y4930000D01*
X8400000D01*
Y4930000D01*
X8499020D01*
Y4598549D01*
X8488855Y4585302D01*
X8481802Y4568274D01*
X8479396Y4550000D01*
X8481802Y4531727D01*
X8488855Y4514698D01*
X8500075Y4500076D01*
X8514698Y4488855D01*
X8531726Y4481802D01*
X8550000Y4479396D01*
X8568273Y4481802D01*
X8585302Y4488855D01*
X8599924Y4500076D01*
X8611145Y4514698D01*
X8618198Y4531727D01*
X8620604Y4550000D01*
X8618198Y4568274D01*
X8611145Y4585302D01*
X8600979Y4598549D01*
Y4760331D01*
X8612713Y4765191D01*
X8740482Y4637422D01*
X8738855Y4635302D01*
X8731802Y4618273D01*
X8729396Y4600000D01*
X8731802Y4581726D01*
X8738855Y4564698D01*
X8750075Y4550075D01*
X8764698Y4538855D01*
X8781726Y4531802D01*
X8800000Y4529396D01*
X8818273Y4531802D01*
X8835302Y4538855D01*
X8849924Y4550075D01*
X8861145Y4564698D01*
X8868198Y4581726D01*
X8870604Y4600000D01*
X8868198Y4618273D01*
X8861145Y4635302D01*
X8850980Y4648549D01*
Y4650000D01*
X8847099Y4669509D01*
X8836048Y4686048D01*
X8650980Y4871116D01*
Y4930000D01*
X9000000D01*
Y4930000D01*
X9037300D01*
X9050000Y4930000D01*
X9062700Y4930000D01*
X9150000D01*
Y5120000D01*
X9062700D01*
X9050000Y5120000D01*
X9045882Y5130994D01*
Y5211744D01*
X9052389Y5221483D01*
X9055881Y5239041D01*
Y5385000D01*
X9135000D01*
Y5486906D01*
X9136874Y5501140D01*
Y5615629D01*
X9260623Y5739377D01*
X9274247Y5757133D01*
X9282812Y5777810D01*
X9285733Y5800000D01*
X9282812Y5822189D01*
X9274247Y5842867D01*
X9260623Y5860623D01*
X9242866Y5874247D01*
X9222189Y5882812D01*
X9200000Y5885733D01*
X9177810Y5882812D01*
X9157133Y5874247D01*
X9139377Y5860623D01*
X9012713Y5733958D01*
X9000979Y5738819D01*
Y6465000D01*
X9015000D01*
Y6635000D01*
X8785000D01*
Y6608577D01*
X8603069D01*
X8590500Y6611077D01*
X8569040Y6606809D01*
X8550847Y6594653D01*
X8538691Y6576460D01*
X8534423Y6555000D01*
X8522412Y6550281D01*
X8520277D01*
X8509858Y6563858D01*
X8496280Y6574277D01*
X8480468Y6580827D01*
X8463500Y6583061D01*
X8446531Y6580827D01*
X8430719Y6574277D01*
X8417142Y6563858D01*
X8414761Y6560755D01*
X8402061Y6565067D01*
Y6714853D01*
X8399827Y6731821D01*
X8393277Y6747633D01*
X8382859Y6761211D01*
X8347711Y6796358D01*
X8334133Y6806777D01*
X8318321Y6813327D01*
X8301353Y6815561D01*
X8097500D01*
Y6835000D01*
X8005572D01*
X8000000Y6835733D01*
X7892818D01*
X7867929Y6860623D01*
X7850173Y6874247D01*
X7829495Y6882812D01*
X7807306Y6885733D01*
D02*
G37*
G36*
X12699999Y5935733D02*
X12099999D01*
X12094427Y5935000D01*
X11985000D01*
Y5765000D01*
X12034439D01*
Y5649640D01*
X12031802Y5643273D01*
X12029396Y5625000D01*
X12031802Y5606726D01*
X12038855Y5589698D01*
X12050075Y5575075D01*
X12064698Y5563855D01*
X12081726Y5556802D01*
X12100000Y5554396D01*
X12118273Y5556802D01*
X12135302Y5563855D01*
X12149924Y5575075D01*
X12161145Y5589698D01*
X12168198Y5606726D01*
X12170604Y5625000D01*
X12168198Y5643273D01*
X12165560Y5649641D01*
Y5764267D01*
X12634439D01*
Y5649640D01*
X12631802Y5643273D01*
X12629396Y5625000D01*
X12631802Y5606726D01*
X12638855Y5589698D01*
X12650076Y5575075D01*
X12664698Y5563855D01*
X12681726Y5556802D01*
X12700000Y5554396D01*
X12718274Y5556802D01*
X12735302Y5563855D01*
X12749924Y5575075D01*
X12761145Y5589698D01*
X12768198Y5606726D01*
X12770604Y5625000D01*
X12768198Y5643273D01*
X12765560Y5649641D01*
Y5765000D01*
X12814999D01*
Y5935000D01*
X12705571D01*
X12699999Y5935733D01*
D02*
G37*
G36*
X14850000Y5385733D02*
X14849998Y5385733D01*
X14600000D01*
X14594427Y5385000D01*
X14485001D01*
Y5215000D01*
X14594427D01*
X14600000Y5214266D01*
X14850000D01*
X14872189Y5217188D01*
X14892867Y5225753D01*
X14910622Y5239377D01*
X14924248Y5257133D01*
X14932812Y5277811D01*
X14935733Y5300000D01*
X14932812Y5322189D01*
X14924248Y5342867D01*
X14910623Y5360623D01*
X14892867Y5374247D01*
X14872189Y5382812D01*
X14850000Y5385733D01*
D02*
G37*
G36*
X9370000Y4900000D02*
X9180000D01*
Y4800000D01*
Y4700000D01*
Y4612700D01*
X9180000Y4600001D01*
X9180000D01*
Y4599999D01*
X9180000D01*
Y4500000D01*
Y4450000D01*
X9180000D01*
Y4350000D01*
X9180000D01*
Y4250000D01*
Y4200000D01*
Y4112700D01*
X9180000Y4100000D01*
X9180000D01*
Y4099999D01*
X9180000D01*
Y4000000D01*
Y3950000D01*
Y3850000D01*
Y3762231D01*
X9180000Y3750000D01*
Y3750000D01*
X9180000Y3737353D01*
Y3650000D01*
Y3600000D01*
X9370000D01*
Y3700000D01*
X9370000D01*
Y3800000D01*
X9370000D01*
Y3849020D01*
X9478884D01*
X9663952Y3663952D01*
X9680491Y3652901D01*
X9700000Y3649020D01*
X9764267D01*
Y3500000D01*
X9767188Y3477811D01*
X9775753Y3457134D01*
X9789377Y3439377D01*
X9807134Y3425753D01*
X9827811Y3417188D01*
X9850000Y3414267D01*
X9872190Y3417188D01*
X9892867Y3425753D01*
X9910623Y3439377D01*
X9924247Y3457134D01*
X9932812Y3477811D01*
X9935733Y3500000D01*
Y3700000D01*
X9935000Y3705572D01*
Y3815000D01*
X9765000D01*
Y3750980D01*
X9721116D01*
X9536048Y3936048D01*
X9530084Y3940033D01*
X9533728Y3952257D01*
X9550000Y3949020D01*
X9765000D01*
Y3885000D01*
X9935000D01*
Y3994428D01*
X9935733Y4000000D01*
Y4250000D01*
X9932812Y4272189D01*
X9924247Y4292866D01*
X9919483Y4299076D01*
X9925746Y4311776D01*
X9949151D01*
X9961974Y4298952D01*
X9978513Y4287901D01*
X9998022Y4284021D01*
X10335000D01*
Y4215000D01*
X10565000D01*
Y4249020D01*
X10951451D01*
X10964698Y4238855D01*
X10981727Y4231802D01*
X11000000Y4229396D01*
X11018274Y4231802D01*
X11035302Y4238855D01*
X11049925Y4250076D01*
X11061145Y4264698D01*
X11068198Y4281727D01*
X11070604Y4300000D01*
X11068198Y4318274D01*
X11061145Y4335302D01*
X11049925Y4349924D01*
X11035302Y4361145D01*
X11018274Y4368198D01*
X11000000Y4370604D01*
X10981727Y4368198D01*
X10964698Y4361145D01*
X10951451Y4350980D01*
X10565000D01*
Y4385000D01*
X10419926D01*
X10415000Y4385980D01*
X10019139D01*
X10006315Y4398804D01*
X9989776Y4409855D01*
X9970267Y4413735D01*
X9583290D01*
X9563781Y4409855D01*
X9547242Y4398804D01*
X9499418Y4350980D01*
X9370000D01*
Y4400000D01*
X9370000D01*
X9370000Y4400000D01*
Y4499020D01*
X9464509D01*
X9467031Y4486343D01*
X9474766Y4474766D01*
X9486343Y4467030D01*
X9500000Y4464314D01*
X11050000Y4464314D01*
X11063656Y4467030D01*
X11075233Y4474766D01*
X11082969Y4486343D01*
X11085685Y4499999D01*
X11085686Y4750000D01*
X11082969Y4763656D01*
X11075234Y4775233D01*
X11063656Y4782969D01*
X11050000Y4785685D01*
X9500000Y4785686D01*
X9486344Y4782969D01*
X9474766Y4775234D01*
X9467031Y4763656D01*
X9464509Y4750979D01*
X9370000D01*
Y4800000D01*
Y4900000D01*
D02*
G37*
G36*
X15750000Y5142078D02*
X15717368Y5137782D01*
X15686961Y5125187D01*
X15660849Y5105151D01*
X15640813Y5079039D01*
X15628217Y5048632D01*
X15623923Y5016000D01*
X15628217Y4983368D01*
X15640813Y4952961D01*
X15660849Y4926849D01*
X15686961Y4906813D01*
X15714227Y4895518D01*
X15714233Y4895498D01*
Y4882502D01*
X15714227Y4882482D01*
X15686961Y4871187D01*
X15660849Y4851151D01*
X15640813Y4825039D01*
X15628217Y4794632D01*
X15623923Y4762000D01*
X15628217Y4729368D01*
X15640813Y4698961D01*
X15660849Y4672849D01*
X15686961Y4652813D01*
X15714227Y4641518D01*
X15714233Y4641498D01*
Y4628502D01*
X15714227Y4628482D01*
X15686961Y4617187D01*
X15660849Y4597151D01*
X15640813Y4571039D01*
X15628217Y4540632D01*
X15623923Y4508000D01*
X15628217Y4475368D01*
X15640813Y4444961D01*
X15647340Y4436455D01*
X15638541Y4427060D01*
X15633559Y4430389D01*
X15616000Y4433881D01*
X15331004D01*
X14990132Y4774755D01*
Y4941223D01*
X14994174Y4944325D01*
X15005396Y4958948D01*
X15012448Y4975976D01*
X15014854Y4994250D01*
X15012448Y5012523D01*
X15005396Y5029552D01*
X14994174Y5044174D01*
X14979552Y5055395D01*
X14962524Y5062448D01*
X14944250Y5064854D01*
X14925977Y5062448D01*
X14908948Y5055395D01*
X14895702Y5045229D01*
X14714999D01*
Y5085000D01*
X14485001D01*
Y4915000D01*
X14714999D01*
Y4943270D01*
X14895702D01*
X14898367Y4941223D01*
Y4755750D01*
X14901862Y4738192D01*
X14911807Y4723307D01*
X15279556Y4355557D01*
X15294443Y4345611D01*
X15312000Y4342118D01*
X15596996D01*
X15635324Y4303789D01*
X15628217Y4286632D01*
X15623923Y4254000D01*
X15628217Y4221368D01*
X15640813Y4190961D01*
X15660849Y4164849D01*
X15686961Y4144813D01*
X15714227Y4133518D01*
X15714233Y4133498D01*
Y4120502D01*
X15714227Y4120482D01*
X15686961Y4109187D01*
X15660849Y4089151D01*
X15640813Y4063039D01*
X15628217Y4032632D01*
X15623923Y4000000D01*
X15628217Y3967368D01*
X15640813Y3936961D01*
X15654655Y3918921D01*
X15648997Y3910524D01*
X15646579Y3908584D01*
X15630000Y3911881D01*
X15349532D01*
X15205170Y4056243D01*
X15190285Y4066188D01*
X15172726Y4069681D01*
X14880817D01*
X14876505Y4082381D01*
X14885623Y4089377D01*
X14899248Y4107133D01*
X14907812Y4127810D01*
X14910733Y4150000D01*
X14907812Y4172190D01*
X14899248Y4192867D01*
X14885623Y4210623D01*
X14867867Y4224247D01*
X14847189Y4232812D01*
X14825000Y4235733D01*
X14824998Y4235733D01*
X14625000D01*
X14619427Y4235000D01*
X14510001D01*
X14503722Y4245099D01*
X14500958Y4258988D01*
X14491013Y4273873D01*
X14462502Y4302385D01*
X14467361Y4314118D01*
X14560001D01*
X14564433Y4315000D01*
X14714999D01*
Y4485000D01*
X14485001D01*
Y4405881D01*
X14423531D01*
X14405972Y4402389D01*
X14392390Y4393314D01*
X14375000Y4395604D01*
X14356726Y4393198D01*
X14339697Y4386145D01*
X14325075Y4374924D01*
X14313855Y4360302D01*
X14306802Y4343274D01*
X14304396Y4325000D01*
X14306802Y4306726D01*
X14313855Y4289698D01*
X14325075Y4275076D01*
X14339697Y4263855D01*
X14356726Y4256802D01*
X14375000Y4254396D01*
X14380052Y4255061D01*
X14412689Y4222425D01*
Y4144003D01*
X14416180Y4126445D01*
X14426128Y4111560D01*
X14546330Y3991356D01*
X14561217Y3981410D01*
X14578773Y3977918D01*
X15153722D01*
X15298083Y3833557D01*
X15312968Y3823611D01*
X15330527Y3820118D01*
X15610995D01*
X15635324Y3795789D01*
X15628217Y3778632D01*
X15623923Y3746000D01*
X15628217Y3713368D01*
X15640813Y3682961D01*
X15660849Y3656849D01*
X15686961Y3636813D01*
X15714227Y3625518D01*
X15714233Y3625498D01*
Y3612502D01*
X15714227Y3612482D01*
X15686961Y3601187D01*
X15660849Y3581151D01*
X15658286Y3577810D01*
X15645612Y3576979D01*
X15578149Y3644443D01*
X15563264Y3654389D01*
X15545706Y3657881D01*
X15276282D01*
X15176720Y3757443D01*
X15161835Y3767389D01*
X15144276Y3770881D01*
X14739999D01*
Y3935000D01*
X14510001D01*
Y3895881D01*
X14500000D01*
X14482442Y3892389D01*
X14467557Y3882443D01*
X14380052Y3794939D01*
X14375000Y3795604D01*
X14356726Y3793198D01*
X14339697Y3786145D01*
X14337370Y3784358D01*
X14325980Y3789975D01*
Y3951451D01*
X14336145Y3964698D01*
X14343198Y3981726D01*
X14345604Y4000000D01*
X14343198Y4018273D01*
X14336145Y4035302D01*
X14324924Y4049924D01*
X14310303Y4061145D01*
X14293272Y4068198D01*
X14275000Y4070604D01*
X14256726Y4068198D01*
X14239697Y4061145D01*
X14225075Y4049924D01*
X14213855Y4035302D01*
X14206802Y4018273D01*
X14204396Y4000000D01*
X14206802Y3981726D01*
X14213855Y3964698D01*
X14224020Y3951451D01*
Y3435776D01*
X14227901Y3416267D01*
X14238953Y3399728D01*
X14424728Y3213952D01*
X14441267Y3202901D01*
X14460776Y3199021D01*
X14485001D01*
Y3165000D01*
X14630074D01*
X14635001Y3164020D01*
X15037201D01*
X15126620Y3074600D01*
X15143159Y3063549D01*
X15162669Y3059668D01*
X15622649D01*
X15636629Y3062449D01*
X15643794Y3050926D01*
X15640813Y3047039D01*
X15628217Y3016632D01*
X15623923Y2984000D01*
X15628217Y2951368D01*
X15633212Y2939309D01*
X15602376Y2908472D01*
X15115614D01*
X15096106Y2904592D01*
X15079568Y2893541D01*
X14887007Y2700980D01*
X14714999D01*
Y2735000D01*
X14605573D01*
X14600000Y2735733D01*
X14594427Y2735000D01*
X14485001D01*
Y2565000D01*
X14514267D01*
Y2425000D01*
X14517188Y2402811D01*
X14525752Y2382133D01*
X14539377Y2364377D01*
X14557133Y2350753D01*
X14577811Y2342188D01*
X14600000Y2339267D01*
X14622189Y2342188D01*
X14642867Y2350753D01*
X14660623Y2364377D01*
X14674248Y2382133D01*
X14682812Y2402811D01*
X14685733Y2425000D01*
Y2565000D01*
X14714999D01*
Y2599020D01*
X14908122D01*
X14927632Y2602901D01*
X14944171Y2613952D01*
X15136732Y2806513D01*
X15382794D01*
X15388411Y2795123D01*
X15386813Y2793039D01*
X15374217Y2762632D01*
X15369922Y2730000D01*
X15374217Y2697368D01*
X15386813Y2666961D01*
X15406850Y2640849D01*
X15432961Y2620813D01*
X15463368Y2608217D01*
X15496001Y2603921D01*
X15528632Y2608217D01*
X15559039Y2620813D01*
X15585152Y2640849D01*
X15605186Y2666961D01*
X15612300Y2684133D01*
X15625000Y2681607D01*
Y2667500D01*
X15687500Y2605000D01*
X15812500D01*
X15875000Y2667500D01*
Y2792500D01*
X15812500Y2855000D01*
X15798393D01*
X15795866Y2867700D01*
X15813039Y2874813D01*
X15839151Y2894849D01*
X15859187Y2920961D01*
X15871783Y2951368D01*
X15876077Y2984000D01*
X15871783Y3016632D01*
X15859187Y3047039D01*
X15839151Y3073151D01*
X15813039Y3093187D01*
X15785773Y3104482D01*
X15785767Y3104502D01*
Y3117498D01*
X15785773Y3117518D01*
X15813039Y3128813D01*
X15839151Y3148849D01*
X15859187Y3174961D01*
X15871783Y3205368D01*
X15876077Y3238000D01*
X15871783Y3270632D01*
X15859187Y3301039D01*
X15839151Y3327151D01*
X15813039Y3347187D01*
X15785773Y3358482D01*
X15785767Y3358502D01*
Y3371498D01*
X15785773Y3371518D01*
X15813039Y3382813D01*
X15839151Y3402849D01*
X15859187Y3428961D01*
X15871783Y3459368D01*
X15876077Y3492000D01*
X15871783Y3524632D01*
X15859187Y3555039D01*
X15839151Y3581151D01*
X15813039Y3601187D01*
X15785773Y3612482D01*
X15785767Y3612502D01*
Y3625498D01*
X15785773Y3625518D01*
X15813039Y3636813D01*
X15839151Y3656849D01*
X15859187Y3682961D01*
X15871783Y3713368D01*
X15876077Y3746000D01*
X15871783Y3778632D01*
X15859187Y3809039D01*
X15839151Y3835151D01*
X15813039Y3855187D01*
X15785773Y3866482D01*
X15785767Y3866502D01*
Y3879498D01*
X15785773Y3879518D01*
X15813039Y3890813D01*
X15839151Y3910849D01*
X15859187Y3936961D01*
X15871783Y3967368D01*
X15876077Y4000000D01*
X15871783Y4032632D01*
X15859187Y4063039D01*
X15839151Y4089151D01*
X15813039Y4109187D01*
X15785773Y4120482D01*
X15785767Y4120502D01*
Y4133498D01*
X15785773Y4133518D01*
X15813039Y4144813D01*
X15839151Y4164849D01*
X15859187Y4190961D01*
X15871783Y4221368D01*
X15876077Y4254000D01*
X15871783Y4286632D01*
X15859187Y4317039D01*
X15839151Y4343151D01*
X15813039Y4363187D01*
X15785773Y4374482D01*
X15785767Y4374502D01*
Y4387498D01*
X15785773Y4387518D01*
X15813039Y4398813D01*
X15839151Y4418849D01*
X15859187Y4444961D01*
X15871783Y4475368D01*
X15876077Y4508000D01*
X15871783Y4540632D01*
X15859187Y4571039D01*
X15839151Y4597151D01*
X15813039Y4617187D01*
X15785773Y4628482D01*
X15785767Y4628502D01*
Y4641498D01*
X15785773Y4641518D01*
X15813039Y4652813D01*
X15839151Y4672849D01*
X15859187Y4698961D01*
X15871783Y4729368D01*
X15876077Y4762000D01*
X15871783Y4794632D01*
X15859187Y4825039D01*
X15839151Y4851151D01*
X15813039Y4871187D01*
X15785773Y4882482D01*
X15785767Y4882502D01*
Y4895498D01*
X15785773Y4895518D01*
X15813039Y4906813D01*
X15839151Y4926849D01*
X15859187Y4952961D01*
X15871783Y4983368D01*
X15876077Y5016000D01*
X15871783Y5048632D01*
X15859187Y5079039D01*
X15839151Y5105151D01*
X15813039Y5125187D01*
X15782632Y5137782D01*
X15750000Y5142078D01*
D02*
G37*
G36*
X6942000Y5695000D02*
X5923000D01*
Y5425000D01*
X5937020D01*
Y4912000D01*
X5940901Y4892491D01*
X5951952Y4875952D01*
X6363952Y4463952D01*
X6380491Y4452901D01*
X6400000Y4449020D01*
X7630000D01*
Y4400000D01*
Y4300000D01*
Y4200000D01*
X7630000D01*
Y4100000D01*
X7630000D01*
X7630000Y4099999D01*
Y4000000D01*
Y3952847D01*
X7623584Y3948781D01*
X7617300Y3947586D01*
X7470728Y4094159D01*
X7455843Y4104105D01*
X7438285Y4107597D01*
X6880147D01*
X6862589Y4104105D01*
X6847704Y4094159D01*
X6577557Y3824012D01*
X6567611Y3809127D01*
X6564118Y3791569D01*
Y3113285D01*
X6567611Y3095726D01*
X6577557Y3080841D01*
X7034119Y2624280D01*
Y2074005D01*
X6991270Y2031156D01*
X6983816Y2020000D01*
X6940000D01*
Y1845881D01*
X6885000D01*
Y1865000D01*
X6715000D01*
Y1635000D01*
X6754118D01*
Y1537117D01*
X6757611Y1519559D01*
X6767557Y1504674D01*
X6824118Y1448112D01*
Y1070000D01*
X6810000D01*
Y780000D01*
X7170000D01*
Y1070000D01*
X7055881D01*
Y1210995D01*
X7152443Y1307557D01*
X7162389Y1322442D01*
X7165882Y1340000D01*
Y1546551D01*
X7174869Y1552557D01*
X7192443Y1570131D01*
X7199038Y1580000D01*
X7260000D01*
Y1760000D01*
X7130000D01*
Y1654433D01*
X7129118Y1650000D01*
X7130000Y1645568D01*
Y1644886D01*
X7127557Y1642443D01*
X7118010Y1628155D01*
X7114158Y1627389D01*
X7100000Y1617929D01*
X7085843Y1627389D01*
X7081990Y1628155D01*
X7072443Y1642443D01*
X7070000Y1644886D01*
Y1754118D01*
X7075635D01*
X7093194Y1757611D01*
X7108078Y1767557D01*
X7129723Y1789201D01*
X7131579Y1791980D01*
X7132443Y1792557D01*
X7142389Y1807442D01*
X7145882Y1825000D01*
Y1840000D01*
X7260000D01*
Y2020000D01*
X7216185D01*
X7208730Y2031157D01*
X7165882Y2074006D01*
Y2659853D01*
X7162389Y2677411D01*
X7152443Y2692296D01*
X6695881Y3148858D01*
Y3755996D01*
X6915720Y3975834D01*
X7402711D01*
X7555989Y3822556D01*
X7569275Y3813679D01*
X7569242Y3807495D01*
X7567162Y3800979D01*
X7410000D01*
Y3915000D01*
X7240000D01*
Y3686748D01*
X7238952Y3686048D01*
X7188952Y3636048D01*
X7177901Y3619509D01*
X7177004Y3615000D01*
X7140000D01*
Y3506145D01*
X7139180Y3499913D01*
Y3317340D01*
X7142101Y3295150D01*
X7150666Y3274473D01*
X7164290Y3256717D01*
X7182046Y3243093D01*
X7202724Y3234528D01*
X7224913Y3231606D01*
X7247103Y3234528D01*
X7267780Y3243093D01*
X7285536Y3256717D01*
X7299160Y3274473D01*
X7307725Y3295150D01*
X7310647Y3317340D01*
Y3499340D01*
X7310733Y3500000D01*
X7310000Y3505572D01*
Y3599020D01*
X7725000D01*
X7729925Y3600000D01*
X7820000D01*
Y3700000D01*
Y3753229D01*
X7836048Y3763952D01*
X8071117Y3999020D01*
X8076451D01*
X8089698Y3988855D01*
X8106726Y3981802D01*
X8125000Y3979396D01*
X8143274Y3981802D01*
X8160302Y3988855D01*
X8174924Y4000076D01*
X8186145Y4014698D01*
X8193198Y4031727D01*
X8195604Y4050000D01*
X8193198Y4068274D01*
X8186145Y4085302D01*
X8174924Y4099924D01*
X8160302Y4111145D01*
X8143274Y4118198D01*
X8125000Y4120604D01*
X8106726Y4118198D01*
X8089698Y4111145D01*
X8076451Y4100980D01*
X8050000D01*
X8030491Y4097099D01*
X8013952Y4086048D01*
X7832700Y3904796D01*
X7820000Y3910056D01*
Y4050000D01*
X7820000D01*
Y4150000D01*
X7820000D01*
Y4250000D01*
Y4350000D01*
Y4450000D01*
Y4550000D01*
Y4650000D01*
Y4750000D01*
Y4800000D01*
Y4900000D01*
X7729925D01*
X7725000Y4900980D01*
X7071116D01*
X6927980Y5044116D01*
Y5425000D01*
X6942000D01*
Y5695000D01*
D02*
G37*
G36*
X3958500Y5330000D02*
X3781500D01*
Y5044000D01*
X3784266D01*
Y4681581D01*
X3774766Y4675234D01*
X3767031Y4663656D01*
X3764314Y4650000D01*
Y3900000D01*
X3767031Y3886344D01*
X3774766Y3874766D01*
X3786343Y3867031D01*
X3800000Y3864314D01*
X5850000D01*
X5863656Y3867031D01*
X5875234Y3874766D01*
X5882969Y3886344D01*
X5885686Y3900000D01*
Y4650000D01*
X5882969Y4663656D01*
X5875234Y4675234D01*
X5863656Y4682969D01*
X5850000Y4685686D01*
X3955733D01*
Y5044000D01*
X3958500D01*
Y5330000D01*
D02*
G37*
G36*
X8425000Y4070604D02*
X8406726Y4068198D01*
X8389698Y4061145D01*
X8375075Y4049924D01*
X8363855Y4035302D01*
X8356802Y4018273D01*
X8354622Y4001718D01*
X8278884Y3925980D01*
X8125000D01*
X8105491Y3922099D01*
X8088952Y3911048D01*
X7863952Y3686048D01*
X7852901Y3669509D01*
X7849020Y3650000D01*
Y3475000D01*
X7850000Y3470075D01*
Y3380000D01*
X7950000D01*
Y3380000D01*
X7999020D01*
Y2071427D01*
X8002901Y2051918D01*
X8013952Y2035379D01*
X8249021Y1800310D01*
Y1768000D01*
X8185000D01*
Y1598000D01*
X8415000D01*
Y1768000D01*
X8350980D01*
Y1821426D01*
X8347099Y1840936D01*
X8336048Y1857475D01*
X8100979Y2092543D01*
Y2310331D01*
X8112713Y2315191D01*
X8549020Y1878883D01*
Y1768000D01*
X8485000D01*
Y1598000D01*
X8715000D01*
Y1768000D01*
X8650980D01*
Y1900000D01*
X8647099Y1919509D01*
X8636048Y1936048D01*
X8150980Y2421116D01*
Y2560331D01*
X8162713Y2565191D01*
X8849020Y1878883D01*
Y1768000D01*
X8785000D01*
Y1598000D01*
X9015000D01*
Y1768000D01*
X8950980D01*
Y1900000D01*
X8947099Y1919509D01*
X8936048Y1936048D01*
X8200980Y2671116D01*
Y2735269D01*
X8212713Y2740129D01*
X9149021Y1803821D01*
Y1768000D01*
X9085000D01*
Y1598000D01*
X9315000D01*
Y1768000D01*
X9250980D01*
Y1824937D01*
X9247099Y1844446D01*
X9236048Y1860985D01*
X8250980Y2846054D01*
Y2860331D01*
X8262713Y2865192D01*
X9385001Y1742904D01*
Y1598000D01*
X9615000D01*
Y1768000D01*
X9490735D01*
X9488780Y1777829D01*
X9477729Y1794368D01*
X9401541Y1870556D01*
X9406401Y1882289D01*
X9645615D01*
X9747204Y1780700D01*
X9744635Y1768000D01*
X9685000D01*
Y1598000D01*
X9915000D01*
Y1768000D01*
X9850980D01*
Y1800000D01*
X9847099Y1819509D01*
X9836048Y1836048D01*
X9702779Y1969316D01*
X9686240Y1980367D01*
X9666731Y1984248D01*
X9387848D01*
X9334809Y2037287D01*
X9339669Y2049021D01*
X9922502D01*
X10049021Y1922502D01*
Y1768000D01*
X9985000D01*
Y1598000D01*
X10215000D01*
Y1768000D01*
X10150980D01*
Y1943618D01*
X10147099Y1963127D01*
X10136048Y1979666D01*
X9979666Y2136048D01*
X9963127Y2147099D01*
X9943618Y2150980D01*
X9321116D01*
X9234809Y2237287D01*
X9239669Y2249020D01*
X10178884D01*
X10349020Y2078884D01*
Y1768000D01*
X10285001D01*
Y1598000D01*
X10515000D01*
Y1768000D01*
X10450980D01*
Y2100000D01*
X10447099Y2119509D01*
X10436048Y2136048D01*
X10236048Y2336048D01*
X10235640Y2336320D01*
X10239493Y2349020D01*
X11157938D01*
X11177447Y2352901D01*
X11193986Y2363952D01*
X11296554Y2466521D01*
X11495000D01*
Y2325500D01*
Y2198500D01*
Y2071500D01*
Y1944500D01*
Y1817500D01*
Y1690500D01*
X11765000D01*
Y1817500D01*
Y1944500D01*
Y2071500D01*
Y2198500D01*
Y2325500D01*
Y2452500D01*
Y2579500D01*
Y2717929D01*
X11775234Y2724766D01*
X11782969Y2736344D01*
X11785686Y2750000D01*
Y2950000D01*
X11782969Y2963656D01*
X11775234Y2975234D01*
X11763656Y2982969D01*
X11750000Y2985686D01*
X11100000D01*
X11086344Y2982969D01*
X11074766Y2975234D01*
X11067031Y2963656D01*
X11064314Y2950000D01*
Y2935734D01*
X11000000D01*
X10977811Y2932812D01*
X10957134Y2924247D01*
X10939378Y2910623D01*
X10925753Y2892867D01*
X10917188Y2872189D01*
X10914267Y2850000D01*
X10917188Y2827810D01*
X10925753Y2807133D01*
X10939377Y2789377D01*
X10957133Y2775753D01*
X10977811Y2767188D01*
X11000000Y2764267D01*
X11000002Y2764267D01*
X11064314D01*
Y2750000D01*
X11067031Y2736344D01*
X11074766Y2724766D01*
X11086344Y2717031D01*
X11100000Y2714314D01*
X11495000D01*
Y2695480D01*
X11269500D01*
X11249991Y2691599D01*
X11233452Y2680548D01*
X11128884Y2575980D01*
X9196117D01*
X9184809Y2587287D01*
X9189669Y2599020D01*
X10375000D01*
X10394509Y2602901D01*
X10411048Y2613952D01*
X10476718Y2679623D01*
X10493273Y2681802D01*
X10510302Y2688855D01*
X10524924Y2700076D01*
X10536145Y2714698D01*
X10543198Y2731727D01*
X10545604Y2750000D01*
X10543198Y2768274D01*
X10536145Y2785302D01*
X10524924Y2799925D01*
X10510302Y2811145D01*
X10493273Y2818198D01*
X10475000Y2820604D01*
X10456726Y2818198D01*
X10439698Y2811145D01*
X10425075Y2799925D01*
X10413855Y2785302D01*
X10406802Y2768274D01*
X10404622Y2751718D01*
X10353884Y2700980D01*
X9171116D01*
X9134809Y2737287D01*
X9139669Y2749020D01*
X9601451D01*
X9614698Y2738855D01*
X9631726Y2731802D01*
X9650000Y2729396D01*
X9668274Y2731802D01*
X9685302Y2738855D01*
X9699924Y2750076D01*
X9711145Y2764698D01*
X9718198Y2781726D01*
X9720604Y2800000D01*
X9718198Y2818274D01*
X9711145Y2835302D01*
X9699924Y2849924D01*
X9685302Y2861145D01*
X9668274Y2868198D01*
X9650000Y2870604D01*
X9631726Y2868198D01*
X9614698Y2861145D01*
X9601451Y2850980D01*
X9121117D01*
X8888212Y3083885D01*
X8893072Y3095618D01*
X9015682D01*
Y3064200D01*
X9185682D01*
Y3171294D01*
X9186415Y3176866D01*
Y3181352D01*
X9185682Y3186924D01*
Y3294199D01*
X9150980D01*
Y3475000D01*
X9150000Y3479925D01*
Y3570000D01*
X8812700D01*
X8800001Y3570000D01*
Y3570000D01*
X8799999D01*
Y3570000D01*
X8700000D01*
Y3570000D01*
X8600000D01*
Y3570000D01*
X8010056D01*
X8004796Y3582700D01*
X8171117Y3749020D01*
X8526451D01*
X8539698Y3738855D01*
X8556727Y3731802D01*
X8575000Y3729396D01*
X8593274Y3731802D01*
X8610302Y3738855D01*
X8624925Y3750076D01*
X8636145Y3764698D01*
X8643198Y3781726D01*
X8645604Y3800000D01*
X8643198Y3818274D01*
X8636145Y3835302D01*
X8624925Y3849924D01*
X8610302Y3861145D01*
X8593274Y3868198D01*
X8575000Y3870604D01*
X8556727Y3868198D01*
X8539698Y3861145D01*
X8526451Y3850980D01*
X8364669D01*
X8359809Y3862713D01*
X8426718Y3929622D01*
X8443273Y3931802D01*
X8460302Y3938855D01*
X8474924Y3950075D01*
X8486145Y3964698D01*
X8493198Y3981726D01*
X8495604Y4000000D01*
X8493198Y4018273D01*
X8486145Y4035302D01*
X8474924Y4049924D01*
X8460302Y4061145D01*
X8443273Y4068198D01*
X8425000Y4070604D01*
D02*
G37*
G36*
X14900000Y3085733D02*
X14892694D01*
X14870505Y3082812D01*
X14849828Y3074247D01*
X14832071Y3060623D01*
X14807182Y3035733D01*
X14600000D01*
X14594427Y3035000D01*
X14485001D01*
Y2865000D01*
X14594427D01*
X14600000Y2864267D01*
X14842694D01*
X14864883Y2867188D01*
X14885561Y2875753D01*
X14903316Y2889377D01*
X14937447Y2923508D01*
X14942867Y2925753D01*
X14960623Y2939377D01*
X14974248Y2957134D01*
X14982812Y2977811D01*
X14985733Y3000000D01*
X14982812Y3022190D01*
X14974248Y3042867D01*
X14960623Y3060623D01*
X14942867Y3074247D01*
X14922189Y3082812D01*
X14900000Y3085733D01*
D02*
G37*
G36*
X13100000Y3285686D02*
X12450000D01*
X12436344Y3282969D01*
X12424766Y3275234D01*
X12417031Y3263656D01*
X12414314Y3250000D01*
Y2725000D01*
X12417031Y2711344D01*
X12424766Y2699766D01*
X12436344Y2692031D01*
X12450000Y2689314D01*
X12914267D01*
Y2125000D01*
X12917188Y2102811D01*
X12925752Y2082134D01*
X12939377Y2064377D01*
X12957133Y2050753D01*
X12977811Y2042188D01*
X13000000Y2039267D01*
X13022189Y2042188D01*
X13042867Y2050753D01*
X13060623Y2064377D01*
X13074248Y2082134D01*
X13082812Y2102811D01*
X13085733Y2125000D01*
Y2689314D01*
X13100000D01*
X13113657Y2692031D01*
X13125233Y2699766D01*
X13132970Y2711344D01*
X13135686Y2725000D01*
X13135686Y3250000D01*
X13132970Y3263656D01*
X13125233Y3275234D01*
X13113657Y3282969D01*
X13100000Y3285686D01*
D02*
G37*
G36*
X12705000Y2582500D02*
X12435000D01*
Y2568480D01*
X12217500D01*
X12197991Y2564599D01*
X12181452Y2553548D01*
X11963952Y2336048D01*
X11952901Y2319509D01*
X11949020Y2300000D01*
Y1521116D01*
X11647952Y1220048D01*
X11636901Y1203509D01*
X11633020Y1184000D01*
Y1156830D01*
X11610874Y1147657D01*
X11580585Y1124415D01*
X11557343Y1094126D01*
X11542732Y1058853D01*
X11537749Y1021000D01*
X11542732Y983147D01*
X11557343Y947874D01*
X11580585Y917585D01*
X11610874Y894343D01*
X11646147Y879732D01*
X11684000Y874749D01*
X11721853Y879732D01*
X11757126Y894343D01*
X11787415Y917585D01*
X11810657Y947874D01*
X11825268Y983147D01*
X11830251Y1021000D01*
X11825268Y1058853D01*
X11810657Y1094126D01*
X11787415Y1124415D01*
X11757126Y1147657D01*
X11743003Y1153507D01*
X11740419Y1168324D01*
X12036048Y1463952D01*
X12047099Y1480491D01*
X12050979Y1500000D01*
Y2278884D01*
X12238616Y2466521D01*
X12435000D01*
Y2441480D01*
X12315500D01*
X12295991Y2437599D01*
X12279452Y2426548D01*
X12155952Y2303048D01*
X12144901Y2286509D01*
X12141020Y2267000D01*
Y1156830D01*
X12118874Y1147657D01*
X12088585Y1124415D01*
X12065343Y1094126D01*
X12050732Y1058853D01*
X12045749Y1021000D01*
X12050732Y983147D01*
X12065343Y947874D01*
X12088585Y917585D01*
X12118874Y894343D01*
X12154147Y879732D01*
X12192000Y874749D01*
X12229853Y879732D01*
X12265126Y894343D01*
X12295415Y917585D01*
X12318657Y947874D01*
X12333268Y983147D01*
X12338251Y1021000D01*
X12333268Y1058853D01*
X12318657Y1094126D01*
X12295415Y1124415D01*
X12265126Y1147657D01*
X12242980Y1156830D01*
Y2245884D01*
X12336617Y2339521D01*
X12435000D01*
Y2198500D01*
Y2071500D01*
Y1944500D01*
Y1817500D01*
Y1690500D01*
Y1563500D01*
Y1436500D01*
X12705000D01*
Y1563500D01*
Y1690500D01*
Y1817500D01*
Y1944500D01*
Y2071500D01*
Y2198500D01*
Y2325500D01*
Y2452500D01*
Y2582500D01*
D02*
G37*
G36*
X7655000Y1135000D02*
X7385000D01*
Y715000D01*
X7655000D01*
Y1135000D01*
D02*
G37*
G36*
X6675000D02*
X6405000D01*
Y715000D01*
X6675000D01*
Y1135000D01*
D02*
G37*
G36*
X10515000Y1468000D02*
X10285001D01*
Y1298000D01*
X10334439D01*
Y1159295D01*
X10107642Y932497D01*
X10097223Y918919D01*
X10090673Y903107D01*
X10088439Y886138D01*
Y708939D01*
X10029000Y649500D01*
Y635393D01*
X10016300Y632867D01*
X10009187Y650039D01*
X9989151Y676151D01*
X9965561Y694253D01*
Y929560D01*
X10146359Y1110357D01*
X10156778Y1123936D01*
X10163327Y1139747D01*
X10165561Y1156716D01*
Y1298000D01*
X10215000D01*
Y1468000D01*
X9985000D01*
Y1298000D01*
X10034439D01*
Y1183872D01*
X9853642Y1003074D01*
X9843223Y989496D01*
X9836673Y973684D01*
X9834439Y956716D01*
Y694253D01*
X9810849Y676151D01*
X9790813Y650039D01*
X9779518Y622772D01*
X9779498Y622767D01*
X9766502D01*
X9766482Y622772D01*
X9755187Y650039D01*
X9735151Y676151D01*
X9711561Y694253D01*
Y918844D01*
X9846359Y1053642D01*
X9856778Y1067220D01*
X9863327Y1083032D01*
X9865561Y1100000D01*
Y1298000D01*
X9915000D01*
Y1468000D01*
X9685000D01*
Y1298000D01*
X9734440D01*
Y1127156D01*
X9599642Y992358D01*
X9589223Y978780D01*
X9582673Y962968D01*
X9580439Y946000D01*
Y704257D01*
X9578261Y703083D01*
X9565561Y710665D01*
Y1298000D01*
X9615000D01*
Y1468000D01*
X9385001D01*
Y1298000D01*
X9434440D01*
Y722157D01*
X9421481Y709197D01*
X9392000Y713079D01*
X9359368Y708783D01*
X9328961Y696187D01*
X9302849Y676151D01*
X9282813Y650039D01*
X9271518Y622772D01*
X9271498Y622767D01*
X9258502D01*
X9258482Y622772D01*
X9250912Y641047D01*
X9256777Y648692D01*
X9263327Y664504D01*
X9265561Y681472D01*
Y1298000D01*
X9315000D01*
Y1468000D01*
X9085000D01*
Y1298000D01*
X9134439D01*
Y712610D01*
X9105368Y708783D01*
X9074961Y696187D01*
X9048849Y676151D01*
X9028813Y650039D01*
X9017518Y622772D01*
X9017498Y622767D01*
X9004502D01*
X9004482Y622772D01*
X8993187Y650039D01*
X8973151Y676151D01*
X8965561Y681975D01*
Y1298000D01*
X9015000D01*
Y1468000D01*
X8785000D01*
Y1298000D01*
X8834439D01*
Y701770D01*
X8820961Y696187D01*
X8794849Y676151D01*
X8774813Y650039D01*
X8763518Y622772D01*
X8763498Y622767D01*
X8750502D01*
X8750482Y622772D01*
X8739187Y650039D01*
X8719151Y676151D01*
X8693039Y696187D01*
X8665561Y707569D01*
Y1298000D01*
X8715000D01*
Y1468000D01*
X8485000D01*
Y1298000D01*
X8534439D01*
Y667798D01*
X8520813Y650039D01*
X8509518Y622772D01*
X8509498Y622767D01*
X8496502D01*
X8496482Y622772D01*
X8485187Y650039D01*
X8465151Y676151D01*
X8439039Y696187D01*
X8408632Y708783D01*
X8376000Y713079D01*
X8375109Y712961D01*
X8365561Y721335D01*
Y1298000D01*
X8415000D01*
Y1468000D01*
X8185000D01*
Y1298000D01*
X8234439D01*
Y682147D01*
X8236673Y665179D01*
X8243223Y649367D01*
X8253642Y635789D01*
X8258781Y630650D01*
X8254217Y619632D01*
X8249922Y587000D01*
X8254217Y554368D01*
X8266813Y523961D01*
X8286849Y497849D01*
X8312961Y477813D01*
X8343368Y465218D01*
X8376000Y460922D01*
X8408632Y465218D01*
X8439039Y477813D01*
X8465151Y497849D01*
X8485187Y523961D01*
X8496482Y551228D01*
X8496502Y551234D01*
X8509498D01*
X8509518Y551228D01*
X8520813Y523961D01*
X8540849Y497849D01*
X8566961Y477813D01*
X8597368Y465218D01*
X8630000Y460922D01*
X8662632Y465218D01*
X8693039Y477813D01*
X8719151Y497849D01*
X8739187Y523961D01*
X8750482Y551228D01*
X8750502Y551234D01*
X8763498D01*
X8763518Y551228D01*
X8774813Y523961D01*
X8794849Y497849D01*
X8820961Y477813D01*
X8851368Y465218D01*
X8884000Y460922D01*
X8916632Y465218D01*
X8947039Y477813D01*
X8973151Y497849D01*
X8993187Y523961D01*
X9004482Y551228D01*
X9004502Y551234D01*
X9017498D01*
X9017518Y551228D01*
X9028813Y523961D01*
X9048849Y497849D01*
X9074961Y477813D01*
X9105368Y465218D01*
X9138000Y460922D01*
X9170632Y465218D01*
X9201039Y477813D01*
X9227151Y497849D01*
X9247187Y523961D01*
X9258482Y551228D01*
X9258502Y551234D01*
X9271498D01*
X9271518Y551228D01*
X9282813Y523961D01*
X9302849Y497849D01*
X9328961Y477813D01*
X9359368Y465218D01*
X9392000Y460922D01*
X9424632Y465218D01*
X9455039Y477813D01*
X9481151Y497849D01*
X9501187Y523961D01*
X9512482Y551228D01*
X9512502Y551234D01*
X9525498D01*
X9525518Y551228D01*
X9536813Y523961D01*
X9556849Y497849D01*
X9582961Y477813D01*
X9613368Y465218D01*
X9646000Y460922D01*
X9678632Y465218D01*
X9709039Y477813D01*
X9735151Y497849D01*
X9755187Y523961D01*
X9766482Y551228D01*
X9766502Y551234D01*
X9779498D01*
X9779518Y551228D01*
X9790813Y523961D01*
X9810849Y497849D01*
X9836961Y477813D01*
X9867368Y465218D01*
X9900000Y460922D01*
X9932632Y465218D01*
X9963039Y477813D01*
X9989151Y497849D01*
X10009187Y523961D01*
X10016300Y541133D01*
X10029000Y538607D01*
Y524500D01*
X10091500Y462000D01*
X10216500D01*
X10279000Y524500D01*
Y649500D01*
X10219561Y708939D01*
Y858983D01*
X10446358Y1085780D01*
X10456777Y1099358D01*
X10463327Y1115170D01*
X10465561Y1132138D01*
Y1298000D01*
X10515000D01*
Y1468000D01*
D02*
G37*
G36*
X7250000Y690733D02*
X7227811Y687812D01*
X7207133Y679247D01*
X7189377Y665622D01*
X7175753Y647867D01*
X7167188Y627189D01*
X7164267Y605000D01*
X7167188Y582810D01*
X7175753Y562133D01*
X7189377Y544377D01*
X7207133Y530753D01*
X7227811Y522188D01*
X7250000Y519266D01*
X7272189Y522188D01*
X7292867Y530753D01*
X7310623Y544377D01*
X7324247Y562133D01*
X7332812Y582810D01*
X7335733Y605000D01*
X7332812Y627189D01*
X7324247Y647867D01*
X7310623Y665622D01*
X7292867Y679247D01*
X7272189Y687812D01*
X7250000Y690733D01*
D02*
G37*
G36*
X6810000D02*
X6787810Y687812D01*
X6767133Y679247D01*
X6749377Y665622D01*
X6735753Y647867D01*
X6727188Y627189D01*
X6724266Y605000D01*
X6727188Y582810D01*
X6735753Y562133D01*
X6749377Y544377D01*
X6767133Y530753D01*
X6787810Y522188D01*
X6810000Y519266D01*
X6832189Y522188D01*
X6852867Y530753D01*
X6870623Y544377D01*
X6884247Y562133D01*
X6892812Y582810D01*
X6895733Y605000D01*
X6892812Y627189D01*
X6884247Y647867D01*
X6870623Y665622D01*
X6852867Y679247D01*
X6832189Y687812D01*
X6810000Y690733D01*
D02*
G37*
G36*
X3958500Y2080000D02*
X3781500D01*
Y1794000D01*
X3784266D01*
Y1231581D01*
X3774766Y1225233D01*
X3767031Y1213656D01*
X3764314Y1200000D01*
X3764314Y450000D01*
X3767031Y436343D01*
X3774766Y424766D01*
X3786343Y417030D01*
X3800000Y414314D01*
X5900000Y414314D01*
X5913656Y417031D01*
X5925233Y424766D01*
X5932969Y436344D01*
X5935685Y450000D01*
X5935686Y1200000D01*
X5932969Y1213656D01*
X5925234Y1225234D01*
X5913656Y1232969D01*
X5900000Y1235686D01*
X4485000Y1235685D01*
Y1335000D01*
X4015000D01*
Y1235685D01*
X3955733D01*
Y1794000D01*
X3958500D01*
Y2080000D01*
D02*
G37*
G36*
X7655000Y650000D02*
X7385000D01*
Y180000D01*
X7655000D01*
Y650000D01*
D02*
G37*
G36*
X6675000D02*
X6405000D01*
Y180000D01*
X6675000D01*
Y650000D01*
D02*
G37*
%LPD*%
G36*
X14800000Y8700000D02*
Y8000000D01*
X1500000Y8000000D01*
X1250000Y7750000D01*
Y6100000D01*
X3200000D01*
Y5550000D01*
X3400000D01*
Y5050000D01*
X2900000D01*
X2700000Y5250000D01*
Y5550000D01*
X1950000D01*
X1950000Y2350000D01*
X1100000Y2350000D01*
X1100000Y4000000D01*
X200000Y4000000D01*
Y8700000D01*
X1500000D01*
X14800000Y8700000D01*
D02*
G37*
G36*
X3650000Y4500000D02*
Y4000000D01*
X2100000Y4000000D01*
Y4500000D01*
X3650000Y4500000D01*
D02*
G37*
G36*
X3400000Y2350000D02*
Y1800000D01*
X2650000D01*
Y2462281D01*
X2650000Y2450000D01*
X2649999Y2450000D01*
X2650000Y2449999D01*
Y2350001D01*
X2650000Y2350000D01*
X1950000D01*
Y3100000D01*
X2650000D01*
X3400000Y2350000D01*
D02*
G37*
G36*
X3650000Y450000D02*
X2150000D01*
X2150000Y1200000D01*
X3650000D01*
X3650000Y450000D01*
D02*
G37*
G36*
X11691999Y6696000D02*
X11691999D01*
Y6583305D01*
X11660347Y6551653D01*
X11648191Y6533460D01*
X11643922Y6512000D01*
Y6235000D01*
X11585000D01*
Y6206077D01*
X11414999D01*
Y6235000D01*
X11185000D01*
Y6206077D01*
X11150000D01*
X11128540Y6201809D01*
X11110347Y6189653D01*
X10795772Y5875077D01*
X10777968D01*
X10773259Y5879887D01*
X10768811Y5892190D01*
X10777674Y5905454D01*
X10780786Y5921100D01*
Y5970900D01*
X10777674Y5986546D01*
X10768811Y5999810D01*
X10773259Y6012113D01*
X10777968Y6016923D01*
X10873000D01*
X10894460Y6021191D01*
X10912653Y6033347D01*
X11587055Y6707749D01*
X11689704D01*
X11691999Y6696000D01*
D02*
G37*
G36*
X8854118Y5520995D02*
Y5434571D01*
X8842385Y5429711D01*
X8772878Y5499218D01*
X8770698Y5515774D01*
X8763645Y5532802D01*
X8752424Y5547425D01*
X8737802Y5558645D01*
X8720774Y5565698D01*
X8702500Y5568104D01*
X8684226Y5565698D01*
X8667198Y5558645D01*
X8652576Y5547425D01*
X8641355Y5532802D01*
X8634302Y5515774D01*
X8631896Y5497500D01*
X8634302Y5479227D01*
X8640292Y5464764D01*
X8629526Y5457570D01*
X8470677Y5616419D01*
X8475938Y5629119D01*
X8745995D01*
X8854118Y5520995D01*
D02*
G37*
G36*
X11050000Y4750000D02*
X11050000Y4499999D01*
X9500000Y4500000D01*
X9500000Y4750000D01*
X11050000Y4750000D01*
D02*
G37*
G36*
X9764267Y4209207D02*
Y4050979D01*
X9571116D01*
X9552027Y4070069D01*
X9557551Y4082506D01*
X9572881Y4088855D01*
X9587503Y4100076D01*
X9598723Y4114698D01*
X9605777Y4131727D01*
X9608183Y4150000D01*
X9605777Y4168274D01*
X9598723Y4185302D01*
X9596937Y4187630D01*
X9602554Y4199020D01*
X9656149D01*
X9660980Y4195313D01*
X9678009Y4188260D01*
X9696282Y4185854D01*
X9714556Y4188260D01*
X9731584Y4195313D01*
X9746207Y4206533D01*
X9751567Y4213518D01*
X9764267Y4209207D01*
D02*
G37*
G36*
X15224834Y3579557D02*
X15239719Y3569611D01*
X15257277Y3566118D01*
X15526701D01*
X15602647Y3490171D01*
X15617532Y3480225D01*
X15625685Y3478604D01*
X15628217Y3459368D01*
X15640813Y3428961D01*
X15660849Y3402849D01*
X15686961Y3382813D01*
X15714227Y3371518D01*
X15714233Y3371498D01*
Y3358502D01*
X15714227Y3358482D01*
X15686961Y3347187D01*
X15660849Y3327151D01*
X15640813Y3301039D01*
X15628217Y3270632D01*
X15623923Y3238000D01*
X15628217Y3205368D01*
X15633212Y3193309D01*
X15601532Y3161627D01*
X15183786D01*
X15094365Y3251048D01*
X15077826Y3262099D01*
X15058318Y3265979D01*
X14714999D01*
Y3335000D01*
X14485001D01*
Y3315833D01*
X14472301Y3310572D01*
X14325980Y3456893D01*
Y3660024D01*
X14337370Y3665642D01*
X14339697Y3663855D01*
X14356726Y3656802D01*
X14375000Y3654396D01*
X14393272Y3656802D01*
X14410303Y3663855D01*
X14424924Y3675075D01*
X14428027Y3679118D01*
X15125272D01*
X15224834Y3579557D01*
D02*
G37*
%LPC*%
G36*
X14850000Y3635733D02*
X14600000D01*
X14594427Y3635000D01*
X14485001D01*
Y3465000D01*
X14594427D01*
X14600000Y3464267D01*
X14850000D01*
X14872189Y3467188D01*
X14892867Y3475753D01*
X14910623Y3489377D01*
X14924248Y3507133D01*
X14932812Y3527811D01*
X14935733Y3550000D01*
X14932812Y3572189D01*
X14924248Y3592867D01*
X14910623Y3610623D01*
X14892867Y3624247D01*
X14872189Y3632812D01*
X14850000Y3635733D01*
D02*
G37*
%LPD*%
G36*
X6826020Y5023000D02*
X6829901Y5003491D01*
X6840952Y4986952D01*
X6965191Y4862713D01*
X6960331Y4850980D01*
X6921117D01*
X6800980Y4971117D01*
Y5425000D01*
X6826020D01*
Y5023000D01*
D02*
G37*
G36*
X6699020Y4950000D02*
X6702901Y4930491D01*
X6713952Y4913952D01*
X6815191Y4812713D01*
X6810331Y4800979D01*
X6771117D01*
X6673980Y4898116D01*
Y5425000D01*
X6699020D01*
Y4950000D01*
D02*
G37*
G36*
X6064020Y4985000D02*
X6067901Y4965491D01*
X6078952Y4948952D01*
X6465192Y4562713D01*
X6460331Y4550979D01*
X6421116D01*
X6038980Y4933116D01*
Y5425000D01*
X6064020D01*
Y4985000D01*
D02*
G37*
G36*
X6940000Y1580000D02*
X7000962D01*
X7007557Y1570131D01*
X7025131Y1552557D01*
X7034119Y1546552D01*
Y1375573D01*
X6937557Y1279011D01*
X6935348Y1275706D01*
X6918326Y1273090D01*
X6915882Y1275054D01*
Y1467117D01*
X6912389Y1484675D01*
X6902443Y1499560D01*
X6845881Y1556122D01*
Y1635000D01*
X6885000D01*
Y1754118D01*
X6940000D01*
Y1580000D01*
D02*
G37*
G36*
X5850000Y3900000D02*
X3800000D01*
Y4650000D01*
X5850000D01*
Y3900000D01*
D02*
G37*
G36*
X9049021Y3294199D02*
X9015682D01*
Y3267085D01*
X8882684D01*
X8866338Y3269237D01*
X8844149Y3266316D01*
X8823472Y3257751D01*
X8805716Y3244126D01*
X8792091Y3226370D01*
X8783526Y3205693D01*
X8783408Y3204796D01*
X8771382Y3200714D01*
X8650980Y3321117D01*
Y3380000D01*
X8787300D01*
X8799999Y3380000D01*
Y3380000D01*
X8800001D01*
Y3380000D01*
X9049021D01*
Y3294199D01*
D02*
G37*
G36*
X11750000Y2750000D02*
X11100000D01*
Y2950000D01*
X11750000D01*
Y2750000D01*
D02*
G37*
G36*
X11147162Y2461320D02*
X11136822Y2450980D01*
X9221117D01*
X9209809Y2462287D01*
X9214669Y2474020D01*
X11141902D01*
X11147162Y2461320D01*
D02*
G37*
G36*
X13100000Y2725000D02*
X12450000D01*
Y3250000D01*
X13100000D01*
X13100000Y2725000D01*
D02*
G37*
G36*
X5900000Y450000D02*
X3800000Y450000D01*
X3800000Y1200000D01*
X5900000Y1200000D01*
X5900000Y450000D01*
D02*
G37*
D10*
X8590500Y6470000D02*
D03*
X8463500D02*
D03*
X8336500D02*
D03*
X8209500D02*
D03*
Y5930000D02*
D03*
X8336500D02*
D03*
X8463500D02*
D03*
X8590500D02*
D03*
D11*
X8900000Y6850000D02*
D03*
Y6550000D02*
D03*
X9800000Y4950000D02*
D03*
Y4650000D02*
D03*
X10100000Y4950000D02*
D03*
Y4650000D02*
D03*
X10400000Y4950000D02*
D03*
Y4650000D02*
D03*
X10450000Y4000000D02*
D03*
Y4300000D02*
D03*
X5650000Y4550000D02*
D03*
Y4850000D02*
D03*
X11200000Y2850000D02*
D03*
Y3150000D02*
D03*
X8300000Y1683000D02*
D03*
Y1383000D02*
D03*
X8600000D02*
D03*
Y1683000D02*
D03*
X9200000D02*
D03*
Y1383000D02*
D03*
X9800000Y1683000D02*
D03*
Y1383000D02*
D03*
X10100000Y1683000D02*
D03*
Y1383000D02*
D03*
X10400000Y1683000D02*
D03*
Y1383000D02*
D03*
X8900000Y1683000D02*
D03*
Y1383000D02*
D03*
X9500000Y1683000D02*
D03*
Y1383000D02*
D03*
X14625000Y4150000D02*
D03*
Y3850000D02*
D03*
X14600000Y4400000D02*
D03*
Y4700000D02*
D03*
Y3550000D02*
D03*
Y3250000D02*
D03*
Y2950000D02*
D03*
Y2650000D02*
D03*
X11299999Y6150000D02*
D03*
Y5850000D02*
D03*
X14600000Y5000000D02*
D03*
Y5300000D02*
D03*
X5750000Y1400000D02*
D03*
Y1100000D02*
D03*
X13499998Y5850000D02*
D03*
Y6150000D02*
D03*
X13099998D02*
D03*
Y5850000D02*
D03*
X12699999Y6150000D02*
D03*
Y5850000D02*
D03*
X11699999Y6150000D02*
D03*
Y5850000D02*
D03*
X12099999Y6150000D02*
D03*
Y5850000D02*
D03*
D12*
X3200000Y4250000D02*
D03*
X4200000D02*
D03*
X3250000Y950000D02*
D03*
X4250000D02*
D03*
D13*
X6800000Y1750000D02*
D03*
X6500000D02*
D03*
X7400000Y5400000D02*
D03*
X7700000D02*
D03*
X10150000Y3700000D02*
D03*
X9850000D02*
D03*
X10150000Y4000000D02*
D03*
X9850000D02*
D03*
X9350000Y5500000D02*
D03*
X9050000D02*
D03*
X9400682Y3179199D02*
D03*
X9100682D02*
D03*
X7525000Y3500000D02*
D03*
X7225000D02*
D03*
X8350000Y5400000D02*
D03*
X8050000D02*
D03*
X7025000Y3800000D02*
D03*
X7325000D02*
D03*
X13300000Y3100000D02*
D03*
X13000000D02*
D03*
Y2800000D02*
D03*
X13300000D02*
D03*
X9550000Y6000000D02*
D03*
X9850000D02*
D03*
D14*
X8000000Y6750000D02*
D03*
Y6550000D02*
D03*
D15*
X2500000Y4830000D02*
D03*
Y4170000D02*
D03*
X2450000Y840000D02*
D03*
Y1500000D02*
D03*
D16*
X10127500Y6581000D02*
D03*
Y6454000D02*
D03*
Y6327000D02*
D03*
Y6200000D02*
D03*
Y6073000D02*
D03*
Y5946000D02*
D03*
Y5819000D02*
D03*
X10672500Y6581000D02*
D03*
Y6454000D02*
D03*
Y6327000D02*
D03*
Y6200000D02*
D03*
Y6073000D02*
D03*
Y5946000D02*
D03*
Y5819000D02*
D03*
D17*
X9275000Y3650000D02*
D03*
Y3700000D02*
D03*
X9275000Y3750000D02*
D03*
X9275000Y3800000D02*
D03*
Y3850000D02*
D03*
Y3900000D02*
D03*
Y3950000D02*
D03*
Y4000000D02*
D03*
Y4050000D02*
D03*
Y4100000D02*
D03*
Y4150000D02*
D03*
Y4200000D02*
D03*
Y4250000D02*
D03*
Y4300000D02*
D03*
X9275000Y4350000D02*
D03*
X9274999Y4400000D02*
D03*
X9275000Y4450000D02*
D03*
Y4500000D02*
D03*
Y4550000D02*
D03*
Y4600000D02*
D03*
Y4650000D02*
D03*
Y4700000D02*
D03*
Y4750000D02*
D03*
Y4800000D02*
D03*
Y4850000D02*
D03*
X7725000D02*
D03*
Y4800000D02*
D03*
X7725000Y4750000D02*
D03*
X7725000Y4700000D02*
D03*
Y4650000D02*
D03*
Y4600000D02*
D03*
Y4550000D02*
D03*
Y4500000D02*
D03*
Y4450000D02*
D03*
Y4400000D02*
D03*
Y4350000D02*
D03*
Y4300000D02*
D03*
Y4250000D02*
D03*
Y4200000D02*
D03*
X7725000Y4150000D02*
D03*
X7725001Y4100000D02*
D03*
X7725000Y4050000D02*
D03*
Y4000000D02*
D03*
Y3950000D02*
D03*
Y3900000D02*
D03*
Y3850000D02*
D03*
Y3800000D02*
D03*
Y3750000D02*
D03*
Y3700000D02*
D03*
Y3650000D02*
D03*
D18*
X9100000Y5025000D02*
D03*
X9050000D02*
D03*
X9000000Y5025000D02*
D03*
X8950000Y5025000D02*
D03*
X8900000D02*
D03*
X8850000D02*
D03*
X8800000D02*
D03*
X8750000D02*
D03*
X8700000D02*
D03*
X8650000D02*
D03*
X8600000D02*
D03*
X8550000D02*
D03*
X8500000D02*
D03*
X8450000D02*
D03*
X8400000Y5025000D02*
D03*
X8350000Y5024999D02*
D03*
X8300000Y5025000D02*
D03*
X8250000D02*
D03*
X8200000D02*
D03*
X8150000D02*
D03*
X8100000D02*
D03*
X8050000D02*
D03*
X8000000D02*
D03*
X7950000D02*
D03*
X7900000D02*
D03*
Y3475000D02*
D03*
X7950000D02*
D03*
X8000000Y3475000D02*
D03*
X8050000Y3475000D02*
D03*
X8100000D02*
D03*
X8150000D02*
D03*
X8200000D02*
D03*
X8250000D02*
D03*
X8300000D02*
D03*
X8350000D02*
D03*
X8400000D02*
D03*
X8450000D02*
D03*
X8500000D02*
D03*
X8550000D02*
D03*
X8600000Y3475000D02*
D03*
X8650000Y3475000D02*
D03*
X8700000Y3475000D02*
D03*
X8750000D02*
D03*
X8800000D02*
D03*
X8850000D02*
D03*
X8900000D02*
D03*
X8950000D02*
D03*
X9000000D02*
D03*
X9050000D02*
D03*
X9100000D02*
D03*
D19*
X12800000Y6600000D02*
D03*
X13127499D02*
D03*
X12099999D02*
D03*
X11772499D02*
D03*
D20*
X5988000Y6500000D02*
D03*
X6115000D02*
D03*
X6242000D02*
D03*
X6369000D02*
D03*
X6496000D02*
D03*
X6623000D02*
D03*
X6750000D02*
D03*
X6877000D02*
D03*
X7004000D02*
D03*
Y5560000D02*
D03*
X6877000D02*
D03*
X6750000D02*
D03*
X6623000D02*
D03*
X6496000D02*
D03*
X6369000D02*
D03*
X6242000D02*
D03*
X6115000D02*
D03*
X5988000D02*
D03*
D21*
X12570000Y2898500D02*
D03*
Y2771500D02*
D03*
Y2644500D02*
D03*
Y2517500D02*
D03*
Y2390500D02*
D03*
Y2263500D02*
D03*
Y2136500D02*
D03*
Y2009500D02*
D03*
Y1882500D02*
D03*
Y1755500D02*
D03*
Y1628500D02*
D03*
Y1501500D02*
D03*
X11630000D02*
D03*
Y1628500D02*
D03*
Y1755500D02*
D03*
Y1882500D02*
D03*
Y2009500D02*
D03*
Y2136500D02*
D03*
Y2263500D02*
D03*
Y2390500D02*
D03*
Y2517500D02*
D03*
Y2644500D02*
D03*
Y2771500D02*
D03*
Y2898500D02*
D03*
D22*
X3700000Y6254500D02*
D03*
Y3004500D02*
D03*
D23*
X3360000Y5187000D02*
D03*
X3530000D02*
D03*
X3700000D02*
D03*
X3870000D02*
D03*
X4040000D02*
D03*
X3360000Y1937000D02*
D03*
X3530000D02*
D03*
X3700000D02*
D03*
X3870000D02*
D03*
X4040000D02*
D03*
D24*
X7005000Y1930000D02*
D03*
X7100000D02*
D03*
X7195000D02*
D03*
Y1670000D02*
D03*
X7100000D02*
D03*
X7005000D02*
D03*
D25*
X6540000Y415000D02*
D03*
X7520000D02*
D03*
D26*
X6540000Y925000D02*
D03*
X7520000D02*
D03*
D27*
X7190000D02*
D03*
X7110000D02*
D03*
X7030000D02*
D03*
X6950000D02*
D03*
X6870000D02*
D03*
D28*
X9050000Y4500000D02*
X9150000Y4600000D01*
X9275000D01*
X8936861Y3324261D02*
X8946428Y3333828D01*
X8976253D01*
X9045000Y3402575D02*
Y3425000D01*
X9050000Y3430000D01*
Y3475000D01*
X8976253Y3333828D02*
X9045000Y3402575D01*
X8800000Y3475000D02*
Y3650000D01*
X8350000Y5400000D02*
X8365000Y5385000D01*
Y5230000D02*
Y5385000D01*
X9050000Y5025000D02*
X9050000Y5025000D01*
X9050000Y4850000D02*
Y5025000D01*
Y4100000D02*
X9275000D01*
X9275000Y4100000D01*
X7834603Y3700000D02*
X7941390Y3806787D01*
X7725000Y3700000D02*
X7834603D01*
X9000000Y5229041D02*
X9010000Y5239041D01*
Y5460000D01*
X9015000Y5465000D01*
X9000000Y5025000D02*
Y5229041D01*
X7175000Y1650000D02*
X7195000Y1670000D01*
X6950000Y925000D02*
Y1010000D01*
X6970000Y1246568D02*
X7080000Y1356569D01*
X6970000Y1030000D02*
Y1246568D01*
X7080000Y1356569D02*
Y1573284D01*
X7040000Y1602574D02*
X7057574Y1585000D01*
X7005000Y1645000D02*
X7040000Y1610000D01*
X7005000Y1645000D02*
Y1670000D01*
X7120000Y1340000D02*
Y1573284D01*
X6950000Y1010000D02*
X6970000Y1030000D01*
X7131716Y1585000D02*
X7142426D01*
X7160000Y1602574D01*
X7120000Y1573284D02*
X7131716Y1585000D01*
X7010000Y1030000D02*
X7030000Y1010000D01*
Y925000D02*
Y1010000D01*
X7160000Y1602574D02*
Y1610000D01*
X7010000Y1030000D02*
Y1230000D01*
X7040000Y1602574D02*
Y1610000D01*
X7195000Y1645000D02*
Y1670000D01*
X7160000Y1610000D02*
X7195000Y1645000D01*
X7057574Y1585000D02*
X7068284D01*
X7080000Y1573284D01*
X7010000Y1230000D02*
X7120000Y1340000D01*
X14375000Y3725000D02*
X14500000Y3850000D01*
X14625000D01*
X14388530Y4325000D02*
X14423531Y4360000D01*
X14375000Y4325000D02*
X14388530D01*
X14560001Y4360000D02*
X14600000Y4400000D01*
X14423531Y4360000D02*
X14560001D01*
X14375000Y3725000D02*
X15144276D01*
X15257277Y3612000D01*
X15545706D01*
X15635091Y3522614D01*
X15719385D01*
X15750000Y3492000D01*
X14375000Y4325000D02*
X14458569Y4241430D01*
Y4144003D02*
Y4241430D01*
Y4144003D02*
X14578773Y4023799D01*
X15172726D01*
X15330527Y3866000D01*
X15630000D01*
X15750000Y3746000D01*
X14944250Y4755750D02*
Y4994250D01*
Y4755750D02*
X15312000Y4388000D01*
X15616000D01*
X15750000Y4254000D01*
X8295000Y6182500D02*
Y6254000D01*
Y6177500D02*
Y6182500D01*
X8462500Y5675000D02*
X8765000D01*
X8336500Y5801000D02*
Y5930000D01*
Y5801000D02*
X8462500Y5675000D01*
X8295000Y6254000D02*
X8463500Y6422500D01*
Y6470000D01*
X8765000Y5675000D02*
X8900000Y5540000D01*
Y5025000D02*
Y5540000D01*
X7438285Y4061716D02*
X7605001Y3895000D01*
X7023713Y1998713D02*
X7080000Y2055000D01*
X7605001Y3895000D02*
X7665000D01*
X7023713Y1948713D02*
Y1998713D01*
X7665000Y3895000D02*
X7665000Y3895000D01*
X7005000Y1930000D02*
X7023713Y1948713D01*
X7665000Y3895000D02*
X7720000D01*
X6610000Y3791569D02*
X6880147Y4061716D01*
X7080000Y2055000D02*
Y2643285D01*
X6880147Y4061716D02*
X7438285D01*
X6610000Y3113285D02*
X7080000Y2643285D01*
X7720000Y3895000D02*
X7725000Y3900000D01*
X6610000Y3113285D02*
Y3791569D01*
X6896715Y4021716D02*
X7421716D01*
X7588432Y3855000D02*
X7720000D01*
X7176287Y1948713D02*
Y1998714D01*
X7720000Y3855000D02*
X7725000Y3850000D01*
X6650000Y3129853D02*
Y3775000D01*
X7120000Y2055001D02*
Y2659853D01*
X6650000Y3129853D02*
X7120000Y2659853D01*
Y2055001D02*
X7176287Y1998714D01*
X7421716Y4021716D02*
X7588432Y3855000D01*
X6650000Y3775000D02*
X6896715Y4021716D01*
X7176287Y1948713D02*
X7195000Y1930000D01*
X7075635Y1800000D02*
X7097280Y1821644D01*
X6800000Y1760000D02*
X6840000Y1800000D01*
X7075635D01*
X6800000Y1537117D02*
Y1760000D01*
X6870000Y925000D02*
Y1467117D01*
X6800000Y1537117D02*
X6870000Y1467117D01*
X7100000Y1825000D02*
Y1930000D01*
D29*
X9100000Y3181352D02*
Y3475000D01*
Y3150000D02*
Y3181352D01*
X7725000Y3800000D02*
X7800000D01*
X8050000Y4050000D02*
X8125000D01*
X7800000Y3800000D02*
X8050000Y4050000D01*
X14605750Y4994250D02*
X14944250D01*
X14600000Y5000000D02*
X14605750Y4994250D01*
X8702500Y5497500D02*
X8850000Y5350000D01*
Y5025000D02*
Y5350000D01*
X8209500Y5805500D02*
X8800000Y5215000D01*
Y5025000D02*
Y5215000D01*
X8209500Y5805500D02*
Y5930000D01*
X8897500Y6552500D02*
X8912500D01*
X8950000Y5025000D02*
Y6515000D01*
X8912500Y6552500D02*
X8950000Y6515000D01*
X9015000Y5465000D02*
X9050000Y5500000D01*
X7360000Y3750000D02*
X7725000D01*
X7325000Y3785000D02*
X7360000Y3750000D01*
X7325000Y3785000D02*
Y3800000D01*
X7225000Y3500000D02*
Y3600000D01*
X7275000Y3650000D01*
X12192000Y1021000D02*
Y2267000D01*
X12315500Y2390500D02*
X12570000D01*
X12192000Y2267000D02*
X12315500Y2390500D01*
X14275000Y3435776D02*
X14460776Y3250000D01*
X14275000Y3435776D02*
Y4000000D01*
X14460776Y3250000D02*
X14600000D01*
X14635001Y3215000D01*
X11157938Y2400000D02*
X11275438Y2517500D01*
X9200000Y2400000D02*
X11157938D01*
X11275438Y2517500D02*
X11630000D01*
X11150000Y2525000D02*
X11269500Y2644500D01*
X9175000Y2525000D02*
X11150000D01*
X11269500Y2644500D02*
X11630000D01*
X8500000Y3200000D02*
X9175000Y2525000D01*
X9100000Y2800000D02*
X9650000D01*
X8600000Y3300000D02*
X9100000Y2800000D01*
X9150000Y2650000D02*
X10375000D01*
X8550000Y3250000D02*
X9150000Y2650000D01*
X10375000D02*
X10475000Y2750000D01*
X8600000Y3300000D02*
Y3475000D01*
X8450000Y3150000D02*
X9200000Y2400000D01*
X8300000Y3875000D02*
X8425000Y4000000D01*
X7950000Y3600000D02*
X8150000Y3800000D01*
X8550000D01*
X7950000Y3475000D02*
Y3600000D01*
X7900000Y3650000D02*
X8125000Y3875000D01*
X8300000D01*
X7900000Y3475000D02*
Y3650000D01*
X8550000Y4550000D02*
Y5025000D01*
X8800000Y4600000D02*
Y4650000D01*
X8600000Y4850000D02*
X8800000Y4650000D01*
X8600000Y4850000D02*
Y5025000D01*
X7275000Y3650000D02*
X7725000D01*
X7900000Y5025000D02*
Y5170000D01*
X7723465Y5346535D02*
X7900000Y5170000D01*
X7723465Y5346535D02*
Y5393032D01*
X7950000Y5025000D02*
Y5270000D01*
X8050000Y5370000D01*
Y5400000D01*
X9520534Y4300000D02*
X9583290Y4362756D01*
X9275000Y4300000D02*
X9520534D01*
X9583290Y4362756D02*
X9970267D01*
X9998022Y4335000D01*
X10415000D01*
X10450000Y4300000D01*
X11000000D01*
X9689824Y4250000D02*
X9696282Y4256458D01*
X9275000Y4250000D02*
X9689824D01*
X9525157Y4150000D02*
X9537579D01*
X9475158Y4200000D02*
X9525157Y4150000D01*
X9275000Y4200000D02*
X9475158D01*
X9550000Y4000000D02*
X9850000D01*
X9275000Y4150000D02*
X9400000D01*
X9550000Y4000000D01*
X9275000Y4700000D02*
X9550000D01*
X9550000Y4700000D01*
X9275000Y4650000D02*
X9550000D01*
X9275000Y4550000D02*
X9550000D01*
X9550000Y4550000D01*
X9700000Y3700000D02*
X9850000D01*
X9500000Y3900000D02*
X9700000Y3700000D01*
X9275000Y3900000D02*
X9500000D01*
X8550000Y3250000D02*
Y3475000D01*
X8500000Y3200000D02*
Y3475000D01*
X8450000Y3150000D02*
Y3475000D01*
X8400000Y3100000D02*
X9200000Y2300000D01*
X8400000Y3100000D02*
Y3475000D01*
X9200000Y2300000D02*
X10200000D01*
X9300000Y2100000D02*
X9943618D01*
X8350000Y3050000D02*
Y3475000D01*
Y3050000D02*
X9300000Y2100000D01*
X9366732Y1933268D02*
X9666731D01*
X8300000Y3000000D02*
Y3475000D01*
Y3000000D02*
X9366732Y1933268D01*
X14600000Y2650000D02*
X14908122D01*
X15115614Y2857493D02*
X15623492D01*
X14908122Y2650000D02*
X15115614Y2857493D01*
X15623492D02*
X15750000Y2984000D01*
X15162669Y3110648D02*
X15622649D01*
X15058318Y3215000D02*
X15162669Y3110648D01*
X15622649D02*
X15750000Y3238000D01*
X14635001Y3215000D02*
X15058318D01*
X11684000Y1021000D02*
Y1184000D01*
X12000000Y1500000D02*
Y2300000D01*
X11684000Y1184000D02*
X12000000Y1500000D01*
X12217500Y2517500D02*
X12570000D01*
X12000000Y2300000D02*
X12217500Y2517500D01*
X10100000Y1683000D02*
Y1943618D01*
X9943618Y2100000D02*
X10100000Y1943618D01*
X9800000Y1683000D02*
Y1800000D01*
X9666731Y1933268D02*
X9800000Y1800000D01*
X8250000Y2950000D02*
Y3475000D01*
X9476681Y1683000D02*
X9500000D01*
X9441681Y1718000D02*
X9476681Y1683000D01*
X9441681Y1718000D02*
Y1758320D01*
X8250000Y2950000D02*
X9441681Y1758320D01*
X8050000Y2071427D02*
X8300000Y1821426D01*
X8050000Y2071427D02*
Y3475000D01*
X8300000Y1683000D02*
Y1821426D01*
X8100000Y2400000D02*
Y3475000D01*
X8600000Y1683000D02*
Y1900000D01*
X8100000Y2400000D02*
X8600000Y1900000D01*
X8900000Y1683000D02*
Y1900000D01*
X8150000Y2650000D02*
X8900000Y1900000D01*
X8150000Y2650000D02*
Y3475000D01*
X8200000Y2824937D02*
X9200000Y1824937D01*
Y1683000D02*
Y1824937D01*
X8200000Y2824937D02*
Y3475000D01*
X10200000Y2300000D02*
X10400000Y2100000D01*
Y1683000D02*
X10400000Y1683000D01*
X10400000Y1683000D02*
Y2100000D01*
X7050000Y4850000D02*
X7725000D01*
X6877000Y5023000D02*
Y5560000D01*
Y5023000D02*
X7050000Y4850000D01*
X6750000Y4950000D02*
X6900000Y4800000D01*
X7725000D01*
X6750000Y4950000D02*
Y5560000D01*
X6750000Y4750000D02*
X7725000D01*
X6623000Y4877000D02*
Y5560000D01*
Y4877000D02*
X6750000Y4750000D01*
X6650000Y4650000D02*
X7725000D01*
X6369000Y4931000D02*
Y5560000D01*
Y4931000D02*
X6650000Y4650000D01*
X6496000Y4902398D02*
Y5560000D01*
Y4902398D02*
X6698398Y4700000D01*
X7725000D01*
X6600000Y4600000D02*
X7725000D01*
X6242000Y4958000D02*
Y5560000D01*
Y4958000D02*
X6600000Y4600000D01*
X6400000Y4500000D02*
X7725000D01*
X5988000Y4912000D02*
Y5560000D01*
Y4912000D02*
X6400000Y4500000D01*
X6115000Y4985000D02*
X6550000Y4550000D01*
X6115000Y4985000D02*
Y5560000D01*
X6550000Y4550000D02*
X7725000D01*
D30*
X9100682Y3176866D02*
Y3179199D01*
X13750000Y9250000D02*
X14500000D01*
X15147501Y9755000D02*
Y10610500D01*
X14500000Y9250000D02*
X14642500D01*
X14758000Y11000000D02*
X15147501Y10610500D01*
X14642500Y9250000D02*
X15147501Y9755000D01*
X13750000Y9750000D02*
X14652499D01*
X14847501Y9945000D01*
Y10402500D01*
X14250000Y11000000D02*
X14847501Y10402500D01*
X12499999Y11000000D02*
X13002499Y10497499D01*
X12829854Y9761480D02*
X13002499Y9934126D01*
Y10497499D01*
X12761480Y9761480D02*
X12829854D01*
X12750000Y9750000D02*
X12761480Y9761480D01*
X12000000Y9750000D02*
X12750000D01*
X13007999Y11000000D02*
X13212500Y10795499D01*
X12816479Y9261480D02*
X13212500Y9657500D01*
Y10795499D01*
X12750000Y9250000D02*
X12761480Y9261480D01*
X12816479D01*
X12000000Y9250000D02*
X12750000D01*
X10741999Y11000000D02*
X10774471D01*
X10834471Y10940000D02*
X10845000D01*
X11275000Y10025000D02*
Y10510000D01*
X10774471Y11000000D02*
X10834471Y10940000D01*
X10845000D02*
X11275000Y10510000D01*
X11000000Y9750000D02*
X11275000Y10025000D01*
X11437500Y9687500D02*
Y10812499D01*
X11249999Y11000000D02*
X11437500Y10812499D01*
X11000000Y9250000D02*
X11437500Y9687500D01*
X10250000Y9250000D02*
X11000000D01*
X9250000Y9750000D02*
X9515000Y10015000D01*
X8999999Y11000000D02*
X9515000Y10484999D01*
Y10015000D02*
Y10484999D01*
X9250000Y9250000D02*
X9565000D01*
X9507999Y11000000D02*
X9720000Y10787999D01*
X9565000Y9250000D02*
X9720000Y9405000D01*
Y10787999D01*
X8500000Y9250000D02*
X9250000D01*
X6750000Y9750000D02*
X7657500D01*
X7750000Y9842500D02*
Y10508000D01*
X7657500Y9750000D02*
X7750000Y9842500D01*
X7500000Y9250000D02*
X7732500D01*
X7950000Y9467500D02*
Y10815999D01*
X7732500Y9250000D02*
X7950000Y9467500D01*
X6750000Y9250000D02*
X7500000D01*
X5846480Y9761480D02*
X5992500Y9907500D01*
X5761480Y9761480D02*
X5846480D01*
X5992500Y9907500D02*
Y10499499D01*
X5750000Y9750000D02*
X5761480Y9761480D01*
X5000000Y9750000D02*
X5750000D01*
X5491999Y11000000D02*
X5992500Y10499499D01*
X5750000Y9250000D02*
X5761480Y9261480D01*
X5848980D02*
X6150000Y9562500D01*
Y10850000D01*
X5761480Y9261480D02*
X5848980D01*
X5000000Y9250000D02*
X5750000D01*
X4232500Y10042500D02*
Y10517500D01*
X4011480Y9821480D02*
X4232500Y10042500D01*
X3750000Y11000000D02*
X4232500Y10517500D01*
X4011480Y9761480D02*
Y9821480D01*
X4157500Y9250000D02*
X4400000Y9492500D01*
X3250000Y9250000D02*
X4157500D01*
X4400000Y9492500D02*
Y10858000D01*
X2261480Y9761480D02*
X2341480D01*
X2000000Y11000000D02*
X2507500Y10492500D01*
Y9927500D02*
Y10492500D01*
X2341480Y9761480D02*
X2507500Y9927500D01*
X2250000Y9750000D02*
X2261480Y9761480D01*
X1500000Y9750000D02*
X2250000D01*
X2296236Y9280000D02*
X2310000D01*
X1500000Y9250000D02*
X2266236D01*
X2700000Y9670000D02*
Y10808000D01*
X2266236Y9250000D02*
X2296236Y9280000D01*
X2310000D02*
X2700000Y9670000D01*
X13750000Y10250000D02*
X14500000D01*
X8500000Y9750000D02*
X9250000D01*
X9051140Y5651141D02*
X9200000Y5800000D01*
X9051140Y5501140D02*
Y5651141D01*
X9050000Y5500000D02*
X9051140Y5501140D01*
X14600000Y2950000D02*
X14842694D01*
X14892694Y3000000D01*
X14900000D01*
X9100682Y3179199D02*
Y3181352D01*
X9100000D02*
X9100682D01*
X8868491D02*
X9100000D01*
X13000000Y2125000D02*
Y2800000D01*
X14600000Y2425000D02*
Y2650000D01*
X14625000Y4150000D02*
X14825000D01*
X14825000Y4150000D01*
X12099999Y5850000D02*
X12699999D01*
X9850000Y3500000D02*
Y3700000D01*
X8866338Y3183504D02*
X8868491Y3181352D01*
X11000000Y2850000D02*
X11200000D01*
X11000000Y2850000D02*
X11000000Y2850000D01*
X14600000Y3550000D02*
X14850000D01*
X9350000Y5500000D02*
X9550000D01*
X9350000Y6000000D02*
X9550000D01*
X10400000Y4950000D02*
Y5200000D01*
X10100000Y4950000D02*
Y5200000D01*
X9800000Y4950000D02*
Y5200000D01*
X4040000Y1667306D02*
Y1937000D01*
Y1667306D02*
X4050000Y1657306D01*
Y1650000D02*
Y1657306D01*
X3700000Y1650000D02*
Y1937000D01*
X4040000Y4917306D02*
Y5187000D01*
Y4917306D02*
X4050000Y4907306D01*
Y4900000D02*
Y4907306D01*
X3700000Y4900000D02*
Y5187000D01*
X14600000Y5300000D02*
X14850000D01*
X14850000Y5300000D01*
X9850000Y4000000D02*
Y4250000D01*
X7857306Y6750000D02*
X8000000D01*
X7807306Y6800000D02*
X7857306Y6750000D01*
X7800000Y6800000D02*
X7807306D01*
X7700000Y5400000D02*
Y5650000D01*
X7224913Y3317340D02*
Y3499913D01*
X7225000Y3500000D01*
X10250000Y9750000D02*
X11000000D01*
X10250000Y10250000D02*
X11000000D01*
X10242000Y10258001D02*
X10250000Y10250000D01*
X10242000Y10258001D02*
Y10992000D01*
X10233999Y11000000D02*
X10242000Y10992000D01*
X7257999Y11000000D02*
X7750000Y10508000D01*
X7765999Y11000000D02*
X7950000Y10815999D01*
X8500000Y10250000D02*
X9250000D01*
X8496000Y10254001D02*
X8500000Y10250000D01*
X8496000Y10254001D02*
Y10996000D01*
X8491999Y11000000D02*
X8496000Y10996000D01*
X6750000Y10250000D02*
X6750000Y10250000D01*
X6750000Y10250000D02*
Y11000000D01*
X6749999Y11000000D02*
X6750000Y11000000D01*
X2508000Y11000000D02*
X2700000Y10808000D01*
X4258000Y11000000D02*
X4400000Y10858000D01*
X5999999Y11000000D02*
X6150000Y10850000D01*
X6750000Y10250000D02*
X7500000D01*
X4992000Y10258000D02*
X5000000Y10250000D01*
X4992000Y10258000D02*
Y10992000D01*
X4983999Y11000000D02*
X4992000Y10992000D01*
X5000000Y10250000D02*
X5750000D01*
X3250000Y9750000D02*
X4000000D01*
X3246000Y10254000D02*
X3250000Y10250000D01*
X3246000Y10254000D02*
Y10996000D01*
X3242000Y11000000D02*
X3246000Y10996000D01*
X3250000Y10250000D02*
X4000000D01*
Y9750000D02*
X4011480Y9761480D01*
X1500000Y10250000D02*
X2250000D01*
X1496000Y10254000D02*
X1500000Y10250000D01*
X1496000Y10254000D02*
Y10996000D01*
X1492000Y11000000D02*
X1496000Y10996000D01*
X3870000Y1050000D02*
Y1937000D01*
X3530000Y1030000D02*
Y1937000D01*
X3500000Y1000000D02*
X3530000Y1030000D01*
X3870000Y4525000D02*
X4145000Y4250000D01*
X3870000Y4525000D02*
Y5187000D01*
X3530000Y4320000D02*
Y5187000D01*
Y4320000D02*
X3550000Y4300000D01*
X11996000Y10254000D02*
X12000000Y10250000D01*
X11996000Y10254000D02*
Y10996000D01*
X11991999Y11000000D02*
X11996000Y10996000D01*
X12000000Y10250000D02*
X12750000D01*
X13746001Y10254000D02*
X13750000Y10250000D01*
X13746001Y10254000D02*
Y10996000D01*
X13742000Y11000000D02*
X13746001Y10996000D01*
D31*
X8777148Y5895278D02*
X8807420D01*
X8463500Y5845000D02*
X8726870D01*
X8777148Y5895278D01*
X8677581Y6870000D02*
X8880000D01*
X8661258Y6853677D02*
X8677581Y6870000D01*
X8880000D02*
X8900000Y6850000D01*
X13150000Y5800000D02*
X14125000Y4824999D01*
X14192000Y1021000D02*
Y1064296D01*
X14125000Y1131296D02*
X14192000Y1064296D01*
X14125000Y1131296D02*
Y4824999D01*
X12699999Y5850000D02*
X12700000Y5850000D01*
Y5625000D02*
Y5850000D01*
Y5625000D02*
X12700000Y5625000D01*
X12099999Y5850000D02*
X12100000Y5850000D01*
Y5625000D02*
Y5850000D01*
Y5625000D02*
X12100000Y5625000D01*
X7004000Y6500000D02*
Y6846000D01*
X6877000Y6500000D02*
Y7014853D01*
X6912147Y7050000D01*
X12550000D01*
X10450000Y6200000D02*
X10672500D01*
X10670500Y5948000D02*
X10672500Y5946000D01*
X10452000Y5948000D02*
X10670500D01*
X10450000Y5950000D02*
X10452000Y5948000D01*
X9850000Y6000000D02*
Y6350000D01*
X9850000Y6000000D02*
X9850000Y6000000D01*
X13099998Y5850000D02*
X13129999D01*
X13150000Y5830000D01*
Y5800000D02*
Y5830000D01*
X13684000Y1021000D02*
X13700000Y1037000D01*
Y3750000D01*
X11740000Y5710000D02*
X13700000Y3750000D01*
X11720000Y5850000D02*
X11729999D01*
X11699999D02*
X11720000D01*
X11740000Y5830000D01*
Y5710000D02*
Y5830000D01*
X8336500Y6555000D02*
Y6714853D01*
X8000000Y6750000D02*
X8301353D01*
X8336500Y6714853D01*
X12550000Y7050000D02*
X13250000Y7750000D01*
X11400000Y7150000D02*
X12000000Y7750000D01*
X6750000Y6500000D02*
Y7114853D01*
X6785147Y7150000D01*
X11400000D01*
X10214853Y7300000D02*
X10250000Y7335147D01*
X6623000Y7264853D02*
X6658147Y7300000D01*
X10250000Y7335147D02*
Y7750000D01*
X6623000Y6500000D02*
Y7264853D01*
X6658147Y7300000D02*
X10214853D01*
X6496000Y7296000D02*
X6685375Y7485375D01*
X8235375D01*
X6496000Y6500000D02*
Y7296000D01*
X9850000Y5901232D02*
X9932232Y5819000D01*
X9850000Y5901232D02*
Y6000000D01*
X9932232Y5819000D02*
X10127500D01*
X13250000Y7750000D02*
X13750000D01*
X8300000Y682147D02*
Y1383000D01*
Y682147D02*
X8376000Y606148D01*
Y587000D02*
Y606148D01*
X8600000Y649472D02*
Y1383000D01*
X8630000Y587000D02*
Y619472D01*
X8600000Y649472D02*
X8630000Y619472D01*
X8900000Y603000D02*
Y1383000D01*
X8884000Y587000D02*
X8900000Y603000D01*
X9138000Y587000D02*
Y619472D01*
X9200000Y681472D01*
Y1383000D01*
X9392000Y587000D02*
X9500000Y695000D01*
Y1383000D01*
X9800000Y1100000D02*
Y1383000D01*
X9646000Y946000D02*
X9800000Y1100000D01*
X9646000Y587000D02*
Y946000D01*
X9900000Y956716D02*
X10100000Y1156716D01*
Y1383000D01*
X9900000Y587000D02*
Y956716D01*
X10154000Y886138D02*
X10400000Y1132138D01*
Y1383000D02*
X10400000Y1383000D01*
X10400000Y1132138D02*
Y1383000D01*
X10154000Y587000D02*
Y886138D01*
X11729999Y5850000D02*
X12009999Y6130000D01*
X12079999D01*
X12099999Y6150000D01*
X12699999D02*
Y6484500D01*
X12800000Y6584500D01*
Y6600000D01*
X12699999Y6150000D02*
X12729999D01*
X13009999Y5870000D01*
X13079999D01*
X13099998Y5850000D01*
X12099999Y6150000D02*
Y6600000D01*
X8235375Y7485375D02*
X8500000Y7750000D01*
X6369000Y7369000D02*
X6750000Y7750000D01*
X6369000Y6500000D02*
Y7369000D01*
X5000000Y7379489D02*
X5230556Y7148933D01*
X6101698D02*
X6242000Y7008631D01*
X5230556Y7148933D02*
X6101698D01*
X5000000Y7379489D02*
Y7750000D01*
X6242000Y6500000D02*
Y7008631D01*
X6000000Y7000000D02*
X6115000Y6885000D01*
Y6500000D02*
Y6885000D01*
X3400000Y7000000D02*
X6000000D01*
X3250000Y7150000D02*
Y7750000D01*
Y7150000D02*
X3400000Y7000000D01*
X5988000Y6500000D02*
Y6712000D01*
X5900000Y6800000D02*
X5988000Y6712000D01*
X1871236Y6800000D02*
X5900000D01*
X1500000Y7171236D02*
Y7750000D01*
Y7171236D02*
X1871236Y6800000D01*
D32*
X8593000Y6552500D02*
X8897500D01*
X8590500Y6555000D02*
X8593000Y6552500D01*
X11699999Y6150000D02*
Y6512000D01*
X11772499Y6584500D01*
Y6600000D01*
X11299999Y6150000D02*
X11699999D01*
X13099998D02*
Y6740395D01*
Y6150000D02*
X13499998D01*
X11563827Y6763826D02*
X13076569D01*
X10873000Y6073000D02*
X11563827Y6763826D01*
X10672500Y6073000D02*
X10873000D01*
X10672500Y5819000D02*
X10819000D01*
X11150000Y6150000D01*
X11299999D01*
D33*
X14500000Y7750000D02*
Y8100000D01*
X14400000Y8200000D02*
X14500000Y8100000D01*
X12750000Y7750000D02*
Y8150000D01*
X12800000Y8200000D01*
X11000000Y7750000D02*
Y8300000D01*
X9250000Y7750000D02*
Y8250000D01*
X9200000Y8300000D02*
X9250000Y8250000D01*
X7500000Y7750000D02*
Y8200000D01*
X5750000Y7750000D02*
Y8150000D01*
X5700000Y8200000D02*
X5750000Y8150000D01*
X4000000Y7750000D02*
Y8200000D01*
X2250000Y7750000D02*
Y8250000D01*
X2200000Y8300000D02*
X2250000Y8250000D01*
D34*
X15496001Y3492000D02*
D03*
X15750000D02*
D03*
X15496001Y3238000D02*
D03*
X15750000D02*
D03*
X15496001Y2984000D02*
D03*
X15750000D02*
D03*
X15496001Y2730000D02*
D03*
X15750000Y3746000D02*
D03*
X15496001D02*
D03*
X15750000Y4000000D02*
D03*
X15496001D02*
D03*
X15750000Y4254000D02*
D03*
X15496001D02*
D03*
X15750000Y4508000D02*
D03*
X15496001D02*
D03*
Y4762000D02*
D03*
X15750000D02*
D03*
Y5016000D02*
D03*
X15496001D02*
D03*
X2500000Y5350000D02*
D03*
X8376000Y333000D02*
D03*
Y587000D02*
D03*
X8630000Y333000D02*
D03*
Y587000D02*
D03*
X8884000Y333000D02*
D03*
Y587000D02*
D03*
X9138000Y333000D02*
D03*
Y587000D02*
D03*
X10154000Y333000D02*
D03*
X9900000Y587000D02*
D03*
Y333000D02*
D03*
X9646000Y587000D02*
D03*
Y333000D02*
D03*
X9392000Y587000D02*
D03*
Y333000D02*
D03*
X5000000Y1550000D02*
D03*
X2500000Y2650000D02*
D03*
X4950000Y5000000D02*
D03*
D35*
X15750000Y2730000D02*
D03*
X2500000Y5850000D02*
D03*
X5000000Y1050000D02*
D03*
X2500000Y2150000D02*
D03*
X4950000Y4500000D02*
D03*
D36*
X13742000Y11000000D02*
D03*
X14250000D02*
D03*
X14758000D02*
D03*
X11991999D02*
D03*
X12499999D02*
D03*
X13007999D02*
D03*
X10233999D02*
D03*
X10741999D02*
D03*
X11249999D02*
D03*
X8491999D02*
D03*
X8999999D02*
D03*
X9507999D02*
D03*
X6749999D02*
D03*
X7257999D02*
D03*
X7765999D02*
D03*
X4983999D02*
D03*
X5491999D02*
D03*
X5999999D02*
D03*
X3242000D02*
D03*
X3750000D02*
D03*
X4258000D02*
D03*
X1492000D02*
D03*
X2000000D02*
D03*
X2508000D02*
D03*
X14700000Y1021000D02*
D03*
X14192000D02*
D03*
X13684000D02*
D03*
X12700000D02*
D03*
X12192000D02*
D03*
X11684000D02*
D03*
X500000Y4150000D02*
D03*
Y3800000D02*
D03*
D37*
X10154000Y587000D02*
D03*
D38*
X14500000Y9250000D02*
D03*
Y10250000D02*
D03*
Y7750000D02*
D03*
Y9750000D02*
D03*
X13750000D02*
D03*
Y9250000D02*
D03*
Y7750000D02*
D03*
Y10250000D02*
D03*
X2250000Y9250000D02*
D03*
Y10250000D02*
D03*
Y7750000D02*
D03*
Y9750000D02*
D03*
X1500000D02*
D03*
Y9250000D02*
D03*
Y7750000D02*
D03*
Y10250000D02*
D03*
X4000000Y9250000D02*
D03*
Y10250000D02*
D03*
Y7750000D02*
D03*
Y9750000D02*
D03*
X3250000D02*
D03*
Y9250000D02*
D03*
Y7750000D02*
D03*
Y10250000D02*
D03*
X5750000Y9250000D02*
D03*
Y10250000D02*
D03*
Y7750000D02*
D03*
Y9750000D02*
D03*
X5000000D02*
D03*
Y9250000D02*
D03*
Y7750000D02*
D03*
Y10250000D02*
D03*
X7500000Y9250000D02*
D03*
Y10250000D02*
D03*
Y7750000D02*
D03*
Y9750000D02*
D03*
X6750000D02*
D03*
Y9250000D02*
D03*
Y7750000D02*
D03*
Y10250000D02*
D03*
X9250000Y9250000D02*
D03*
Y10250000D02*
D03*
Y7750000D02*
D03*
Y9750000D02*
D03*
X8500000D02*
D03*
Y9250000D02*
D03*
Y7750000D02*
D03*
Y10250000D02*
D03*
X12750000Y9250000D02*
D03*
Y10250000D02*
D03*
Y7750000D02*
D03*
Y9750000D02*
D03*
X12000000D02*
D03*
Y9250000D02*
D03*
Y7750000D02*
D03*
Y10250000D02*
D03*
X11000000Y9250000D02*
D03*
Y10250000D02*
D03*
Y7750000D02*
D03*
Y9750000D02*
D03*
X10250000D02*
D03*
Y9250000D02*
D03*
Y7750000D02*
D03*
Y10250000D02*
D03*
D39*
X500000Y11250000D02*
D03*
X750000Y750000D02*
D03*
X15750000D02*
D03*
Y11250000D02*
D03*
D40*
X9050000Y4500000D02*
D03*
X8936861Y3324261D02*
D03*
X8800000Y3650000D02*
D03*
X9050000Y4850000D02*
D03*
Y4100000D02*
D03*
X7941390Y3806787D02*
D03*
X4000000Y6100000D02*
D03*
X3700000D02*
D03*
X3400000D02*
D03*
Y6300000D02*
D03*
X3700000D02*
D03*
X4000000D02*
D03*
Y6500000D02*
D03*
X3700000D02*
D03*
X3400000D02*
D03*
X3500000Y2700000D02*
D03*
Y2900000D02*
D03*
X3700000Y2700000D02*
D03*
X3900000D02*
D03*
Y3300000D02*
D03*
X3700000D02*
D03*
X3500000D02*
D03*
X3700000Y2900000D02*
D03*
X3900000D02*
D03*
Y3100000D02*
D03*
X3700000D02*
D03*
X3500000D02*
D03*
X8295000Y6182500D02*
D03*
X8702500Y5497500D02*
D03*
X8365000Y5230000D02*
D03*
X8000000Y6350000D02*
D03*
X8800000Y5900000D02*
D03*
X9200000Y5800000D02*
D03*
X8661258Y6853677D02*
D03*
X14900000Y3000000D02*
D03*
X13000000Y2125000D02*
D03*
X6300000Y1750000D02*
D03*
X14600000Y2425000D02*
D03*
X14375000Y3725000D02*
D03*
X14275000Y4000000D02*
D03*
X14825000Y4150000D02*
D03*
X14944250Y4994250D02*
D03*
X14375000Y4325000D02*
D03*
X12825000Y3100000D02*
D03*
X12575000D02*
D03*
X12700000Y5625000D02*
D03*
X12100000D02*
D03*
X7004000Y6846000D02*
D03*
X7950000Y8125000D02*
D03*
Y8350000D02*
D03*
X9650000Y2800000D02*
D03*
X9850000Y3500000D02*
D03*
X8866338Y3183504D02*
D03*
X9600000Y3200000D02*
D03*
X8575000Y3800000D02*
D03*
X8425000Y4000000D02*
D03*
X8125000Y4050000D02*
D03*
X11200079Y3349921D02*
D03*
X11000000Y2850000D02*
D03*
X13500000Y2838500D02*
D03*
Y3100000D02*
D03*
X14850000Y3550000D02*
D03*
X10475000Y2750000D02*
D03*
X10450000Y5950000D02*
D03*
Y6200000D02*
D03*
X9850000Y6350000D02*
D03*
X9550000Y5500000D02*
D03*
X8550000Y4550000D02*
D03*
X8800000Y4600000D02*
D03*
X10450000Y300000D02*
D03*
X8100000D02*
D03*
X14700000Y800000D02*
D03*
X12700000D02*
D03*
X14800000Y4700000D02*
D03*
X11000000Y4300000D02*
D03*
X5600000Y4000000D02*
D03*
X5350000D02*
D03*
X5600000Y4250000D02*
D03*
X5350000D02*
D03*
X7800000Y6800000D02*
D03*
X14850000Y5300000D02*
D03*
X9850000Y4250000D02*
D03*
X10650000Y4650000D02*
D03*
X10900000D02*
D03*
X7700000Y5650000D02*
D03*
X9800000Y5200000D02*
D03*
X10100000D02*
D03*
X10400000D02*
D03*
X10550000Y3700000D02*
D03*
X10350000D02*
D03*
X7525000Y3300000D02*
D03*
X7200000Y1225000D02*
D03*
X13550000Y5650000D02*
D03*
X11300000D02*
D03*
X9350000Y6000000D02*
D03*
X7200000Y5400000D02*
D03*
X7224913Y3317340D02*
D03*
X9696282Y4256458D02*
D03*
X9537579Y4150000D02*
D03*
X5500000Y650000D02*
D03*
X5750000D02*
D03*
Y900000D02*
D03*
X5500000D02*
D03*
X5750000Y1650000D02*
D03*
X4050000Y4900000D02*
D03*
X3700000D02*
D03*
Y1650000D02*
D03*
X4050000D02*
D03*
X5300000Y1950000D02*
D03*
X5000000D02*
D03*
X4650000D02*
D03*
X5300000Y5400000D02*
D03*
X4650000D02*
D03*
X4950000D02*
D03*
X2800000Y5000000D02*
D03*
X2200000D02*
D03*
X2550000Y1750000D02*
D03*
X2200000D02*
D03*
%TF.MD5,bbcad3d6cfd43c7ee8596cf003dde2fe*%
M02*
