%TF.GenerationSoftware,Altium Limited,Altium Designer,22.4.2 (48)*%
G04 Layer_Color=32896*
%FSLAX45Y45*%
%MOMM*%
%TF.SameCoordinates,5379F3DE-C0A0-4451-8F76-AB011D816888*%
%TF.FilePolarity,Positive*%
%TF.FileFunction,Legend,Bot*%
%TF.Part,Single*%
G01*
G75*
%TA.AperFunction,NonConductor*%
%ADD42C,0.25000*%
%ADD43C,0.20000*%
%ADD48C,0.25400*%
D42*
X9712500Y5055000D02*
G03*
X9712500Y5055000I-12500J0D01*
G01*
D43*
X9458500Y3745000D02*
Y4855000D01*
X9941500Y3745000D02*
Y4855000D01*
X9815000Y4855000D02*
X9941500Y4855000D01*
X9458500D02*
X9585000D01*
X9815000Y3745000D02*
X9941500D01*
X9458500D02*
X9585000Y3745000D01*
X10000000Y4530000D02*
X10200000D01*
X10000000Y4970000D02*
X10200000D01*
Y4530000D02*
Y4970000D01*
X10000000Y4530000D02*
Y4970000D01*
Y4120000D02*
X10200000D01*
X10000000Y3680000D02*
X10200000D01*
X10000000D02*
Y4120000D01*
X10200000Y3680000D02*
Y4120000D01*
D48*
X9674580Y5307751D02*
X9573013D01*
Y5282359D01*
X9674580Y5180792D01*
Y5155400D01*
X9573013D01*
X9522229D02*
X9471446D01*
X9496837D01*
Y5307751D01*
X9522229Y5282359D01*
X10083833Y4333199D02*
X10109225Y4358591D01*
X10160008D01*
X10185400Y4333199D01*
Y4231632D01*
X10160008Y4206240D01*
X10109225D01*
X10083833Y4231632D01*
X9931482Y4358591D02*
X9982266Y4333199D01*
X10033049Y4282415D01*
Y4231632D01*
X10007657Y4206240D01*
X9956874D01*
X9931482Y4231632D01*
Y4257023D01*
X9956874Y4282415D01*
X10033049D01*
X10125392Y5250784D02*
X10150784Y5276175D01*
X10201567D01*
X10226959Y5250784D01*
Y5149217D01*
X10201567Y5123825D01*
X10150784D01*
X10125392Y5149217D01*
X10074608Y5276175D02*
X9973041D01*
Y5250784D01*
X10074608Y5149217D01*
Y5123825D01*
%TF.MD5,15bcd980cd2576d4c700a0820470b8f8*%
M02*
