M48
;Layer_Color=9474304
;FILE_FORMAT=4:4
METRIC,LZ
;TYPE=PLATED
T1F00S00C0.3000
T2F00S00C1.0000
T3F00S00C1.1000
T4F00S00C1.2000
T5F00S00C1.5000
T6F00S00C4.2000
%
T01
X0022Y00175
X00255
X0037Y00165
Y0027
X0035
Y0029
X0037
Y0031
X0035
Y0033
X0037
X0039
Y0031
Y0029
Y0027
X00405Y00165
X00465Y00195
X005
X0053
X00575Y00165
X0063Y00175
X00575Y0009
Y00065
X0055
Y0009
X0072Y001225
X00722491Y00331734
X007525Y0033
X00794139Y00380679
X008575Y0038
X0088Y00365
X00893686Y00332426
X00886634Y0031835
X0096Y0032
X00965Y0028
X010475Y00275
X01055Y0037
X01035
X00985Y0035
X01095Y002
X01125Y002
X01145Y00175
X01185
X01075Y0017
X01045Y0003
X0081
X0127Y0008
X01245Y0015
X01285Y00165
X0132Y00195
X0135Y0015
X01285Y00275
Y0029
X01235Y00295
Y00275
X0146Y002425
X0149Y003
X01485Y00355
X014375Y003725
X0147Y0008
X0159Y0077
X0154Y0074
X01474596Y00745404
X0149Y0077
X015Y0078
X0145Y0077
X0148Y007
X01485Y0053
X01494425Y00499425
X0148Y0047
X014825Y00415
X014375Y004325
X014275Y004
X01355Y00565
X0127Y005625
X0121
X01227098Y0075059
X0124Y0077
X0126Y0075
X0129Y00745
X0134Y0077
X01205Y00765
X0113Y00565
X01045Y00595
Y0062
X00985Y00635
X00935Y006
X0092Y0058
X00955Y0055
X0098Y0052
X0101
X0104
X01065Y00465
X0109
X011Y0043
X00985Y00425
X00969628Y00425646
X00953758Y00415
X00905Y0041
Y0045
Y00485
X0088Y0046
X0087Y00465
X00859477Y00528607
X00862755Y0055293
X00846712Y00548273
X00848782Y0056259
X00846195Y00577943
X00815Y0056
X00805Y0064
X0085Y00635
X00855Y0071
X00875
X0091Y00685
X00935Y0071
X008425Y004
X008125Y00405
X00745Y0055
X007Y00535
X007004Y006846
X0078Y00675
X00785Y00605
X0053Y0054
X00495
X00465
X00405Y0049
X004Y0061
Y0063
Y0065
X00535Y00425
Y004
X0056
Y00425
X0037Y0049
X0028Y005
X0022
X0034Y0061
Y0063
Y0065
X0037
Y0063
Y0061
X00795Y008125
Y00835
X0119Y0099
Y0105
X01155Y01165
X01215Y0112
Y01105
Y0109
X0121Y0105
Y0099
X0123Y0097
X0126Y0098
X0133Y0099
X01375Y01005
X0145Y0099
X0147
X0148Y0096
X01514047Y0096885
X0156Y0094
X01565123Y00890547
X0157Y0099
X0145Y0094
X0141Y009
Y0087
X0137Y0085
X0134Y0088
X0132
X0125Y0082
X012Y009
X0145Y0084
Y0104
X0146Y0106
Y01075
Y0109
X0142Y0105
X01415Y01135
X01495Y01185
X01515Y0117
X01284269Y0116
X01269273Y0118
X0163Y0103
X0159Y0098
X0162Y0091
Y0084
T02
X0025Y00215
Y00265
X005Y00155
Y00105
X00681Y000605
X00725
X0085Y00775
X00925
X01025
X011
X0075
X00675
X00575
X005
X004
X00495Y005
Y0045
X0025Y00535
Y00585
X00225Y00775
X0015
X00325
Y00925
Y00975
Y01025
X00225
Y00975
Y00925
X0015
Y00975
Y01025
X004
Y00975
Y00925
X005
Y00975
Y01025
X00575
Y00975
Y00925
X00675
Y00975
Y01025
X0075
Y00975
Y00925
X0085
Y00975
Y01025
X00925
Y00975
Y00925
X01025
Y00975
Y01025
X011
Y00975
Y00925
T03
X008376Y000333
Y000587
X00863
Y000333
X008884
Y000587
X009138
Y000333
X009392
X009646
X0099
X010154
Y000587
X0099
X009646
X009392
X015496Y00273
Y002984
Y003238
Y003492
X01575
Y003238
Y002984
Y00273
Y003746
X015496
Y004
X01575
Y004254
X015496
Y004508
X01575
Y004762
X015496
Y005016
X01575
X01563063Y01114358
Y01139758
X01537663
Y01114358
X01512263
X01486863
X01461463
Y01139758
X01486863
X01512263
X01336892
Y01114358
X01311492
X01286092
X01260692
X01235292
Y01139758
X01260692
X01286092
X01311492
T04
X0005Y0038
Y00415
T05
X011684Y001021
X012192
X0127
X013684
X014192
X0147
X00375Y011
X003242
X002508
X002
X001492
X004258
X004984
X005492
X006
X00675
X007258
X007766
X008492
X009
X009508
X010234
X010742
X01125
T06
X00075Y00075
X01575
X0159Y0066
X0005Y01125
M30
