%TF.GenerationSoftware,Altium Limited,Altium Designer,22.4.2 (48)*%
G04 Layer_Color=65535*
%FSLAX45Y45*%
%MOMM*%
%TF.SameCoordinates,A0FECCF5-906F-4CEA-98AF-48209DEEDFB4*%
%TF.FilePolarity,Positive*%
%TF.FileFunction,Legend,Top*%
%TF.Part,Single*%
G01*
G75*
%TA.AperFunction,NonConductor*%
%ADD45C,0.25000*%
%ADD46C,0.20000*%
%ADD47C,0.60000*%
%TA.AperFunction,OtherPad,Free Pad (160.826mm,116.706mm)*%
%ADD48C,0.50000*%
%TA.AperFunction,OtherPad,Free Pad (138.209mm,116.706mm)*%
%ADD49C,0.50000*%
%TA.AperFunction,OtherPad,Free Pad (2.1mm,42.85mm)*%
%ADD50C,0.50000*%
%TA.AperFunction,OtherPad,Free Pad (67.8mm,10.25mm)*%
%ADD51C,0.50000*%
%TA.AperFunction,NonConductor*%
%ADD52C,0.25400*%
%ADD53C,0.10000*%
G36*
X2990000Y2500000D02*
X2010000D01*
X2025000Y2560000D01*
X2050000Y2617500D01*
X2085000Y2680000D01*
X2120000Y2725000D01*
X2182500Y2787500D01*
X2240000Y2827500D01*
X2342500Y2877500D01*
X2435000Y2897500D01*
X2545000Y2900000D01*
X2617500Y2887500D01*
X2682500Y2867500D01*
X2762500Y2827500D01*
X2827500Y2777500D01*
X2895000Y2707500D01*
X2940000Y2635000D01*
X2985000Y2527500D01*
X2990000Y2502500D01*
Y2500000D01*
D02*
G37*
G36*
X2010000Y5500000D02*
X2990000D01*
X2975000Y5440000D01*
X2950000Y5382500D01*
X2915000Y5320000D01*
X2880000Y5275000D01*
X2817500Y5212500D01*
X2760000Y5172500D01*
X2657500Y5122500D01*
X2565000Y5102500D01*
X2455000Y5100000D01*
X2382500Y5112500D01*
X2317500Y5132500D01*
X2237500Y5172500D01*
X2172500Y5222500D01*
X2105000Y5292500D01*
X2060000Y5365000D01*
X2015000Y5472500D01*
X2010000Y5497500D01*
Y5500000D01*
D02*
G37*
G36*
X5490000Y1400000D02*
X4510000D01*
X4525000Y1460000D01*
X4550000Y1517500D01*
X4585000Y1580000D01*
X4620000Y1625000D01*
X4682500Y1687500D01*
X4740000Y1727500D01*
X4842500Y1777500D01*
X4935000Y1797500D01*
X5045000Y1800000D01*
X5117500Y1787500D01*
X5182500Y1767500D01*
X5262500Y1727500D01*
X5327500Y1677500D01*
X5395000Y1607500D01*
X5440000Y1535000D01*
X5485000Y1427500D01*
X5490000Y1402500D01*
Y1400000D01*
D02*
G37*
G36*
X5440000Y4850000D02*
X4460000D01*
X4475000Y4910000D01*
X4500000Y4967500D01*
X4535000Y5030000D01*
X4570000Y5075000D01*
X4632500Y5137500D01*
X4690000Y5177500D01*
X4792500Y5227500D01*
X4885000Y5247500D01*
X4995000Y5250000D01*
X5067500Y5237500D01*
X5132500Y5217500D01*
X5212500Y5177500D01*
X5277500Y5127500D01*
X5345000Y5057500D01*
X5390000Y4985000D01*
X5435000Y4877500D01*
X5440000Y4852500D01*
Y4850000D01*
D02*
G37*
G36*
X8459500Y6517500D02*
X8459497Y6589497D01*
X8387497Y6517497D01*
X8459500Y6517500D01*
D02*
G37*
D45*
X12820000Y1501500D02*
G03*
X12820000Y1501500I-12500J0D01*
G01*
X15401334Y8741651D02*
G03*
X15401334Y8741651I-12500J0D01*
G01*
X12911298D02*
G03*
X12911298Y8741651I-12500J0D01*
G01*
X15911000Y10357500D02*
G03*
X15911000Y10357500I-12500J0D01*
G01*
X13411000D02*
G03*
X13411000Y10357500I-12500J0D01*
G01*
X8582000Y6480000D02*
G03*
X8582000Y6480000I-12500J0D01*
G01*
X10685000Y5734000D02*
G03*
X10685000Y5734000I-12500J0D01*
G01*
X9287500Y3580000D02*
G03*
X9287500Y3580000I-12500J0D01*
G01*
X6048000Y5352500D02*
G03*
X6048000Y5352500I-12500J0D01*
G01*
X3372000Y5017500D02*
G03*
X3372000Y5017500I-12500J0D01*
G01*
Y1767500D02*
G03*
X3372000Y1767500I-12500J0D01*
G01*
X6942500Y1670000D02*
G03*
X6942500Y1670000I-12500J0D01*
G01*
D46*
X3000000Y5600000D02*
G03*
X3000000Y5600000I-500000J0D01*
G01*
X640000Y3800000D02*
G03*
X640000Y3800000I-140000J0D01*
G01*
Y4150000D02*
G03*
X640000Y4150000I-140000J0D01*
G01*
X5500000Y1300000D02*
G03*
X5500000Y1300000I-500000J0D01*
G01*
X3000000Y2400000D02*
G03*
X3000000Y2400000I-500000J0D01*
G01*
X5450000Y4750000D02*
G03*
X5450000Y4750000I-500000J0D01*
G01*
X11770000Y1420000D02*
X12530000D01*
X11770000Y2966000D02*
Y2980000D01*
Y1420000D02*
Y1434000D01*
Y2980000D02*
X12530000D01*
Y2966000D02*
Y2980000D01*
Y1420000D02*
Y1434000D01*
X10713901Y7589000D02*
Y7906502D01*
X10523901Y7589000D02*
Y7906502D01*
X10713901D01*
X10523901Y7589000D02*
X10713901D01*
X16271234Y8505474D02*
Y8705474D01*
X15831235Y8505474D02*
Y8705474D01*
Y8505474D02*
X16271234D01*
X15831235Y8705474D02*
X16271234D01*
Y8805474D02*
Y9005474D01*
X15831235Y8805474D02*
Y9005474D01*
Y8805474D02*
X16271234D01*
X15831235Y9005474D02*
X16271234D01*
X14020000Y8600000D02*
Y8800000D01*
X13580000Y8600000D02*
Y8800000D01*
Y8600000D02*
X14020000D01*
X13580000Y8800000D02*
X14020000D01*
X15439334Y8159151D02*
Y8474151D01*
X14439334Y8159151D02*
Y8474151D01*
X12949297Y8159151D02*
Y8474151D01*
X11949297Y8159151D02*
Y8474151D01*
X13680000Y10650000D02*
X14120000D01*
X13680000Y10450000D02*
X14120000D01*
X13680000D02*
Y10650000D01*
X14120000Y10450000D02*
Y10650000D01*
X15980000Y10600000D02*
X16420000D01*
X15980000Y10400000D02*
X16420000D01*
X15980000D02*
Y10600000D01*
X16420000Y10400000D02*
Y10600000D01*
X15330000Y7800000D02*
X15770000D01*
X15330000Y7600000D02*
X15770000D01*
X15330000D02*
Y7800000D01*
X15770000Y7600000D02*
Y7800000D01*
X12830000D02*
X13270000D01*
X12830000Y7600000D02*
X13270000D01*
X12830000D02*
Y7800000D01*
X13270000Y7600000D02*
Y7800000D01*
X13580000Y9100000D02*
X14020000D01*
X13580000Y8900000D02*
X14020000D01*
X13580000D02*
Y9100000D01*
X14020000Y8900000D02*
Y9100000D01*
X15980000Y9320000D02*
Y10080000D01*
X14420000Y9320000D02*
X14434000D01*
X15966000D02*
X15980000D01*
X14420000D02*
Y10080000D01*
X14434000D01*
X15966000D02*
X15980000D01*
X13480000Y9320000D02*
Y10080000D01*
X11920000Y9320000D02*
X11934000D01*
X13466000D02*
X13480000D01*
X11920000D02*
Y10080000D01*
X11934000D01*
X13466000D02*
X13480000D01*
X8830000Y7000000D02*
Y7200000D01*
X9270000Y7000000D02*
Y7200000D01*
X8830000D02*
X9270000D01*
X8830000Y7000000D02*
X9270000D01*
X8800000Y6480000D02*
Y6920000D01*
X9000000Y6480000D02*
Y6920000D01*
X8800000Y6480000D02*
X9000000D01*
X8800000Y6920000D02*
X9000000D01*
X16150127Y10803082D02*
Y11740582D01*
X14092627D02*
X16150127D01*
X14092627Y10803082D02*
Y11740582D01*
Y10803082D02*
X16150127D01*
X13888419D02*
Y11740582D01*
X11830919D02*
X13888419D01*
X11830919Y10803082D02*
Y11740582D01*
Y10803082D02*
X13888419D01*
X15140401Y2196600D02*
X16105600D01*
Y5549400D01*
X15140401D02*
X16105600D01*
X15140401Y2196600D02*
Y5549400D01*
X8139500Y6980000D02*
X8459500D01*
X8139500Y6517500D02*
Y6980000D01*
Y6517500D02*
X8459500D01*
Y6980000D01*
X6430000Y1650000D02*
X6870000D01*
X6430000Y1850000D02*
X6870000D01*
Y1650000D02*
Y1850000D01*
X6430000Y1650000D02*
Y1850000D01*
X9700000Y5020000D02*
X9900000D01*
X9700000Y4580000D02*
X9900000D01*
Y5020000D01*
X9700000Y4580000D02*
Y5020000D01*
X10000000D02*
X10200000D01*
X10000000Y4580000D02*
X10200000D01*
Y5020000D01*
X10000000Y4580000D02*
Y5020000D01*
X10300000D02*
X10500000D01*
X10300000Y4580000D02*
X10500000D01*
Y5020000D01*
X10300000Y4580000D02*
Y5020000D01*
X10350000Y3930000D02*
X10550000D01*
X10350000Y4370000D02*
X10550000D01*
X10350000Y3930000D02*
Y4370000D01*
X10550000Y3930000D02*
Y4370000D01*
X7550000Y5870000D02*
X7750000D01*
X7550000Y5430000D02*
X7750000D01*
Y5870000D01*
X7550000Y5430000D02*
Y5870000D01*
X5550000Y4480000D02*
Y4920000D01*
X5750000Y4480000D02*
Y4920000D01*
X5550000Y4480000D02*
X5750000D01*
X5550000Y4920000D02*
X5750000D01*
X2170000Y4860000D02*
X2300000D01*
X2170000Y4140000D02*
Y4860000D01*
Y4140000D02*
X2300000D01*
X2700000D02*
X2830000D01*
Y4860000D01*
X2700000D02*
X2830000D01*
X2170000Y4350000D02*
X2830000D01*
X10240000Y6637500D02*
X10560000D01*
X10240000Y5762500D02*
X10560000D01*
X10240000D02*
Y6637500D01*
X10560000Y5762500D02*
Y6637500D01*
X9175000Y3575000D02*
Y4925000D01*
X7825000Y3575000D02*
Y4925000D01*
Y3575000D02*
X9175000D01*
X7825000Y4925000D02*
X9175000D01*
X10220000Y3600000D02*
Y3800000D01*
X9780000Y3600000D02*
Y3800000D01*
Y3600000D02*
X10220000D01*
X9780000Y3800000D02*
X10220000D01*
Y3900000D02*
Y4100000D01*
X9780000Y3900000D02*
Y4100000D01*
Y3900000D02*
X10220000D01*
X9780000Y4100000D02*
X10220000D01*
X9420000Y5400000D02*
Y5600000D01*
X8980000Y5400000D02*
Y5600000D01*
Y5400000D02*
X9420000D01*
X8980000Y5600000D02*
X9420000D01*
X9470682Y3079199D02*
Y3279199D01*
X9030682Y3079199D02*
Y3279199D01*
Y3079199D02*
X9470682D01*
X9030682Y3279199D02*
X9470682D01*
X7595000Y3400000D02*
Y3600000D01*
X7155000Y3400000D02*
Y3600000D01*
Y3400000D02*
X7595000D01*
X7155000Y3600000D02*
X7595000D01*
X7850000Y5870000D02*
X8050000D01*
X7850000Y5430000D02*
X8050000D01*
Y5870000D01*
X7850000Y5430000D02*
Y5870000D01*
X6955000Y3700000D02*
Y3900000D01*
X7395000Y3700000D02*
Y3900000D01*
X6955000D02*
X7395000D01*
X6955000Y3700000D02*
X7395000D01*
X11150000Y1430000D02*
Y1870000D01*
X11350000Y1430000D02*
Y1870000D01*
X11150000Y1430000D02*
X11350000D01*
X11150000Y1870000D02*
X11350000D01*
X10850000Y1870000D02*
X11050000D01*
X10850000Y1430000D02*
X11050000D01*
Y1870000D01*
X10850000Y1430000D02*
Y1870000D01*
X8200000Y1753000D02*
X8400000D01*
X8200000Y1313000D02*
X8400000D01*
Y1753000D01*
X8200000Y1313000D02*
Y1753000D01*
X8500000Y1313000D02*
Y1753000D01*
X8700000Y1313000D02*
Y1753000D01*
X8500000Y1313000D02*
X8700000D01*
X8500000Y1753000D02*
X8700000D01*
X9100000D02*
X9300000D01*
X9100000Y1313000D02*
X9300000D01*
Y1753000D01*
X9100000Y1313000D02*
Y1753000D01*
X9700000D02*
X9900000D01*
X9700000Y1313000D02*
X9900000D01*
Y1753000D01*
X9700000Y1313000D02*
Y1753000D01*
X10000000D02*
X10200000D01*
X10000000Y1313000D02*
X10200000D01*
Y1753000D01*
X10000000Y1313000D02*
Y1753000D01*
X10300000D02*
X10500000D01*
X10300000Y1313000D02*
X10500000D01*
Y1753000D01*
X10300000Y1313000D02*
Y1753000D01*
X10665000Y10000D02*
Y900000D01*
X7842600D02*
X10665000D01*
X7842600Y10000D02*
Y900000D01*
Y10000D02*
X10665000D01*
X8800000Y1753000D02*
X9000000D01*
X8800000Y1313000D02*
X9000000D01*
Y1753000D01*
X8800000Y1313000D02*
Y1753000D01*
X9400000D02*
X9600000D01*
X9400000Y1313000D02*
X9600000D01*
Y1753000D01*
X9400000Y1313000D02*
Y1753000D01*
X14725000Y3780000D02*
Y4220000D01*
X14525000Y3780000D02*
Y4220000D01*
X14725000D01*
X14525000Y3780000D02*
X14725000D01*
X14500000Y4330000D02*
Y4770000D01*
X14700000Y4330000D02*
Y4770000D01*
X14500000Y4330000D02*
X14700000D01*
X14500000Y4770000D02*
X14700000D01*
Y3180000D02*
Y3620000D01*
X14500000Y3180000D02*
Y3620000D01*
X14700000D01*
X14500000Y3180000D02*
X14700000D01*
Y2580000D02*
Y3020000D01*
X14500000Y2580000D02*
Y3020000D01*
X14700000D01*
X14500000Y2580000D02*
X14700000D01*
X11400000Y5780000D02*
Y6220000D01*
X11199999Y5780000D02*
Y6220000D01*
X11400000D01*
X11199999Y5780000D02*
X11400000D01*
X13100000Y1430000D02*
Y1870000D01*
X13300000Y1430000D02*
Y1870000D01*
X13100000Y1430000D02*
X13300000D01*
X13100000Y1870000D02*
X13300000D01*
X14500000Y4930000D02*
X14700000D01*
X14500000Y5370000D02*
X14700000D01*
X14500000Y4930000D02*
Y5370000D01*
X14700000Y4930000D02*
Y5370000D01*
X12734999Y6510000D02*
Y6690000D01*
X13192500D01*
Y6510000D02*
Y6690000D01*
X12734999Y6510000D02*
X13192500D01*
X13039999D02*
Y6690000D01*
X12165000Y6510000D02*
Y6690000D01*
X11707499Y6510000D02*
X12165000D01*
X11707499D02*
Y6690000D01*
X12165000D01*
X11859999Y6510000D02*
Y6690000D01*
X5650000Y1470000D02*
X5850000D01*
X5650000Y1030000D02*
X5850000D01*
Y1470000D01*
X5650000Y1030000D02*
Y1470000D01*
X9480000Y5900000D02*
Y6100000D01*
X9920000Y5900000D02*
Y6100000D01*
X9480000D02*
X9920000D01*
X9480000Y5900000D02*
X9920000D01*
X13399998Y5780000D02*
X13599998D01*
X13399998Y6220000D02*
X13599998D01*
X13399998Y5780000D02*
Y6220000D01*
X13599998Y5780000D02*
Y6220000D01*
X12999998D02*
X13200000D01*
X12999998Y5780000D02*
X13200000D01*
Y6220000D01*
X12999998Y5780000D02*
Y6220000D01*
X12599999D02*
X12800000D01*
X12599999Y5780000D02*
X12800000D01*
Y6220000D01*
X12599999Y5780000D02*
Y6220000D01*
X11599999D02*
X11800000D01*
X11599999Y5780000D02*
X11800000D01*
Y6220000D01*
X11599999Y5780000D02*
Y6220000D01*
X11999999D02*
X12199999D01*
X11999999Y5780000D02*
X12199999D01*
Y6220000D01*
X11999999Y5780000D02*
Y6220000D01*
X5908500Y5650000D02*
X5920500D01*
X7071500D02*
X7083500D01*
Y6410000D01*
X5908500D02*
X5920500D01*
X7071500D02*
X7083500D01*
X5908500Y5650000D02*
Y6410000D01*
X4220500Y5555500D02*
Y5867500D01*
X3179500Y5555500D02*
X4220500D01*
X3179500D02*
Y5867500D01*
X4220500Y2305500D02*
Y2617500D01*
X3179500Y2305500D02*
X4220500D01*
X3179500D02*
Y2617500D01*
X373351Y3920894D02*
X392557Y3902561D01*
X607443Y3697439D02*
X626649Y3679106D01*
X607443Y4047439D02*
X626649Y4029106D01*
X373351Y4270894D02*
X392557Y4252561D01*
X160000Y3615000D02*
Y4335000D01*
Y3615000D02*
X839997D01*
Y4335000D01*
X160000D02*
X839997D01*
X2120000Y1020000D02*
X2780000D01*
X2650000Y1530000D02*
X2780000D01*
Y810000D02*
Y1530000D01*
X2650000Y810000D02*
X2780000D01*
X2120000D02*
X2250000D01*
X2120000D02*
Y1530000D01*
X2250000D01*
X6970000Y1825000D02*
X7230000D01*
X6970000Y1775000D02*
X7230000D01*
Y1825000D01*
X6970000Y1775000D02*
Y1825000D01*
X6630000Y645000D02*
Y725000D01*
X7430000Y645000D02*
Y725000D01*
X6670000Y215000D02*
X7390000D01*
X1773901Y7589000D02*
X1963901D01*
X1773901Y7906502D02*
X1963901D01*
X1773901Y7589000D02*
Y7906502D01*
X1963901Y7589000D02*
Y7906502D01*
X3523901Y7589000D02*
X3713901D01*
X3523901Y7906502D02*
X3713901D01*
X3523901Y7589000D02*
Y7906502D01*
X3713901Y7589000D02*
Y7906502D01*
X5273901Y7589000D02*
X5463901D01*
X5273901Y7906502D02*
X5463901D01*
X5273901Y7589000D02*
Y7906502D01*
X5463901Y7589000D02*
Y7906502D01*
X7023901Y7589000D02*
X7213901D01*
X7023901Y7906502D02*
X7213901D01*
X7023901Y7589000D02*
Y7906502D01*
X7213901Y7589000D02*
Y7906502D01*
X8773901Y7589000D02*
X8963901D01*
X8773901Y7906502D02*
X8963901D01*
X8773901Y7589000D02*
Y7906502D01*
X8963901Y7589000D02*
Y7906502D01*
D47*
X10490000Y5860000D02*
G03*
X10490000Y5860000I-30000J0D01*
G01*
X9105000Y3675000D02*
G03*
X9105000Y3675000I-30000J0D01*
G01*
D48*
X16082626Y11670581D02*
D03*
D49*
X13820918D02*
D03*
D50*
X209998Y4285000D02*
D03*
D51*
X6780000Y1025000D02*
D03*
D52*
X9990000Y7487200D02*
X11260000D01*
X9990000Y10382800D02*
X11260000D01*
Y7487200D02*
Y10382800D01*
X9990000Y7487200D02*
Y10382800D01*
X10025000Y9625000D02*
X10155000Y9755000D01*
X10075000Y9875000D02*
Y10245000D01*
X10152500D01*
X10075000Y9250000D02*
Y9665000D01*
X10075000Y9250000D02*
X10075000Y9250000D01*
X10075000Y9250000D02*
X10152500D01*
X10345000Y10245000D02*
X10905000D01*
X10350000Y9745000D02*
X10900000D01*
X10345000Y9245000D02*
X10890000D01*
X10377350Y7747750D02*
X10517500D01*
X10718901Y7745250D02*
X10877650Y7745250D01*
X1968901Y7745250D02*
X2127650Y7745250D01*
X1627350Y7747750D02*
X1767500D01*
X1595000Y9245000D02*
X2140000D01*
X1600000Y9745000D02*
X2150000D01*
X1595000Y10245000D02*
X2155000D01*
X1325000Y9250000D02*
X1402500D01*
X1325000D02*
X1325000Y9250000D01*
Y9665000D01*
Y10245000D02*
X1402500D01*
X1325000Y9875000D02*
Y10245000D01*
X1275000Y9625000D02*
X1405000Y9755000D01*
X1240000Y7487200D02*
Y10382800D01*
X2510000Y7487200D02*
Y10382800D01*
X1240000D02*
X2510000D01*
X1240000Y7487200D02*
X2510000D01*
X3718900Y7745250D02*
X3877650Y7745250D01*
X3377350Y7747750D02*
X3517500D01*
X3345000Y9245000D02*
X3890000D01*
X3350000Y9745000D02*
X3900000D01*
X3345000Y10245000D02*
X3905000D01*
X3075000Y9250000D02*
X3152500D01*
X3075000D02*
X3075000Y9250000D01*
Y9665000D01*
Y10245000D02*
X3152500D01*
X3075000Y9875000D02*
Y10245000D01*
X3025000Y9625000D02*
X3155000Y9755000D01*
X2990000Y7487200D02*
Y10382800D01*
X4260000Y7487200D02*
Y10382800D01*
X2990000D02*
X4260000D01*
X2990000Y7487200D02*
X4260000D01*
X5468900Y7745250D02*
X5627650Y7745250D01*
X5127350Y7747750D02*
X5267500D01*
X5095000Y9245000D02*
X5640000D01*
X5100000Y9745000D02*
X5650000D01*
X5095000Y10245000D02*
X5655000D01*
X4825000Y9250000D02*
X4902500D01*
X4825000D02*
X4825000Y9250000D01*
Y9665000D01*
Y10245000D02*
X4902500D01*
X4825000Y9875000D02*
Y10245000D01*
X4775000Y9625000D02*
X4905000Y9755000D01*
X4740000Y7487200D02*
Y10382800D01*
X6010000Y7487200D02*
Y10382800D01*
X4740000D02*
X6010000D01*
X4740000Y7487200D02*
X6010000D01*
X7218900Y7745250D02*
X7377650Y7745250D01*
X6877350Y7747750D02*
X7017500D01*
X6845000Y9245000D02*
X7390000D01*
X6850000Y9745000D02*
X7400000D01*
X6845000Y10245000D02*
X7405000D01*
X6575000Y9250000D02*
X6652500D01*
X6575000D02*
X6575000Y9250000D01*
Y9665000D01*
Y10245000D02*
X6652500D01*
X6575000Y9875000D02*
Y10245000D01*
X6525000Y9625000D02*
X6655000Y9755000D01*
X6490000Y7487200D02*
Y10382800D01*
X7760000Y7487200D02*
Y10382800D01*
X6490000D02*
X7760000D01*
X6490000Y7487200D02*
X7760000D01*
X8968901Y7745250D02*
X9127650Y7745250D01*
X8627350Y7747750D02*
X8767500D01*
X8595000Y9245000D02*
X9140000D01*
X8600000Y9745000D02*
X9150000D01*
X8595000Y10245000D02*
X9155000D01*
X8325000Y9250000D02*
X8402500D01*
X8325000D02*
X8325000Y9250000D01*
Y9665000D01*
Y10245000D02*
X8402500D01*
X8325000Y9875000D02*
Y10245000D01*
X8275000Y9625000D02*
X8405000Y9755000D01*
X8240000Y7487200D02*
Y10382800D01*
X9510000Y7487200D02*
Y10382800D01*
X8240000D02*
X9510000D01*
X8240000Y7487200D02*
X9510000D01*
X11869420Y8994091D02*
Y8867132D01*
X11894812Y8841740D01*
X11945595D01*
X11970987Y8867132D01*
Y8994091D01*
X12021771Y8867132D02*
X12047163Y8841740D01*
X12097946D01*
X12123338Y8867132D01*
Y8968699D01*
X12097946Y8994091D01*
X12047163D01*
X12021771Y8968699D01*
Y8943307D01*
X12047163Y8917915D01*
X12123338D01*
X16098433Y10850783D02*
X16073041Y10876175D01*
X16022258D01*
X15996866Y10850783D01*
Y10749216D01*
X16022258Y10723825D01*
X16073041D01*
X16098433Y10749216D01*
X16149217Y10850783D02*
X16174608Y10876175D01*
X16225392D01*
X16250784Y10850783D01*
Y10825392D01*
X16225392Y10800000D01*
X16200000D01*
X16225392D01*
X16250784Y10774608D01*
Y10749216D01*
X16225392Y10723825D01*
X16174608D01*
X16149217Y10749216D01*
X16403136Y10876175D02*
X16352351Y10850783D01*
X16301567Y10800000D01*
Y10749216D01*
X16326959Y10723825D01*
X16377744D01*
X16403136Y10749216D01*
Y10774608D01*
X16377744Y10800000D01*
X16301567D01*
X14223825Y9050784D02*
X14198433Y9076175D01*
X14147650D01*
X14122258Y9050784D01*
Y8949217D01*
X14147650Y8923825D01*
X14198433D01*
X14223825Y8949217D01*
X14274608Y9050784D02*
X14300000Y9076175D01*
X14350784D01*
X14376176Y9050784D01*
Y9025392D01*
X14350784Y9000000D01*
X14325392D01*
X14350784D01*
X14376176Y8974608D01*
Y8949217D01*
X14350784Y8923825D01*
X14300000D01*
X14274608Y8949217D01*
X14426959Y8923825D02*
X14477744D01*
X14452351D01*
Y9076175D01*
X14426959Y9050784D01*
X16149217Y8098433D02*
X16123825Y8073041D01*
Y8022258D01*
X16149217Y7996866D01*
X16250784D01*
X16276175Y8022258D01*
Y8073041D01*
X16250784Y8098433D01*
X16276175Y8250784D02*
Y8149217D01*
X16174608Y8250784D01*
X16149217D01*
X16123825Y8225392D01*
Y8174608D01*
X16149217Y8149217D01*
X16250784Y8301567D02*
X16276175Y8326959D01*
Y8377743D01*
X16250784Y8403135D01*
X16149217D01*
X16123825Y8377743D01*
Y8326959D01*
X16149217Y8301567D01*
X16174608D01*
X16200000Y8326959D01*
Y8403135D01*
X15749216Y8098433D02*
X15723825Y8073041D01*
Y8022258D01*
X15749216Y7996866D01*
X15850783D01*
X15876175Y8022258D01*
Y8073041D01*
X15850783Y8098433D01*
X15749216Y8149217D02*
X15723825Y8174608D01*
Y8225392D01*
X15749216Y8250784D01*
X15774608D01*
X15800000Y8225392D01*
Y8200000D01*
Y8225392D01*
X15825392Y8250784D01*
X15850783D01*
X15876175Y8225392D01*
Y8174608D01*
X15850783Y8149217D01*
X15876175Y8377743D02*
X15723825D01*
X15800000Y8301567D01*
Y8403135D01*
X13948433Y9275783D02*
X13923041Y9301175D01*
X13872258D01*
X13846866Y9275783D01*
Y9174216D01*
X13872258Y9148824D01*
X13923041D01*
X13948433Y9174216D01*
X13999217Y9275783D02*
X14024608Y9301175D01*
X14075392D01*
X14100784Y9275783D01*
Y9250392D01*
X14075392Y9225000D01*
X14050000D01*
X14075392D01*
X14100784Y9199608D01*
Y9174216D01*
X14075392Y9148824D01*
X14024608D01*
X13999217Y9174216D01*
X14151567Y9275783D02*
X14176959Y9301175D01*
X14227744D01*
X14253136Y9275783D01*
Y9174216D01*
X14227744Y9148824D01*
X14176959D01*
X14151567Y9174216D01*
Y9275783D01*
X13798433Y9850783D02*
X13773041Y9876175D01*
X13722258D01*
X13696866Y9850783D01*
Y9749216D01*
X13722258Y9723825D01*
X13773041D01*
X13798433Y9749216D01*
X13849216Y9850783D02*
X13874608Y9876175D01*
X13925392D01*
X13950784Y9850783D01*
Y9825392D01*
X13925392Y9800000D01*
X13900000D01*
X13925392D01*
X13950784Y9774608D01*
Y9749216D01*
X13925392Y9723825D01*
X13874608D01*
X13849216Y9749216D01*
X14103134Y9723825D02*
X14001567D01*
X14103134Y9825392D01*
Y9850783D01*
X14077742Y9876175D01*
X14026959D01*
X14001567Y9850783D01*
X13248433Y8050783D02*
X13223041Y8076175D01*
X13172258D01*
X13146866Y8050783D01*
Y7949217D01*
X13172258Y7923825D01*
X13223041D01*
X13248433Y7949217D01*
X13299217Y8050783D02*
X13324609Y8076175D01*
X13375392D01*
X13400784Y8050783D01*
Y8025392D01*
X13375392Y8000000D01*
X13350000D01*
X13375392D01*
X13400784Y7974608D01*
Y7949217D01*
X13375392Y7923825D01*
X13324609D01*
X13299217Y7949217D01*
X13553136Y8076175D02*
X13451567D01*
Y8000000D01*
X13502351Y8025392D01*
X13527744D01*
X13553136Y8000000D01*
Y7949217D01*
X13527744Y7923825D01*
X13476959D01*
X13451567Y7949217D01*
X15949216Y8098433D02*
X15923824Y8073041D01*
Y8022258D01*
X15949216Y7996866D01*
X16050783D01*
X16076175Y8022258D01*
Y8073041D01*
X16050783Y8098433D01*
X15949216Y8149216D02*
X15923824Y8174608D01*
Y8225392D01*
X15949216Y8250784D01*
X15974608D01*
X16000000Y8225392D01*
Y8200000D01*
Y8225392D01*
X16025392Y8250784D01*
X16050783D01*
X16076175Y8225392D01*
Y8174608D01*
X16050783Y8149216D01*
X15949216Y8301567D02*
X15923824Y8326959D01*
Y8377742D01*
X15949216Y8403134D01*
X15974608D01*
X16000000Y8377742D01*
Y8352351D01*
Y8377742D01*
X16025392Y8403134D01*
X16050783D01*
X16076175Y8377742D01*
Y8326959D01*
X16050783Y8301567D01*
X11846519Y11978052D02*
X11948086Y11825702D01*
Y11978052D02*
X11846519Y11825702D01*
X11998870D02*
X12049653D01*
X12024262D01*
Y11978052D01*
X11998870Y11952660D01*
X12202004Y11825702D02*
Y11978052D01*
X12125829Y11901877D01*
X12227396D01*
X14107207Y11979932D02*
X14208774Y11827581D01*
Y11979932D02*
X14107207Y11827581D01*
X14259557D02*
X14310341D01*
X14284949D01*
Y11979932D01*
X14259557Y11954540D01*
X14386516D02*
X14411908Y11979932D01*
X14462691D01*
X14488083Y11954540D01*
Y11929149D01*
X14462691Y11903757D01*
X14437300D01*
X14462691D01*
X14488083Y11878365D01*
Y11852973D01*
X14462691Y11827581D01*
X14411908D01*
X14386516Y11852973D01*
X13689674Y9560438D02*
X13562717D01*
X13537325Y9535046D01*
Y9484263D01*
X13562717Y9458871D01*
X13689674D01*
X13537325Y9408087D02*
Y9357304D01*
Y9382695D01*
X13689674D01*
X13664284Y9408087D01*
Y9281129D02*
X13689674Y9255737D01*
Y9204953D01*
X13664284Y9179561D01*
X13562717D01*
X13537325Y9204953D01*
Y9255737D01*
X13562717Y9281129D01*
X13664284D01*
X16235675Y9446959D02*
X16108717D01*
X16083325Y9421567D01*
Y9370783D01*
X16108717Y9345392D01*
X16235675D01*
X16210284Y9294608D02*
X16235675Y9269216D01*
Y9218433D01*
X16210284Y9193041D01*
X16184892D01*
X16159500Y9218433D01*
X16134108Y9193041D01*
X16108717D01*
X16083325Y9218433D01*
Y9269216D01*
X16108717Y9294608D01*
X16134108D01*
X16159500Y9269216D01*
X16184892Y9294608D01*
X16210284D01*
X16159500Y9269216D02*
Y9218433D01*
X14358620Y8994091D02*
Y8867132D01*
X14384012Y8841740D01*
X14434795D01*
X14460187Y8867132D01*
Y8994091D01*
X14510971D02*
X14612538D01*
Y8968699D01*
X14510971Y8867132D01*
Y8841740D01*
X15156180Y5788611D02*
X15257747Y5636260D01*
Y5788611D02*
X15156180Y5636260D01*
X15308531D02*
X15359314D01*
X15333923D01*
Y5788611D01*
X15308531Y5763219D01*
X15537057Y5636260D02*
X15435490D01*
X15537057Y5737827D01*
Y5763219D01*
X15511665Y5788611D01*
X15460881D01*
X15435490Y5763219D01*
X8698433Y6273825D02*
Y6426175D01*
X8774608D01*
X8800000Y6400783D01*
Y6350000D01*
X8774608Y6324608D01*
X8698433D01*
X8749216D02*
X8800000Y6273825D01*
X8850784D02*
X8901567D01*
X8876176D01*
Y6426175D01*
X8850784Y6400783D01*
X8945847Y7414219D02*
X8920455Y7439611D01*
X8869672D01*
X8844280Y7414219D01*
Y7312652D01*
X8869672Y7287260D01*
X8920455D01*
X8945847Y7312652D01*
X9072806Y7287260D02*
Y7439611D01*
X8996631Y7363435D01*
X9098198D01*
X7967980Y7233871D02*
Y7106912D01*
X7993372Y7081520D01*
X8044155D01*
X8069547Y7106912D01*
Y7233871D01*
X8196506Y7081520D02*
Y7233871D01*
X8120331Y7157695D01*
X8221898D01*
X2103087Y6327099D02*
X2077695Y6352491D01*
X2026912D01*
X2001520Y6327099D01*
Y6225532D01*
X2026912Y6200140D01*
X2077695D01*
X2103087Y6225532D01*
X2255438Y6200140D02*
X2153871D01*
X2255438Y6301707D01*
Y6327099D01*
X2230046Y6352491D01*
X2179263D01*
X2153871Y6327099D01*
X2407789Y6352491D02*
X2306221D01*
Y6276315D01*
X2357005Y6301707D01*
X2382397D01*
X2407789Y6276315D01*
Y6225532D01*
X2382397Y6200140D01*
X2331613D01*
X2306221Y6225532D01*
X10899216Y2024608D02*
X10873825Y1999216D01*
Y1948432D01*
X10899216Y1923041D01*
X11000783D01*
X11026175Y1948432D01*
Y1999216D01*
X11000783Y2024608D01*
X11026175Y2176959D02*
Y2075391D01*
X10924608Y2176959D01*
X10899216D01*
X10873825Y2151567D01*
Y2100783D01*
X10899216Y2075391D01*
X10950000Y1700783D02*
X10924609Y1726175D01*
X10873825D01*
X10848433Y1700783D01*
Y1599217D01*
X10873825Y1573825D01*
X10924609D01*
X10950000Y1599217D01*
X11000784Y1573825D02*
X11051567D01*
X11026176D01*
Y1726175D01*
X11000784Y1700783D01*
X12874608D02*
X12849216Y1726175D01*
X12798433D01*
X12773041Y1700783D01*
Y1599217D01*
X12798433Y1573825D01*
X12849216D01*
X12874608Y1599217D01*
X12925392Y1700783D02*
X12950784Y1726175D01*
X13001567D01*
X13026959Y1700783D01*
Y1675392D01*
X13001567Y1650000D01*
X12976175D01*
X13001567D01*
X13026959Y1624608D01*
Y1599217D01*
X13001567Y1573825D01*
X12950784D01*
X12925392Y1599217D01*
X7858760Y1137871D02*
X7960327Y985520D01*
Y1137871D02*
X7858760Y985520D01*
X8011111D02*
X8061894D01*
X8036503D01*
Y1137871D01*
X8011111Y1112479D01*
X8138070D02*
X8163461Y1137871D01*
X8214245D01*
X8239637Y1112479D01*
Y1010912D01*
X8214245Y985520D01*
X8163461D01*
X8138070Y1010912D01*
Y1112479D01*
X5599216Y5098433D02*
X5573825Y5073041D01*
Y5022258D01*
X5599216Y4996866D01*
X5700783D01*
X5726175Y5022258D01*
Y5073041D01*
X5700783Y5098433D01*
X5726175Y5250784D02*
Y5149217D01*
X5624608Y5250784D01*
X5599216D01*
X5573825Y5225392D01*
Y5174608D01*
X5599216Y5149217D01*
Y5301567D02*
X5573825Y5326959D01*
Y5377743D01*
X5599216Y5403134D01*
X5624608D01*
X5650000Y5377743D01*
X5675392Y5403134D01*
X5700783D01*
X5726175Y5377743D01*
Y5326959D01*
X5700783Y5301567D01*
X5675392D01*
X5650000Y5326959D01*
X5624608Y5301567D01*
X5599216D01*
X5650000Y5326959D02*
Y5377743D01*
X5765767Y1683979D02*
X5740375Y1709371D01*
X5689592D01*
X5664200Y1683979D01*
Y1582412D01*
X5689592Y1557020D01*
X5740375D01*
X5765767Y1582412D01*
X5918118Y1557020D02*
X5816551D01*
X5918118Y1658587D01*
Y1683979D01*
X5892726Y1709371D01*
X5841943D01*
X5816551Y1683979D01*
X6045077Y1557020D02*
Y1709371D01*
X5968901Y1633195D01*
X6070469D01*
X8376175Y1842561D02*
X8223825D01*
Y1918737D01*
X8249216Y1944129D01*
X8300000D01*
X8325392Y1918737D01*
Y1842561D01*
Y1893345D02*
X8376175Y1944129D01*
Y1994912D02*
Y2045696D01*
Y2020304D01*
X8223825D01*
X8249216Y1994912D01*
Y2121871D02*
X8223825Y2147263D01*
Y2198046D01*
X8249216Y2223438D01*
X8274608D01*
X8300000Y2198046D01*
Y2172655D01*
Y2198046D01*
X8325392Y2223438D01*
X8350783D01*
X8376175Y2198046D01*
Y2147263D01*
X8350783Y2121871D01*
X8676175Y1842562D02*
X8523825D01*
Y1918737D01*
X8549217Y1944129D01*
X8600000D01*
X8625392Y1918737D01*
Y1842562D01*
Y1893345D02*
X8676175Y1944129D01*
Y1994912D02*
Y2045696D01*
Y2020304D01*
X8523825D01*
X8549217Y1994912D01*
X8676175Y2223439D02*
Y2121871D01*
X8574608Y2223439D01*
X8549217D01*
X8523825Y2198047D01*
Y2147263D01*
X8549217Y2121871D01*
X10053700Y6893511D02*
X10104483D01*
X10079092D01*
Y6741160D01*
X10053700D01*
X10104483D01*
X10282226Y6868119D02*
X10256834Y6893511D01*
X10206051D01*
X10180659Y6868119D01*
Y6766552D01*
X10206051Y6741160D01*
X10256834D01*
X10282226Y6766552D01*
X10333010Y6741160D02*
X10383793D01*
X10358401D01*
Y6893511D01*
X10333010Y6868119D01*
X6441440Y1358851D02*
X6543007Y1206500D01*
Y1358851D02*
X6441440Y1206500D01*
X6593791Y1333459D02*
X6619183Y1358851D01*
X6669966D01*
X6695358Y1333459D01*
Y1308067D01*
X6669966Y1282675D01*
X6695358Y1257283D01*
Y1231892D01*
X6669966Y1206500D01*
X6619183D01*
X6593791Y1231892D01*
Y1257283D01*
X6619183Y1282675D01*
X6593791Y1308067D01*
Y1333459D01*
X6619183Y1282675D02*
X6669966D01*
X175260Y4607511D02*
X276827Y4455160D01*
Y4607511D02*
X175260Y4455160D01*
X327611D02*
X378394D01*
X353003D01*
Y4607511D01*
X327611Y4582119D01*
X454570Y4455160D02*
X505353D01*
X479961D01*
Y4607511D01*
X454570Y4582119D01*
X1923824Y4346866D02*
X2025392D01*
X2076175Y4397649D01*
X2025392Y4448433D01*
X1923824D01*
Y4499216D02*
X2076175D01*
Y4575392D01*
X2050783Y4600784D01*
X1949216D01*
X1923824Y4575392D01*
Y4499216D01*
X2076175Y4727742D02*
X1923824D01*
X2000000Y4651567D01*
Y4753134D01*
X2135100Y1859231D02*
Y1757663D01*
X2185883Y1706880D01*
X2236667Y1757663D01*
Y1859231D01*
X2287451D02*
Y1706880D01*
X2363626D01*
X2389018Y1732272D01*
Y1833839D01*
X2363626Y1859231D01*
X2287451D01*
X2439801Y1833839D02*
X2465193Y1859231D01*
X2515977D01*
X2541369Y1833839D01*
Y1808447D01*
X2515977Y1783055D01*
X2490585D01*
X2515977D01*
X2541369Y1757663D01*
Y1732272D01*
X2515977Y1706880D01*
X2465193D01*
X2439801Y1732272D01*
X3164840Y6852871D02*
Y6725912D01*
X3190232Y6700520D01*
X3241015D01*
X3266407Y6725912D01*
Y6852871D01*
X3418758D02*
X3367974Y6827479D01*
X3317191Y6776695D01*
Y6725912D01*
X3342583Y6700520D01*
X3393366D01*
X3418758Y6725912D01*
Y6751303D01*
X3393366Y6776695D01*
X3317191D01*
X3164840Y3601671D02*
Y3474712D01*
X3190232Y3449320D01*
X3241015D01*
X3266407Y3474712D01*
Y3601671D01*
X3418758D02*
X3317191D01*
Y3525495D01*
X3367974Y3550887D01*
X3393366D01*
X3418758Y3525495D01*
Y3474712D01*
X3393366Y3449320D01*
X3342583D01*
X3317191Y3474712D01*
X9876176Y1906041D02*
X9723825D01*
Y1982217D01*
X9749217Y2007608D01*
X9800000D01*
X9825392Y1982217D01*
Y1906041D01*
Y1956825D02*
X9876176Y2007608D01*
X9749217Y2058392D02*
X9723825Y2083784D01*
Y2134567D01*
X9749217Y2159959D01*
X9774608D01*
X9800000Y2134567D01*
X9825392Y2159959D01*
X9850784D01*
X9876176Y2134567D01*
Y2083784D01*
X9850784Y2058392D01*
X9825392D01*
X9800000Y2083784D01*
X9774608Y2058392D01*
X9749217D01*
X9800000Y2083784D02*
Y2134567D01*
X9576175Y1906041D02*
X9423825D01*
Y1982217D01*
X9449217Y2007608D01*
X9500000D01*
X9525392Y1982217D01*
Y1906041D01*
Y1956825D02*
X9576175Y2007608D01*
X9550784Y2058392D02*
X9576175Y2083784D01*
Y2134567D01*
X9550784Y2159959D01*
X9449217D01*
X9423825Y2134567D01*
Y2083784D01*
X9449217Y2058392D01*
X9474608D01*
X9500000Y2083784D01*
Y2159959D01*
X8976175Y1867954D02*
X8823825D01*
Y1944129D01*
X8849216Y1969521D01*
X8900000D01*
X8925392Y1944129D01*
Y1867954D01*
Y1918737D02*
X8976175Y1969521D01*
Y2020304D02*
Y2071088D01*
Y2045696D01*
X8823825D01*
X8849216Y2020304D01*
X8976175Y2147263D02*
Y2198047D01*
Y2172655D01*
X8823825D01*
X8849216Y2147263D01*
X9276176Y1842562D02*
X9123825D01*
Y1918737D01*
X9149217Y1944129D01*
X9200000D01*
X9225392Y1918737D01*
Y1842562D01*
Y1893345D02*
X9276176Y1944129D01*
Y1994912D02*
Y2045696D01*
Y2020304D01*
X9123825D01*
X9149217Y1994912D01*
Y2121871D02*
X9123825Y2147263D01*
Y2198047D01*
X9149217Y2223439D01*
X9250784D01*
X9276176Y2198047D01*
Y2147263D01*
X9250784Y2121871D01*
X9149217D01*
X10176175Y1906041D02*
X10023825D01*
Y1982217D01*
X10049217Y2007608D01*
X10100000D01*
X10125392Y1982217D01*
Y1906041D01*
Y1956825D02*
X10176175Y2007608D01*
X10023825Y2058392D02*
Y2159959D01*
X10049217D01*
X10150784Y2058392D01*
X10176175D01*
X14516100Y5455920D02*
Y5608271D01*
X14592274D01*
X14617667Y5582879D01*
Y5532095D01*
X14592274Y5506703D01*
X14516100D01*
X14566882D02*
X14617667Y5455920D01*
X14668451D02*
X14719234D01*
X14693843D01*
Y5608271D01*
X14668451Y5582879D01*
X14795410Y5608271D02*
X14896977D01*
Y5582879D01*
X14795410Y5481312D01*
Y5455920D01*
X14476175Y4359562D02*
X14323824D01*
Y4435737D01*
X14349216Y4461129D01*
X14400000D01*
X14425392Y4435737D01*
Y4359562D01*
Y4410345D02*
X14476175Y4461129D01*
Y4511912D02*
Y4562696D01*
Y4537304D01*
X14323824D01*
X14349216Y4511912D01*
Y4638871D02*
X14323824Y4664263D01*
Y4715046D01*
X14349216Y4740438D01*
X14374608D01*
X14400000Y4715046D01*
X14425392Y4740438D01*
X14450783D01*
X14476175Y4715046D01*
Y4664263D01*
X14450783Y4638871D01*
X14425392D01*
X14400000Y4664263D01*
X14374608Y4638871D01*
X14349216D01*
X14400000Y4664263D02*
Y4715046D01*
X14476175Y3209562D02*
X14323824D01*
Y3285737D01*
X14349216Y3311129D01*
X14400000D01*
X14425392Y3285737D01*
Y3209562D01*
Y3260345D02*
X14476175Y3311129D01*
Y3361912D02*
Y3412696D01*
Y3387304D01*
X14323824D01*
X14349216Y3361912D01*
X14323824Y3590438D02*
Y3488871D01*
X14400000D01*
X14374608Y3539655D01*
Y3565046D01*
X14400000Y3590438D01*
X14450783D01*
X14476175Y3565046D01*
Y3514263D01*
X14450783Y3488871D01*
X14501175Y3759562D02*
X14348824D01*
Y3835737D01*
X14374216Y3861129D01*
X14425000D01*
X14450392Y3835737D01*
Y3759562D01*
Y3810345D02*
X14501175Y3861129D01*
Y3911912D02*
Y3962696D01*
Y3937304D01*
X14348824D01*
X14374216Y3911912D01*
X14348824Y4140439D02*
X14374216Y4089655D01*
X14425000Y4038871D01*
X14475783D01*
X14501175Y4064263D01*
Y4115047D01*
X14475783Y4140439D01*
X14450392D01*
X14425000Y4115047D01*
Y4038871D01*
X14476175Y2609562D02*
X14323825D01*
Y2685737D01*
X14349216Y2711129D01*
X14400000D01*
X14425392Y2685737D01*
Y2609562D01*
Y2660345D02*
X14476175Y2711129D01*
Y2761912D02*
Y2812696D01*
Y2787304D01*
X14323825D01*
X14349216Y2761912D01*
X14476175Y2965047D02*
X14323825D01*
X14400000Y2888871D01*
Y2990439D01*
X3079980Y4998671D02*
Y4846320D01*
X3181547D01*
X3333898D02*
X3232331D01*
X3333898Y4947887D01*
Y4973279D01*
X3308506Y4998671D01*
X3257722D01*
X3232331Y4973279D01*
X3131640Y1697471D02*
Y1545120D01*
X3233207D01*
X3283990D02*
X3334774D01*
X3309382D01*
Y1697471D01*
X3283990Y1672079D01*
X6931140Y2233271D02*
Y2080920D01*
X7007315D01*
X7032707Y2106312D01*
Y2207879D01*
X7007315Y2233271D01*
X6931140D01*
X7083491Y2080920D02*
X7134274D01*
X7108883D01*
Y2233271D01*
X7083491Y2207879D01*
X6599608Y2050784D02*
X6574216Y2076175D01*
X6523433D01*
X6498041Y2050784D01*
Y1949217D01*
X6523433Y1923825D01*
X6574216D01*
X6599608Y1949217D01*
X6751959Y2076175D02*
X6650392D01*
Y2000000D01*
X6701175Y2025392D01*
X6726567D01*
X6751959Y2000000D01*
Y1949217D01*
X6726567Y1923825D01*
X6675784D01*
X6650392Y1949217D01*
X2103087Y3129239D02*
X2077695Y3154631D01*
X2026912D01*
X2001520Y3129239D01*
Y3027672D01*
X2026912Y3002280D01*
X2077695D01*
X2103087Y3027672D01*
X2255438Y3002280D02*
X2153871D01*
X2255438Y3103847D01*
Y3129239D01*
X2230046Y3154631D01*
X2179263D01*
X2153871Y3129239D01*
X2407789Y3154631D02*
X2357005Y3129239D01*
X2306221Y3078455D01*
Y3027672D01*
X2331613Y3002280D01*
X2382397D01*
X2407789Y3027672D01*
Y3053063D01*
X2382397Y3078455D01*
X2306221D01*
X4551647Y5478739D02*
X4526255Y5504131D01*
X4475472D01*
X4450080Y5478739D01*
Y5377172D01*
X4475472Y5351780D01*
X4526255D01*
X4551647Y5377172D01*
X4703998Y5351780D02*
X4602431D01*
X4703998Y5453347D01*
Y5478739D01*
X4678606Y5504131D01*
X4627823D01*
X4602431Y5478739D01*
X4754781Y5504131D02*
X4856349D01*
Y5478739D01*
X4754781Y5377172D01*
Y5351780D01*
X4602447Y2026879D02*
X4577055Y2052271D01*
X4526272D01*
X4500880Y2026879D01*
Y1925312D01*
X4526272Y1899920D01*
X4577055D01*
X4602447Y1925312D01*
X4754798Y1899920D02*
X4653231D01*
X4754798Y2001487D01*
Y2026879D01*
X4729406Y2052271D01*
X4678623D01*
X4653231Y2026879D01*
X4805581D02*
X4830973Y2052271D01*
X4881757D01*
X4907149Y2026879D01*
Y2001487D01*
X4881757Y1976095D01*
X4856365D01*
X4881757D01*
X4907149Y1950703D01*
Y1925312D01*
X4881757Y1899920D01*
X4830973D01*
X4805581Y1925312D01*
X12749400Y6929071D02*
Y6827503D01*
X12800183Y6776720D01*
X12850967Y6827503D01*
Y6929071D01*
X12901750D02*
Y6776720D01*
X12977927D01*
X13003317Y6802112D01*
Y6903679D01*
X12977927Y6929071D01*
X12901750D01*
X13155669Y6776720D02*
X13054102D01*
X13155669Y6878287D01*
Y6903679D01*
X13130276Y6929071D01*
X13079494D01*
X13054102Y6903679D01*
X11723240Y6929071D02*
Y6827503D01*
X11774023Y6776720D01*
X11824807Y6827503D01*
Y6929071D01*
X11875590D02*
Y6776720D01*
X11951766D01*
X11977158Y6802112D01*
Y6903679D01*
X11951766Y6929071D01*
X11875590D01*
X12027941Y6776720D02*
X12078725D01*
X12053333D01*
Y6929071D01*
X12027941Y6903679D01*
X7273041Y5076175D02*
Y4949216D01*
X7298433Y4923825D01*
X7349216D01*
X7374608Y4949216D01*
Y5076175D01*
X7425392Y5050783D02*
X7450784Y5076175D01*
X7501567D01*
X7526959Y5050783D01*
Y5025392D01*
X7501567Y5000000D01*
X7476175D01*
X7501567D01*
X7526959Y4974608D01*
Y4949216D01*
X7501567Y4923825D01*
X7450784D01*
X7425392Y4949216D01*
X10476175Y1906041D02*
X10323824D01*
Y1982216D01*
X10349216Y2007608D01*
X10400000D01*
X10425392Y1982216D01*
Y1906041D01*
Y1956824D02*
X10476175Y2007608D01*
X10323824Y2159959D02*
X10349216Y2109175D01*
X10400000Y2058392D01*
X10450783D01*
X10476175Y2083783D01*
Y2134567D01*
X10450783Y2159959D01*
X10425392D01*
X10400000Y2134567D01*
Y2058392D01*
X9597767Y6314399D02*
X9572375Y6339791D01*
X9521592D01*
X9496200Y6314399D01*
Y6212832D01*
X9521592Y6187440D01*
X9572375D01*
X9597767Y6212832D01*
X9750118Y6187440D02*
X9648551D01*
X9750118Y6289007D01*
Y6314399D01*
X9724726Y6339791D01*
X9673943D01*
X9648551Y6314399D01*
X9902469Y6187440D02*
X9800901D01*
X9902469Y6289007D01*
Y6314399D01*
X9877077Y6339791D01*
X9826293D01*
X9800901Y6314399D01*
X13516988Y6433779D02*
X13491595Y6459171D01*
X13440813D01*
X13415421Y6433779D01*
Y6332212D01*
X13440813Y6306820D01*
X13491595D01*
X13516988Y6332212D01*
X13669337Y6306820D02*
X13567770D01*
X13669337Y6408387D01*
Y6433779D01*
X13643945Y6459171D01*
X13593163D01*
X13567770Y6433779D01*
X13720120Y6306820D02*
X13770905D01*
X13745512D01*
Y6459171D01*
X13720120Y6433779D01*
X11249216Y6398433D02*
X11223824Y6373041D01*
Y6322258D01*
X11249216Y6296866D01*
X11350783D01*
X11376175Y6322258D01*
Y6373041D01*
X11350783Y6398433D01*
X11376175Y6550784D02*
Y6449216D01*
X11274608Y6550784D01*
X11249216D01*
X11223824Y6525392D01*
Y6474608D01*
X11249216Y6449216D01*
Y6601567D02*
X11223824Y6626959D01*
Y6677743D01*
X11249216Y6703134D01*
X11350783D01*
X11376175Y6677743D01*
Y6626959D01*
X11350783Y6601567D01*
X11249216D01*
X9511129Y3500783D02*
X9485737Y3526175D01*
X9434954D01*
X9409562Y3500783D01*
Y3399216D01*
X9434954Y3373825D01*
X9485737D01*
X9511129Y3399216D01*
X9561913Y3373825D02*
X9612696D01*
X9587304D01*
Y3526175D01*
X9561913Y3500783D01*
X9688871Y3399216D02*
X9714263Y3373825D01*
X9765047D01*
X9790439Y3399216D01*
Y3500783D01*
X9765047Y3526175D01*
X9714263D01*
X9688871Y3500783D01*
Y3475392D01*
X9714263Y3450000D01*
X9790439D01*
X9961129Y3500783D02*
X9935737Y3526175D01*
X9884954D01*
X9859562Y3500783D01*
Y3399216D01*
X9884954Y3373825D01*
X9935737D01*
X9961129Y3399216D01*
X10011912Y3373825D02*
X10062696D01*
X10037304D01*
Y3526175D01*
X10011912Y3500783D01*
X10138871D02*
X10164263Y3526175D01*
X10215047D01*
X10240438Y3500783D01*
Y3475392D01*
X10215047Y3450000D01*
X10240438Y3424608D01*
Y3399216D01*
X10215047Y3373825D01*
X10164263D01*
X10138871Y3399216D01*
Y3424608D01*
X10164263Y3450000D01*
X10138871Y3475392D01*
Y3500783D01*
X10164263Y3450000D02*
X10215047D01*
X10349216Y5211129D02*
X10323824Y5185737D01*
Y5134953D01*
X10349216Y5109562D01*
X10450783D01*
X10476175Y5134953D01*
Y5185737D01*
X10450783Y5211129D01*
X10476175Y5261912D02*
Y5312696D01*
Y5287304D01*
X10323824D01*
X10349216Y5261912D01*
X10323824Y5388871D02*
Y5490438D01*
X10349216D01*
X10450783Y5388871D01*
X10476175D01*
X10049217Y5211129D02*
X10023825Y5185737D01*
Y5134954D01*
X10049217Y5109562D01*
X10150784D01*
X10176175Y5134954D01*
Y5185737D01*
X10150784Y5211129D01*
X10176175Y5261913D02*
Y5312696D01*
Y5287304D01*
X10023825D01*
X10049217Y5261913D01*
X10023825Y5490439D02*
X10049217Y5439655D01*
X10100000Y5388871D01*
X10150784D01*
X10176175Y5414263D01*
Y5465047D01*
X10150784Y5490439D01*
X10125392D01*
X10100000Y5465047D01*
Y5388871D01*
X9749216Y5211129D02*
X9723824Y5185737D01*
Y5134953D01*
X9749216Y5109562D01*
X9850783D01*
X9876175Y5134953D01*
Y5185737D01*
X9850783Y5211129D01*
X9876175Y5261912D02*
Y5312696D01*
Y5287304D01*
X9723824D01*
X9749216Y5261912D01*
X9723824Y5490438D02*
Y5388871D01*
X9800000D01*
X9774608Y5439655D01*
Y5465046D01*
X9800000Y5490438D01*
X9850783D01*
X9876175Y5465046D01*
Y5414263D01*
X9850783Y5388871D01*
X9111129Y5350784D02*
X9085737Y5376175D01*
X9034953D01*
X9009562Y5350784D01*
Y5249217D01*
X9034953Y5223825D01*
X9085737D01*
X9111129Y5249217D01*
X9161912Y5223825D02*
X9212696D01*
X9187304D01*
Y5376175D01*
X9161912Y5350784D01*
X9365047Y5223825D02*
Y5376175D01*
X9288871Y5300000D01*
X9390438D01*
X5905500Y6847791D02*
Y6720832D01*
X5930892Y6695440D01*
X5981675D01*
X6007067Y6720832D01*
Y6847791D01*
X6057851Y6695440D02*
X6108634D01*
X6083243D01*
Y6847791D01*
X6057851Y6822399D01*
X9611129Y3250783D02*
X9585737Y3276175D01*
X9534953D01*
X9509562Y3250783D01*
Y3149216D01*
X9534953Y3123825D01*
X9585737D01*
X9611129Y3149216D01*
X9661912Y3123825D02*
X9712696D01*
X9687304D01*
Y3276175D01*
X9661912Y3250783D01*
X9890438Y3123825D02*
X9788871D01*
X9890438Y3225392D01*
Y3250783D01*
X9865047Y3276175D01*
X9814263D01*
X9788871Y3250783D01*
X13449300Y1508711D02*
X13550867Y1356360D01*
Y1508711D02*
X13449300Y1356360D01*
X13601651Y1381752D02*
X13627043Y1356360D01*
X13677826D01*
X13703218Y1381752D01*
Y1483319D01*
X13677826Y1508711D01*
X13627043D01*
X13601651Y1483319D01*
Y1457927D01*
X13627043Y1432535D01*
X13703218D01*
X9673041Y11876175D02*
X9774608Y11723825D01*
Y11876175D02*
X9673041Y11723825D01*
X9825392Y11876175D02*
X9926959D01*
Y11850784D01*
X9825392Y11749217D01*
Y11723825D01*
X7873041Y11876175D02*
X7974608Y11723825D01*
Y11876175D02*
X7873041Y11723825D01*
X8126959Y11876175D02*
X8076175Y11850784D01*
X8025392Y11800000D01*
Y11749217D01*
X8050784Y11723825D01*
X8101567D01*
X8126959Y11749217D01*
Y11774608D01*
X8101567Y11800000D01*
X8025392D01*
X6173041Y11876175D02*
X6274608Y11723825D01*
Y11876175D02*
X6173041Y11723825D01*
X6401567D02*
Y11876175D01*
X6325392Y11800000D01*
X6426959D01*
X7461129Y6050783D02*
X7435737Y6076175D01*
X7384953D01*
X7359562Y6050783D01*
Y5949216D01*
X7384953Y5923825D01*
X7435737D01*
X7461129Y5949216D01*
X7511912Y5923825D02*
X7562696D01*
X7537304D01*
Y6076175D01*
X7511912Y6050783D01*
X7638871D02*
X7664263Y6076175D01*
X7715047D01*
X7740438Y6050783D01*
Y6025392D01*
X7715047Y6000000D01*
X7689655D01*
X7715047D01*
X7740438Y5974608D01*
Y5949216D01*
X7715047Y5923825D01*
X7664263D01*
X7638871Y5949216D01*
X11584940Y3235911D02*
Y3108952D01*
X11610332Y3083560D01*
X11661115D01*
X11686507Y3108952D01*
Y3235911D01*
X11838858Y3083560D02*
X11737291D01*
X11838858Y3185127D01*
Y3210519D01*
X11813466Y3235911D01*
X11762683D01*
X11737291Y3210519D01*
X10002520Y10624771D02*
Y10472420D01*
Y10523203D01*
X10104087Y10624771D01*
X10027912Y10548595D01*
X10104087Y10472420D01*
X10256438Y10624771D02*
X10205654Y10599379D01*
X10154871Y10548595D01*
Y10497812D01*
X10180263Y10472420D01*
X10231046D01*
X10256438Y10497812D01*
Y10523203D01*
X10231046Y10548595D01*
X10154871D01*
X8252460Y10624771D02*
Y10472420D01*
Y10523203D01*
X8354027Y10624771D01*
X8277852Y10548595D01*
X8354027Y10472420D01*
X8506378Y10624771D02*
X8404811D01*
Y10548595D01*
X8455594Y10573987D01*
X8480986D01*
X8506378Y10548595D01*
Y10497812D01*
X8480986Y10472420D01*
X8430203D01*
X8404811Y10497812D01*
X6502400Y10624771D02*
Y10472420D01*
Y10523203D01*
X6603967Y10624771D01*
X6527792Y10548595D01*
X6603967Y10472420D01*
X6730926D02*
Y10624771D01*
X6654751Y10548595D01*
X6756318D01*
X4752340Y10624771D02*
Y10472420D01*
Y10523203D01*
X4853907Y10624771D01*
X4777732Y10548595D01*
X4853907Y10472420D01*
X4904691Y10599379D02*
X4930083Y10624771D01*
X4980866D01*
X5006258Y10599379D01*
Y10573987D01*
X4980866Y10548595D01*
X4955474D01*
X4980866D01*
X5006258Y10523203D01*
Y10497812D01*
X4980866Y10472420D01*
X4930083D01*
X4904691Y10497812D01*
X3002280Y10624771D02*
Y10472420D01*
Y10523203D01*
X3103847Y10624771D01*
X3027672Y10548595D01*
X3103847Y10472420D01*
X3256198D02*
X3154631D01*
X3256198Y10573987D01*
Y10599379D01*
X3230806Y10624771D01*
X3180023D01*
X3154631Y10599379D01*
X1252220Y10624771D02*
Y10472420D01*
Y10523203D01*
X1353787Y10624771D01*
X1277612Y10548595D01*
X1353787Y10472420D01*
X1404571D02*
X1455354D01*
X1429963D01*
Y10624771D01*
X1404571Y10599379D01*
X4373041Y11876175D02*
X4474608Y11723825D01*
Y11876175D02*
X4373041Y11723825D01*
X4525392Y11850784D02*
X4550784Y11876175D01*
X4601567D01*
X4626959Y11850784D01*
Y11825392D01*
X4601567Y11800000D01*
X4576175D01*
X4601567D01*
X4626959Y11774608D01*
Y11749217D01*
X4601567Y11723825D01*
X4550784D01*
X4525392Y11749217D01*
X10661129Y4150784D02*
X10635737Y4176176D01*
X10584954D01*
X10559562Y4150784D01*
Y4049217D01*
X10584954Y4023825D01*
X10635737D01*
X10661129Y4049217D01*
X10711913Y4023825D02*
X10762696D01*
X10737304D01*
Y4176176D01*
X10711913Y4150784D01*
X10838871D02*
X10864263Y4176176D01*
X10915047D01*
X10940439Y4150784D01*
Y4049217D01*
X10915047Y4023825D01*
X10864263D01*
X10838871Y4049217D01*
Y4150784D01*
X7924608Y6050783D02*
X7899217Y6076175D01*
X7848433D01*
X7823041Y6050783D01*
Y5949216D01*
X7848433Y5923825D01*
X7899217D01*
X7924608Y5949216D01*
X7975392D02*
X8000784Y5923825D01*
X8051567D01*
X8076959Y5949216D01*
Y6050783D01*
X8051567Y6076175D01*
X8000784D01*
X7975392Y6050783D01*
Y6025392D01*
X8000784Y6000000D01*
X8076959D01*
X7336521Y3175784D02*
X7311129Y3201175D01*
X7260345D01*
X7234954Y3175784D01*
Y3074217D01*
X7260345Y3048825D01*
X7311129D01*
X7336521Y3074217D01*
X7387304Y3048825D02*
X7438088D01*
X7412696D01*
Y3201175D01*
X7387304Y3175784D01*
X7514263Y3048825D02*
X7565047D01*
X7539655D01*
Y3201175D01*
X7514263Y3175784D01*
X13014960Y6306820D02*
Y6459171D01*
X13091135D01*
X13116527Y6433779D01*
Y6382995D01*
X13091135Y6357603D01*
X13014960D01*
X13065742D02*
X13116527Y6306820D01*
X13268878Y6459171D02*
X13167311D01*
Y6382995D01*
X13218094Y6408387D01*
X13243486D01*
X13268878Y6382995D01*
Y6332212D01*
X13243486Y6306820D01*
X13192703D01*
X13167311Y6332212D01*
X12616180Y6306820D02*
Y6459171D01*
X12692355D01*
X12717747Y6433779D01*
Y6382995D01*
X12692355Y6357603D01*
X12616180D01*
X12666963D02*
X12717747Y6306820D01*
X12844707D02*
Y6459171D01*
X12768531Y6382995D01*
X12870097D01*
X11449220Y1508711D02*
X11550787Y1356360D01*
Y1508711D02*
X11449220Y1356360D01*
X11703138Y1508711D02*
X11601571D01*
Y1432535D01*
X11652354Y1457927D01*
X11677746D01*
X11703138Y1432535D01*
Y1381752D01*
X11677746Y1356360D01*
X11626963D01*
X11601571Y1381752D01*
X898433Y11876175D02*
X1000000Y11723825D01*
Y11876175D02*
X898433Y11723825D01*
X1050784D02*
X1101567D01*
X1076176D01*
Y11876175D01*
X1050784Y11850784D01*
X2673041Y11876175D02*
X2774608Y11723825D01*
Y11876175D02*
X2673041Y11723825D01*
X2926959D02*
X2825392D01*
X2926959Y11825392D01*
Y11850784D01*
X2901567Y11876175D01*
X2850784D01*
X2825392Y11850784D01*
X11615420Y6306820D02*
Y6459171D01*
X11691595D01*
X11716987Y6433779D01*
Y6382995D01*
X11691595Y6357603D01*
X11615420D01*
X11666203D02*
X11716987Y6306820D01*
X11767771Y6433779D02*
X11793163Y6459171D01*
X11843946D01*
X11869338Y6433779D01*
Y6408387D01*
X11843946Y6382995D01*
X11818554D01*
X11843946D01*
X11869338Y6357603D01*
Y6332212D01*
X11843946Y6306820D01*
X11793163D01*
X11767771Y6332212D01*
X12014200Y6306820D02*
Y6459171D01*
X12090375D01*
X12115767Y6433779D01*
Y6382995D01*
X12090375Y6357603D01*
X12014200D01*
X12064983D02*
X12115767Y6306820D01*
X12268118D02*
X12166551D01*
X12268118Y6408387D01*
Y6433779D01*
X12242726Y6459171D01*
X12191943D01*
X12166551Y6433779D01*
X7149608Y4100784D02*
X7124216Y4126175D01*
X7073433D01*
X7048041Y4100784D01*
Y3999217D01*
X7073433Y3973825D01*
X7124216D01*
X7149608Y3999217D01*
X7200391Y4100784D02*
X7225783Y4126175D01*
X7276567D01*
X7301959Y4100784D01*
Y4075392D01*
X7276567Y4050000D01*
X7301959Y4024608D01*
Y3999217D01*
X7276567Y3973825D01*
X7225783D01*
X7200391Y3999217D01*
Y4024608D01*
X7225783Y4050000D01*
X7200391Y4075392D01*
Y4100784D01*
X7225783Y4050000D02*
X7276567D01*
D53*
X3080000Y3620000D02*
Y3870000D01*
X4340000Y3620000D02*
Y3870000D01*
X3080000Y4630000D02*
Y4890000D01*
X4340000Y4630000D02*
Y4890000D01*
X3080000D02*
X4340000D01*
X3080000Y3620000D02*
X4340000D01*
X3130000Y320000D02*
Y570000D01*
X4390000Y320000D02*
Y570000D01*
X3130000Y1330000D02*
Y1590000D01*
X4390000Y1330000D02*
Y1590000D01*
X3130000D02*
X4390000D01*
X3130000Y320000D02*
X4390000D01*
%TF.MD5,6add54547bd4c0f28476394114843a45*%
M02*
