%TF.GenerationSoftware,Altium Limited,Altium Designer,22.4.2 (48)*%
G04 Layer_Color=16711935*
%FSLAX45Y45*%
%MOMM*%
%TF.SameCoordinates,A0FECCF5-906F-4CEA-98AF-48209DEEDFB4*%
%TF.FilePolarity,Negative*%
%TF.FileFunction,Soldermask,Bot*%
%TF.Part,Single*%
G01*
G75*
%TA.AperFunction,SMDPad,CuDef*%
%ADD56R,1.80320X1.20320*%
%TA.AperFunction,ComponentPad*%
%ADD68C,1.80320*%
%ADD69C,2.00320*%
G04:AMPARAMS|DCode=70|XSize=2.0032mm|YSize=2.0032mm|CornerRadius=0mm|HoleSize=0mm|Usage=FLASHONLY|Rotation=180.000|XOffset=0mm|YOffset=0mm|HoleType=Round|Shape=Octagon|*
%AMOCTAGOND70*
4,1,8,-1.00160,0.50080,-1.00160,-0.50080,-0.50080,-1.00160,0.50080,-1.00160,1.00160,-0.50080,1.00160,0.50080,0.50080,1.00160,-0.50080,1.00160,-1.00160,0.50080,0.0*
%
%ADD70OCTAGOND70*%

G04:AMPARAMS|DCode=71|XSize=2.0032mm|YSize=2.0032mm|CornerRadius=0mm|HoleSize=0mm|Usage=FLASHONLY|Rotation=90.000|XOffset=0mm|YOffset=0mm|HoleType=Round|Shape=Octagon|*
%AMOCTAGOND71*
4,1,8,0.50080,1.00160,-0.50080,1.00160,-1.00160,0.50080,-1.00160,-0.50080,-0.50080,-1.00160,0.50080,-1.00160,1.00160,-0.50080,1.00160,0.50080,0.50080,1.00160,0.0*
%
%ADD71OCTAGOND71*%

%ADD72C,2.40320*%
%ADD73C,0.20320*%
%TA.AperFunction,ViaPad*%
%ADD74C,7.20320*%
%ADD75C,0.90320*%
%TA.AperFunction,SMDPad,CuDef*%
%ADD76R,1.70320X5.70320*%
D56*
X10100000Y4600000D02*
D03*
Y4900000D02*
D03*
Y4050000D02*
D03*
Y3750000D02*
D03*
D68*
X10250000Y10250000D02*
D03*
Y7750000D02*
D03*
Y9250000D02*
D03*
Y9750000D02*
D03*
X11000000D02*
D03*
Y7750000D02*
D03*
Y10250000D02*
D03*
Y9250000D02*
D03*
X2250000D02*
D03*
Y10250000D02*
D03*
Y7750000D02*
D03*
Y9750000D02*
D03*
X1500000D02*
D03*
Y9250000D02*
D03*
Y7750000D02*
D03*
Y10250000D02*
D03*
X4000000Y9250000D02*
D03*
Y10250000D02*
D03*
Y7750000D02*
D03*
Y9750000D02*
D03*
X3250000D02*
D03*
Y9250000D02*
D03*
Y7750000D02*
D03*
Y10250000D02*
D03*
X5750000Y9250000D02*
D03*
Y10250000D02*
D03*
Y7750000D02*
D03*
Y9750000D02*
D03*
X5000000D02*
D03*
Y9250000D02*
D03*
Y7750000D02*
D03*
Y10250000D02*
D03*
X7500000Y9250000D02*
D03*
Y10250000D02*
D03*
Y7750000D02*
D03*
Y9750000D02*
D03*
X6750000D02*
D03*
Y9250000D02*
D03*
Y7750000D02*
D03*
Y10250000D02*
D03*
X9250000Y9250000D02*
D03*
Y10250000D02*
D03*
Y7750000D02*
D03*
Y9750000D02*
D03*
X8500000D02*
D03*
Y9250000D02*
D03*
Y7750000D02*
D03*
Y10250000D02*
D03*
D69*
X14614627Y11143581D02*
D03*
X15122627D02*
D03*
X14868626D02*
D03*
X14614627Y11397581D02*
D03*
X14868626D02*
D03*
X15630627Y11143581D02*
D03*
X15376627Y11397581D02*
D03*
Y11143581D02*
D03*
X15122627Y11397581D02*
D03*
X12352919Y11143581D02*
D03*
X12860919D02*
D03*
X12606919D02*
D03*
X12352919Y11397581D02*
D03*
X12606919D02*
D03*
X13368919Y11143581D02*
D03*
X13114919Y11397581D02*
D03*
Y11143581D02*
D03*
X12860919Y11397581D02*
D03*
X15496001Y3492000D02*
D03*
X15750000D02*
D03*
X15496001Y3238000D02*
D03*
X15750000D02*
D03*
X15496001Y2984000D02*
D03*
X15750000D02*
D03*
X15496001Y2730000D02*
D03*
X15750000Y3746000D02*
D03*
X15496001D02*
D03*
X15750000Y4000000D02*
D03*
X15496001D02*
D03*
X15750000Y4254000D02*
D03*
X15496001D02*
D03*
X15750000Y4508000D02*
D03*
X15496001D02*
D03*
Y4762000D02*
D03*
X15750000D02*
D03*
Y5016000D02*
D03*
X15496001D02*
D03*
X2500000Y5350000D02*
D03*
X8376000Y333000D02*
D03*
Y587000D02*
D03*
X8630000Y333000D02*
D03*
Y587000D02*
D03*
X8884000Y333000D02*
D03*
Y587000D02*
D03*
X9138000Y333000D02*
D03*
Y587000D02*
D03*
X10154000Y333000D02*
D03*
X9900000Y587000D02*
D03*
Y333000D02*
D03*
X9646000Y587000D02*
D03*
Y333000D02*
D03*
X9392000Y587000D02*
D03*
Y333000D02*
D03*
X5000000Y1550000D02*
D03*
X2500000Y2650000D02*
D03*
X4950000Y5000000D02*
D03*
D70*
X15630627Y11397581D02*
D03*
X13368919D02*
D03*
X10154000Y587000D02*
D03*
D71*
X15750000Y2730000D02*
D03*
X2500000Y5850000D02*
D03*
X5000000Y1050000D02*
D03*
X2500000Y2150000D02*
D03*
X4950000Y4500000D02*
D03*
D72*
X10233999Y11000000D02*
D03*
X10741999D02*
D03*
X11249999D02*
D03*
X8491999D02*
D03*
X8999999D02*
D03*
X9507999D02*
D03*
X6749999D02*
D03*
X7257999D02*
D03*
X7765999D02*
D03*
X4983999D02*
D03*
X5491999D02*
D03*
X5999999D02*
D03*
X3242000D02*
D03*
X3750000D02*
D03*
X4258000D02*
D03*
X1492000D02*
D03*
X2000000D02*
D03*
X2508000D02*
D03*
X14700000Y1021000D02*
D03*
X14192000D02*
D03*
X13684000D02*
D03*
X12700000D02*
D03*
X12192000D02*
D03*
X11684000D02*
D03*
X500000Y4150000D02*
D03*
Y3800000D02*
D03*
D73*
X6810000Y605000D02*
D03*
X7250000D02*
D03*
D74*
X500000Y11250000D02*
D03*
X750000Y750000D02*
D03*
X15750000D02*
D03*
X15900000Y6600000D02*
D03*
D75*
X14500000Y7700000D02*
D03*
X12050000Y7650000D02*
D03*
X11250000Y2000000D02*
D03*
X10750000Y1700000D02*
D03*
X12850000Y1650000D02*
D03*
X11850000Y1750000D02*
D03*
X11450000D02*
D03*
X12350000Y2950000D02*
D03*
Y2750000D02*
D03*
X12850000D02*
D03*
Y2900000D02*
D03*
X13500000Y1500000D02*
D03*
X12450000D02*
D03*
X12900000Y7450000D02*
D03*
X15900000Y9800000D02*
D03*
X16300000Y10300000D02*
D03*
X14600000Y10600000D02*
D03*
Y10750000D02*
D03*
X12150000Y11200000D02*
D03*
Y10900000D02*
D03*
Y11050000D02*
D03*
X14600000Y10900000D02*
D03*
X14150000Y11350000D02*
D03*
X11550000Y11650000D02*
D03*
X14500000Y9400000D02*
D03*
X14800000Y9600000D02*
D03*
X13750000Y10050000D02*
D03*
X13300000Y9900000D02*
D03*
X13400000Y8800000D02*
D03*
X12300000Y9700000D02*
D03*
X15150000Y11700000D02*
D03*
X14950000Y11850000D02*
D03*
X12842686Y11600000D02*
D03*
X12692728Y11800000D02*
D03*
X11900000Y9900000D02*
D03*
X12100000D02*
D03*
X14500000Y10400000D02*
D03*
X14200000Y10500000D02*
D03*
X15140472Y9688502D02*
D03*
X14500000Y9900000D02*
D03*
X12600000Y9800000D02*
D03*
X14900000Y7700000D02*
D03*
X14745963Y7454038D02*
D03*
X14800000Y7000000D02*
D03*
X12270985Y7505896D02*
D03*
X12400000Y7700000D02*
D03*
X12600000Y7500000D02*
D03*
X14700000Y9900000D02*
D03*
X15700000D02*
D03*
X15600000Y9400000D02*
D03*
X14500000Y8400000D02*
D03*
X12100000Y10500000D02*
D03*
X11900000D02*
D03*
X16200000Y8400000D02*
D03*
Y9100000D02*
D03*
X14100000Y9000000D02*
D03*
Y8700000D02*
D03*
X15651234Y8905474D02*
D03*
X13700000Y8500000D02*
D03*
X15400000Y7400000D02*
D03*
X12000000Y9000000D02*
D03*
X13400000Y7700000D02*
D03*
X12500000Y8200000D02*
D03*
X15900000Y7700000D02*
D03*
X15000000Y7800000D02*
D03*
X13200000Y8800000D02*
D03*
X8627549Y5529301D02*
D03*
X8594774Y5286074D02*
D03*
X8467123Y5482726D02*
D03*
X8487823Y5625901D02*
D03*
X8461948Y5779427D02*
D03*
X8150000Y5600000D02*
D03*
X8550000Y7100000D02*
D03*
X8050000Y6400000D02*
D03*
X7800000Y6750000D02*
D03*
X8500000Y6350000D02*
D03*
X9100000Y6850000D02*
D03*
X8700000Y4650000D02*
D03*
X7850000Y6050000D02*
D03*
X9050000Y4500000D02*
D03*
X8936861Y3324261D02*
D03*
X8800000Y3650000D02*
D03*
X9050000Y4850000D02*
D03*
Y4100000D02*
D03*
X7941390Y3806787D02*
D03*
X4000000Y6100000D02*
D03*
X3700000D02*
D03*
X3400000D02*
D03*
Y6300000D02*
D03*
X3700000D02*
D03*
X4000000D02*
D03*
Y6500000D02*
D03*
X3700000D02*
D03*
X3400000D02*
D03*
X3500000Y2700000D02*
D03*
Y2900000D02*
D03*
X3700000Y2700000D02*
D03*
X3900000D02*
D03*
Y3300000D02*
D03*
X3700000D02*
D03*
X3500000D02*
D03*
X3700000Y2900000D02*
D03*
X3900000D02*
D03*
Y3100000D02*
D03*
X3700000D02*
D03*
X3500000D02*
D03*
X9350000Y7100000D02*
D03*
X9200000Y5800000D02*
D03*
X14900000Y3000000D02*
D03*
X6300000Y1750000D02*
D03*
X14600000Y2425000D02*
D03*
X14375000Y3725000D02*
D03*
X14275000Y4000000D02*
D03*
X14825000Y4150000D02*
D03*
X14944250Y4994250D02*
D03*
X14375000Y4325000D02*
D03*
X12700000Y5625000D02*
D03*
X12100000D02*
D03*
X7004000Y6846000D02*
D03*
X7950000Y8125000D02*
D03*
Y8350000D02*
D03*
X9650000Y2800000D02*
D03*
X9850000Y3500000D02*
D03*
X8866338Y3183504D02*
D03*
X9600000Y3200000D02*
D03*
X8575000Y3800000D02*
D03*
X8425000Y4000000D02*
D03*
X8125000Y4050000D02*
D03*
X13200000Y1950000D02*
D03*
X10950000Y2000000D02*
D03*
X14850000Y3550000D02*
D03*
X10475000Y2750000D02*
D03*
X10450000Y5950000D02*
D03*
Y6200000D02*
D03*
X9850000Y6350000D02*
D03*
X9550000Y5500000D02*
D03*
X8800000Y4600000D02*
D03*
X10450000Y300000D02*
D03*
X8100000D02*
D03*
X14700000Y800000D02*
D03*
X12700000D02*
D03*
X14800000Y4700000D02*
D03*
X11000000Y4300000D02*
D03*
X5600000Y4000000D02*
D03*
X5350000D02*
D03*
X5600000Y4250000D02*
D03*
X5350000D02*
D03*
X8750000Y7100000D02*
D03*
X14850000Y5300000D02*
D03*
X9850000Y4250000D02*
D03*
X10650000Y4650000D02*
D03*
X10900000D02*
D03*
X7450000Y5500000D02*
D03*
X9800000Y5200000D02*
D03*
X10100000D02*
D03*
X10400000D02*
D03*
X10550000Y3700000D02*
D03*
X10350000D02*
D03*
X7525000Y3300000D02*
D03*
X7200000Y1225000D02*
D03*
X13550000Y5650000D02*
D03*
X11300000D02*
D03*
X9350000Y6000000D02*
D03*
X7000000Y5350000D02*
D03*
X7224913Y3317340D02*
D03*
X9696282Y4256458D02*
D03*
X9537579Y4150000D02*
D03*
X5500000Y650000D02*
D03*
X5750000D02*
D03*
Y900000D02*
D03*
X5500000D02*
D03*
X5750000Y1650000D02*
D03*
X4050000Y4900000D02*
D03*
X3700000D02*
D03*
Y1650000D02*
D03*
X4050000D02*
D03*
X5300000Y1950000D02*
D03*
X5000000D02*
D03*
X4650000D02*
D03*
X5300000Y5400000D02*
D03*
X4650000D02*
D03*
X4950000D02*
D03*
X2800000Y5000000D02*
D03*
X2200000D02*
D03*
X2550000Y1750000D02*
D03*
X2200000D02*
D03*
D76*
X9700000Y4725000D02*
D03*
Y3875000D02*
D03*
%TF.MD5,f3d1edfe1ac35e27a086a55b06689bd1*%
M02*
