%TF.GenerationSoftware,Altium Limited,Altium Designer,22.4.2 (48)*%
G04 Layer_Color=8388736*
%FSLAX45Y45*%
%MOMM*%
%TF.SameCoordinates,A0FECCF5-906F-4CEA-98AF-48209DEEDFB4*%
%TF.FilePolarity,Negative*%
%TF.FileFunction,Soldermask,Top*%
%TF.Part,Single*%
G01*
G75*
%TA.AperFunction,SMDPad,CuDef*%
%ADD10R,2.00000X0.60000*%
%ADD12R,0.80000X1.75000*%
%ADD13R,0.70000X1.75000*%
%ADD15R,0.60000X2.00000*%
%ADD24C,6.29100*%
%ADD25R,1.07000X2.16000*%
%ADD54R,1.20320X1.80320*%
%TA.AperFunction,ConnectorPad*%
%ADD55R,1.20320X1.80320*%
%TA.AperFunction,SMDPad,CuDef*%
%ADD56R,1.80320X1.20320*%
G04:AMPARAMS|DCode=57|XSize=1.7532mm|YSize=0.8032mm|CornerRadius=0.4016mm|HoleSize=0mm|Usage=FLASHONLY|Rotation=180.000|XOffset=0mm|YOffset=0mm|HoleType=Round|Shape=RoundedRectangle|*
%AMROUNDEDRECTD57*
21,1,1.75320,0.00000,0,0,180.0*
21,1,0.95000,0.80320,0,0,180.0*
1,1,0.80320,-0.47500,0.00000*
1,1,0.80320,0.47500,0.00000*
1,1,0.80320,0.47500,0.00000*
1,1,0.80320,-0.47500,0.00000*
%
%ADD57ROUNDEDRECTD57*%
%ADD58R,4.20320X7.20320*%
%ADD59R,3.50320X2.60320*%
G04:AMPARAMS|DCode=60|XSize=0.8032mm|YSize=1.6532mm|CornerRadius=0.1526mm|HoleSize=0mm|Usage=FLASHONLY|Rotation=270.000|XOffset=0mm|YOffset=0mm|HoleType=Round|Shape=RoundedRectangle|*
%AMROUNDEDRECTD60*
21,1,0.80320,1.34800,0,0,270.0*
21,1,0.49800,1.65320,0,0,270.0*
1,1,0.30520,-0.67400,-0.24900*
1,1,0.30520,-0.67400,0.24900*
1,1,0.30520,0.67400,0.24900*
1,1,0.30520,0.67400,-0.24900*
%
%ADD60ROUNDEDRECTD60*%
%ADD61R,1.40320X0.50320*%
%ADD62R,0.50320X1.40320*%
%ADD63R,1.11320X1.42320*%
%ADD64R,0.80320X1.30320*%
%TA.AperFunction,ConnectorPad*%
%ADD65R,2.20320X4.20320*%
%ADD66R,2.20320X3.70320*%
%ADD67R,0.70320X2.40320*%
%TA.AperFunction,ComponentPad*%
%ADD68C,1.80320*%
%ADD69C,2.00320*%
G04:AMPARAMS|DCode=70|XSize=2.0032mm|YSize=2.0032mm|CornerRadius=0mm|HoleSize=0mm|Usage=FLASHONLY|Rotation=180.000|XOffset=0mm|YOffset=0mm|HoleType=Round|Shape=Octagon|*
%AMOCTAGOND70*
4,1,8,-1.00160,0.50080,-1.00160,-0.50080,-0.50080,-1.00160,0.50080,-1.00160,1.00160,-0.50080,1.00160,0.50080,0.50080,1.00160,-0.50080,1.00160,-1.00160,0.50080,0.0*
%
%ADD70OCTAGOND70*%

G04:AMPARAMS|DCode=71|XSize=2.0032mm|YSize=2.0032mm|CornerRadius=0mm|HoleSize=0mm|Usage=FLASHONLY|Rotation=90.000|XOffset=0mm|YOffset=0mm|HoleType=Round|Shape=Octagon|*
%AMOCTAGOND71*
4,1,8,0.50080,1.00160,-0.50080,1.00160,-1.00160,0.50080,-1.00160,-0.50080,-0.50080,-1.00160,0.50080,-1.00160,1.00160,-0.50080,1.00160,0.50080,0.50080,1.00160,0.0*
%
%ADD71OCTAGOND71*%

%ADD72C,2.40320*%
%ADD73C,0.20320*%
%TA.AperFunction,ViaPad*%
%ADD74C,7.20320*%
%ADD75C,0.90320*%
G36*
X4240000Y3163000D02*
X4116500D01*
Y2655000D01*
X3283500D01*
Y3163000D01*
X3160000D01*
Y3354000D01*
X4240000D01*
Y3163000D01*
D02*
G37*
G36*
Y6413000D02*
X4116500D01*
Y5905000D01*
X3283500D01*
Y6413000D01*
X3160000D01*
Y6604000D01*
X4240000D01*
Y6413000D01*
D02*
G37*
D10*
X12620000Y1501500D02*
D03*
Y1628500D02*
D03*
Y1755500D02*
D03*
Y1882500D02*
D03*
Y2009500D02*
D03*
Y2136500D02*
D03*
Y2263500D02*
D03*
Y2390500D02*
D03*
Y2517500D02*
D03*
Y2644500D02*
D03*
Y2771500D02*
D03*
Y2898500D02*
D03*
X11680000D02*
D03*
Y2771500D02*
D03*
Y2644500D02*
D03*
Y2517500D02*
D03*
Y2390500D02*
D03*
Y2263500D02*
D03*
Y2136500D02*
D03*
Y2009500D02*
D03*
Y1882500D02*
D03*
Y1755500D02*
D03*
Y1628500D02*
D03*
Y1501500D02*
D03*
D12*
X15388834Y8599151D02*
D03*
X14489835D02*
D03*
Y8034151D02*
D03*
X15388834D02*
D03*
X12898798Y8599151D02*
D03*
X11999797D02*
D03*
Y8034151D02*
D03*
X12898798D02*
D03*
D13*
X15256834Y8599151D02*
D03*
X15129834D02*
D03*
X15002834D02*
D03*
X14875835D02*
D03*
X14748834D02*
D03*
X14621834D02*
D03*
Y8034151D02*
D03*
X14748834D02*
D03*
X14875835D02*
D03*
X15002834D02*
D03*
X15129834D02*
D03*
X15256834D02*
D03*
X12766797Y8599151D02*
D03*
X12639797D02*
D03*
X12512797D02*
D03*
X12385797D02*
D03*
X12258797D02*
D03*
X12131797D02*
D03*
Y8034151D02*
D03*
X12258797D02*
D03*
X12385797D02*
D03*
X12512797D02*
D03*
X12639797D02*
D03*
X12766797D02*
D03*
D15*
X15898500Y10170000D02*
D03*
X15771500D02*
D03*
X15644501D02*
D03*
X15517500D02*
D03*
X15390500D02*
D03*
X15263499D02*
D03*
X15136501D02*
D03*
X15009500D02*
D03*
X14882500D02*
D03*
X14755499D02*
D03*
X14628500D02*
D03*
X14501500D02*
D03*
Y9230000D02*
D03*
X14628500D02*
D03*
X14755499D02*
D03*
X14882500D02*
D03*
X15009500D02*
D03*
X15136501D02*
D03*
X15263499D02*
D03*
X15390500D02*
D03*
X15517500D02*
D03*
X15644501D02*
D03*
X15771500D02*
D03*
X15898500D02*
D03*
X13398500Y10170000D02*
D03*
X13271500D02*
D03*
X13144501D02*
D03*
X13017500D02*
D03*
X12890500D02*
D03*
X12763500D02*
D03*
X12636500D02*
D03*
X12509500D02*
D03*
X12382500D02*
D03*
X12255500D02*
D03*
X12128500D02*
D03*
X12001500D02*
D03*
Y9230000D02*
D03*
X12128500D02*
D03*
X12255500D02*
D03*
X12382500D02*
D03*
X12509500D02*
D03*
X12636500D02*
D03*
X12763500D02*
D03*
X12890500D02*
D03*
X13017500D02*
D03*
X13144501D02*
D03*
X13271500D02*
D03*
X13398500D02*
D03*
X5988000Y6500000D02*
D03*
X6115000D02*
D03*
X6242000D02*
D03*
X6369000D02*
D03*
X6496000D02*
D03*
X6623000D02*
D03*
X6750000D02*
D03*
X6877000D02*
D03*
X7004000D02*
D03*
Y5560000D02*
D03*
X6877000D02*
D03*
X6750000D02*
D03*
X6623000D02*
D03*
X6496000D02*
D03*
X6369000D02*
D03*
X6242000D02*
D03*
X6115000D02*
D03*
X5988000D02*
D03*
D24*
X3700000Y6254500D02*
D03*
Y3004500D02*
D03*
D25*
X3360000Y5187000D02*
D03*
X3530000D02*
D03*
X3700000D02*
D03*
X3870000D02*
D03*
X4040000D02*
D03*
X3360000Y1937000D02*
D03*
X3530000D02*
D03*
X3700000D02*
D03*
X3870000D02*
D03*
X4040000D02*
D03*
D54*
X16201234Y8605474D02*
D03*
X15901234D02*
D03*
X16201234Y8905474D02*
D03*
X15901234D02*
D03*
X13950000Y8700000D02*
D03*
X13650000D02*
D03*
X13750000Y10550000D02*
D03*
X14050000D02*
D03*
X15400000Y7700000D02*
D03*
X15700000D02*
D03*
X12900000D02*
D03*
X13200000D02*
D03*
X13650000Y9000000D02*
D03*
X13950000D02*
D03*
X8900000Y7100000D02*
D03*
X9200000D02*
D03*
X6800000Y1750000D02*
D03*
X6500000D02*
D03*
X10150000Y3700000D02*
D03*
X9850000D02*
D03*
X10150000Y4000000D02*
D03*
X9850000D02*
D03*
X9350000Y5500000D02*
D03*
X9050000D02*
D03*
X9400682Y3179199D02*
D03*
X9100682D02*
D03*
X7525000Y3500000D02*
D03*
X7225000D02*
D03*
X7025000Y3800000D02*
D03*
X7325000D02*
D03*
X9550000Y6000000D02*
D03*
X9850000D02*
D03*
D55*
X16050000Y10500000D02*
D03*
X16350000D02*
D03*
D56*
X8900000Y6550000D02*
D03*
Y6850000D02*
D03*
X9800000Y4950000D02*
D03*
Y4650000D02*
D03*
X10100000Y4950000D02*
D03*
Y4650000D02*
D03*
X10400000Y4950000D02*
D03*
Y4650000D02*
D03*
X10450000Y4000000D02*
D03*
Y4300000D02*
D03*
X7650000Y5800000D02*
D03*
Y5500000D02*
D03*
X5650000Y4550000D02*
D03*
Y4850000D02*
D03*
X7950000Y5800000D02*
D03*
Y5500000D02*
D03*
X11250000Y1500000D02*
D03*
Y1800000D02*
D03*
X10950000Y1800000D02*
D03*
Y1500000D02*
D03*
X8300000Y1683000D02*
D03*
Y1383000D02*
D03*
X8600000D02*
D03*
Y1683000D02*
D03*
X9200000D02*
D03*
Y1383000D02*
D03*
X9800000Y1683000D02*
D03*
Y1383000D02*
D03*
X10100000Y1683000D02*
D03*
Y1383000D02*
D03*
X10400000Y1683000D02*
D03*
Y1383000D02*
D03*
X8900000Y1683000D02*
D03*
Y1383000D02*
D03*
X9500000Y1683000D02*
D03*
Y1383000D02*
D03*
X14625000Y4150000D02*
D03*
Y3850000D02*
D03*
X14600000Y4400000D02*
D03*
Y4700000D02*
D03*
Y3550000D02*
D03*
Y3250000D02*
D03*
Y2950000D02*
D03*
Y2650000D02*
D03*
X11299999Y6150000D02*
D03*
Y5850000D02*
D03*
X13200000Y1500000D02*
D03*
Y1800000D02*
D03*
X14600000Y5000000D02*
D03*
Y5300000D02*
D03*
X5750000Y1400000D02*
D03*
Y1100000D02*
D03*
X13499998Y5850000D02*
D03*
Y6150000D02*
D03*
X13099998D02*
D03*
Y5850000D02*
D03*
X12699999Y6150000D02*
D03*
Y5850000D02*
D03*
X11699999Y6150000D02*
D03*
Y5850000D02*
D03*
X12099999Y6150000D02*
D03*
Y5850000D02*
D03*
D57*
X8570000Y6559500D02*
D03*
Y6686500D02*
D03*
Y6813500D02*
D03*
Y6940500D02*
D03*
X8030000D02*
D03*
Y6813500D02*
D03*
Y6686500D02*
D03*
Y6559500D02*
D03*
D58*
X3200000Y4250000D02*
D03*
X4200000D02*
D03*
X3250000Y950000D02*
D03*
X4250000D02*
D03*
D59*
X2500000Y4830000D02*
D03*
Y4170000D02*
D03*
X2450000Y840000D02*
D03*
Y1500000D02*
D03*
D60*
X10127500Y6581000D02*
D03*
Y6454000D02*
D03*
Y6327000D02*
D03*
Y6200000D02*
D03*
Y6073000D02*
D03*
Y5946000D02*
D03*
Y5819000D02*
D03*
X10672500Y6581000D02*
D03*
Y6454000D02*
D03*
Y6327000D02*
D03*
Y6200000D02*
D03*
Y6073000D02*
D03*
Y5946000D02*
D03*
Y5819000D02*
D03*
D61*
X9275000Y3650000D02*
D03*
Y3700000D02*
D03*
X9275000Y3750000D02*
D03*
X9275000Y3800000D02*
D03*
Y3850000D02*
D03*
Y3900000D02*
D03*
Y3950000D02*
D03*
Y4000000D02*
D03*
Y4050000D02*
D03*
Y4100000D02*
D03*
Y4150000D02*
D03*
Y4200000D02*
D03*
Y4250000D02*
D03*
Y4300000D02*
D03*
X9275000Y4350000D02*
D03*
X9274999Y4400000D02*
D03*
X9275000Y4450000D02*
D03*
Y4500000D02*
D03*
Y4550000D02*
D03*
Y4600000D02*
D03*
Y4650000D02*
D03*
Y4700000D02*
D03*
Y4750000D02*
D03*
Y4800000D02*
D03*
Y4850000D02*
D03*
X7725000D02*
D03*
Y4800000D02*
D03*
X7725000Y4750000D02*
D03*
X7725000Y4700000D02*
D03*
Y4650000D02*
D03*
Y4600000D02*
D03*
Y4550000D02*
D03*
Y4500000D02*
D03*
Y4450000D02*
D03*
Y4400000D02*
D03*
Y4350000D02*
D03*
Y4300000D02*
D03*
Y4250000D02*
D03*
Y4200000D02*
D03*
X7725000Y4150000D02*
D03*
X7725001Y4100000D02*
D03*
X7725000Y4050000D02*
D03*
Y4000000D02*
D03*
Y3950000D02*
D03*
Y3900000D02*
D03*
Y3850000D02*
D03*
Y3800000D02*
D03*
Y3750000D02*
D03*
Y3700000D02*
D03*
Y3650000D02*
D03*
D62*
X9100000Y5025000D02*
D03*
X9050000D02*
D03*
X9000000Y5025000D02*
D03*
X8950000Y5025000D02*
D03*
X8900000D02*
D03*
X8850000D02*
D03*
X8800000D02*
D03*
X8750000D02*
D03*
X8700000D02*
D03*
X8650000D02*
D03*
X8600000D02*
D03*
X8550000D02*
D03*
X8500000D02*
D03*
X8450000D02*
D03*
X8400000Y5025000D02*
D03*
X8350000Y5024999D02*
D03*
X8300000Y5025000D02*
D03*
X8250000D02*
D03*
X8200000D02*
D03*
X8150000D02*
D03*
X8100000D02*
D03*
X8050000D02*
D03*
X8000000D02*
D03*
X7950000D02*
D03*
X7900000D02*
D03*
Y3475000D02*
D03*
X7950000D02*
D03*
X8000000Y3475000D02*
D03*
X8050000Y3475000D02*
D03*
X8100000D02*
D03*
X8150000D02*
D03*
X8200000D02*
D03*
X8250000D02*
D03*
X8300000D02*
D03*
X8350000D02*
D03*
X8400000D02*
D03*
X8450000D02*
D03*
X8500000D02*
D03*
X8550000D02*
D03*
X8600000Y3475000D02*
D03*
X8650000Y3475000D02*
D03*
X8700000Y3475000D02*
D03*
X8750000D02*
D03*
X8800000D02*
D03*
X8850000D02*
D03*
X8900000D02*
D03*
X8950000D02*
D03*
X9000000D02*
D03*
X9050000D02*
D03*
X9100000D02*
D03*
D63*
X12800000Y6600000D02*
D03*
X13127499D02*
D03*
X12099999D02*
D03*
X11772499D02*
D03*
D64*
X7005000Y1930000D02*
D03*
X7100000D02*
D03*
X7195000D02*
D03*
Y1670000D02*
D03*
X7100000D02*
D03*
X7005000D02*
D03*
D65*
X6540000Y415000D02*
D03*
X7520000D02*
D03*
D66*
X6540000Y925000D02*
D03*
X7520000D02*
D03*
D67*
X7190000D02*
D03*
X7110000D02*
D03*
X7030000D02*
D03*
X6950000D02*
D03*
X6870000D02*
D03*
D68*
X10250000Y10250000D02*
D03*
Y7750000D02*
D03*
Y9250000D02*
D03*
Y9750000D02*
D03*
X11000000D02*
D03*
Y7750000D02*
D03*
Y10250000D02*
D03*
Y9250000D02*
D03*
X2250000D02*
D03*
Y10250000D02*
D03*
Y7750000D02*
D03*
Y9750000D02*
D03*
X1500000D02*
D03*
Y9250000D02*
D03*
Y7750000D02*
D03*
Y10250000D02*
D03*
X4000000Y9250000D02*
D03*
Y10250000D02*
D03*
Y7750000D02*
D03*
Y9750000D02*
D03*
X3250000D02*
D03*
Y9250000D02*
D03*
Y7750000D02*
D03*
Y10250000D02*
D03*
X5750000Y9250000D02*
D03*
Y10250000D02*
D03*
Y7750000D02*
D03*
Y9750000D02*
D03*
X5000000D02*
D03*
Y9250000D02*
D03*
Y7750000D02*
D03*
Y10250000D02*
D03*
X7500000Y9250000D02*
D03*
Y10250000D02*
D03*
Y7750000D02*
D03*
Y9750000D02*
D03*
X6750000D02*
D03*
Y9250000D02*
D03*
Y7750000D02*
D03*
Y10250000D02*
D03*
X9250000Y9250000D02*
D03*
Y10250000D02*
D03*
Y7750000D02*
D03*
Y9750000D02*
D03*
X8500000D02*
D03*
Y9250000D02*
D03*
Y7750000D02*
D03*
Y10250000D02*
D03*
D69*
X14614627Y11143581D02*
D03*
X15122627D02*
D03*
X14868626D02*
D03*
X14614627Y11397581D02*
D03*
X14868626D02*
D03*
X15630627Y11143581D02*
D03*
X15376627Y11397581D02*
D03*
Y11143581D02*
D03*
X15122627Y11397581D02*
D03*
X12352919Y11143581D02*
D03*
X12860919D02*
D03*
X12606919D02*
D03*
X12352919Y11397581D02*
D03*
X12606919D02*
D03*
X13368919Y11143581D02*
D03*
X13114919Y11397581D02*
D03*
Y11143581D02*
D03*
X12860919Y11397581D02*
D03*
X15496001Y3492000D02*
D03*
X15750000D02*
D03*
X15496001Y3238000D02*
D03*
X15750000D02*
D03*
X15496001Y2984000D02*
D03*
X15750000D02*
D03*
X15496001Y2730000D02*
D03*
X15750000Y3746000D02*
D03*
X15496001D02*
D03*
X15750000Y4000000D02*
D03*
X15496001D02*
D03*
X15750000Y4254000D02*
D03*
X15496001D02*
D03*
X15750000Y4508000D02*
D03*
X15496001D02*
D03*
Y4762000D02*
D03*
X15750000D02*
D03*
Y5016000D02*
D03*
X15496001D02*
D03*
X2500000Y5350000D02*
D03*
X8376000Y333000D02*
D03*
Y587000D02*
D03*
X8630000Y333000D02*
D03*
Y587000D02*
D03*
X8884000Y333000D02*
D03*
Y587000D02*
D03*
X9138000Y333000D02*
D03*
Y587000D02*
D03*
X10154000Y333000D02*
D03*
X9900000Y587000D02*
D03*
Y333000D02*
D03*
X9646000Y587000D02*
D03*
Y333000D02*
D03*
X9392000Y587000D02*
D03*
Y333000D02*
D03*
X5000000Y1550000D02*
D03*
X2500000Y2650000D02*
D03*
X4950000Y5000000D02*
D03*
D70*
X15630627Y11397581D02*
D03*
X13368919D02*
D03*
X10154000Y587000D02*
D03*
D71*
X15750000Y2730000D02*
D03*
X2500000Y5850000D02*
D03*
X5000000Y1050000D02*
D03*
X2500000Y2150000D02*
D03*
X4950000Y4500000D02*
D03*
D72*
X10233999Y11000000D02*
D03*
X10741999D02*
D03*
X11249999D02*
D03*
X8491999D02*
D03*
X8999999D02*
D03*
X9507999D02*
D03*
X6749999D02*
D03*
X7257999D02*
D03*
X7765999D02*
D03*
X4983999D02*
D03*
X5491999D02*
D03*
X5999999D02*
D03*
X3242000D02*
D03*
X3750000D02*
D03*
X4258000D02*
D03*
X1492000D02*
D03*
X2000000D02*
D03*
X2508000D02*
D03*
X14700000Y1021000D02*
D03*
X14192000D02*
D03*
X13684000D02*
D03*
X12700000D02*
D03*
X12192000D02*
D03*
X11684000D02*
D03*
X500000Y4150000D02*
D03*
Y3800000D02*
D03*
D73*
X6810000Y605000D02*
D03*
X7250000D02*
D03*
D74*
X500000Y11250000D02*
D03*
X750000Y750000D02*
D03*
X15750000D02*
D03*
X15900000Y6600000D02*
D03*
D75*
X14500000Y7700000D02*
D03*
X12050000Y7650000D02*
D03*
X11250000Y2000000D02*
D03*
X10750000Y1700000D02*
D03*
X12850000Y1650000D02*
D03*
X11850000Y1750000D02*
D03*
X11450000D02*
D03*
X12350000Y2950000D02*
D03*
Y2750000D02*
D03*
X12850000D02*
D03*
Y2900000D02*
D03*
X13500000Y1500000D02*
D03*
X12450000D02*
D03*
X12900000Y7450000D02*
D03*
X15900000Y9800000D02*
D03*
X16300000Y10300000D02*
D03*
X14600000Y10600000D02*
D03*
Y10750000D02*
D03*
X12150000Y11200000D02*
D03*
Y10900000D02*
D03*
Y11050000D02*
D03*
X14600000Y10900000D02*
D03*
X14150000Y11350000D02*
D03*
X11550000Y11650000D02*
D03*
X14500000Y9400000D02*
D03*
X14800000Y9600000D02*
D03*
X13750000Y10050000D02*
D03*
X13300000Y9900000D02*
D03*
X13400000Y8800000D02*
D03*
X12300000Y9700000D02*
D03*
X15150000Y11700000D02*
D03*
X14950000Y11850000D02*
D03*
X12842686Y11600000D02*
D03*
X12692728Y11800000D02*
D03*
X11900000Y9900000D02*
D03*
X12100000D02*
D03*
X14500000Y10400000D02*
D03*
X14200000Y10500000D02*
D03*
X15140472Y9688502D02*
D03*
X14500000Y9900000D02*
D03*
X12600000Y9800000D02*
D03*
X14900000Y7700000D02*
D03*
X14745963Y7454038D02*
D03*
X14800000Y7000000D02*
D03*
X12270985Y7505896D02*
D03*
X12400000Y7700000D02*
D03*
X12600000Y7500000D02*
D03*
X14700000Y9900000D02*
D03*
X15700000D02*
D03*
X15600000Y9400000D02*
D03*
X14500000Y8400000D02*
D03*
X12100000Y10500000D02*
D03*
X11900000D02*
D03*
X16200000Y8400000D02*
D03*
Y9100000D02*
D03*
X14100000Y9000000D02*
D03*
Y8700000D02*
D03*
X15651234Y8905474D02*
D03*
X13700000Y8500000D02*
D03*
X15400000Y7400000D02*
D03*
X12000000Y9000000D02*
D03*
X13400000Y7700000D02*
D03*
X12500000Y8200000D02*
D03*
X15900000Y7700000D02*
D03*
X15000000Y7800000D02*
D03*
X13200000Y8800000D02*
D03*
X8627549Y5529301D02*
D03*
X8594774Y5286074D02*
D03*
X8467123Y5482726D02*
D03*
X8487823Y5625901D02*
D03*
X8461948Y5779427D02*
D03*
X8150000Y5600000D02*
D03*
X8550000Y7100000D02*
D03*
X8050000Y6400000D02*
D03*
X7800000Y6750000D02*
D03*
X8500000Y6350000D02*
D03*
X9100000Y6850000D02*
D03*
X8700000Y4650000D02*
D03*
X7850000Y6050000D02*
D03*
X9050000Y4500000D02*
D03*
X8936861Y3324261D02*
D03*
X8800000Y3650000D02*
D03*
X9050000Y4850000D02*
D03*
Y4100000D02*
D03*
X7941390Y3806787D02*
D03*
X4000000Y6100000D02*
D03*
X3700000D02*
D03*
X3400000D02*
D03*
Y6300000D02*
D03*
X3700000D02*
D03*
X4000000D02*
D03*
Y6500000D02*
D03*
X3700000D02*
D03*
X3400000D02*
D03*
X3500000Y2700000D02*
D03*
Y2900000D02*
D03*
X3700000Y2700000D02*
D03*
X3900000D02*
D03*
Y3300000D02*
D03*
X3700000D02*
D03*
X3500000D02*
D03*
X3700000Y2900000D02*
D03*
X3900000D02*
D03*
Y3100000D02*
D03*
X3700000D02*
D03*
X3500000D02*
D03*
X9350000Y7100000D02*
D03*
X9200000Y5800000D02*
D03*
X14900000Y3000000D02*
D03*
X6300000Y1750000D02*
D03*
X14600000Y2425000D02*
D03*
X14375000Y3725000D02*
D03*
X14275000Y4000000D02*
D03*
X14825000Y4150000D02*
D03*
X14944250Y4994250D02*
D03*
X14375000Y4325000D02*
D03*
X12700000Y5625000D02*
D03*
X12100000D02*
D03*
X7004000Y6846000D02*
D03*
X7950000Y8125000D02*
D03*
Y8350000D02*
D03*
X9650000Y2800000D02*
D03*
X9850000Y3500000D02*
D03*
X8866338Y3183504D02*
D03*
X9600000Y3200000D02*
D03*
X8575000Y3800000D02*
D03*
X8425000Y4000000D02*
D03*
X8125000Y4050000D02*
D03*
X13200000Y1950000D02*
D03*
X10950000Y2000000D02*
D03*
X14850000Y3550000D02*
D03*
X10475000Y2750000D02*
D03*
X10450000Y5950000D02*
D03*
Y6200000D02*
D03*
X9850000Y6350000D02*
D03*
X9550000Y5500000D02*
D03*
X8800000Y4600000D02*
D03*
X10450000Y300000D02*
D03*
X8100000D02*
D03*
X14700000Y800000D02*
D03*
X12700000D02*
D03*
X14800000Y4700000D02*
D03*
X11000000Y4300000D02*
D03*
X5600000Y4000000D02*
D03*
X5350000D02*
D03*
X5600000Y4250000D02*
D03*
X5350000D02*
D03*
X8750000Y7100000D02*
D03*
X14850000Y5300000D02*
D03*
X9850000Y4250000D02*
D03*
X10650000Y4650000D02*
D03*
X10900000D02*
D03*
X7450000Y5500000D02*
D03*
X9800000Y5200000D02*
D03*
X10100000D02*
D03*
X10400000D02*
D03*
X10550000Y3700000D02*
D03*
X10350000D02*
D03*
X7525000Y3300000D02*
D03*
X7200000Y1225000D02*
D03*
X13550000Y5650000D02*
D03*
X11300000D02*
D03*
X9350000Y6000000D02*
D03*
X7000000Y5350000D02*
D03*
X7224913Y3317340D02*
D03*
X9696282Y4256458D02*
D03*
X9537579Y4150000D02*
D03*
X5500000Y650000D02*
D03*
X5750000D02*
D03*
Y900000D02*
D03*
X5500000D02*
D03*
X5750000Y1650000D02*
D03*
X4050000Y4900000D02*
D03*
X3700000D02*
D03*
Y1650000D02*
D03*
X4050000D02*
D03*
X5300000Y1950000D02*
D03*
X5000000D02*
D03*
X4650000D02*
D03*
X5300000Y5400000D02*
D03*
X4650000D02*
D03*
X4950000D02*
D03*
X2800000Y5000000D02*
D03*
X2200000D02*
D03*
X2550000Y1750000D02*
D03*
X2200000D02*
D03*
%TF.MD5,4d865f1787322c6dae5dd862f88e4439*%
M02*
