%TF.GenerationSoftware,Altium Limited,Altium Designer,22.4.2 (48)*%
G04 Layer_Physical_Order=2*
G04 Layer_Color=36540*
%FSLAX45Y45*%
%MOMM*%
%TF.SameCoordinates,A0FECCF5-906F-4CEA-98AF-48209DEEDFB4*%
%TF.FilePolarity,Positive*%
%TF.FileFunction,Copper,L2,Inr,Signal*%
%TF.Part,Single*%
G01*
G75*
%TA.AperFunction,ComponentPad*%
%ADD37C,1.60000*%
%ADD38C,1.80000*%
G04:AMPARAMS|DCode=39|XSize=1.8mm|YSize=1.8mm|CornerRadius=0mm|HoleSize=0mm|Usage=FLASHONLY|Rotation=180.000|XOffset=0mm|YOffset=0mm|HoleType=Round|Shape=Octagon|*
%AMOCTAGOND39*
4,1,8,-0.90000,0.45000,-0.90000,-0.45000,-0.45000,-0.90000,0.45000,-0.90000,0.90000,-0.45000,0.90000,0.45000,0.45000,0.90000,-0.45000,0.90000,-0.90000,0.45000,0.0*
%
%ADD39OCTAGOND39*%

G04:AMPARAMS|DCode=40|XSize=1.8mm|YSize=1.8mm|CornerRadius=0mm|HoleSize=0mm|Usage=FLASHONLY|Rotation=90.000|XOffset=0mm|YOffset=0mm|HoleType=Round|Shape=Octagon|*
%AMOCTAGOND40*
4,1,8,0.45000,0.90000,-0.45000,0.90000,-0.90000,0.45000,-0.90000,-0.45000,-0.45000,-0.90000,0.45000,-0.90000,0.90000,-0.45000,0.90000,0.45000,0.45000,0.90000,0.0*
%
%ADD40OCTAGOND40*%

%ADD41C,2.20000*%
%TA.AperFunction,ViaPad*%
%ADD42C,7.00000*%
%ADD43C,0.70000*%
G36*
X16400000Y100000D02*
X100000D01*
Y11900000D01*
X14904713D01*
X14908775Y11887300D01*
X14898190Y11871460D01*
X14893922Y11850000D01*
X14898190Y11828540D01*
X14910347Y11810347D01*
X14928540Y11798191D01*
X14950000Y11793923D01*
X14971460Y11798191D01*
X14989653Y11810347D01*
X15001810Y11828540D01*
X15006078Y11850000D01*
X15001810Y11871460D01*
X14991225Y11887300D01*
X14995287Y11900000D01*
X16400000D01*
Y100000D01*
D02*
G37*
%LPC*%
G36*
X12692728Y11856077D02*
X12671268Y11851809D01*
X12653075Y11839653D01*
X12640919Y11821460D01*
X12636651Y11800000D01*
X12640919Y11778540D01*
X12653075Y11760347D01*
X12671268Y11748191D01*
X12692728Y11743923D01*
X12714188Y11748191D01*
X12732381Y11760347D01*
X12744537Y11778540D01*
X12748805Y11800000D01*
X12744537Y11821460D01*
X12732381Y11839653D01*
X12714188Y11851809D01*
X12692728Y11856077D01*
D02*
G37*
G36*
X15150000Y11756077D02*
X15128540Y11751809D01*
X15110347Y11739653D01*
X15098190Y11721460D01*
X15093922Y11700000D01*
X15098190Y11678540D01*
X15110347Y11660347D01*
X15128540Y11648191D01*
X15150000Y11643923D01*
X15171460Y11648191D01*
X15189653Y11660347D01*
X15201810Y11678540D01*
X15206078Y11700000D01*
X15201810Y11721460D01*
X15189653Y11739653D01*
X15171460Y11751809D01*
X15150000Y11756077D01*
D02*
G37*
G36*
X11550000Y11706077D02*
X11528540Y11701809D01*
X11510347Y11689653D01*
X11498191Y11671460D01*
X11493923Y11650000D01*
X11498191Y11628540D01*
X11510347Y11610347D01*
X11528540Y11598191D01*
X11550000Y11593923D01*
X11571460Y11598191D01*
X11589653Y11610347D01*
X11601809Y11628540D01*
X11606077Y11650000D01*
X11601809Y11671460D01*
X11589653Y11689653D01*
X11571460Y11701809D01*
X11550000Y11706077D01*
D02*
G37*
G36*
X12842686Y11656077D02*
X12821227Y11651809D01*
X12803033Y11639653D01*
X12790878Y11621460D01*
X12786609Y11600000D01*
X12790878Y11578540D01*
X12803033Y11560347D01*
X12821227Y11548191D01*
X12842686Y11543923D01*
X12864146Y11548191D01*
X12882339Y11560347D01*
X12894495Y11578540D01*
X12898764Y11600000D01*
X12894495Y11621460D01*
X12882339Y11639653D01*
X12864146Y11651809D01*
X12842686Y11656077D01*
D02*
G37*
G36*
X14150000Y11406077D02*
X14128540Y11401809D01*
X14110347Y11389653D01*
X14098190Y11371460D01*
X14093922Y11350000D01*
X14098190Y11328540D01*
X14110347Y11310347D01*
X14128540Y11298191D01*
X14150000Y11293923D01*
X14171460Y11298191D01*
X14189653Y11310347D01*
X14201810Y11328540D01*
X14206078Y11350000D01*
X14201810Y11371460D01*
X14189653Y11389653D01*
X14171460Y11401809D01*
X14150000Y11406077D01*
D02*
G37*
G36*
X15685626Y11507581D02*
X15575627D01*
X15520627Y11452581D01*
Y11342582D01*
X15575627Y11287582D01*
X15685626D01*
X15740627Y11342582D01*
Y11452581D01*
X15685626Y11507581D01*
D02*
G37*
G36*
X13423920D02*
X13313919D01*
X13258919Y11452581D01*
Y11342582D01*
X13313919Y11287582D01*
X13423920D01*
X13478918Y11342582D01*
Y11452581D01*
X13423920Y11507581D01*
D02*
G37*
G36*
X15376627Y11508530D02*
X15347911Y11504750D01*
X15321152Y11493666D01*
X15298174Y11476034D01*
X15280542Y11453056D01*
X15269458Y11426297D01*
X15265678Y11397581D01*
X15269458Y11368866D01*
X15280542Y11342107D01*
X15298174Y11319129D01*
X15321152Y11301497D01*
X15347911Y11290413D01*
X15376627Y11286632D01*
X15405342Y11290413D01*
X15432101Y11301497D01*
X15455080Y11319129D01*
X15472711Y11342107D01*
X15483795Y11368866D01*
X15487576Y11397581D01*
X15483795Y11426297D01*
X15472711Y11453056D01*
X15455080Y11476034D01*
X15432101Y11493666D01*
X15405342Y11504750D01*
X15376627Y11508530D01*
D02*
G37*
G36*
X15122627D02*
X15093912Y11504750D01*
X15067152Y11493666D01*
X15044174Y11476034D01*
X15026543Y11453056D01*
X15015459Y11426297D01*
X15011678Y11397581D01*
X15015459Y11368866D01*
X15026543Y11342107D01*
X15044174Y11319129D01*
X15067152Y11301497D01*
X15093912Y11290413D01*
X15122627Y11286632D01*
X15151341Y11290413D01*
X15178101Y11301497D01*
X15201079Y11319129D01*
X15218710Y11342107D01*
X15229794Y11368866D01*
X15233575Y11397581D01*
X15229794Y11426297D01*
X15218710Y11453056D01*
X15201079Y11476034D01*
X15178101Y11493666D01*
X15151341Y11504750D01*
X15122627Y11508530D01*
D02*
G37*
G36*
X14868626D02*
X14839911Y11504750D01*
X14813152Y11493666D01*
X14790173Y11476034D01*
X14772542Y11453056D01*
X14761458Y11426297D01*
X14757678Y11397581D01*
X14761458Y11368866D01*
X14772542Y11342107D01*
X14790173Y11319129D01*
X14813152Y11301497D01*
X14839911Y11290413D01*
X14868626Y11286632D01*
X14897342Y11290413D01*
X14924101Y11301497D01*
X14947079Y11319129D01*
X14964711Y11342107D01*
X14975795Y11368866D01*
X14979576Y11397581D01*
X14975795Y11426297D01*
X14964711Y11453056D01*
X14947079Y11476034D01*
X14924101Y11493666D01*
X14897342Y11504750D01*
X14868626Y11508530D01*
D02*
G37*
G36*
X14614627D02*
X14585912Y11504750D01*
X14559152Y11493666D01*
X14536174Y11476034D01*
X14518542Y11453056D01*
X14507458Y11426297D01*
X14503677Y11397581D01*
X14507458Y11368866D01*
X14518542Y11342107D01*
X14536174Y11319129D01*
X14559152Y11301497D01*
X14585912Y11290413D01*
X14614627Y11286632D01*
X14643343Y11290413D01*
X14670100Y11301497D01*
X14693079Y11319129D01*
X14710712Y11342107D01*
X14721796Y11368866D01*
X14725575Y11397581D01*
X14721796Y11426297D01*
X14710712Y11453056D01*
X14693079Y11476034D01*
X14670100Y11493666D01*
X14643343Y11504750D01*
X14614627Y11508530D01*
D02*
G37*
G36*
X13114919D02*
X13086203Y11504750D01*
X13059445Y11493666D01*
X13036465Y11476034D01*
X13018835Y11453056D01*
X13007751Y11426297D01*
X13003970Y11397581D01*
X13007751Y11368866D01*
X13018835Y11342107D01*
X13036465Y11319129D01*
X13059445Y11301497D01*
X13086203Y11290413D01*
X13114919Y11286632D01*
X13143636Y11290413D01*
X13170393Y11301497D01*
X13193372Y11319129D01*
X13211005Y11342107D01*
X13222089Y11368866D01*
X13225868Y11397581D01*
X13222089Y11426297D01*
X13211005Y11453056D01*
X13193372Y11476034D01*
X13170393Y11493666D01*
X13143636Y11504750D01*
X13114919Y11508530D01*
D02*
G37*
G36*
X12860919D02*
X12832204Y11504750D01*
X12805444Y11493666D01*
X12782466Y11476034D01*
X12764835Y11453056D01*
X12753751Y11426297D01*
X12749970Y11397581D01*
X12753751Y11368866D01*
X12764835Y11342107D01*
X12782466Y11319129D01*
X12805444Y11301497D01*
X12832204Y11290413D01*
X12860919Y11286632D01*
X12889635Y11290413D01*
X12916394Y11301497D01*
X12939372Y11319129D01*
X12957004Y11342107D01*
X12968088Y11368866D01*
X12971867Y11397581D01*
X12968088Y11426297D01*
X12957004Y11453056D01*
X12939372Y11476034D01*
X12916394Y11493666D01*
X12889635Y11504750D01*
X12860919Y11508530D01*
D02*
G37*
G36*
X12606919D02*
X12578203Y11504750D01*
X12551445Y11493666D01*
X12528466Y11476034D01*
X12510835Y11453056D01*
X12499751Y11426297D01*
X12495970Y11397581D01*
X12499751Y11368866D01*
X12510835Y11342107D01*
X12528466Y11319129D01*
X12551445Y11301497D01*
X12578203Y11290413D01*
X12606919Y11286632D01*
X12635635Y11290413D01*
X12662394Y11301497D01*
X12685372Y11319129D01*
X12703004Y11342107D01*
X12714088Y11368866D01*
X12717868Y11397581D01*
X12714088Y11426297D01*
X12703004Y11453056D01*
X12685372Y11476034D01*
X12662394Y11493666D01*
X12635635Y11504750D01*
X12606919Y11508530D01*
D02*
G37*
G36*
X12352919D02*
X12324203Y11504750D01*
X12297445Y11493666D01*
X12274466Y11476034D01*
X12256835Y11453056D01*
X12245751Y11426297D01*
X12241970Y11397581D01*
X12245751Y11368866D01*
X12256835Y11342107D01*
X12274466Y11319129D01*
X12297445Y11301497D01*
X12324203Y11290413D01*
X12352919Y11286632D01*
X12381635Y11290413D01*
X12408394Y11301497D01*
X12431372Y11319129D01*
X12449004Y11342107D01*
X12460088Y11368866D01*
X12463868Y11397581D01*
X12460088Y11426297D01*
X12449004Y11453056D01*
X12431372Y11476034D01*
X12408394Y11493666D01*
X12381635Y11504750D01*
X12352919Y11508530D01*
D02*
G37*
G36*
X15630627Y11254530D02*
X15601910Y11250750D01*
X15575153Y11239666D01*
X15552174Y11222034D01*
X15534541Y11199056D01*
X15523457Y11172297D01*
X15519678Y11143581D01*
X15523457Y11114866D01*
X15534541Y11088107D01*
X15552174Y11065129D01*
X15575153Y11047497D01*
X15601910Y11036413D01*
X15630627Y11032632D01*
X15659341Y11036413D01*
X15686101Y11047497D01*
X15709079Y11065129D01*
X15726711Y11088107D01*
X15737794Y11114866D01*
X15741576Y11143581D01*
X15737794Y11172297D01*
X15726711Y11199056D01*
X15709079Y11222034D01*
X15686101Y11239666D01*
X15659341Y11250750D01*
X15630627Y11254530D01*
D02*
G37*
G36*
X15376627D02*
X15347911Y11250750D01*
X15321152Y11239666D01*
X15298174Y11222034D01*
X15280542Y11199056D01*
X15269458Y11172297D01*
X15265678Y11143581D01*
X15269458Y11114866D01*
X15280542Y11088107D01*
X15298174Y11065129D01*
X15321152Y11047497D01*
X15347911Y11036413D01*
X15376627Y11032632D01*
X15405342Y11036413D01*
X15432101Y11047497D01*
X15455080Y11065129D01*
X15472711Y11088107D01*
X15483795Y11114866D01*
X15487576Y11143581D01*
X15483795Y11172297D01*
X15472711Y11199056D01*
X15455080Y11222034D01*
X15432101Y11239666D01*
X15405342Y11250750D01*
X15376627Y11254530D01*
D02*
G37*
G36*
X15122627D02*
X15093912Y11250750D01*
X15067152Y11239666D01*
X15044174Y11222034D01*
X15026543Y11199056D01*
X15015459Y11172297D01*
X15011678Y11143581D01*
X15015459Y11114866D01*
X15026543Y11088107D01*
X15044174Y11065129D01*
X15067152Y11047497D01*
X15093912Y11036413D01*
X15122627Y11032632D01*
X15151341Y11036413D01*
X15178101Y11047497D01*
X15201079Y11065129D01*
X15218710Y11088107D01*
X15229794Y11114866D01*
X15233575Y11143581D01*
X15229794Y11172297D01*
X15218710Y11199056D01*
X15201079Y11222034D01*
X15178101Y11239666D01*
X15151341Y11250750D01*
X15122627Y11254530D01*
D02*
G37*
G36*
X14868626D02*
X14839911Y11250750D01*
X14813152Y11239666D01*
X14790173Y11222034D01*
X14772542Y11199056D01*
X14761458Y11172297D01*
X14757678Y11143581D01*
X14761458Y11114866D01*
X14772542Y11088107D01*
X14790173Y11065129D01*
X14813152Y11047497D01*
X14839911Y11036413D01*
X14868626Y11032632D01*
X14897342Y11036413D01*
X14924101Y11047497D01*
X14947079Y11065129D01*
X14964711Y11088107D01*
X14975795Y11114866D01*
X14979576Y11143581D01*
X14975795Y11172297D01*
X14964711Y11199056D01*
X14947079Y11222034D01*
X14924101Y11239666D01*
X14897342Y11250750D01*
X14868626Y11254530D01*
D02*
G37*
G36*
X13368919D02*
X13340202Y11250750D01*
X13313445Y11239666D01*
X13290466Y11222034D01*
X13272835Y11199056D01*
X13261751Y11172297D01*
X13257970Y11143581D01*
X13261751Y11114866D01*
X13272835Y11088107D01*
X13290466Y11065129D01*
X13313445Y11047497D01*
X13340202Y11036413D01*
X13368919Y11032632D01*
X13397635Y11036413D01*
X13424394Y11047497D01*
X13447372Y11065129D01*
X13465004Y11088107D01*
X13476088Y11114866D01*
X13479868Y11143581D01*
X13476088Y11172297D01*
X13465004Y11199056D01*
X13447372Y11222034D01*
X13424394Y11239666D01*
X13397635Y11250750D01*
X13368919Y11254530D01*
D02*
G37*
G36*
X13114919D02*
X13086203Y11250750D01*
X13059445Y11239666D01*
X13036465Y11222034D01*
X13018835Y11199056D01*
X13007751Y11172297D01*
X13003970Y11143581D01*
X13007751Y11114866D01*
X13018835Y11088107D01*
X13036465Y11065129D01*
X13059445Y11047497D01*
X13086203Y11036413D01*
X13114919Y11032632D01*
X13143636Y11036413D01*
X13170393Y11047497D01*
X13193372Y11065129D01*
X13211005Y11088107D01*
X13222089Y11114866D01*
X13225868Y11143581D01*
X13222089Y11172297D01*
X13211005Y11199056D01*
X13193372Y11222034D01*
X13170393Y11239666D01*
X13143636Y11250750D01*
X13114919Y11254530D01*
D02*
G37*
G36*
X12860919D02*
X12832204Y11250750D01*
X12805444Y11239666D01*
X12782466Y11222034D01*
X12764835Y11199056D01*
X12753751Y11172297D01*
X12749970Y11143581D01*
X12753751Y11114866D01*
X12764835Y11088107D01*
X12782466Y11065129D01*
X12805444Y11047497D01*
X12832204Y11036413D01*
X12860919Y11032632D01*
X12889635Y11036413D01*
X12916394Y11047497D01*
X12939372Y11065129D01*
X12957004Y11088107D01*
X12968088Y11114866D01*
X12971867Y11143581D01*
X12968088Y11172297D01*
X12957004Y11199056D01*
X12939372Y11222034D01*
X12916394Y11239666D01*
X12889635Y11250750D01*
X12860919Y11254530D01*
D02*
G37*
G36*
X12606919D02*
X12578203Y11250750D01*
X12551445Y11239666D01*
X12528466Y11222034D01*
X12510835Y11199056D01*
X12499751Y11172297D01*
X12495970Y11143581D01*
X12499751Y11114866D01*
X12510835Y11088107D01*
X12528466Y11065129D01*
X12551445Y11047497D01*
X12578203Y11036413D01*
X12606919Y11032632D01*
X12635635Y11036413D01*
X12662394Y11047497D01*
X12685372Y11065129D01*
X12703004Y11088107D01*
X12714088Y11114866D01*
X12717868Y11143581D01*
X12714088Y11172297D01*
X12703004Y11199056D01*
X12685372Y11222034D01*
X12662394Y11239666D01*
X12635635Y11250750D01*
X12606919Y11254530D01*
D02*
G37*
G36*
X11249999Y11131122D02*
X11216063Y11126654D01*
X11184438Y11113555D01*
X11157282Y11092717D01*
X11136445Y11065561D01*
X11123346Y11033937D01*
X11118878Y11000000D01*
X11123346Y10966063D01*
X11136445Y10934439D01*
X11157282Y10907283D01*
X11184438Y10886445D01*
X11216063Y10873346D01*
X11249999Y10868878D01*
X11283936Y10873346D01*
X11315560Y10886445D01*
X11342716Y10907283D01*
X11363554Y10934439D01*
X11376653Y10966063D01*
X11381121Y11000000D01*
X11376653Y11033937D01*
X11363554Y11065561D01*
X11342716Y11092717D01*
X11315560Y11113555D01*
X11283936Y11126654D01*
X11249999Y11131122D01*
D02*
G37*
G36*
X10741999D02*
X10708063Y11126654D01*
X10676438Y11113555D01*
X10649282Y11092717D01*
X10628445Y11065561D01*
X10615346Y11033937D01*
X10610878Y11000000D01*
X10615346Y10966063D01*
X10628445Y10934439D01*
X10649282Y10907283D01*
X10676438Y10886445D01*
X10708063Y10873346D01*
X10741999Y10868878D01*
X10775936Y10873346D01*
X10807560Y10886445D01*
X10834716Y10907283D01*
X10855554Y10934439D01*
X10868653Y10966063D01*
X10873121Y11000000D01*
X10868653Y11033937D01*
X10855554Y11065561D01*
X10834716Y11092717D01*
X10807560Y11113555D01*
X10775936Y11126654D01*
X10741999Y11131122D01*
D02*
G37*
G36*
X10233999D02*
X10200063Y11126654D01*
X10168438Y11113555D01*
X10141282Y11092717D01*
X10120445Y11065561D01*
X10107346Y11033937D01*
X10102878Y11000000D01*
X10107346Y10966063D01*
X10120445Y10934439D01*
X10141282Y10907283D01*
X10168438Y10886445D01*
X10200063Y10873346D01*
X10233999Y10868878D01*
X10267936Y10873346D01*
X10299560Y10886445D01*
X10326716Y10907283D01*
X10347554Y10934439D01*
X10360653Y10966063D01*
X10365121Y11000000D01*
X10360653Y11033937D01*
X10347554Y11065561D01*
X10326716Y11092717D01*
X10299560Y11113555D01*
X10267936Y11126654D01*
X10233999Y11131122D01*
D02*
G37*
G36*
X9507999D02*
X9474063Y11126654D01*
X9442438Y11113555D01*
X9415282Y11092717D01*
X9394445Y11065561D01*
X9381345Y11033937D01*
X9376878Y11000000D01*
X9381345Y10966063D01*
X9394445Y10934439D01*
X9415282Y10907283D01*
X9442438Y10886445D01*
X9474063Y10873346D01*
X9507999Y10868878D01*
X9541936Y10873346D01*
X9573560Y10886445D01*
X9600716Y10907283D01*
X9621554Y10934439D01*
X9634653Y10966063D01*
X9639121Y11000000D01*
X9634653Y11033937D01*
X9621554Y11065561D01*
X9600716Y11092717D01*
X9573560Y11113555D01*
X9541936Y11126654D01*
X9507999Y11131122D01*
D02*
G37*
G36*
X8999999D02*
X8966063Y11126654D01*
X8934438Y11113555D01*
X8907282Y11092717D01*
X8886445Y11065561D01*
X8873345Y11033937D01*
X8868878Y11000000D01*
X8873345Y10966063D01*
X8886445Y10934439D01*
X8907282Y10907283D01*
X8934438Y10886445D01*
X8966063Y10873346D01*
X8999999Y10868878D01*
X9033936Y10873346D01*
X9065560Y10886445D01*
X9092716Y10907283D01*
X9113554Y10934439D01*
X9126653Y10966063D01*
X9131121Y11000000D01*
X9126653Y11033937D01*
X9113554Y11065561D01*
X9092716Y11092717D01*
X9065560Y11113555D01*
X9033936Y11126654D01*
X8999999Y11131122D01*
D02*
G37*
G36*
X8491999D02*
X8458063Y11126654D01*
X8426438Y11113555D01*
X8399282Y11092717D01*
X8378445Y11065561D01*
X8365345Y11033937D01*
X8360878Y11000000D01*
X8365345Y10966063D01*
X8378445Y10934439D01*
X8399282Y10907283D01*
X8426438Y10886445D01*
X8458063Y10873346D01*
X8491999Y10868878D01*
X8525936Y10873346D01*
X8557560Y10886445D01*
X8584716Y10907283D01*
X8605554Y10934439D01*
X8618653Y10966063D01*
X8623121Y11000000D01*
X8618653Y11033937D01*
X8605554Y11065561D01*
X8584716Y11092717D01*
X8557560Y11113555D01*
X8525936Y11126654D01*
X8491999Y11131122D01*
D02*
G37*
G36*
X7765999D02*
X7732063Y11126654D01*
X7700439Y11113555D01*
X7673282Y11092717D01*
X7652445Y11065561D01*
X7639346Y11033937D01*
X7634878Y11000000D01*
X7639346Y10966063D01*
X7652445Y10934439D01*
X7673282Y10907283D01*
X7700439Y10886445D01*
X7732063Y10873346D01*
X7765999Y10868878D01*
X7799936Y10873346D01*
X7831560Y10886445D01*
X7858717Y10907283D01*
X7879554Y10934439D01*
X7892653Y10966063D01*
X7897121Y11000000D01*
X7892653Y11033937D01*
X7879554Y11065561D01*
X7858717Y11092717D01*
X7831560Y11113555D01*
X7799936Y11126654D01*
X7765999Y11131122D01*
D02*
G37*
G36*
X7257999D02*
X7224063Y11126654D01*
X7192439Y11113555D01*
X7165282Y11092717D01*
X7144445Y11065561D01*
X7131346Y11033937D01*
X7126878Y11000000D01*
X7131346Y10966063D01*
X7144445Y10934439D01*
X7165282Y10907283D01*
X7192439Y10886445D01*
X7224063Y10873346D01*
X7257999Y10868878D01*
X7291936Y10873346D01*
X7323560Y10886445D01*
X7350717Y10907283D01*
X7371554Y10934439D01*
X7384653Y10966063D01*
X7389121Y11000000D01*
X7384653Y11033937D01*
X7371554Y11065561D01*
X7350717Y11092717D01*
X7323560Y11113555D01*
X7291936Y11126654D01*
X7257999Y11131122D01*
D02*
G37*
G36*
X6749999D02*
X6716063Y11126654D01*
X6684439Y11113555D01*
X6657282Y11092717D01*
X6636445Y11065561D01*
X6623346Y11033937D01*
X6618878Y11000000D01*
X6623346Y10966063D01*
X6636445Y10934439D01*
X6657282Y10907283D01*
X6684439Y10886445D01*
X6716063Y10873346D01*
X6749999Y10868878D01*
X6783936Y10873346D01*
X6815560Y10886445D01*
X6842717Y10907283D01*
X6863554Y10934439D01*
X6876653Y10966063D01*
X6881121Y11000000D01*
X6876653Y11033937D01*
X6863554Y11065561D01*
X6842717Y11092717D01*
X6815560Y11113555D01*
X6783936Y11126654D01*
X6749999Y11131122D01*
D02*
G37*
G36*
X5999999D02*
X5966063Y11126654D01*
X5934439Y11113555D01*
X5907282Y11092717D01*
X5886445Y11065561D01*
X5873346Y11033937D01*
X5868878Y11000000D01*
X5873346Y10966063D01*
X5886445Y10934439D01*
X5907282Y10907283D01*
X5934439Y10886445D01*
X5966063Y10873346D01*
X5999999Y10868878D01*
X6033936Y10873346D01*
X6065560Y10886445D01*
X6092717Y10907283D01*
X6113554Y10934439D01*
X6126653Y10966063D01*
X6131121Y11000000D01*
X6126653Y11033937D01*
X6113554Y11065561D01*
X6092717Y11092717D01*
X6065560Y11113555D01*
X6033936Y11126654D01*
X5999999Y11131122D01*
D02*
G37*
G36*
X5491999D02*
X5458063Y11126654D01*
X5426439Y11113555D01*
X5399282Y11092717D01*
X5378445Y11065561D01*
X5365346Y11033937D01*
X5360878Y11000000D01*
X5365346Y10966063D01*
X5378445Y10934439D01*
X5399282Y10907283D01*
X5426439Y10886445D01*
X5458063Y10873346D01*
X5491999Y10868878D01*
X5525936Y10873346D01*
X5557560Y10886445D01*
X5584717Y10907283D01*
X5605554Y10934439D01*
X5618653Y10966063D01*
X5623121Y11000000D01*
X5618653Y11033937D01*
X5605554Y11065561D01*
X5584717Y11092717D01*
X5557560Y11113555D01*
X5525936Y11126654D01*
X5491999Y11131122D01*
D02*
G37*
G36*
X4983999D02*
X4950063Y11126654D01*
X4918439Y11113555D01*
X4891282Y11092717D01*
X4870445Y11065561D01*
X4857346Y11033937D01*
X4852878Y11000000D01*
X4857346Y10966063D01*
X4870445Y10934439D01*
X4891282Y10907283D01*
X4918439Y10886445D01*
X4950063Y10873346D01*
X4983999Y10868878D01*
X5017936Y10873346D01*
X5049560Y10886445D01*
X5076717Y10907283D01*
X5097554Y10934439D01*
X5110653Y10966063D01*
X5115121Y11000000D01*
X5110653Y11033937D01*
X5097554Y11065561D01*
X5076717Y11092717D01*
X5049560Y11113555D01*
X5017936Y11126654D01*
X4983999Y11131122D01*
D02*
G37*
G36*
X4258000D02*
X4224063Y11126654D01*
X4192439Y11113555D01*
X4165283Y11092717D01*
X4144445Y11065561D01*
X4131346Y11033937D01*
X4126878Y11000000D01*
X4131346Y10966063D01*
X4144445Y10934439D01*
X4165283Y10907283D01*
X4192439Y10886445D01*
X4224063Y10873346D01*
X4258000Y10868878D01*
X4291937Y10873346D01*
X4323561Y10886445D01*
X4350717Y10907283D01*
X4371555Y10934439D01*
X4384654Y10966063D01*
X4389122Y11000000D01*
X4384654Y11033937D01*
X4371555Y11065561D01*
X4350717Y11092717D01*
X4323561Y11113555D01*
X4291937Y11126654D01*
X4258000Y11131122D01*
D02*
G37*
G36*
X3750000D02*
X3716063Y11126654D01*
X3684439Y11113555D01*
X3657283Y11092717D01*
X3636445Y11065561D01*
X3623346Y11033937D01*
X3618878Y11000000D01*
X3623346Y10966063D01*
X3636445Y10934439D01*
X3657283Y10907283D01*
X3684439Y10886445D01*
X3716063Y10873346D01*
X3750000Y10868878D01*
X3783937Y10873346D01*
X3815561Y10886445D01*
X3842717Y10907283D01*
X3863555Y10934439D01*
X3876654Y10966063D01*
X3881122Y11000000D01*
X3876654Y11033937D01*
X3863555Y11065561D01*
X3842717Y11092717D01*
X3815561Y11113555D01*
X3783937Y11126654D01*
X3750000Y11131122D01*
D02*
G37*
G36*
X3242000D02*
X3208063Y11126654D01*
X3176439Y11113555D01*
X3149283Y11092717D01*
X3128445Y11065561D01*
X3115346Y11033937D01*
X3110878Y11000000D01*
X3115346Y10966063D01*
X3128445Y10934439D01*
X3149283Y10907283D01*
X3176439Y10886445D01*
X3208063Y10873346D01*
X3242000Y10868878D01*
X3275937Y10873346D01*
X3307561Y10886445D01*
X3334717Y10907283D01*
X3355555Y10934439D01*
X3368654Y10966063D01*
X3373122Y11000000D01*
X3368654Y11033937D01*
X3355555Y11065561D01*
X3334717Y11092717D01*
X3307561Y11113555D01*
X3275937Y11126654D01*
X3242000Y11131122D01*
D02*
G37*
G36*
X2508000D02*
X2474063Y11126654D01*
X2442439Y11113555D01*
X2415283Y11092717D01*
X2394445Y11065561D01*
X2381346Y11033937D01*
X2376878Y11000000D01*
X2381346Y10966063D01*
X2394445Y10934439D01*
X2415283Y10907283D01*
X2442439Y10886445D01*
X2474063Y10873346D01*
X2508000Y10868878D01*
X2541936Y10873346D01*
X2573561Y10886445D01*
X2600717Y10907283D01*
X2621555Y10934439D01*
X2634654Y10966063D01*
X2639121Y11000000D01*
X2634654Y11033937D01*
X2621555Y11065561D01*
X2600717Y11092717D01*
X2573561Y11113555D01*
X2541936Y11126654D01*
X2508000Y11131122D01*
D02*
G37*
G36*
X2000000D02*
X1966063Y11126654D01*
X1934439Y11113555D01*
X1907283Y11092717D01*
X1886445Y11065561D01*
X1873346Y11033937D01*
X1868878Y11000000D01*
X1873346Y10966063D01*
X1886445Y10934439D01*
X1907283Y10907283D01*
X1934439Y10886445D01*
X1966063Y10873346D01*
X2000000Y10868878D01*
X2033936Y10873346D01*
X2065561Y10886445D01*
X2092717Y10907283D01*
X2113555Y10934439D01*
X2126654Y10966063D01*
X2131121Y11000000D01*
X2126654Y11033937D01*
X2113555Y11065561D01*
X2092717Y11092717D01*
X2065561Y11113555D01*
X2033936Y11126654D01*
X2000000Y11131122D01*
D02*
G37*
G36*
X1492000D02*
X1458063Y11126654D01*
X1426439Y11113555D01*
X1399283Y11092717D01*
X1378445Y11065561D01*
X1365346Y11033937D01*
X1360878Y11000000D01*
X1365346Y10966063D01*
X1378445Y10934439D01*
X1399283Y10907283D01*
X1426439Y10886445D01*
X1458063Y10873346D01*
X1492000Y10868878D01*
X1525936Y10873346D01*
X1557561Y10886445D01*
X1584717Y10907283D01*
X1605555Y10934439D01*
X1618654Y10966063D01*
X1623121Y11000000D01*
X1618654Y11033937D01*
X1605555Y11065561D01*
X1584717Y11092717D01*
X1557561Y11113555D01*
X1525936Y11126654D01*
X1492000Y11131122D01*
D02*
G37*
G36*
X11000000Y10350863D02*
X10973895Y10347426D01*
X10949569Y10337350D01*
X10928679Y10321321D01*
X10912651Y10300432D01*
X10902574Y10276105D01*
X10899137Y10250000D01*
X10902574Y10223895D01*
X10912651Y10199569D01*
X10928679Y10178679D01*
X10949569Y10162650D01*
X10973895Y10152574D01*
X11000000Y10149137D01*
X11026105Y10152574D01*
X11050432Y10162650D01*
X11071321Y10178679D01*
X11087350Y10199569D01*
X11097426Y10223895D01*
X11100863Y10250000D01*
X11097426Y10276105D01*
X11087350Y10300432D01*
X11071321Y10321321D01*
X11050432Y10337350D01*
X11026105Y10347426D01*
X11000000Y10350863D01*
D02*
G37*
G36*
X10250000D02*
X10223895Y10347426D01*
X10199569Y10337350D01*
X10178679Y10321321D01*
X10162650Y10300432D01*
X10152574Y10276105D01*
X10149137Y10250000D01*
X10152574Y10223895D01*
X10162650Y10199569D01*
X10178679Y10178679D01*
X10199569Y10162650D01*
X10223895Y10152574D01*
X10250000Y10149137D01*
X10276105Y10152574D01*
X10300432Y10162650D01*
X10321321Y10178679D01*
X10337350Y10199569D01*
X10347426Y10223895D01*
X10350863Y10250000D01*
X10347426Y10276105D01*
X10337350Y10300432D01*
X10321321Y10321321D01*
X10300432Y10337350D01*
X10276105Y10347426D01*
X10250000Y10350863D01*
D02*
G37*
G36*
X9250000D02*
X9223895Y10347426D01*
X9199569Y10337350D01*
X9178679Y10321321D01*
X9162650Y10300432D01*
X9152574Y10276105D01*
X9149137Y10250000D01*
X9152574Y10223895D01*
X9162650Y10199569D01*
X9178679Y10178679D01*
X9199569Y10162650D01*
X9223895Y10152574D01*
X9250000Y10149137D01*
X9276105Y10152574D01*
X9300431Y10162650D01*
X9321321Y10178679D01*
X9337350Y10199569D01*
X9347426Y10223895D01*
X9350863Y10250000D01*
X9347426Y10276105D01*
X9337350Y10300432D01*
X9321321Y10321321D01*
X9300431Y10337350D01*
X9276105Y10347426D01*
X9250000Y10350863D01*
D02*
G37*
G36*
X8500000D02*
X8473895Y10347426D01*
X8449569Y10337350D01*
X8428679Y10321321D01*
X8412650Y10300432D01*
X8402574Y10276105D01*
X8399137Y10250000D01*
X8402574Y10223895D01*
X8412650Y10199569D01*
X8428679Y10178679D01*
X8449569Y10162650D01*
X8473895Y10152574D01*
X8500000Y10149137D01*
X8526105Y10152574D01*
X8550431Y10162650D01*
X8571321Y10178679D01*
X8587350Y10199569D01*
X8597426Y10223895D01*
X8600863Y10250000D01*
X8597426Y10276105D01*
X8587350Y10300432D01*
X8571321Y10321321D01*
X8550431Y10337350D01*
X8526105Y10347426D01*
X8500000Y10350863D01*
D02*
G37*
G36*
X7500000D02*
X7473895Y10347426D01*
X7449569Y10337350D01*
X7428679Y10321321D01*
X7412650Y10300432D01*
X7402574Y10276105D01*
X7399137Y10250000D01*
X7402574Y10223895D01*
X7412650Y10199569D01*
X7428679Y10178679D01*
X7449569Y10162650D01*
X7473895Y10152574D01*
X7500000Y10149137D01*
X7526105Y10152574D01*
X7550431Y10162650D01*
X7571321Y10178679D01*
X7587350Y10199569D01*
X7597426Y10223895D01*
X7600863Y10250000D01*
X7597426Y10276105D01*
X7587350Y10300432D01*
X7571321Y10321321D01*
X7550431Y10337350D01*
X7526105Y10347426D01*
X7500000Y10350863D01*
D02*
G37*
G36*
X6750000D02*
X6723895Y10347426D01*
X6699569Y10337350D01*
X6678679Y10321321D01*
X6662650Y10300432D01*
X6652574Y10276105D01*
X6649137Y10250000D01*
X6652574Y10223895D01*
X6662650Y10199569D01*
X6678679Y10178679D01*
X6699569Y10162650D01*
X6723895Y10152574D01*
X6750000Y10149137D01*
X6776105Y10152574D01*
X6800431Y10162650D01*
X6821321Y10178679D01*
X6837350Y10199569D01*
X6847426Y10223895D01*
X6850863Y10250000D01*
X6847426Y10276105D01*
X6837350Y10300432D01*
X6821321Y10321321D01*
X6800431Y10337350D01*
X6776105Y10347426D01*
X6750000Y10350863D01*
D02*
G37*
G36*
X5750000D02*
X5723895Y10347426D01*
X5699568Y10337350D01*
X5678679Y10321321D01*
X5662650Y10300432D01*
X5652574Y10276105D01*
X5649137Y10250000D01*
X5652574Y10223895D01*
X5662650Y10199569D01*
X5678679Y10178679D01*
X5699568Y10162650D01*
X5723895Y10152574D01*
X5750000Y10149137D01*
X5776105Y10152574D01*
X5800431Y10162650D01*
X5821321Y10178679D01*
X5837350Y10199569D01*
X5847426Y10223895D01*
X5850863Y10250000D01*
X5847426Y10276105D01*
X5837350Y10300432D01*
X5821321Y10321321D01*
X5800431Y10337350D01*
X5776105Y10347426D01*
X5750000Y10350863D01*
D02*
G37*
G36*
X5000000D02*
X4973895Y10347426D01*
X4949568Y10337350D01*
X4928679Y10321321D01*
X4912650Y10300432D01*
X4902574Y10276105D01*
X4899137Y10250000D01*
X4902574Y10223895D01*
X4912650Y10199569D01*
X4928679Y10178679D01*
X4949568Y10162650D01*
X4973895Y10152574D01*
X5000000Y10149137D01*
X5026105Y10152574D01*
X5050431Y10162650D01*
X5071321Y10178679D01*
X5087349Y10199569D01*
X5097426Y10223895D01*
X5100863Y10250000D01*
X5097426Y10276105D01*
X5087349Y10300432D01*
X5071321Y10321321D01*
X5050431Y10337350D01*
X5026105Y10347426D01*
X5000000Y10350863D01*
D02*
G37*
G36*
X4000000D02*
X3973895Y10347426D01*
X3949568Y10337350D01*
X3928679Y10321321D01*
X3912650Y10300432D01*
X3902574Y10276105D01*
X3899137Y10250000D01*
X3902574Y10223895D01*
X3912650Y10199569D01*
X3928679Y10178679D01*
X3949568Y10162650D01*
X3973895Y10152574D01*
X4000000Y10149137D01*
X4026105Y10152574D01*
X4050431Y10162650D01*
X4071321Y10178679D01*
X4087349Y10199569D01*
X4097426Y10223895D01*
X4100863Y10250000D01*
X4097426Y10276105D01*
X4087349Y10300432D01*
X4071321Y10321321D01*
X4050431Y10337350D01*
X4026105Y10347426D01*
X4000000Y10350863D01*
D02*
G37*
G36*
X3250000D02*
X3223895Y10347426D01*
X3199568Y10337350D01*
X3178679Y10321321D01*
X3162650Y10300432D01*
X3152574Y10276105D01*
X3149137Y10250000D01*
X3152574Y10223895D01*
X3162650Y10199569D01*
X3178679Y10178679D01*
X3199568Y10162650D01*
X3223895Y10152574D01*
X3250000Y10149137D01*
X3276105Y10152574D01*
X3300431Y10162650D01*
X3321321Y10178679D01*
X3337349Y10199569D01*
X3347426Y10223895D01*
X3350862Y10250000D01*
X3347426Y10276105D01*
X3337349Y10300432D01*
X3321321Y10321321D01*
X3300431Y10337350D01*
X3276105Y10347426D01*
X3250000Y10350863D01*
D02*
G37*
G36*
X2250000D02*
X2223895Y10347426D01*
X2199569Y10337350D01*
X2178679Y10321321D01*
X2162650Y10300432D01*
X2152574Y10276105D01*
X2149137Y10250000D01*
X2152574Y10223895D01*
X2162650Y10199569D01*
X2178679Y10178679D01*
X2199569Y10162650D01*
X2223895Y10152574D01*
X2250000Y10149137D01*
X2276105Y10152574D01*
X2300431Y10162650D01*
X2321321Y10178679D01*
X2337350Y10199569D01*
X2347426Y10223895D01*
X2350863Y10250000D01*
X2347426Y10276105D01*
X2337350Y10300432D01*
X2321321Y10321321D01*
X2300431Y10337350D01*
X2276105Y10347426D01*
X2250000Y10350863D01*
D02*
G37*
G36*
X1500000D02*
X1473895Y10347426D01*
X1449569Y10337350D01*
X1428679Y10321321D01*
X1412650Y10300432D01*
X1402574Y10276105D01*
X1399137Y10250000D01*
X1402574Y10223895D01*
X1412650Y10199569D01*
X1428679Y10178679D01*
X1449569Y10162650D01*
X1473895Y10152574D01*
X1500000Y10149137D01*
X1526105Y10152574D01*
X1550431Y10162650D01*
X1571321Y10178679D01*
X1587350Y10199569D01*
X1597426Y10223895D01*
X1600863Y10250000D01*
X1597426Y10276105D01*
X1587350Y10300432D01*
X1571321Y10321321D01*
X1550431Y10337350D01*
X1526105Y10347426D01*
X1500000Y10350863D01*
D02*
G37*
G36*
X13750000Y10106077D02*
X13728540Y10101809D01*
X13710347Y10089653D01*
X13698190Y10071460D01*
X13693922Y10050000D01*
X13698190Y10028540D01*
X13710347Y10010347D01*
X13728540Y9998191D01*
X13750000Y9993923D01*
X13771460Y9998191D01*
X13789653Y10010347D01*
X13801810Y10028540D01*
X13806078Y10050000D01*
X13801810Y10071460D01*
X13789653Y10089653D01*
X13771460Y10101809D01*
X13750000Y10106077D01*
D02*
G37*
G36*
X15900000Y9856077D02*
X15878540Y9851809D01*
X15860347Y9839653D01*
X15848190Y9821460D01*
X15843922Y9800000D01*
X15848190Y9778540D01*
X15860347Y9760347D01*
X15878540Y9748191D01*
X15900000Y9743923D01*
X15921460Y9748191D01*
X15939653Y9760347D01*
X15951810Y9778540D01*
X15956078Y9800000D01*
X15951810Y9821460D01*
X15939653Y9839653D01*
X15921460Y9851809D01*
X15900000Y9856077D01*
D02*
G37*
G36*
X12600000D02*
X12578540Y9851809D01*
X12560347Y9839653D01*
X12548191Y9821460D01*
X12543923Y9800000D01*
X12548191Y9778540D01*
X12560347Y9760347D01*
X12578540Y9748191D01*
X12600000Y9743923D01*
X12621460Y9748191D01*
X12639653Y9760347D01*
X12651809Y9778540D01*
X12656077Y9800000D01*
X12651809Y9821460D01*
X12639653Y9839653D01*
X12621460Y9851809D01*
X12600000Y9856077D01*
D02*
G37*
G36*
X11000000Y9850863D02*
X10973895Y9847426D01*
X10949569Y9837350D01*
X10928679Y9821321D01*
X10912651Y9800432D01*
X10902574Y9776105D01*
X10899137Y9750000D01*
X10902574Y9723895D01*
X10912651Y9699569D01*
X10928679Y9678679D01*
X10949569Y9662650D01*
X10973895Y9652574D01*
X11000000Y9649137D01*
X11026105Y9652574D01*
X11050432Y9662650D01*
X11071321Y9678679D01*
X11087350Y9699569D01*
X11097426Y9723895D01*
X11100863Y9750000D01*
X11097426Y9776105D01*
X11087350Y9800432D01*
X11071321Y9821321D01*
X11050432Y9837350D01*
X11026105Y9847426D01*
X11000000Y9850863D01*
D02*
G37*
G36*
X10250000D02*
X10223895Y9847426D01*
X10199569Y9837350D01*
X10178679Y9821321D01*
X10162650Y9800432D01*
X10152574Y9776105D01*
X10149137Y9750000D01*
X10152574Y9723895D01*
X10162650Y9699569D01*
X10178679Y9678679D01*
X10199569Y9662650D01*
X10223895Y9652574D01*
X10250000Y9649137D01*
X10276105Y9652574D01*
X10300432Y9662650D01*
X10321321Y9678679D01*
X10337350Y9699569D01*
X10347426Y9723895D01*
X10350863Y9750000D01*
X10347426Y9776105D01*
X10337350Y9800432D01*
X10321321Y9821321D01*
X10300432Y9837350D01*
X10276105Y9847426D01*
X10250000Y9850863D01*
D02*
G37*
G36*
X9250000D02*
X9223895Y9847426D01*
X9199569Y9837350D01*
X9178679Y9821321D01*
X9162650Y9800432D01*
X9152574Y9776105D01*
X9149137Y9750000D01*
X9152574Y9723895D01*
X9162650Y9699569D01*
X9178679Y9678679D01*
X9199569Y9662650D01*
X9223895Y9652574D01*
X9250000Y9649137D01*
X9276105Y9652574D01*
X9300431Y9662650D01*
X9321321Y9678679D01*
X9337350Y9699569D01*
X9347426Y9723895D01*
X9350863Y9750000D01*
X9347426Y9776105D01*
X9337350Y9800432D01*
X9321321Y9821321D01*
X9300431Y9837350D01*
X9276105Y9847426D01*
X9250000Y9850863D01*
D02*
G37*
G36*
X8500000D02*
X8473895Y9847426D01*
X8449569Y9837350D01*
X8428679Y9821321D01*
X8412650Y9800432D01*
X8402574Y9776105D01*
X8399137Y9750000D01*
X8402574Y9723895D01*
X8412650Y9699569D01*
X8428679Y9678679D01*
X8449569Y9662650D01*
X8473895Y9652574D01*
X8500000Y9649137D01*
X8526105Y9652574D01*
X8550431Y9662650D01*
X8571321Y9678679D01*
X8587350Y9699569D01*
X8597426Y9723895D01*
X8600863Y9750000D01*
X8597426Y9776105D01*
X8587350Y9800432D01*
X8571321Y9821321D01*
X8550431Y9837350D01*
X8526105Y9847426D01*
X8500000Y9850863D01*
D02*
G37*
G36*
X7500000D02*
X7473895Y9847426D01*
X7449569Y9837350D01*
X7428679Y9821321D01*
X7412650Y9800432D01*
X7402574Y9776105D01*
X7399137Y9750000D01*
X7402574Y9723895D01*
X7412650Y9699569D01*
X7428679Y9678679D01*
X7449569Y9662650D01*
X7473895Y9652574D01*
X7500000Y9649137D01*
X7526105Y9652574D01*
X7550431Y9662650D01*
X7571321Y9678679D01*
X7587350Y9699569D01*
X7597426Y9723895D01*
X7600863Y9750000D01*
X7597426Y9776105D01*
X7587350Y9800432D01*
X7571321Y9821321D01*
X7550431Y9837350D01*
X7526105Y9847426D01*
X7500000Y9850863D01*
D02*
G37*
G36*
X6750000D02*
X6723895Y9847426D01*
X6699569Y9837350D01*
X6678679Y9821321D01*
X6662650Y9800432D01*
X6652574Y9776105D01*
X6649137Y9750000D01*
X6652574Y9723895D01*
X6662650Y9699569D01*
X6678679Y9678679D01*
X6699569Y9662650D01*
X6723895Y9652574D01*
X6750000Y9649137D01*
X6776105Y9652574D01*
X6800431Y9662650D01*
X6821321Y9678679D01*
X6837350Y9699569D01*
X6847426Y9723895D01*
X6850863Y9750000D01*
X6847426Y9776105D01*
X6837350Y9800432D01*
X6821321Y9821321D01*
X6800431Y9837350D01*
X6776105Y9847426D01*
X6750000Y9850863D01*
D02*
G37*
G36*
X5750000D02*
X5723895Y9847426D01*
X5699568Y9837350D01*
X5678679Y9821321D01*
X5662650Y9800432D01*
X5652574Y9776105D01*
X5649137Y9750000D01*
X5652574Y9723895D01*
X5662650Y9699569D01*
X5678679Y9678679D01*
X5699568Y9662650D01*
X5723895Y9652574D01*
X5750000Y9649137D01*
X5776105Y9652574D01*
X5800431Y9662650D01*
X5821321Y9678679D01*
X5837350Y9699569D01*
X5847426Y9723895D01*
X5850863Y9750000D01*
X5847426Y9776105D01*
X5837350Y9800432D01*
X5821321Y9821321D01*
X5800431Y9837350D01*
X5776105Y9847426D01*
X5750000Y9850863D01*
D02*
G37*
G36*
X5000000D02*
X4973895Y9847426D01*
X4949568Y9837350D01*
X4928679Y9821321D01*
X4912650Y9800432D01*
X4902574Y9776105D01*
X4899137Y9750000D01*
X4902574Y9723895D01*
X4912650Y9699569D01*
X4928679Y9678679D01*
X4949568Y9662650D01*
X4973895Y9652574D01*
X5000000Y9649137D01*
X5026105Y9652574D01*
X5050431Y9662650D01*
X5071321Y9678679D01*
X5087349Y9699569D01*
X5097426Y9723895D01*
X5100863Y9750000D01*
X5097426Y9776105D01*
X5087349Y9800432D01*
X5071321Y9821321D01*
X5050431Y9837350D01*
X5026105Y9847426D01*
X5000000Y9850863D01*
D02*
G37*
G36*
X4000000D02*
X3973895Y9847426D01*
X3949568Y9837350D01*
X3928679Y9821321D01*
X3912650Y9800432D01*
X3902574Y9776105D01*
X3899137Y9750000D01*
X3902574Y9723895D01*
X3912650Y9699569D01*
X3928679Y9678679D01*
X3949568Y9662650D01*
X3973895Y9652574D01*
X4000000Y9649137D01*
X4026105Y9652574D01*
X4050431Y9662650D01*
X4071321Y9678679D01*
X4087349Y9699569D01*
X4097426Y9723895D01*
X4100863Y9750000D01*
X4097426Y9776105D01*
X4087349Y9800432D01*
X4071321Y9821321D01*
X4050431Y9837350D01*
X4026105Y9847426D01*
X4000000Y9850863D01*
D02*
G37*
G36*
X3250000D02*
X3223895Y9847426D01*
X3199568Y9837350D01*
X3178679Y9821321D01*
X3162650Y9800432D01*
X3152574Y9776105D01*
X3149137Y9750000D01*
X3152574Y9723895D01*
X3162650Y9699569D01*
X3178679Y9678679D01*
X3199568Y9662650D01*
X3223895Y9652574D01*
X3250000Y9649137D01*
X3276105Y9652574D01*
X3300431Y9662650D01*
X3321321Y9678679D01*
X3337349Y9699569D01*
X3347426Y9723895D01*
X3350862Y9750000D01*
X3347426Y9776105D01*
X3337349Y9800432D01*
X3321321Y9821321D01*
X3300431Y9837350D01*
X3276105Y9847426D01*
X3250000Y9850863D01*
D02*
G37*
G36*
X2250000D02*
X2223895Y9847426D01*
X2199569Y9837350D01*
X2178679Y9821321D01*
X2162650Y9800432D01*
X2152574Y9776105D01*
X2149137Y9750000D01*
X2152574Y9723895D01*
X2162650Y9699569D01*
X2178679Y9678679D01*
X2199569Y9662650D01*
X2223895Y9652574D01*
X2250000Y9649137D01*
X2276105Y9652574D01*
X2300431Y9662650D01*
X2321321Y9678679D01*
X2337350Y9699569D01*
X2347426Y9723895D01*
X2350863Y9750000D01*
X2347426Y9776105D01*
X2337350Y9800432D01*
X2321321Y9821321D01*
X2300431Y9837350D01*
X2276105Y9847426D01*
X2250000Y9850863D01*
D02*
G37*
G36*
X1500000D02*
X1473895Y9847426D01*
X1449569Y9837350D01*
X1428679Y9821321D01*
X1412650Y9800432D01*
X1402574Y9776105D01*
X1399137Y9750000D01*
X1402574Y9723895D01*
X1412650Y9699569D01*
X1428679Y9678679D01*
X1449569Y9662650D01*
X1473895Y9652574D01*
X1500000Y9649137D01*
X1526105Y9652574D01*
X1550431Y9662650D01*
X1571321Y9678679D01*
X1587350Y9699569D01*
X1597426Y9723895D01*
X1600863Y9750000D01*
X1597426Y9776105D01*
X1587350Y9800432D01*
X1571321Y9821321D01*
X1550431Y9837350D01*
X1526105Y9847426D01*
X1500000Y9850863D01*
D02*
G37*
G36*
X12300000Y9756077D02*
X12278540Y9751809D01*
X12260347Y9739653D01*
X12248191Y9721460D01*
X12243923Y9700000D01*
X12248191Y9678540D01*
X12260347Y9660347D01*
X12278540Y9648191D01*
X12300000Y9643923D01*
X12321460Y9648191D01*
X12339653Y9660347D01*
X12351809Y9678540D01*
X12356077Y9700000D01*
X12351809Y9721460D01*
X12339653Y9739653D01*
X12321460Y9751809D01*
X12300000Y9756077D01*
D02*
G37*
G36*
X15140472Y9744579D02*
X15119012Y9740310D01*
X15100819Y9728155D01*
X15088664Y9709962D01*
X15084395Y9688502D01*
X15088664Y9667042D01*
X15100819Y9648849D01*
X15119012Y9636693D01*
X15140472Y9632424D01*
X15161932Y9636693D01*
X15180125Y9648849D01*
X15192281Y9667042D01*
X15196550Y9688502D01*
X15192281Y9709962D01*
X15180125Y9728155D01*
X15161932Y9740310D01*
X15140472Y9744579D01*
D02*
G37*
G36*
X14800000Y9656077D02*
X14778540Y9651809D01*
X14760347Y9639653D01*
X14748190Y9621460D01*
X14743922Y9600000D01*
X14748190Y9578540D01*
X14760347Y9560347D01*
X14778540Y9548191D01*
X14800000Y9543923D01*
X14821460Y9548191D01*
X14839653Y9560347D01*
X14851810Y9578540D01*
X14856078Y9600000D01*
X14851810Y9621460D01*
X14839653Y9639653D01*
X14821460Y9651809D01*
X14800000Y9656077D01*
D02*
G37*
G36*
X11000000Y9350863D02*
X10973895Y9347426D01*
X10949569Y9337350D01*
X10928679Y9321321D01*
X10912651Y9300431D01*
X10902574Y9276105D01*
X10899137Y9250000D01*
X10902574Y9223895D01*
X10912651Y9199569D01*
X10928679Y9178679D01*
X10949569Y9162650D01*
X10973895Y9152574D01*
X11000000Y9149137D01*
X11026105Y9152574D01*
X11050432Y9162650D01*
X11071321Y9178679D01*
X11087350Y9199569D01*
X11097426Y9223895D01*
X11100863Y9250000D01*
X11097426Y9276105D01*
X11087350Y9300431D01*
X11071321Y9321321D01*
X11050432Y9337350D01*
X11026105Y9347426D01*
X11000000Y9350863D01*
D02*
G37*
G36*
X10250000D02*
X10223895Y9347426D01*
X10199569Y9337350D01*
X10178679Y9321321D01*
X10162650Y9300431D01*
X10152574Y9276105D01*
X10149137Y9250000D01*
X10152574Y9223895D01*
X10162650Y9199569D01*
X10178679Y9178679D01*
X10199569Y9162650D01*
X10223895Y9152574D01*
X10250000Y9149137D01*
X10276105Y9152574D01*
X10300432Y9162650D01*
X10321321Y9178679D01*
X10337350Y9199569D01*
X10347426Y9223895D01*
X10350863Y9250000D01*
X10347426Y9276105D01*
X10337350Y9300431D01*
X10321321Y9321321D01*
X10300432Y9337350D01*
X10276105Y9347426D01*
X10250000Y9350863D01*
D02*
G37*
G36*
X9250000D02*
X9223895Y9347426D01*
X9199569Y9337350D01*
X9178679Y9321321D01*
X9162650Y9300431D01*
X9152574Y9276105D01*
X9149137Y9250000D01*
X9152574Y9223895D01*
X9162650Y9199569D01*
X9178679Y9178679D01*
X9199569Y9162650D01*
X9223895Y9152574D01*
X9250000Y9149137D01*
X9276105Y9152574D01*
X9300431Y9162650D01*
X9321321Y9178679D01*
X9337350Y9199569D01*
X9347426Y9223895D01*
X9350863Y9250000D01*
X9347426Y9276105D01*
X9337350Y9300431D01*
X9321321Y9321321D01*
X9300431Y9337350D01*
X9276105Y9347426D01*
X9250000Y9350863D01*
D02*
G37*
G36*
X8500000D02*
X8473895Y9347426D01*
X8449569Y9337350D01*
X8428679Y9321321D01*
X8412650Y9300431D01*
X8402574Y9276105D01*
X8399137Y9250000D01*
X8402574Y9223895D01*
X8412650Y9199569D01*
X8428679Y9178679D01*
X8449569Y9162650D01*
X8473895Y9152574D01*
X8500000Y9149137D01*
X8526105Y9152574D01*
X8550431Y9162650D01*
X8571321Y9178679D01*
X8587350Y9199569D01*
X8597426Y9223895D01*
X8600863Y9250000D01*
X8597426Y9276105D01*
X8587350Y9300431D01*
X8571321Y9321321D01*
X8550431Y9337350D01*
X8526105Y9347426D01*
X8500000Y9350863D01*
D02*
G37*
G36*
X7500000D02*
X7473895Y9347426D01*
X7449569Y9337350D01*
X7428679Y9321321D01*
X7412650Y9300431D01*
X7402574Y9276105D01*
X7399137Y9250000D01*
X7402574Y9223895D01*
X7412650Y9199569D01*
X7428679Y9178679D01*
X7449569Y9162650D01*
X7473895Y9152574D01*
X7500000Y9149137D01*
X7526105Y9152574D01*
X7550431Y9162650D01*
X7571321Y9178679D01*
X7587350Y9199569D01*
X7597426Y9223895D01*
X7600863Y9250000D01*
X7597426Y9276105D01*
X7587350Y9300431D01*
X7571321Y9321321D01*
X7550431Y9337350D01*
X7526105Y9347426D01*
X7500000Y9350863D01*
D02*
G37*
G36*
X6750000D02*
X6723895Y9347426D01*
X6699569Y9337350D01*
X6678679Y9321321D01*
X6662650Y9300431D01*
X6652574Y9276105D01*
X6649137Y9250000D01*
X6652574Y9223895D01*
X6662650Y9199569D01*
X6678679Y9178679D01*
X6699569Y9162650D01*
X6723895Y9152574D01*
X6750000Y9149137D01*
X6776105Y9152574D01*
X6800431Y9162650D01*
X6821321Y9178679D01*
X6837350Y9199569D01*
X6847426Y9223895D01*
X6850863Y9250000D01*
X6847426Y9276105D01*
X6837350Y9300431D01*
X6821321Y9321321D01*
X6800431Y9337350D01*
X6776105Y9347426D01*
X6750000Y9350863D01*
D02*
G37*
G36*
X5750000D02*
X5723895Y9347426D01*
X5699568Y9337350D01*
X5678679Y9321321D01*
X5662650Y9300431D01*
X5652574Y9276105D01*
X5649137Y9250000D01*
X5652574Y9223895D01*
X5662650Y9199569D01*
X5678679Y9178679D01*
X5699568Y9162650D01*
X5723895Y9152574D01*
X5750000Y9149137D01*
X5776105Y9152574D01*
X5800431Y9162650D01*
X5821321Y9178679D01*
X5837350Y9199569D01*
X5847426Y9223895D01*
X5850863Y9250000D01*
X5847426Y9276105D01*
X5837350Y9300431D01*
X5821321Y9321321D01*
X5800431Y9337350D01*
X5776105Y9347426D01*
X5750000Y9350863D01*
D02*
G37*
G36*
X5000000D02*
X4973895Y9347426D01*
X4949568Y9337350D01*
X4928679Y9321321D01*
X4912650Y9300431D01*
X4902574Y9276105D01*
X4899137Y9250000D01*
X4902574Y9223895D01*
X4912650Y9199569D01*
X4928679Y9178679D01*
X4949568Y9162650D01*
X4973895Y9152574D01*
X5000000Y9149137D01*
X5026105Y9152574D01*
X5050431Y9162650D01*
X5071321Y9178679D01*
X5087349Y9199569D01*
X5097426Y9223895D01*
X5100863Y9250000D01*
X5097426Y9276105D01*
X5087349Y9300431D01*
X5071321Y9321321D01*
X5050431Y9337350D01*
X5026105Y9347426D01*
X5000000Y9350863D01*
D02*
G37*
G36*
X4000000D02*
X3973895Y9347426D01*
X3949568Y9337350D01*
X3928679Y9321321D01*
X3912650Y9300431D01*
X3902574Y9276105D01*
X3899137Y9250000D01*
X3902574Y9223895D01*
X3912650Y9199569D01*
X3928679Y9178679D01*
X3949568Y9162650D01*
X3973895Y9152574D01*
X4000000Y9149137D01*
X4026105Y9152574D01*
X4050431Y9162650D01*
X4071321Y9178679D01*
X4087349Y9199569D01*
X4097426Y9223895D01*
X4100863Y9250000D01*
X4097426Y9276105D01*
X4087349Y9300431D01*
X4071321Y9321321D01*
X4050431Y9337350D01*
X4026105Y9347426D01*
X4000000Y9350863D01*
D02*
G37*
G36*
X3250000D02*
X3223895Y9347426D01*
X3199568Y9337350D01*
X3178679Y9321321D01*
X3162650Y9300431D01*
X3152574Y9276105D01*
X3149137Y9250000D01*
X3152574Y9223895D01*
X3162650Y9199569D01*
X3178679Y9178679D01*
X3199568Y9162650D01*
X3223895Y9152574D01*
X3250000Y9149137D01*
X3276105Y9152574D01*
X3300431Y9162650D01*
X3321321Y9178679D01*
X3337349Y9199569D01*
X3347426Y9223895D01*
X3350862Y9250000D01*
X3347426Y9276105D01*
X3337349Y9300431D01*
X3321321Y9321321D01*
X3300431Y9337350D01*
X3276105Y9347426D01*
X3250000Y9350863D01*
D02*
G37*
G36*
X2250000D02*
X2223895Y9347426D01*
X2199569Y9337350D01*
X2178679Y9321321D01*
X2162650Y9300431D01*
X2152574Y9276105D01*
X2149137Y9250000D01*
X2152574Y9223895D01*
X2162650Y9199569D01*
X2178679Y9178679D01*
X2199569Y9162650D01*
X2223895Y9152574D01*
X2250000Y9149137D01*
X2276105Y9152574D01*
X2300431Y9162650D01*
X2321321Y9178679D01*
X2337350Y9199569D01*
X2347426Y9223895D01*
X2350863Y9250000D01*
X2347426Y9276105D01*
X2337350Y9300431D01*
X2321321Y9321321D01*
X2300431Y9337350D01*
X2276105Y9347426D01*
X2250000Y9350863D01*
D02*
G37*
G36*
X1500000D02*
X1473895Y9347426D01*
X1449569Y9337350D01*
X1428679Y9321321D01*
X1412650Y9300431D01*
X1402574Y9276105D01*
X1399137Y9250000D01*
X1402574Y9223895D01*
X1412650Y9199569D01*
X1428679Y9178679D01*
X1449569Y9162650D01*
X1473895Y9152574D01*
X1500000Y9149137D01*
X1526105Y9152574D01*
X1550431Y9162650D01*
X1571321Y9178679D01*
X1587350Y9199569D01*
X1597426Y9223895D01*
X1600863Y9250000D01*
X1597426Y9276105D01*
X1587350Y9300431D01*
X1571321Y9321321D01*
X1550431Y9337350D01*
X1526105Y9347426D01*
X1500000Y9350863D01*
D02*
G37*
G36*
X15651234Y8961551D02*
X15629774Y8957282D01*
X15611581Y8945126D01*
X15599425Y8926934D01*
X15595155Y8905474D01*
X15599425Y8884014D01*
X15611581Y8865821D01*
X15629774Y8853665D01*
X15651234Y8849396D01*
X15672694Y8853665D01*
X15690886Y8865821D01*
X15703043Y8884014D01*
X15707310Y8905474D01*
X15703043Y8926934D01*
X15690886Y8945126D01*
X15672694Y8957282D01*
X15651234Y8961551D01*
D02*
G37*
G36*
X13700000Y8556077D02*
X13678540Y8551809D01*
X13660347Y8539653D01*
X13648190Y8521460D01*
X13643922Y8500000D01*
X13648190Y8478540D01*
X13660347Y8460347D01*
X13678540Y8448191D01*
X13700000Y8443923D01*
X13721460Y8448191D01*
X13739653Y8460347D01*
X13751810Y8478540D01*
X13756078Y8500000D01*
X13751810Y8521460D01*
X13739653Y8539653D01*
X13721460Y8551809D01*
X13700000Y8556077D01*
D02*
G37*
G36*
X7950000Y8406077D02*
X7928540Y8401809D01*
X7910347Y8389653D01*
X7898191Y8371460D01*
X7893923Y8350000D01*
X7898191Y8328540D01*
X7910347Y8310347D01*
X7928540Y8298191D01*
X7950000Y8293923D01*
X7971460Y8298191D01*
X7989653Y8310347D01*
X8001809Y8328540D01*
X8006077Y8350000D01*
X8001809Y8371460D01*
X7989653Y8389653D01*
X7971460Y8401809D01*
X7950000Y8406077D01*
D02*
G37*
G36*
Y8181077D02*
X7928540Y8176809D01*
X7910347Y8164653D01*
X7898191Y8146460D01*
X7893923Y8125000D01*
X7898191Y8103540D01*
X7910347Y8085347D01*
X7928540Y8073191D01*
X7950000Y8068923D01*
X7971460Y8073191D01*
X7989653Y8085347D01*
X8001809Y8103540D01*
X8006077Y8125000D01*
X8001809Y8146460D01*
X7989653Y8164653D01*
X7971460Y8176809D01*
X7950000Y8181077D01*
D02*
G37*
G36*
X11000000Y7850863D02*
X10973895Y7847426D01*
X10949569Y7837350D01*
X10928679Y7821321D01*
X10912651Y7800431D01*
X10902574Y7776105D01*
X10899137Y7750000D01*
X10902574Y7723895D01*
X10912651Y7699569D01*
X10928679Y7678680D01*
X10949569Y7662651D01*
X10973895Y7652574D01*
X11000000Y7649138D01*
X11026105Y7652574D01*
X11050432Y7662651D01*
X11071321Y7678680D01*
X11087350Y7699569D01*
X11097426Y7723895D01*
X11100863Y7750000D01*
X11097426Y7776105D01*
X11087350Y7800431D01*
X11071321Y7821321D01*
X11050432Y7837350D01*
X11026105Y7847426D01*
X11000000Y7850863D01*
D02*
G37*
G36*
X10250000D02*
X10223895Y7847426D01*
X10199569Y7837350D01*
X10178679Y7821321D01*
X10162650Y7800431D01*
X10152574Y7776105D01*
X10149137Y7750000D01*
X10152574Y7723895D01*
X10162650Y7699569D01*
X10178679Y7678680D01*
X10199569Y7662651D01*
X10223895Y7652574D01*
X10250000Y7649138D01*
X10276105Y7652574D01*
X10300432Y7662651D01*
X10321321Y7678680D01*
X10337350Y7699569D01*
X10347426Y7723895D01*
X10350863Y7750000D01*
X10347426Y7776105D01*
X10337350Y7800431D01*
X10321321Y7821321D01*
X10300432Y7837350D01*
X10276105Y7847426D01*
X10250000Y7850863D01*
D02*
G37*
G36*
X9250000D02*
X9223895Y7847426D01*
X9199569Y7837350D01*
X9178679Y7821321D01*
X9162650Y7800431D01*
X9152574Y7776105D01*
X9149137Y7750000D01*
X9152574Y7723895D01*
X9162650Y7699569D01*
X9178679Y7678680D01*
X9199569Y7662651D01*
X9223895Y7652574D01*
X9250000Y7649138D01*
X9276105Y7652574D01*
X9300431Y7662651D01*
X9321321Y7678680D01*
X9337350Y7699569D01*
X9347426Y7723895D01*
X9350863Y7750000D01*
X9347426Y7776105D01*
X9337350Y7800431D01*
X9321321Y7821321D01*
X9300431Y7837350D01*
X9276105Y7847426D01*
X9250000Y7850863D01*
D02*
G37*
G36*
X8500000D02*
X8473895Y7847426D01*
X8449569Y7837350D01*
X8428679Y7821321D01*
X8412650Y7800431D01*
X8402574Y7776105D01*
X8399137Y7750000D01*
X8402574Y7723895D01*
X8412650Y7699569D01*
X8428679Y7678680D01*
X8449569Y7662651D01*
X8473895Y7652574D01*
X8500000Y7649138D01*
X8526105Y7652574D01*
X8550431Y7662651D01*
X8571321Y7678680D01*
X8587350Y7699569D01*
X8597426Y7723895D01*
X8600863Y7750000D01*
X8597426Y7776105D01*
X8587350Y7800431D01*
X8571321Y7821321D01*
X8550431Y7837350D01*
X8526105Y7847426D01*
X8500000Y7850863D01*
D02*
G37*
G36*
X7500000D02*
X7473895Y7847426D01*
X7449569Y7837350D01*
X7428679Y7821321D01*
X7412650Y7800431D01*
X7402574Y7776105D01*
X7399137Y7750000D01*
X7402574Y7723895D01*
X7412650Y7699569D01*
X7428679Y7678680D01*
X7449569Y7662651D01*
X7473895Y7652574D01*
X7500000Y7649138D01*
X7526105Y7652574D01*
X7550431Y7662651D01*
X7571321Y7678680D01*
X7587350Y7699569D01*
X7597426Y7723895D01*
X7600863Y7750000D01*
X7597426Y7776105D01*
X7587350Y7800431D01*
X7571321Y7821321D01*
X7550431Y7837350D01*
X7526105Y7847426D01*
X7500000Y7850863D01*
D02*
G37*
G36*
X6750000D02*
X6723895Y7847426D01*
X6699569Y7837350D01*
X6678679Y7821321D01*
X6662650Y7800431D01*
X6652574Y7776105D01*
X6649137Y7750000D01*
X6652574Y7723895D01*
X6662650Y7699569D01*
X6678679Y7678680D01*
X6699569Y7662651D01*
X6723895Y7652574D01*
X6750000Y7649138D01*
X6776105Y7652574D01*
X6800431Y7662651D01*
X6821321Y7678680D01*
X6837350Y7699569D01*
X6847426Y7723895D01*
X6850863Y7750000D01*
X6847426Y7776105D01*
X6837350Y7800431D01*
X6821321Y7821321D01*
X6800431Y7837350D01*
X6776105Y7847426D01*
X6750000Y7850863D01*
D02*
G37*
G36*
X5750000D02*
X5723895Y7847426D01*
X5699568Y7837350D01*
X5678679Y7821321D01*
X5662650Y7800431D01*
X5652574Y7776105D01*
X5649137Y7750000D01*
X5652574Y7723895D01*
X5662650Y7699569D01*
X5678679Y7678680D01*
X5699568Y7662651D01*
X5723895Y7652574D01*
X5750000Y7649138D01*
X5776105Y7652574D01*
X5800431Y7662651D01*
X5821321Y7678680D01*
X5837350Y7699569D01*
X5847426Y7723895D01*
X5850863Y7750000D01*
X5847426Y7776105D01*
X5837350Y7800431D01*
X5821321Y7821321D01*
X5800431Y7837350D01*
X5776105Y7847426D01*
X5750000Y7850863D01*
D02*
G37*
G36*
X5000000D02*
X4973895Y7847426D01*
X4949568Y7837350D01*
X4928679Y7821321D01*
X4912650Y7800431D01*
X4902574Y7776105D01*
X4899137Y7750000D01*
X4902574Y7723895D01*
X4912650Y7699569D01*
X4928679Y7678680D01*
X4949568Y7662651D01*
X4973895Y7652574D01*
X5000000Y7649138D01*
X5026105Y7652574D01*
X5050431Y7662651D01*
X5071321Y7678680D01*
X5087349Y7699569D01*
X5097426Y7723895D01*
X5100863Y7750000D01*
X5097426Y7776105D01*
X5087349Y7800431D01*
X5071321Y7821321D01*
X5050431Y7837350D01*
X5026105Y7847426D01*
X5000000Y7850863D01*
D02*
G37*
G36*
X4000000D02*
X3973895Y7847426D01*
X3949568Y7837350D01*
X3928679Y7821321D01*
X3912650Y7800431D01*
X3902574Y7776105D01*
X3899137Y7750000D01*
X3902574Y7723895D01*
X3912650Y7699569D01*
X3928679Y7678680D01*
X3949568Y7662651D01*
X3973895Y7652574D01*
X4000000Y7649138D01*
X4026105Y7652574D01*
X4050431Y7662651D01*
X4071321Y7678680D01*
X4087349Y7699569D01*
X4097426Y7723895D01*
X4100863Y7750000D01*
X4097426Y7776105D01*
X4087349Y7800431D01*
X4071321Y7821321D01*
X4050431Y7837350D01*
X4026105Y7847426D01*
X4000000Y7850863D01*
D02*
G37*
G36*
X3250000D02*
X3223895Y7847426D01*
X3199568Y7837350D01*
X3178679Y7821321D01*
X3162650Y7800431D01*
X3152574Y7776105D01*
X3149137Y7750000D01*
X3152574Y7723895D01*
X3162650Y7699569D01*
X3178679Y7678680D01*
X3199568Y7662651D01*
X3223895Y7652574D01*
X3250000Y7649138D01*
X3276105Y7652574D01*
X3300431Y7662651D01*
X3321321Y7678680D01*
X3337349Y7699569D01*
X3347426Y7723895D01*
X3350862Y7750000D01*
X3347426Y7776105D01*
X3337349Y7800431D01*
X3321321Y7821321D01*
X3300431Y7837350D01*
X3276105Y7847426D01*
X3250000Y7850863D01*
D02*
G37*
G36*
X2250000D02*
X2223895Y7847426D01*
X2199569Y7837350D01*
X2178679Y7821321D01*
X2162650Y7800431D01*
X2152574Y7776105D01*
X2149137Y7750000D01*
X2152574Y7723895D01*
X2162650Y7699569D01*
X2178679Y7678680D01*
X2199569Y7662651D01*
X2223895Y7652574D01*
X2250000Y7649138D01*
X2276105Y7652574D01*
X2300431Y7662651D01*
X2321321Y7678680D01*
X2337350Y7699569D01*
X2347426Y7723895D01*
X2350863Y7750000D01*
X2347426Y7776105D01*
X2337350Y7800431D01*
X2321321Y7821321D01*
X2300431Y7837350D01*
X2276105Y7847426D01*
X2250000Y7850863D01*
D02*
G37*
G36*
X1500000D02*
X1473895Y7847426D01*
X1449569Y7837350D01*
X1428679Y7821321D01*
X1412650Y7800431D01*
X1402574Y7776105D01*
X1399137Y7750000D01*
X1402574Y7723895D01*
X1412650Y7699569D01*
X1428679Y7678680D01*
X1449569Y7662651D01*
X1473895Y7652574D01*
X1500000Y7649138D01*
X1526105Y7652574D01*
X1550431Y7662651D01*
X1571321Y7678680D01*
X1587350Y7699569D01*
X1597426Y7723895D01*
X1600863Y7750000D01*
X1597426Y7776105D01*
X1587350Y7800431D01*
X1571321Y7821321D01*
X1550431Y7837350D01*
X1526105Y7847426D01*
X1500000Y7850863D01*
D02*
G37*
G36*
X14900000Y7756077D02*
X14878540Y7751809D01*
X14860347Y7739653D01*
X14848190Y7721460D01*
X14843922Y7700000D01*
X14848190Y7678540D01*
X14860347Y7660347D01*
X14878540Y7648191D01*
X14900000Y7643923D01*
X14921460Y7648191D01*
X14939653Y7660347D01*
X14951810Y7678540D01*
X14956078Y7700000D01*
X14951810Y7721460D01*
X14939653Y7739653D01*
X14921460Y7751809D01*
X14900000Y7756077D01*
D02*
G37*
G36*
X14500000D02*
X14478540Y7751809D01*
X14460347Y7739653D01*
X14448190Y7721460D01*
X14443922Y7700000D01*
X14448190Y7678540D01*
X14460347Y7660347D01*
X14478540Y7648191D01*
X14500000Y7643923D01*
X14521460Y7648191D01*
X14539653Y7660347D01*
X14551810Y7678540D01*
X14556078Y7700000D01*
X14551810Y7721460D01*
X14539653Y7739653D01*
X14521460Y7751809D01*
X14500000Y7756077D01*
D02*
G37*
G36*
X12400000D02*
X12378540Y7751809D01*
X12360347Y7739653D01*
X12348191Y7721460D01*
X12343923Y7700000D01*
X12348191Y7678540D01*
X12360347Y7660347D01*
X12378540Y7648191D01*
X12400000Y7643923D01*
X12421460Y7648191D01*
X12439653Y7660347D01*
X12451809Y7678540D01*
X12456077Y7700000D01*
X12451809Y7721460D01*
X12439653Y7739653D01*
X12421460Y7751809D01*
X12400000Y7756077D01*
D02*
G37*
G36*
X12050000Y7706077D02*
X12028540Y7701809D01*
X12010347Y7689653D01*
X11998191Y7671460D01*
X11993923Y7650000D01*
X11998191Y7628540D01*
X12010347Y7610347D01*
X12028540Y7598191D01*
X12050000Y7593923D01*
X12071460Y7598191D01*
X12089653Y7610347D01*
X12101809Y7628540D01*
X12106077Y7650000D01*
X12101809Y7671460D01*
X12089653Y7689653D01*
X12071460Y7701809D01*
X12050000Y7706077D01*
D02*
G37*
G36*
X12270985Y7561973D02*
X12249525Y7557705D01*
X12231332Y7545549D01*
X12219176Y7527356D01*
X12214907Y7505896D01*
X12219176Y7484436D01*
X12231332Y7466243D01*
X12249525Y7454087D01*
X12270985Y7449819D01*
X12292445Y7454087D01*
X12310638Y7466243D01*
X12322793Y7484436D01*
X12327062Y7505896D01*
X12322793Y7527356D01*
X12310638Y7545549D01*
X12292445Y7557705D01*
X12270985Y7561973D01*
D02*
G37*
G36*
X12600000Y7556077D02*
X12578540Y7551809D01*
X12560347Y7539653D01*
X12548191Y7521460D01*
X12543923Y7500000D01*
X12548191Y7478540D01*
X12560347Y7460347D01*
X12578540Y7448191D01*
X12600000Y7443923D01*
X12621460Y7448191D01*
X12639653Y7460347D01*
X12651809Y7478540D01*
X12656077Y7500000D01*
X12651809Y7521460D01*
X12639653Y7539653D01*
X12621460Y7551809D01*
X12600000Y7556077D01*
D02*
G37*
G36*
X14745963Y7510116D02*
X14724503Y7505847D01*
X14706310Y7493691D01*
X14694153Y7475498D01*
X14689885Y7454038D01*
X14694153Y7432578D01*
X14706310Y7414385D01*
X14724503Y7402230D01*
X14745963Y7397961D01*
X14767422Y7402230D01*
X14785616Y7414385D01*
X14797771Y7432578D01*
X14802039Y7454038D01*
X14797771Y7475498D01*
X14785616Y7493691D01*
X14767422Y7505847D01*
X14745963Y7510116D01*
D02*
G37*
G36*
X12900000Y7506077D02*
X12878540Y7501809D01*
X12860347Y7489653D01*
X12848190Y7471460D01*
X12843922Y7450000D01*
X12848190Y7428540D01*
X12860347Y7410347D01*
X12878540Y7398191D01*
X12900000Y7393923D01*
X12921460Y7398191D01*
X12939653Y7410347D01*
X12951810Y7428540D01*
X12956078Y7450000D01*
X12951810Y7471460D01*
X12939653Y7489653D01*
X12921460Y7501809D01*
X12900000Y7506077D01*
D02*
G37*
G36*
X15400000Y7456077D02*
X15378540Y7451809D01*
X15360347Y7439653D01*
X15348190Y7421460D01*
X15343922Y7400000D01*
X15348190Y7378540D01*
X15360347Y7360347D01*
X15378540Y7348191D01*
X15400000Y7343923D01*
X15421460Y7348191D01*
X15439653Y7360347D01*
X15451810Y7378540D01*
X15456078Y7400000D01*
X15451810Y7421460D01*
X15439653Y7439653D01*
X15421460Y7451809D01*
X15400000Y7456077D01*
D02*
G37*
G36*
X8750000Y7156077D02*
X8728540Y7151809D01*
X8710347Y7139653D01*
X8698191Y7121460D01*
X8693923Y7100000D01*
X8698191Y7078540D01*
X8710347Y7060347D01*
X8728540Y7048191D01*
X8750000Y7043923D01*
X8771460Y7048191D01*
X8789653Y7060347D01*
X8801809Y7078540D01*
X8806077Y7100000D01*
X8801809Y7121460D01*
X8789653Y7139653D01*
X8771460Y7151809D01*
X8750000Y7156077D01*
D02*
G37*
G36*
X14800000Y7056077D02*
X14778540Y7051809D01*
X14760347Y7039653D01*
X14748190Y7021460D01*
X14743922Y7000000D01*
X14748190Y6978540D01*
X14760347Y6960347D01*
X14778540Y6948191D01*
X14800000Y6943923D01*
X14821460Y6948191D01*
X14839653Y6960347D01*
X14851810Y6978540D01*
X14856078Y7000000D01*
X14851810Y7021460D01*
X14839653Y7039653D01*
X14821460Y7051809D01*
X14800000Y7056077D01*
D02*
G37*
G36*
X9100000Y6906077D02*
X9078540Y6901809D01*
X9060347Y6889653D01*
X9048191Y6871460D01*
X9043923Y6850000D01*
X9048191Y6828540D01*
X9060347Y6810347D01*
X9078540Y6798191D01*
X9100000Y6793923D01*
X9121460Y6798191D01*
X9139653Y6810347D01*
X9151809Y6828540D01*
X9156077Y6850000D01*
X9151809Y6871460D01*
X9139653Y6889653D01*
X9121460Y6901809D01*
X9100000Y6906077D01*
D02*
G37*
G36*
X7004000Y6902077D02*
X6982540Y6897809D01*
X6964347Y6885653D01*
X6952191Y6867460D01*
X6947923Y6846000D01*
X6952191Y6824540D01*
X6964347Y6806347D01*
X6982540Y6794191D01*
X7004000Y6789923D01*
X7025460Y6794191D01*
X7043653Y6806347D01*
X7055809Y6824540D01*
X7060077Y6846000D01*
X7055809Y6867460D01*
X7043653Y6885653D01*
X7025460Y6897809D01*
X7004000Y6902077D01*
D02*
G37*
G36*
X7800000Y6806077D02*
X7778540Y6801809D01*
X7760347Y6789653D01*
X7748191Y6771460D01*
X7743923Y6750000D01*
X7748191Y6728540D01*
X7760347Y6710347D01*
X7778540Y6698191D01*
X7800000Y6693923D01*
X7821460Y6698191D01*
X7839653Y6710347D01*
X7851809Y6728540D01*
X7856077Y6750000D01*
X7851809Y6771460D01*
X7839653Y6789653D01*
X7821460Y6801809D01*
X7800000Y6806077D01*
D02*
G37*
G36*
X8050000Y6456077D02*
X8028540Y6451809D01*
X8010347Y6439653D01*
X7998191Y6421460D01*
X7993923Y6400000D01*
X7998191Y6378540D01*
X8010347Y6360347D01*
X8028540Y6348191D01*
X8050000Y6343923D01*
X8071460Y6348191D01*
X8089653Y6360347D01*
X8101809Y6378540D01*
X8106077Y6400000D01*
X8101809Y6421460D01*
X8089653Y6439653D01*
X8071460Y6451809D01*
X8050000Y6456077D01*
D02*
G37*
G36*
X9850000Y6406077D02*
X9828540Y6401809D01*
X9810347Y6389653D01*
X9798191Y6371460D01*
X9793923Y6350000D01*
X9798191Y6328540D01*
X9810347Y6310347D01*
X9828540Y6298191D01*
X9850000Y6293923D01*
X9871460Y6298191D01*
X9889653Y6310347D01*
X9901809Y6328540D01*
X9906077Y6350000D01*
X9901809Y6371460D01*
X9889653Y6389653D01*
X9871460Y6401809D01*
X9850000Y6406077D01*
D02*
G37*
G36*
X8500000D02*
X8478540Y6401809D01*
X8460347Y6389653D01*
X8448191Y6371460D01*
X8443923Y6350000D01*
X8448191Y6328540D01*
X8460347Y6310347D01*
X8478540Y6298191D01*
X8500000Y6293923D01*
X8521460Y6298191D01*
X8539653Y6310347D01*
X8551809Y6328540D01*
X8556077Y6350000D01*
X8551809Y6371460D01*
X8539653Y6389653D01*
X8521460Y6401809D01*
X8500000Y6406077D01*
D02*
G37*
G36*
X10450000Y6256077D02*
X10428540Y6251809D01*
X10410347Y6239653D01*
X10398191Y6221460D01*
X10393923Y6200000D01*
X10398191Y6178540D01*
X10410347Y6160347D01*
X10428540Y6148191D01*
X10450000Y6143923D01*
X10471460Y6148191D01*
X10489653Y6160347D01*
X10501809Y6178540D01*
X10506077Y6200000D01*
X10501809Y6221460D01*
X10489653Y6239653D01*
X10471460Y6251809D01*
X10450000Y6256077D01*
D02*
G37*
G36*
Y6006077D02*
X10428540Y6001809D01*
X10410347Y5989653D01*
X10398191Y5971460D01*
X10393923Y5950000D01*
X10398191Y5928540D01*
X10410347Y5910347D01*
X10428540Y5898191D01*
X10450000Y5893923D01*
X10471460Y5898191D01*
X10489653Y5910347D01*
X10501809Y5928540D01*
X10506077Y5950000D01*
X10501809Y5971460D01*
X10489653Y5989653D01*
X10471460Y6001809D01*
X10450000Y6006077D01*
D02*
G37*
G36*
X9200000Y5856077D02*
X9178540Y5851809D01*
X9160347Y5839653D01*
X9148191Y5821460D01*
X9143923Y5800000D01*
X9148191Y5778540D01*
X9160347Y5760347D01*
X9178540Y5748191D01*
X9200000Y5743923D01*
X9221460Y5748191D01*
X9239653Y5760347D01*
X9251809Y5778540D01*
X9256077Y5800000D01*
X9251809Y5821460D01*
X9239653Y5839653D01*
X9221460Y5851809D01*
X9200000Y5856077D01*
D02*
G37*
G36*
X2555000Y5960000D02*
X2445000D01*
X2390000Y5905000D01*
Y5795000D01*
X2445000Y5740000D01*
X2555000D01*
X2610000Y5795000D01*
Y5905000D01*
X2555000Y5960000D01*
D02*
G37*
G36*
X8461948Y5835504D02*
X8440488Y5831235D01*
X8422295Y5819079D01*
X8410139Y5800887D01*
X8405870Y5779427D01*
X8410139Y5757967D01*
X8422295Y5739774D01*
X8440488Y5727618D01*
X8461948Y5723349D01*
X8483407Y5727618D01*
X8501600Y5739774D01*
X8513756Y5757967D01*
X8518025Y5779427D01*
X8513756Y5800887D01*
X8501600Y5819079D01*
X8483407Y5831235D01*
X8461948Y5835504D01*
D02*
G37*
G36*
X8487823Y5681978D02*
X8466363Y5677709D01*
X8448170Y5665554D01*
X8436014Y5647361D01*
X8431746Y5625901D01*
X8436014Y5604441D01*
X8448170Y5586248D01*
X8466363Y5574092D01*
X8487823Y5569824D01*
X8509283Y5574092D01*
X8527476Y5586248D01*
X8539632Y5604441D01*
X8543900Y5625901D01*
X8539632Y5647361D01*
X8527476Y5665554D01*
X8509283Y5677709D01*
X8487823Y5681978D01*
D02*
G37*
G36*
X12700000Y5681077D02*
X12678540Y5676809D01*
X12660347Y5664653D01*
X12648191Y5646460D01*
X12643923Y5625000D01*
X12648191Y5603540D01*
X12660347Y5585347D01*
X12678540Y5573191D01*
X12700000Y5568923D01*
X12721460Y5573191D01*
X12739653Y5585347D01*
X12751809Y5603540D01*
X12756077Y5625000D01*
X12751809Y5646460D01*
X12739653Y5664653D01*
X12721460Y5676809D01*
X12700000Y5681077D01*
D02*
G37*
G36*
X12100000D02*
X12078540Y5676809D01*
X12060347Y5664653D01*
X12048191Y5646460D01*
X12043923Y5625000D01*
X12048191Y5603540D01*
X12060347Y5585347D01*
X12078540Y5573191D01*
X12100000Y5568923D01*
X12121460Y5573191D01*
X12139653Y5585347D01*
X12151809Y5603540D01*
X12156077Y5625000D01*
X12151809Y5646460D01*
X12139653Y5664653D01*
X12121460Y5676809D01*
X12100000Y5681077D01*
D02*
G37*
G36*
X8150000Y5656077D02*
X8128540Y5651809D01*
X8110347Y5639653D01*
X8098191Y5621460D01*
X8093923Y5600000D01*
X8098191Y5578540D01*
X8110347Y5560347D01*
X8128540Y5548191D01*
X8150000Y5543923D01*
X8171460Y5548191D01*
X8189653Y5560347D01*
X8201809Y5578540D01*
X8206077Y5600000D01*
X8201809Y5621460D01*
X8189653Y5639653D01*
X8171460Y5651809D01*
X8150000Y5656077D01*
D02*
G37*
G36*
X8627549Y5585378D02*
X8606089Y5581109D01*
X8587896Y5568953D01*
X8575740Y5550761D01*
X8571472Y5529301D01*
X8575740Y5507841D01*
X8587896Y5489648D01*
X8606089Y5477492D01*
X8627549Y5473223D01*
X8649009Y5477492D01*
X8667202Y5489648D01*
X8679358Y5507841D01*
X8683626Y5529301D01*
X8679358Y5550761D01*
X8667202Y5568953D01*
X8649009Y5581109D01*
X8627549Y5585378D01*
D02*
G37*
G36*
X7450000Y5556077D02*
X7428540Y5551809D01*
X7410347Y5539653D01*
X7398191Y5521460D01*
X7393923Y5500000D01*
X7398191Y5478540D01*
X7410347Y5460347D01*
X7428540Y5448191D01*
X7450000Y5443923D01*
X7471460Y5448191D01*
X7489653Y5460347D01*
X7501809Y5478540D01*
X7506077Y5500000D01*
X7501809Y5521460D01*
X7489653Y5539653D01*
X7471460Y5551809D01*
X7450000Y5556077D01*
D02*
G37*
G36*
X8467123Y5538803D02*
X8445663Y5534534D01*
X8427470Y5522378D01*
X8415314Y5504186D01*
X8411045Y5482726D01*
X8415314Y5461266D01*
X8427470Y5443073D01*
X8445663Y5430917D01*
X8467123Y5426648D01*
X8488582Y5430917D01*
X8506775Y5443073D01*
X8518931Y5461266D01*
X8523200Y5482726D01*
X8518931Y5504186D01*
X8506775Y5522378D01*
X8488582Y5534534D01*
X8467123Y5538803D01*
D02*
G37*
G36*
X14850000Y5356077D02*
X14828540Y5351809D01*
X14810347Y5339653D01*
X14798190Y5321460D01*
X14793922Y5300000D01*
X14798190Y5278540D01*
X14810347Y5260347D01*
X14828540Y5248191D01*
X14850000Y5243923D01*
X14871460Y5248191D01*
X14889653Y5260347D01*
X14901810Y5278540D01*
X14906078Y5300000D01*
X14901810Y5321460D01*
X14889653Y5339653D01*
X14871460Y5351809D01*
X14850000Y5356077D01*
D02*
G37*
G36*
X8594774Y5342152D02*
X8573314Y5337883D01*
X8555121Y5325727D01*
X8542965Y5307534D01*
X8538696Y5286074D01*
X8542965Y5264614D01*
X8555121Y5246422D01*
X8573314Y5234266D01*
X8594774Y5229997D01*
X8616234Y5234266D01*
X8634426Y5246422D01*
X8646582Y5264614D01*
X8650851Y5286074D01*
X8646582Y5307534D01*
X8634426Y5325727D01*
X8616234Y5337883D01*
X8594774Y5342152D01*
D02*
G37*
G36*
X14944250Y5050327D02*
X14922791Y5046058D01*
X14904597Y5033903D01*
X14892441Y5015710D01*
X14888173Y4994250D01*
X14892441Y4972790D01*
X14904597Y4954597D01*
X14922791Y4942441D01*
X14944250Y4938172D01*
X14965710Y4942441D01*
X14983904Y4954597D01*
X14996059Y4972790D01*
X15000327Y4994250D01*
X14996059Y5015710D01*
X14983904Y5033903D01*
X14965710Y5046058D01*
X14944250Y5050327D01*
D02*
G37*
G36*
X15750000Y5126949D02*
X15721284Y5123168D01*
X15694527Y5112085D01*
X15671547Y5094453D01*
X15653915Y5071474D01*
X15642831Y5044716D01*
X15639050Y5016000D01*
X15642831Y4987284D01*
X15653915Y4960525D01*
X15671547Y4937547D01*
X15694527Y4919915D01*
X15721284Y4908831D01*
X15750000Y4905051D01*
X15778716Y4908831D01*
X15805473Y4919915D01*
X15828453Y4937547D01*
X15846085Y4960525D01*
X15857169Y4987284D01*
X15860950Y5016000D01*
X15857169Y5044716D01*
X15846085Y5071474D01*
X15828453Y5094453D01*
X15805473Y5112085D01*
X15778716Y5123168D01*
X15750000Y5126949D01*
D02*
G37*
G36*
Y4872949D02*
X15721284Y4869168D01*
X15694527Y4858085D01*
X15671547Y4840453D01*
X15653915Y4817474D01*
X15642831Y4790716D01*
X15639050Y4762000D01*
X15642831Y4733284D01*
X15653915Y4706525D01*
X15671547Y4683547D01*
X15694527Y4665915D01*
X15721284Y4654831D01*
X15750000Y4651051D01*
X15778716Y4654831D01*
X15805473Y4665915D01*
X15828453Y4683547D01*
X15846085Y4706525D01*
X15857169Y4733284D01*
X15860950Y4762000D01*
X15857169Y4790716D01*
X15846085Y4817474D01*
X15828453Y4840453D01*
X15805473Y4858085D01*
X15778716Y4869168D01*
X15750000Y4872949D01*
D02*
G37*
G36*
X10900000Y4706077D02*
X10878540Y4701809D01*
X10860347Y4689653D01*
X10848191Y4671460D01*
X10843923Y4650000D01*
X10848191Y4628540D01*
X10860347Y4610347D01*
X10878540Y4598191D01*
X10900000Y4593923D01*
X10921460Y4598191D01*
X10939653Y4610347D01*
X10951809Y4628540D01*
X10956077Y4650000D01*
X10951809Y4671460D01*
X10939653Y4689653D01*
X10921460Y4701809D01*
X10900000Y4706077D01*
D02*
G37*
G36*
X10650000D02*
X10628540Y4701809D01*
X10610347Y4689653D01*
X10598191Y4671460D01*
X10593923Y4650000D01*
X10598191Y4628540D01*
X10610347Y4610347D01*
X10628540Y4598191D01*
X10650000Y4593923D01*
X10671460Y4598191D01*
X10689653Y4610347D01*
X10701809Y4628540D01*
X10706077Y4650000D01*
X10701809Y4671460D01*
X10689653Y4689653D01*
X10671460Y4701809D01*
X10650000Y4706077D01*
D02*
G37*
G36*
X8700000D02*
X8678540Y4701809D01*
X8660347Y4689653D01*
X8648191Y4671460D01*
X8643923Y4650000D01*
X8648191Y4628540D01*
X8660347Y4610347D01*
X8678540Y4598191D01*
X8700000Y4593923D01*
X8721460Y4598191D01*
X8732017Y4605245D01*
X8737942Y4602635D01*
X8744287Y4598169D01*
X8748191Y4578540D01*
X8760347Y4560347D01*
X8778540Y4548191D01*
X8800000Y4543923D01*
X8821460Y4548191D01*
X8839653Y4560347D01*
X8851809Y4578540D01*
X8856077Y4600000D01*
X8851809Y4621460D01*
X8839653Y4639653D01*
X8821460Y4651809D01*
X8800000Y4656077D01*
X8778540Y4651809D01*
X8767983Y4644755D01*
X8762058Y4647365D01*
X8755713Y4651831D01*
X8751809Y4671460D01*
X8739653Y4689653D01*
X8721460Y4701809D01*
X8700000Y4706077D01*
D02*
G37*
G36*
X15750000Y4618949D02*
X15721284Y4615168D01*
X15694527Y4604085D01*
X15671547Y4586453D01*
X15653915Y4563474D01*
X15642831Y4536716D01*
X15639050Y4508000D01*
X15642831Y4479284D01*
X15653915Y4452525D01*
X15671547Y4429547D01*
X15694527Y4411915D01*
X15721284Y4400831D01*
X15750000Y4397051D01*
X15778716Y4400831D01*
X15805473Y4411915D01*
X15828453Y4429547D01*
X15846085Y4452525D01*
X15857169Y4479284D01*
X15860950Y4508000D01*
X15857169Y4536716D01*
X15846085Y4563474D01*
X15828453Y4586453D01*
X15805473Y4604085D01*
X15778716Y4615168D01*
X15750000Y4618949D01*
D02*
G37*
G36*
X5005000Y4609999D02*
X4895000D01*
X4840000Y4555000D01*
Y4445000D01*
X4895000Y4390000D01*
X5005000D01*
X5060000Y4445000D01*
Y4555000D01*
X5005000Y4609999D01*
D02*
G37*
G36*
X14375000Y4381077D02*
X14353540Y4376809D01*
X14335347Y4364653D01*
X14323190Y4346460D01*
X14318922Y4325000D01*
X14323190Y4303540D01*
X14335347Y4285347D01*
X14353540Y4273191D01*
X14375000Y4268923D01*
X14396460Y4273191D01*
X14414653Y4285347D01*
X14426810Y4303540D01*
X14431078Y4325000D01*
X14426810Y4346460D01*
X14414653Y4364653D01*
X14396460Y4376809D01*
X14375000Y4381077D01*
D02*
G37*
G36*
X11000000Y4356077D02*
X10978540Y4351809D01*
X10960347Y4339653D01*
X10948191Y4321460D01*
X10943923Y4300000D01*
X10948191Y4278540D01*
X10960347Y4260347D01*
X10978540Y4248191D01*
X11000000Y4243923D01*
X11021460Y4248191D01*
X11039653Y4260347D01*
X11051809Y4278540D01*
X11056077Y4300000D01*
X11051809Y4321460D01*
X11039653Y4339653D01*
X11021460Y4351809D01*
X11000000Y4356077D01*
D02*
G37*
G36*
X9696282Y4312535D02*
X9674822Y4308266D01*
X9656630Y4296111D01*
X9644474Y4277918D01*
X9640205Y4256458D01*
X9644474Y4234998D01*
X9656630Y4216805D01*
X9674822Y4204649D01*
X9696282Y4200380D01*
X9717742Y4204649D01*
X9735935Y4216805D01*
X9748091Y4234998D01*
X9752360Y4256458D01*
X9748091Y4277918D01*
X9735935Y4296111D01*
X9717742Y4308266D01*
X9696282Y4312535D01*
D02*
G37*
G36*
X9850000Y4306077D02*
X9828540Y4301809D01*
X9810347Y4289653D01*
X9798191Y4271460D01*
X9793923Y4250000D01*
X9798191Y4228540D01*
X9810347Y4210347D01*
X9828540Y4198191D01*
X9850000Y4193923D01*
X9871460Y4198191D01*
X9889653Y4210347D01*
X9901809Y4228540D01*
X9906077Y4250000D01*
X9901809Y4271460D01*
X9889653Y4289653D01*
X9871460Y4301809D01*
X9850000Y4306077D01*
D02*
G37*
G36*
X5600000D02*
X5578540Y4301809D01*
X5560347Y4289653D01*
X5548191Y4271460D01*
X5543923Y4250000D01*
X5548191Y4228540D01*
X5560347Y4210347D01*
X5578540Y4198191D01*
X5600000Y4193923D01*
X5621460Y4198191D01*
X5639653Y4210347D01*
X5651809Y4228540D01*
X5656077Y4250000D01*
X5651809Y4271460D01*
X5639653Y4289653D01*
X5621460Y4301809D01*
X5600000Y4306077D01*
D02*
G37*
G36*
X5350000D02*
X5328540Y4301809D01*
X5310347Y4289653D01*
X5298191Y4271460D01*
X5293923Y4250000D01*
X5298191Y4228540D01*
X5310347Y4210347D01*
X5328540Y4198191D01*
X5350000Y4193923D01*
X5371460Y4198191D01*
X5389653Y4210347D01*
X5401809Y4228540D01*
X5406077Y4250000D01*
X5401809Y4271460D01*
X5389653Y4289653D01*
X5371460Y4301809D01*
X5350000Y4306077D01*
D02*
G37*
G36*
X15750000Y4364949D02*
X15721284Y4361168D01*
X15694527Y4350085D01*
X15671547Y4332453D01*
X15653915Y4309474D01*
X15642831Y4282716D01*
X15639050Y4254000D01*
X15642831Y4225284D01*
X15653915Y4198525D01*
X15671547Y4175547D01*
X15694527Y4157915D01*
X15721284Y4146831D01*
X15750000Y4143051D01*
X15778716Y4146831D01*
X15805473Y4157915D01*
X15828453Y4175547D01*
X15846085Y4198525D01*
X15857169Y4225284D01*
X15860950Y4254000D01*
X15857169Y4282716D01*
X15846085Y4309474D01*
X15828453Y4332453D01*
X15805473Y4350085D01*
X15778716Y4361168D01*
X15750000Y4364949D01*
D02*
G37*
G36*
X14825000Y4206077D02*
X14803540Y4201809D01*
X14785347Y4189653D01*
X14773190Y4171460D01*
X14768922Y4150000D01*
X14773190Y4128540D01*
X14785347Y4110347D01*
X14803540Y4098191D01*
X14825000Y4093923D01*
X14846460Y4098191D01*
X14864653Y4110347D01*
X14876810Y4128540D01*
X14881078Y4150000D01*
X14876810Y4171460D01*
X14864653Y4189653D01*
X14846460Y4201809D01*
X14825000Y4206077D01*
D02*
G37*
G36*
X9537579D02*
X9516119Y4201809D01*
X9497926Y4189653D01*
X9485770Y4171460D01*
X9481501Y4150000D01*
X9485770Y4128540D01*
X9497926Y4110347D01*
X9516119Y4098191D01*
X9537579Y4093923D01*
X9559039Y4098191D01*
X9577232Y4110347D01*
X9589387Y4128540D01*
X9593656Y4150000D01*
X9589387Y4171460D01*
X9577232Y4189653D01*
X9559039Y4201809D01*
X9537579Y4206077D01*
D02*
G37*
G36*
X500000Y4281122D02*
X466063Y4276654D01*
X434439Y4263555D01*
X407283Y4242717D01*
X386445Y4215561D01*
X373346Y4183937D01*
X368878Y4150000D01*
X373346Y4116063D01*
X386445Y4084439D01*
X407283Y4057283D01*
X434439Y4036445D01*
X466063Y4023346D01*
X500000Y4018878D01*
X533937Y4023346D01*
X565561Y4036445D01*
X592717Y4057283D01*
X613555Y4084439D01*
X626654Y4116063D01*
X631122Y4150000D01*
X626654Y4183937D01*
X613555Y4215561D01*
X592717Y4242717D01*
X565561Y4263555D01*
X533937Y4276654D01*
X500000Y4281122D01*
D02*
G37*
G36*
X8125000Y4106077D02*
X8103540Y4101809D01*
X8085347Y4089653D01*
X8073191Y4071460D01*
X8068923Y4050000D01*
X8073191Y4028540D01*
X8085347Y4010347D01*
X8103540Y3998191D01*
X8125000Y3993923D01*
X8146460Y3998191D01*
X8164653Y4010347D01*
X8176809Y4028540D01*
X8181077Y4050000D01*
X8176809Y4071460D01*
X8164653Y4089653D01*
X8146460Y4101809D01*
X8125000Y4106077D01*
D02*
G37*
G36*
X14275000Y4056077D02*
X14253540Y4051809D01*
X14235347Y4039653D01*
X14223190Y4021460D01*
X14218922Y4000000D01*
X14223190Y3978540D01*
X14235347Y3960347D01*
X14253540Y3948191D01*
X14275000Y3943923D01*
X14296460Y3948191D01*
X14314653Y3960347D01*
X14326810Y3978540D01*
X14331078Y4000000D01*
X14326810Y4021460D01*
X14314653Y4039653D01*
X14296460Y4051809D01*
X14275000Y4056077D01*
D02*
G37*
G36*
X8425000D02*
X8403540Y4051809D01*
X8385347Y4039653D01*
X8373191Y4021460D01*
X8368923Y4000000D01*
X8373191Y3978540D01*
X8385347Y3960347D01*
X8403540Y3948191D01*
X8425000Y3943923D01*
X8446460Y3948191D01*
X8464653Y3960347D01*
X8476809Y3978540D01*
X8481077Y4000000D01*
X8476809Y4021460D01*
X8464653Y4039653D01*
X8446460Y4051809D01*
X8425000Y4056077D01*
D02*
G37*
G36*
X5600000D02*
X5578540Y4051809D01*
X5560347Y4039653D01*
X5548191Y4021460D01*
X5543923Y4000000D01*
X5548191Y3978540D01*
X5560347Y3960347D01*
X5578540Y3948191D01*
X5600000Y3943923D01*
X5621460Y3948191D01*
X5639653Y3960347D01*
X5651809Y3978540D01*
X5656077Y4000000D01*
X5651809Y4021460D01*
X5639653Y4039653D01*
X5621460Y4051809D01*
X5600000Y4056077D01*
D02*
G37*
G36*
X5350000D02*
X5328540Y4051809D01*
X5310347Y4039653D01*
X5298191Y4021460D01*
X5293923Y4000000D01*
X5298191Y3978540D01*
X5310347Y3960347D01*
X5328540Y3948191D01*
X5350000Y3943923D01*
X5371460Y3948191D01*
X5389653Y3960347D01*
X5401809Y3978540D01*
X5406077Y4000000D01*
X5401809Y4021460D01*
X5389653Y4039653D01*
X5371460Y4051809D01*
X5350000Y4056077D01*
D02*
G37*
G36*
X15750000Y4110949D02*
X15721284Y4107168D01*
X15694527Y4096085D01*
X15671547Y4078453D01*
X15653915Y4055474D01*
X15642831Y4028716D01*
X15639050Y4000000D01*
X15642831Y3971284D01*
X15653915Y3944525D01*
X15671547Y3921547D01*
X15694527Y3903915D01*
X15721284Y3892831D01*
X15750000Y3889051D01*
X15778716Y3892831D01*
X15805473Y3903915D01*
X15828453Y3921547D01*
X15846085Y3944525D01*
X15857169Y3971284D01*
X15860950Y4000000D01*
X15857169Y4028716D01*
X15846085Y4055474D01*
X15828453Y4078453D01*
X15805473Y4096085D01*
X15778716Y4107168D01*
X15750000Y4110949D01*
D02*
G37*
G36*
X8575000Y3856077D02*
X8553540Y3851809D01*
X8535347Y3839653D01*
X8523191Y3821460D01*
X8518923Y3800000D01*
X8523191Y3778540D01*
X8535347Y3760347D01*
X8553540Y3748191D01*
X8575000Y3743923D01*
X8596460Y3748191D01*
X8614653Y3760347D01*
X8626809Y3778540D01*
X8631077Y3800000D01*
X8626809Y3821460D01*
X8614653Y3839653D01*
X8596460Y3851809D01*
X8575000Y3856077D01*
D02*
G37*
G36*
X14375000Y3781077D02*
X14353540Y3776809D01*
X14335347Y3764653D01*
X14323190Y3746460D01*
X14318922Y3725000D01*
X14323190Y3703540D01*
X14335347Y3685347D01*
X14353540Y3673191D01*
X14375000Y3668923D01*
X14396460Y3673191D01*
X14414653Y3685347D01*
X14426810Y3703540D01*
X14431078Y3725000D01*
X14426810Y3746460D01*
X14414653Y3764653D01*
X14396460Y3776809D01*
X14375000Y3781077D01*
D02*
G37*
G36*
X15750000Y3856949D02*
X15721284Y3853168D01*
X15694527Y3842085D01*
X15671547Y3824453D01*
X15653915Y3801474D01*
X15642831Y3774716D01*
X15639050Y3746000D01*
X15642831Y3717284D01*
X15653915Y3690525D01*
X15671547Y3667547D01*
X15694527Y3649915D01*
X15721284Y3638831D01*
X15750000Y3635051D01*
X15778716Y3638831D01*
X15805473Y3649915D01*
X15828453Y3667547D01*
X15846085Y3690525D01*
X15857169Y3717284D01*
X15860950Y3746000D01*
X15857169Y3774716D01*
X15846085Y3801474D01*
X15828453Y3824453D01*
X15805473Y3842085D01*
X15778716Y3853168D01*
X15750000Y3856949D01*
D02*
G37*
G36*
X14850000Y3606077D02*
X14828540Y3601809D01*
X14810347Y3589653D01*
X14798190Y3571460D01*
X14793922Y3550000D01*
X14798190Y3528540D01*
X14810347Y3510347D01*
X14828540Y3498191D01*
X14850000Y3493923D01*
X14871460Y3498191D01*
X14889653Y3510347D01*
X14901810Y3528540D01*
X14906078Y3550000D01*
X14901810Y3571460D01*
X14889653Y3589653D01*
X14871460Y3601809D01*
X14850000Y3606077D01*
D02*
G37*
G36*
X9850000Y3556077D02*
X9828540Y3551809D01*
X9810347Y3539653D01*
X9798191Y3521460D01*
X9793923Y3500000D01*
X9798191Y3478540D01*
X9810347Y3460347D01*
X9828540Y3448191D01*
X9850000Y3443923D01*
X9871460Y3448191D01*
X9889653Y3460347D01*
X9901809Y3478540D01*
X9906077Y3500000D01*
X9901809Y3521460D01*
X9889653Y3539653D01*
X9871460Y3551809D01*
X9850000Y3556077D01*
D02*
G37*
G36*
X15750000Y3602949D02*
X15721284Y3599168D01*
X15694527Y3588085D01*
X15671547Y3570453D01*
X15653915Y3547474D01*
X15642831Y3520716D01*
X15639050Y3492000D01*
X15642831Y3463284D01*
X15653915Y3436525D01*
X15671547Y3413547D01*
X15694527Y3395915D01*
X15721284Y3384831D01*
X15750000Y3381051D01*
X15778716Y3384831D01*
X15805473Y3395915D01*
X15828453Y3413547D01*
X15846085Y3436525D01*
X15857169Y3463284D01*
X15860950Y3492000D01*
X15857169Y3520716D01*
X15846085Y3547474D01*
X15828453Y3570453D01*
X15805473Y3588085D01*
X15778716Y3599168D01*
X15750000Y3602949D01*
D02*
G37*
G36*
X7224913Y3373417D02*
X7203453Y3369148D01*
X7185260Y3356993D01*
X7173105Y3338800D01*
X7168836Y3317340D01*
X7173105Y3295880D01*
X7185260Y3277687D01*
X7203453Y3265531D01*
X7224913Y3261262D01*
X7246373Y3265531D01*
X7264566Y3277687D01*
X7276722Y3295880D01*
X7280991Y3317340D01*
X7276722Y3338800D01*
X7264566Y3356993D01*
X7246373Y3369148D01*
X7224913Y3373417D01*
D02*
G37*
G36*
X8866338Y3239581D02*
X8844878Y3235312D01*
X8826686Y3223156D01*
X8814530Y3204964D01*
X8810261Y3183504D01*
X8814530Y3162044D01*
X8826686Y3143851D01*
X8844878Y3131695D01*
X8866338Y3127426D01*
X8887798Y3131695D01*
X8905991Y3143851D01*
X8918147Y3162044D01*
X8922416Y3183504D01*
X8918147Y3204964D01*
X8905991Y3223156D01*
X8887798Y3235312D01*
X8866338Y3239581D01*
D02*
G37*
G36*
X15750000Y3348949D02*
X15721284Y3345168D01*
X15694527Y3334085D01*
X15671547Y3316453D01*
X15653915Y3293474D01*
X15642831Y3266716D01*
X15639050Y3238000D01*
X15642831Y3209284D01*
X15653915Y3182525D01*
X15671547Y3159547D01*
X15694527Y3141915D01*
X15721284Y3130831D01*
X15750000Y3127051D01*
X15778716Y3130831D01*
X15805473Y3141915D01*
X15828453Y3159547D01*
X15846085Y3182525D01*
X15857169Y3209284D01*
X15860950Y3238000D01*
X15857169Y3266716D01*
X15846085Y3293474D01*
X15828453Y3316453D01*
X15805473Y3334085D01*
X15778716Y3345168D01*
X15750000Y3348949D01*
D02*
G37*
G36*
X14900000Y3056077D02*
X14878540Y3051809D01*
X14860347Y3039653D01*
X14848190Y3021460D01*
X14843922Y3000000D01*
X14848190Y2978540D01*
X14860347Y2960347D01*
X14878540Y2948191D01*
X14900000Y2943923D01*
X14921460Y2948191D01*
X14939653Y2960347D01*
X14951810Y2978540D01*
X14956078Y3000000D01*
X14951810Y3021460D01*
X14939653Y3039653D01*
X14921460Y3051809D01*
X14900000Y3056077D01*
D02*
G37*
G36*
X15750000Y3094949D02*
X15721284Y3091168D01*
X15694527Y3080085D01*
X15671547Y3062453D01*
X15653915Y3039474D01*
X15642831Y3012716D01*
X15639050Y2984000D01*
X15642831Y2955284D01*
X15653915Y2928525D01*
X15671547Y2905547D01*
X15694527Y2887915D01*
X15721284Y2876831D01*
X15750000Y2873051D01*
X15778716Y2876831D01*
X15805473Y2887915D01*
X15828453Y2905547D01*
X15846085Y2928525D01*
X15857169Y2955284D01*
X15860950Y2984000D01*
X15857169Y3012716D01*
X15846085Y3039474D01*
X15828453Y3062453D01*
X15805473Y3080085D01*
X15778716Y3091168D01*
X15750000Y3094949D01*
D02*
G37*
G36*
X9650000Y2856077D02*
X9628540Y2851809D01*
X9610347Y2839653D01*
X9598191Y2821460D01*
X9593923Y2800000D01*
X9598191Y2778540D01*
X9610347Y2760347D01*
X9628540Y2748191D01*
X9650000Y2743923D01*
X9671460Y2748191D01*
X9689653Y2760347D01*
X9701809Y2778540D01*
X9706077Y2800000D01*
X9701809Y2821460D01*
X9689653Y2839653D01*
X9671460Y2851809D01*
X9650000Y2856077D01*
D02*
G37*
G36*
X10475000Y2806077D02*
X10453540Y2801809D01*
X10435347Y2789653D01*
X10423191Y2771460D01*
X10418923Y2750000D01*
X10423191Y2728540D01*
X10435347Y2710347D01*
X10453540Y2698191D01*
X10475000Y2693923D01*
X10496460Y2698191D01*
X10514653Y2710347D01*
X10526809Y2728540D01*
X10531077Y2750000D01*
X10526809Y2771460D01*
X10514653Y2789653D01*
X10496460Y2801809D01*
X10475000Y2806077D01*
D02*
G37*
G36*
X15805000Y2840000D02*
X15695000D01*
X15639999Y2785000D01*
Y2675000D01*
X15695000Y2620000D01*
X15805000D01*
X15860001Y2675000D01*
Y2785000D01*
X15805000Y2840000D01*
D02*
G37*
G36*
X15496001Y2840949D02*
X15467284Y2837168D01*
X15440526Y2826085D01*
X15417548Y2808453D01*
X15399915Y2785474D01*
X15388832Y2758716D01*
X15385051Y2730000D01*
X15388832Y2701284D01*
X15399915Y2674525D01*
X15417548Y2651547D01*
X15440526Y2633915D01*
X15467284Y2622831D01*
X15496001Y2619051D01*
X15524716Y2622831D01*
X15551474Y2633915D01*
X15574454Y2651547D01*
X15592085Y2674525D01*
X15603168Y2701284D01*
X15606949Y2730000D01*
X15603168Y2758716D01*
X15592085Y2785474D01*
X15574454Y2808453D01*
X15551474Y2826085D01*
X15524716Y2837168D01*
X15496001Y2840949D01*
D02*
G37*
G36*
X2500000Y2760949D02*
X2471284Y2757168D01*
X2444525Y2746085D01*
X2421547Y2728453D01*
X2403915Y2705474D01*
X2392831Y2678716D01*
X2389051Y2650000D01*
X2392831Y2621284D01*
X2403915Y2594526D01*
X2421547Y2571547D01*
X2444525Y2553915D01*
X2471284Y2542832D01*
X2500000Y2539051D01*
X2528716Y2542832D01*
X2555474Y2553915D01*
X2578453Y2571547D01*
X2596084Y2594526D01*
X2607168Y2621284D01*
X2610949Y2650000D01*
X2607168Y2678716D01*
X2596084Y2705474D01*
X2578453Y2728453D01*
X2555474Y2746085D01*
X2528716Y2757168D01*
X2500000Y2760949D01*
D02*
G37*
G36*
X14600000Y2481077D02*
X14578540Y2476809D01*
X14560347Y2464653D01*
X14548190Y2446460D01*
X14543922Y2425000D01*
X14548190Y2403540D01*
X14560347Y2385347D01*
X14578540Y2373191D01*
X14600000Y2368923D01*
X14621460Y2373191D01*
X14639653Y2385347D01*
X14651810Y2403540D01*
X14656078Y2425000D01*
X14651810Y2446460D01*
X14639653Y2464653D01*
X14621460Y2476809D01*
X14600000Y2481077D01*
D02*
G37*
G36*
X10750000Y1756077D02*
X10728540Y1751809D01*
X10710347Y1739653D01*
X10698191Y1721460D01*
X10693923Y1700000D01*
X10698191Y1678540D01*
X10710347Y1660347D01*
X10728540Y1648191D01*
X10750000Y1643923D01*
X10771460Y1648191D01*
X10789653Y1660347D01*
X10801809Y1678540D01*
X10806077Y1700000D01*
X10801809Y1721460D01*
X10789653Y1739653D01*
X10771460Y1751809D01*
X10750000Y1756077D01*
D02*
G37*
G36*
X13500000Y1556077D02*
X13478540Y1551809D01*
X13460347Y1539653D01*
X13448190Y1521460D01*
X13443922Y1500000D01*
X13448190Y1478540D01*
X13460347Y1460347D01*
X13478540Y1448191D01*
X13500000Y1443923D01*
X13521460Y1448191D01*
X13539653Y1460347D01*
X13551810Y1478540D01*
X13556078Y1500000D01*
X13551810Y1521460D01*
X13539653Y1539653D01*
X13521460Y1551809D01*
X13500000Y1556077D01*
D02*
G37*
G36*
X12450000D02*
X12428540Y1551809D01*
X12410347Y1539653D01*
X12398191Y1521460D01*
X12393923Y1500000D01*
X12398191Y1478540D01*
X12410347Y1460347D01*
X12428540Y1448191D01*
X12450000Y1443923D01*
X12471460Y1448191D01*
X12489653Y1460347D01*
X12501809Y1478540D01*
X12506077Y1500000D01*
X12501809Y1521460D01*
X12489653Y1539653D01*
X12471460Y1551809D01*
X12450000Y1556077D01*
D02*
G37*
G36*
X5055000Y1160000D02*
X4945000D01*
X4890000Y1105000D01*
Y995000D01*
X4945000Y940000D01*
X5055000D01*
X5110000Y995000D01*
Y1105000D01*
X5055000Y1160000D01*
D02*
G37*
G36*
X14192000Y1152122D02*
X14158063Y1147654D01*
X14126439Y1134555D01*
X14099283Y1113717D01*
X14078445Y1086561D01*
X14065346Y1054937D01*
X14060878Y1021000D01*
X14065346Y987063D01*
X14078445Y955439D01*
X14099283Y928283D01*
X14126439Y907445D01*
X14158063Y894346D01*
X14192000Y889878D01*
X14225937Y894346D01*
X14257561Y907445D01*
X14284717Y928283D01*
X14305556Y955439D01*
X14318654Y987063D01*
X14323122Y1021000D01*
X14318654Y1054937D01*
X14305556Y1086561D01*
X14284717Y1113717D01*
X14257561Y1134555D01*
X14225937Y1147654D01*
X14192000Y1152122D01*
D02*
G37*
G36*
X13684000D02*
X13650063Y1147654D01*
X13618439Y1134555D01*
X13591283Y1113717D01*
X13570445Y1086561D01*
X13557346Y1054937D01*
X13552878Y1021000D01*
X13557346Y987063D01*
X13570445Y955439D01*
X13591283Y928283D01*
X13618439Y907445D01*
X13650063Y894346D01*
X13684000Y889878D01*
X13717937Y894346D01*
X13749561Y907445D01*
X13776717Y928283D01*
X13797556Y955439D01*
X13810654Y987063D01*
X13815121Y1021000D01*
X13810654Y1054937D01*
X13797556Y1086561D01*
X13776717Y1113717D01*
X13749561Y1134555D01*
X13717937Y1147654D01*
X13684000Y1152122D01*
D02*
G37*
G36*
X12192000D02*
X12158063Y1147654D01*
X12126439Y1134555D01*
X12099283Y1113717D01*
X12078445Y1086561D01*
X12065346Y1054937D01*
X12060878Y1021000D01*
X12065346Y987063D01*
X12078445Y955439D01*
X12099283Y928283D01*
X12126439Y907445D01*
X12158063Y894346D01*
X12192000Y889878D01*
X12225937Y894346D01*
X12257561Y907445D01*
X12284717Y928283D01*
X12305555Y955439D01*
X12318654Y987063D01*
X12323122Y1021000D01*
X12318654Y1054937D01*
X12305555Y1086561D01*
X12284717Y1113717D01*
X12257561Y1134555D01*
X12225937Y1147654D01*
X12192000Y1152122D01*
D02*
G37*
G36*
X11684000D02*
X11650063Y1147654D01*
X11618439Y1134555D01*
X11591283Y1113717D01*
X11570445Y1086561D01*
X11557346Y1054937D01*
X11552878Y1021000D01*
X11557346Y987063D01*
X11570445Y955439D01*
X11591283Y928283D01*
X11618439Y907445D01*
X11650063Y894346D01*
X11684000Y889878D01*
X11717937Y894346D01*
X11749561Y907445D01*
X11776717Y928283D01*
X11797555Y955439D01*
X11810654Y987063D01*
X11815122Y1021000D01*
X11810654Y1054937D01*
X11797555Y1086561D01*
X11776717Y1113717D01*
X11749561Y1134555D01*
X11717937Y1147654D01*
X11684000Y1152122D01*
D02*
G37*
G36*
X5750000Y956077D02*
X5728540Y951809D01*
X5710347Y939653D01*
X5698191Y921460D01*
X5693923Y900000D01*
X5698191Y878540D01*
X5710347Y860347D01*
X5728540Y848191D01*
X5750000Y843923D01*
X5771460Y848191D01*
X5789653Y860347D01*
X5801809Y878540D01*
X5806077Y900000D01*
X5801809Y921460D01*
X5789653Y939653D01*
X5771460Y951809D01*
X5750000Y956077D01*
D02*
G37*
G36*
X5500000D02*
X5478540Y951809D01*
X5460347Y939653D01*
X5448191Y921460D01*
X5443923Y900000D01*
X5448191Y878540D01*
X5460347Y860347D01*
X5478540Y848191D01*
X5500000Y843923D01*
X5521460Y848191D01*
X5539653Y860347D01*
X5551809Y878540D01*
X5556077Y900000D01*
X5551809Y921460D01*
X5539653Y939653D01*
X5521460Y951809D01*
X5500000Y956077D01*
D02*
G37*
G36*
X5750000Y706077D02*
X5728540Y701809D01*
X5710347Y689653D01*
X5698191Y671460D01*
X5693923Y650000D01*
X5698191Y628540D01*
X5710347Y610347D01*
X5728540Y598191D01*
X5750000Y593923D01*
X5771460Y598191D01*
X5789653Y610347D01*
X5801809Y628540D01*
X5806077Y650000D01*
X5801809Y671460D01*
X5789653Y689653D01*
X5771460Y701809D01*
X5750000Y706077D01*
D02*
G37*
G36*
X5500000D02*
X5478540Y701809D01*
X5460347Y689653D01*
X5448191Y671460D01*
X5443923Y650000D01*
X5448191Y628540D01*
X5460347Y610347D01*
X5478540Y598191D01*
X5500000Y593923D01*
X5521460Y598191D01*
X5539653Y610347D01*
X5551809Y628540D01*
X5556077Y650000D01*
X5551809Y671460D01*
X5539653Y689653D01*
X5521460Y701809D01*
X5500000Y706077D01*
D02*
G37*
G36*
X7250000Y675604D02*
X7231726Y673198D01*
X7214698Y666144D01*
X7200076Y654924D01*
X7188855Y640302D01*
X7181802Y623273D01*
X7179396Y605000D01*
X7181802Y586726D01*
X7188855Y569698D01*
X7200076Y555075D01*
X7214698Y543855D01*
X7231726Y536802D01*
X7250000Y534396D01*
X7268273Y536802D01*
X7285302Y543855D01*
X7299924Y555075D01*
X7311145Y569698D01*
X7318198Y586726D01*
X7320604Y605000D01*
X7318198Y623273D01*
X7311145Y640302D01*
X7299924Y654924D01*
X7285302Y666144D01*
X7268273Y673198D01*
X7250000Y675604D01*
D02*
G37*
G36*
X6810000D02*
X6791726Y673198D01*
X6774698Y666144D01*
X6760075Y654924D01*
X6748855Y640302D01*
X6741802Y623273D01*
X6739396Y605000D01*
X6741802Y586726D01*
X6748855Y569698D01*
X6760075Y555075D01*
X6774698Y543855D01*
X6791726Y536802D01*
X6810000Y534396D01*
X6828273Y536802D01*
X6845302Y543855D01*
X6859924Y555075D01*
X6871144Y569698D01*
X6878198Y586726D01*
X6880604Y605000D01*
X6878198Y623273D01*
X6871144Y640302D01*
X6859924Y654924D01*
X6845302Y666144D01*
X6828273Y673198D01*
X6810000Y675604D01*
D02*
G37*
G36*
X10209000Y697000D02*
X10099000D01*
X10044000Y642000D01*
Y532000D01*
X10099000Y477000D01*
X10209000D01*
X10264000Y532000D01*
Y642000D01*
X10209000Y697000D01*
D02*
G37*
G36*
X9900000Y697949D02*
X9871284Y694169D01*
X9844525Y683085D01*
X9821547Y665453D01*
X9803915Y642475D01*
X9792832Y615716D01*
X9789051Y587000D01*
X9792832Y558284D01*
X9803915Y531525D01*
X9821547Y508547D01*
X9844525Y490915D01*
X9871284Y479832D01*
X9900000Y476051D01*
X9928716Y479832D01*
X9955475Y490915D01*
X9978453Y508547D01*
X9996085Y531525D01*
X10007168Y558284D01*
X10010949Y587000D01*
X10007168Y615716D01*
X9996085Y642475D01*
X9978453Y665453D01*
X9955475Y683085D01*
X9928716Y694169D01*
X9900000Y697949D01*
D02*
G37*
G36*
X9646000D02*
X9617284Y694169D01*
X9590525Y683085D01*
X9567547Y665453D01*
X9549915Y642475D01*
X9538832Y615716D01*
X9535051Y587000D01*
X9538832Y558284D01*
X9549915Y531525D01*
X9567547Y508547D01*
X9590525Y490915D01*
X9617284Y479832D01*
X9646000Y476051D01*
X9674716Y479832D01*
X9701475Y490915D01*
X9724453Y508547D01*
X9742085Y531525D01*
X9753168Y558284D01*
X9756949Y587000D01*
X9753168Y615716D01*
X9742085Y642475D01*
X9724453Y665453D01*
X9701475Y683085D01*
X9674716Y694169D01*
X9646000Y697949D01*
D02*
G37*
G36*
X9392000D02*
X9363284Y694169D01*
X9336525Y683085D01*
X9313547Y665453D01*
X9295915Y642475D01*
X9284832Y615716D01*
X9281051Y587000D01*
X9284832Y558284D01*
X9295915Y531525D01*
X9313547Y508547D01*
X9336525Y490915D01*
X9363284Y479832D01*
X9392000Y476051D01*
X9420716Y479832D01*
X9447475Y490915D01*
X9470453Y508547D01*
X9488085Y531525D01*
X9499168Y558284D01*
X9502949Y587000D01*
X9499168Y615716D01*
X9488085Y642475D01*
X9470453Y665453D01*
X9447475Y683085D01*
X9420716Y694169D01*
X9392000Y697949D01*
D02*
G37*
G36*
X9138000D02*
X9109284Y694169D01*
X9082525Y683085D01*
X9059547Y665453D01*
X9041915Y642475D01*
X9030832Y615716D01*
X9027051Y587000D01*
X9030832Y558284D01*
X9041915Y531525D01*
X9059547Y508547D01*
X9082525Y490915D01*
X9109284Y479832D01*
X9138000Y476051D01*
X9166716Y479832D01*
X9193475Y490915D01*
X9216453Y508547D01*
X9234085Y531525D01*
X9245168Y558284D01*
X9248949Y587000D01*
X9245168Y615716D01*
X9234085Y642475D01*
X9216453Y665453D01*
X9193475Y683085D01*
X9166716Y694169D01*
X9138000Y697949D01*
D02*
G37*
G36*
X8884000D02*
X8855284Y694169D01*
X8828525Y683085D01*
X8805547Y665453D01*
X8787915Y642475D01*
X8776832Y615716D01*
X8773051Y587000D01*
X8776832Y558284D01*
X8787915Y531525D01*
X8805547Y508547D01*
X8828525Y490915D01*
X8855284Y479832D01*
X8884000Y476051D01*
X8912716Y479832D01*
X8939475Y490915D01*
X8962453Y508547D01*
X8980085Y531525D01*
X8991168Y558284D01*
X8994949Y587000D01*
X8991168Y615716D01*
X8980085Y642475D01*
X8962453Y665453D01*
X8939475Y683085D01*
X8912716Y694169D01*
X8884000Y697949D01*
D02*
G37*
G36*
X8630000D02*
X8601284Y694169D01*
X8574525Y683085D01*
X8551547Y665453D01*
X8533915Y642475D01*
X8522832Y615716D01*
X8519051Y587000D01*
X8522832Y558284D01*
X8533915Y531525D01*
X8551547Y508547D01*
X8574525Y490915D01*
X8601284Y479832D01*
X8630000Y476051D01*
X8658716Y479832D01*
X8685475Y490915D01*
X8708453Y508547D01*
X8726085Y531525D01*
X8737168Y558284D01*
X8740949Y587000D01*
X8737168Y615716D01*
X8726085Y642475D01*
X8708453Y665453D01*
X8685475Y683085D01*
X8658716Y694169D01*
X8630000Y697949D01*
D02*
G37*
G36*
X8376000D02*
X8347284Y694169D01*
X8320525Y683085D01*
X8297547Y665453D01*
X8279915Y642475D01*
X8268832Y615716D01*
X8265051Y587000D01*
X8268832Y558284D01*
X8279915Y531525D01*
X8297547Y508547D01*
X8320525Y490915D01*
X8347284Y479832D01*
X8376000Y476051D01*
X8404716Y479832D01*
X8431475Y490915D01*
X8454453Y508547D01*
X8472085Y531525D01*
X8483168Y558284D01*
X8486949Y587000D01*
X8483168Y615716D01*
X8472085Y642475D01*
X8454453Y665453D01*
X8431475Y683085D01*
X8404716Y694169D01*
X8376000Y697949D01*
D02*
G37*
%LPD*%
D37*
X10250000Y10250000D02*
D03*
Y7750000D02*
D03*
Y9250000D02*
D03*
Y9750000D02*
D03*
X11000000D02*
D03*
Y7750000D02*
D03*
Y10250000D02*
D03*
Y9250000D02*
D03*
X2250000D02*
D03*
Y10250000D02*
D03*
Y7750000D02*
D03*
Y9750000D02*
D03*
X1500000D02*
D03*
Y9250000D02*
D03*
Y7750000D02*
D03*
Y10250000D02*
D03*
X4000000Y9250000D02*
D03*
Y10250000D02*
D03*
Y7750000D02*
D03*
Y9750000D02*
D03*
X3250000D02*
D03*
Y9250000D02*
D03*
Y7750000D02*
D03*
Y10250000D02*
D03*
X5750000Y9250000D02*
D03*
Y10250000D02*
D03*
Y7750000D02*
D03*
Y9750000D02*
D03*
X5000000D02*
D03*
Y9250000D02*
D03*
Y7750000D02*
D03*
Y10250000D02*
D03*
X7500000Y9250000D02*
D03*
Y10250000D02*
D03*
Y7750000D02*
D03*
Y9750000D02*
D03*
X6750000D02*
D03*
Y9250000D02*
D03*
Y7750000D02*
D03*
Y10250000D02*
D03*
X9250000Y9250000D02*
D03*
Y10250000D02*
D03*
Y7750000D02*
D03*
Y9750000D02*
D03*
X8500000D02*
D03*
Y9250000D02*
D03*
Y7750000D02*
D03*
Y10250000D02*
D03*
D38*
X14614627Y11143581D02*
D03*
X15122627D02*
D03*
X14868626D02*
D03*
X14614627Y11397581D02*
D03*
X14868626D02*
D03*
X15630627Y11143581D02*
D03*
X15376627Y11397581D02*
D03*
Y11143581D02*
D03*
X15122627Y11397581D02*
D03*
X12352919Y11143581D02*
D03*
X12860919D02*
D03*
X12606919D02*
D03*
X12352919Y11397581D02*
D03*
X12606919D02*
D03*
X13368919Y11143581D02*
D03*
X13114919Y11397581D02*
D03*
Y11143581D02*
D03*
X12860919Y11397581D02*
D03*
X15496001Y3492000D02*
D03*
X15750000D02*
D03*
X15496001Y3238000D02*
D03*
X15750000D02*
D03*
X15496001Y2984000D02*
D03*
X15750000D02*
D03*
X15496001Y2730000D02*
D03*
X15750000Y3746000D02*
D03*
X15496001D02*
D03*
X15750000Y4000000D02*
D03*
X15496001D02*
D03*
X15750000Y4254000D02*
D03*
X15496001D02*
D03*
X15750000Y4508000D02*
D03*
X15496001D02*
D03*
Y4762000D02*
D03*
X15750000D02*
D03*
Y5016000D02*
D03*
X15496001D02*
D03*
X2500000Y5350000D02*
D03*
X8376000Y333000D02*
D03*
Y587000D02*
D03*
X8630000Y333000D02*
D03*
Y587000D02*
D03*
X8884000Y333000D02*
D03*
Y587000D02*
D03*
X9138000Y333000D02*
D03*
Y587000D02*
D03*
X10154000Y333000D02*
D03*
X9900000Y587000D02*
D03*
Y333000D02*
D03*
X9646000Y587000D02*
D03*
Y333000D02*
D03*
X9392000Y587000D02*
D03*
Y333000D02*
D03*
X5000000Y1550000D02*
D03*
X2500000Y2650000D02*
D03*
X4950000Y5000000D02*
D03*
D39*
X15630627Y11397581D02*
D03*
X13368919D02*
D03*
X10154000Y587000D02*
D03*
D40*
X15750000Y2730000D02*
D03*
X2500000Y5850000D02*
D03*
X5000000Y1050000D02*
D03*
X2500000Y2150000D02*
D03*
X4950000Y4500000D02*
D03*
D41*
X10233999Y11000000D02*
D03*
X10741999D02*
D03*
X11249999D02*
D03*
X8491999D02*
D03*
X8999999D02*
D03*
X9507999D02*
D03*
X6749999D02*
D03*
X7257999D02*
D03*
X7765999D02*
D03*
X4983999D02*
D03*
X5491999D02*
D03*
X5999999D02*
D03*
X3242000D02*
D03*
X3750000D02*
D03*
X4258000D02*
D03*
X1492000D02*
D03*
X2000000D02*
D03*
X2508000D02*
D03*
X14700000Y1021000D02*
D03*
X14192000D02*
D03*
X13684000D02*
D03*
X12700000D02*
D03*
X12192000D02*
D03*
X11684000D02*
D03*
X500000Y4150000D02*
D03*
Y3800000D02*
D03*
D42*
Y11250000D02*
D03*
X750000Y750000D02*
D03*
X15750000D02*
D03*
X15900000Y6600000D02*
D03*
D43*
X14500000Y7700000D02*
D03*
X12050000Y7650000D02*
D03*
X11250000Y2000000D02*
D03*
X10750000Y1700000D02*
D03*
X12850000Y1650000D02*
D03*
X11850000Y1750000D02*
D03*
X11450000D02*
D03*
X12350000Y2950000D02*
D03*
Y2750000D02*
D03*
X12850000D02*
D03*
Y2900000D02*
D03*
X13500000Y1500000D02*
D03*
X12450000D02*
D03*
X12900000Y7450000D02*
D03*
X15900000Y9800000D02*
D03*
X16300000Y10300000D02*
D03*
X14600000Y10600000D02*
D03*
Y10750000D02*
D03*
X12150000Y11200000D02*
D03*
Y10900000D02*
D03*
Y11050000D02*
D03*
X14600000Y10900000D02*
D03*
X14150000Y11350000D02*
D03*
X11550000Y11650000D02*
D03*
X14500000Y9400000D02*
D03*
X14800000Y9600000D02*
D03*
X13750000Y10050000D02*
D03*
X13300000Y9900000D02*
D03*
X13400000Y8800000D02*
D03*
X12300000Y9700000D02*
D03*
X15150000Y11700000D02*
D03*
X14950000Y11850000D02*
D03*
X12842686Y11600000D02*
D03*
X12692728Y11800000D02*
D03*
X11900000Y9900000D02*
D03*
X12100000D02*
D03*
X14500000Y10400000D02*
D03*
X14200000Y10500000D02*
D03*
X15140472Y9688502D02*
D03*
X14500000Y9900000D02*
D03*
X12600000Y9800000D02*
D03*
X14900000Y7700000D02*
D03*
X14745963Y7454038D02*
D03*
X14800000Y7000000D02*
D03*
X12270985Y7505896D02*
D03*
X12400000Y7700000D02*
D03*
X12600000Y7500000D02*
D03*
X14700000Y9900000D02*
D03*
X15700000D02*
D03*
X15600000Y9400000D02*
D03*
X14500000Y8400000D02*
D03*
X12100000Y10500000D02*
D03*
X11900000D02*
D03*
X16200000Y8400000D02*
D03*
Y9100000D02*
D03*
X14100000Y9000000D02*
D03*
Y8700000D02*
D03*
X15651234Y8905474D02*
D03*
X13700000Y8500000D02*
D03*
X15400000Y7400000D02*
D03*
X12000000Y9000000D02*
D03*
X13400000Y7700000D02*
D03*
X12500000Y8200000D02*
D03*
X15900000Y7700000D02*
D03*
X15000000Y7800000D02*
D03*
X13200000Y8800000D02*
D03*
X8627549Y5529301D02*
D03*
X8594774Y5286074D02*
D03*
X8467123Y5482726D02*
D03*
X8487823Y5625901D02*
D03*
X8461948Y5779427D02*
D03*
X8150000Y5600000D02*
D03*
X8550000Y7100000D02*
D03*
X8050000Y6400000D02*
D03*
X7800000Y6750000D02*
D03*
X8500000Y6350000D02*
D03*
X9100000Y6850000D02*
D03*
X8700000Y4650000D02*
D03*
X7850000Y6050000D02*
D03*
X9050000Y4500000D02*
D03*
X8936861Y3324261D02*
D03*
X8800000Y3650000D02*
D03*
X9050000Y4850000D02*
D03*
Y4100000D02*
D03*
X7941390Y3806787D02*
D03*
X4000000Y6100000D02*
D03*
X3700000D02*
D03*
X3400000D02*
D03*
Y6300000D02*
D03*
X3700000D02*
D03*
X4000000D02*
D03*
Y6500000D02*
D03*
X3700000D02*
D03*
X3400000D02*
D03*
X3500000Y2700000D02*
D03*
Y2900000D02*
D03*
X3700000Y2700000D02*
D03*
X3900000D02*
D03*
Y3300000D02*
D03*
X3700000D02*
D03*
X3500000D02*
D03*
X3700000Y2900000D02*
D03*
X3900000D02*
D03*
Y3100000D02*
D03*
X3700000D02*
D03*
X3500000D02*
D03*
X9350000Y7100000D02*
D03*
X9200000Y5800000D02*
D03*
X14900000Y3000000D02*
D03*
X6300000Y1750000D02*
D03*
X14600000Y2425000D02*
D03*
X14375000Y3725000D02*
D03*
X14275000Y4000000D02*
D03*
X14825000Y4150000D02*
D03*
X14944250Y4994250D02*
D03*
X14375000Y4325000D02*
D03*
X12700000Y5625000D02*
D03*
X12100000D02*
D03*
X7004000Y6846000D02*
D03*
X7950000Y8125000D02*
D03*
Y8350000D02*
D03*
X9650000Y2800000D02*
D03*
X9850000Y3500000D02*
D03*
X8866338Y3183504D02*
D03*
X9600000Y3200000D02*
D03*
X8575000Y3800000D02*
D03*
X8425000Y4000000D02*
D03*
X8125000Y4050000D02*
D03*
X13200000Y1950000D02*
D03*
X10950000Y2000000D02*
D03*
X14850000Y3550000D02*
D03*
X10475000Y2750000D02*
D03*
X10450000Y5950000D02*
D03*
Y6200000D02*
D03*
X9850000Y6350000D02*
D03*
X9550000Y5500000D02*
D03*
X8800000Y4600000D02*
D03*
X10450000Y300000D02*
D03*
X8100000D02*
D03*
X14700000Y800000D02*
D03*
X12700000D02*
D03*
X14800000Y4700000D02*
D03*
X11000000Y4300000D02*
D03*
X5600000Y4000000D02*
D03*
X5350000D02*
D03*
X5600000Y4250000D02*
D03*
X5350000D02*
D03*
X8750000Y7100000D02*
D03*
X14850000Y5300000D02*
D03*
X9850000Y4250000D02*
D03*
X10650000Y4650000D02*
D03*
X10900000D02*
D03*
X7450000Y5500000D02*
D03*
X9800000Y5200000D02*
D03*
X10100000D02*
D03*
X10400000D02*
D03*
X10550000Y3700000D02*
D03*
X10350000D02*
D03*
X7525000Y3300000D02*
D03*
X7200000Y1225000D02*
D03*
X13550000Y5650000D02*
D03*
X11300000D02*
D03*
X9350000Y6000000D02*
D03*
X7000000Y5350000D02*
D03*
X7224913Y3317340D02*
D03*
X9696282Y4256458D02*
D03*
X9537579Y4150000D02*
D03*
X5500000Y650000D02*
D03*
X5750000D02*
D03*
Y900000D02*
D03*
X5500000D02*
D03*
X5750000Y1650000D02*
D03*
X4050000Y4900000D02*
D03*
X3700000D02*
D03*
Y1650000D02*
D03*
X4050000D02*
D03*
X5300000Y1950000D02*
D03*
X5000000D02*
D03*
X4650000D02*
D03*
X5300000Y5400000D02*
D03*
X4650000D02*
D03*
X4950000D02*
D03*
X2800000Y5000000D02*
D03*
X2200000D02*
D03*
X2550000Y1750000D02*
D03*
X2200000D02*
D03*
%TF.MD5,65abdaf8fd67c177e2e4be5009108c1c*%
M02*
