%TF.GenerationSoftware,Altium Limited,Altium Designer,22.4.2 (48)*%
G04 Layer_Physical_Order=4*
G04 Layer_Color=16711680*
%FSLAX45Y45*%
%MOMM*%
%TF.SameCoordinates,A0FECCF5-906F-4CEA-98AF-48209DEEDFB4*%
%TF.FilePolarity,Positive*%
%TF.FileFunction,Copper,L4,Bot,Signal*%
%TF.Part,Single*%
G01*
G75*
%TA.AperFunction,SMDPad,CuDef*%
%ADD16R,1.60000X1.00000*%
%TA.AperFunction,Conductor*%
%ADD31C,0.30000*%
%ADD32C,1.00000*%
%ADD33C,0.40000*%
%ADD34C,0.50000*%
%ADD35C,0.20000*%
%TA.AperFunction,ComponentPad*%
%ADD37C,1.60000*%
%ADD38C,1.80000*%
G04:AMPARAMS|DCode=39|XSize=1.8mm|YSize=1.8mm|CornerRadius=0mm|HoleSize=0mm|Usage=FLASHONLY|Rotation=180.000|XOffset=0mm|YOffset=0mm|HoleType=Round|Shape=Octagon|*
%AMOCTAGOND39*
4,1,8,-0.90000,0.45000,-0.90000,-0.45000,-0.45000,-0.90000,0.45000,-0.90000,0.90000,-0.45000,0.90000,0.45000,0.45000,0.90000,-0.45000,0.90000,-0.90000,0.45000,0.0*
%
%ADD39OCTAGOND39*%

G04:AMPARAMS|DCode=40|XSize=1.8mm|YSize=1.8mm|CornerRadius=0mm|HoleSize=0mm|Usage=FLASHONLY|Rotation=90.000|XOffset=0mm|YOffset=0mm|HoleType=Round|Shape=Octagon|*
%AMOCTAGOND40*
4,1,8,0.45000,0.90000,-0.45000,0.90000,-0.90000,0.45000,-0.90000,-0.45000,-0.45000,-0.90000,0.45000,-0.90000,0.90000,-0.45000,0.90000,0.45000,0.45000,0.90000,0.0*
%
%ADD40OCTAGOND40*%

%ADD41C,2.20000*%
%TA.AperFunction,ViaPad*%
%ADD42C,7.00000*%
%ADD43C,0.70000*%
%TA.AperFunction,SMDPad,CuDef*%
%ADD44R,1.50000X5.50000*%
G36*
X16400000Y100000D02*
X100000D01*
Y11900000D01*
X14561974D01*
X14565826Y11887300D01*
X14563953Y11886048D01*
X14313953Y11636048D01*
X14302901Y11619509D01*
X14299020Y11600000D01*
Y10521116D01*
X14063953Y10286048D01*
X14052901Y10269509D01*
X14049020Y10250000D01*
Y9650000D01*
X14052901Y9630491D01*
X14063953Y9613952D01*
X14104028Y9573875D01*
X14098769Y9561175D01*
X13499014D01*
X13494154Y9572909D01*
X13810623Y9889377D01*
X13824248Y9907133D01*
X13832812Y9927810D01*
X13835733Y9950000D01*
Y10050000D01*
Y10914488D01*
X14210623Y11289377D01*
X14224248Y11307133D01*
X14232812Y11327810D01*
X14235733Y11350000D01*
X14232812Y11372189D01*
X14224248Y11392867D01*
X14210623Y11410623D01*
X14192867Y11424247D01*
X14172189Y11432812D01*
X14150000Y11435733D01*
X14127811Y11432812D01*
X14107133Y11424247D01*
X14089377Y11410623D01*
X13689377Y11010623D01*
X13675752Y10992867D01*
X13667188Y10972189D01*
X13664267Y10950000D01*
Y10050000D01*
Y9985512D01*
X13264488Y9585733D01*
X11687500D01*
X11665311Y9582812D01*
X11644633Y9574247D01*
X11626877Y9560623D01*
X11566217Y9499962D01*
X11554483Y9504822D01*
Y11533238D01*
X11610623Y11589377D01*
X11624247Y11607133D01*
X11632812Y11627810D01*
X11635733Y11650000D01*
X11632812Y11672190D01*
X11624247Y11692867D01*
X11610623Y11710623D01*
X11592867Y11724247D01*
X11572189Y11732812D01*
X11550000Y11735733D01*
X11527810Y11732812D01*
X11507133Y11724247D01*
X11489377Y11710623D01*
X11408127Y11629373D01*
X11394503Y11611617D01*
X11385938Y11590939D01*
X11383017Y11568750D01*
Y11085699D01*
X11370317Y11081388D01*
X11353414Y11103415D01*
X11323125Y11126657D01*
X11287852Y11141268D01*
X11249999Y11146251D01*
X11212147Y11141268D01*
X11176874Y11126657D01*
X11146584Y11103415D01*
X11123342Y11073126D01*
X11108732Y11037853D01*
X11103748Y11000000D01*
X11108732Y10962147D01*
X11123342Y10926875D01*
X11146584Y10896585D01*
X11176874Y10873343D01*
X11212147Y10858732D01*
X11249999Y10853749D01*
X11287852Y10858732D01*
X11323125Y10873343D01*
X11353414Y10896585D01*
X11370317Y10918612D01*
X11383017Y10914301D01*
Y9316762D01*
X10964488Y8898233D01*
X7162500D01*
X7140311Y8895312D01*
X7119633Y8886747D01*
X7101877Y8873123D01*
X5539377Y7310623D01*
X5525753Y7292867D01*
X5517188Y7272189D01*
X5514267Y7250000D01*
Y4250000D01*
X5517188Y4227810D01*
X5525753Y4207133D01*
X5539377Y4189377D01*
X5557133Y4175753D01*
X5577811Y4167188D01*
X5600000Y4164266D01*
X5622189Y4167188D01*
X5642867Y4175753D01*
X5660623Y4189377D01*
X5674247Y4207133D01*
X5682812Y4227810D01*
X5685733Y4250000D01*
Y7214488D01*
X7198012Y8726767D01*
X11000000D01*
X11022190Y8729688D01*
X11042867Y8738253D01*
X11060623Y8751877D01*
X11529373Y9220627D01*
X11723012Y9414267D01*
X13300000D01*
X13322189Y9417188D01*
X13342867Y9425753D01*
X13359901Y9438825D01*
X15800000D01*
X15823412Y9443481D01*
X15843257Y9456743D01*
X15943257Y9556743D01*
X15956519Y9576589D01*
X15961176Y9600000D01*
Y9764772D01*
X15968198Y9781726D01*
X15970604Y9800000D01*
X15968198Y9818273D01*
X15961145Y9835302D01*
X15949924Y9849924D01*
X15935303Y9861145D01*
X15918272Y9868198D01*
X15900000Y9870604D01*
X15881726Y9868198D01*
X15864697Y9861145D01*
X15850075Y9849924D01*
X15838855Y9835302D01*
X15831802Y9818273D01*
X15829396Y9800000D01*
X15831802Y9781726D01*
X15838824Y9764772D01*
Y9625340D01*
X15774660Y9561175D01*
X14873431D01*
X14864946Y9573876D01*
X14868198Y9581727D01*
X14870604Y9600000D01*
X14868198Y9618274D01*
X14866711Y9621865D01*
X14873767Y9632424D01*
X15098567D01*
X15105171Y9627357D01*
X15122198Y9620304D01*
X15140472Y9617898D01*
X15158746Y9620304D01*
X15175775Y9627357D01*
X15190398Y9638577D01*
X15201617Y9653200D01*
X15208672Y9670228D01*
X15211076Y9688502D01*
X15208672Y9706775D01*
X15201617Y9723804D01*
X15190398Y9738426D01*
X15175775Y9749646D01*
X15158746Y9756700D01*
X15140472Y9759106D01*
X15122198Y9756700D01*
X15105171Y9749646D01*
X15098567Y9744579D01*
X14384726D01*
X14250980Y9878326D01*
Y10108173D01*
X14461047Y10318242D01*
X14472099Y10334781D01*
X14475980Y10354290D01*
Y11395750D01*
X14488680Y11396582D01*
X14492844Y11364950D01*
X14505440Y11334542D01*
X14525476Y11308431D01*
X14551587Y11288394D01*
X14581995Y11275799D01*
X14614627Y11271503D01*
X14647258Y11275799D01*
X14677666Y11288394D01*
X14703778Y11308431D01*
X14723814Y11334542D01*
X14735107Y11361810D01*
X14735129Y11361815D01*
X14748125D01*
X14748145Y11361810D01*
X14759439Y11334542D01*
X14779475Y11308431D01*
X14805586Y11288394D01*
X14832855Y11277100D01*
X14832860Y11277080D01*
Y11264083D01*
X14832855Y11264063D01*
X14805586Y11252769D01*
X14779475Y11232732D01*
X14759439Y11206621D01*
X14746844Y11176213D01*
X14742548Y11143581D01*
X14746844Y11110950D01*
X14759439Y11080542D01*
X14779475Y11054431D01*
X14805586Y11034394D01*
X14835995Y11021799D01*
X14868626Y11017503D01*
X14901257Y11021799D01*
X14931667Y11034394D01*
X14957777Y11054431D01*
X14977814Y11080542D01*
X14989108Y11107810D01*
X14989130Y11107815D01*
X15002126D01*
X15002145Y11107810D01*
X15013438Y11080542D01*
X15033476Y11054431D01*
X15059587Y11034394D01*
X15089995Y11021799D01*
X15122627Y11017503D01*
X15155258Y11021799D01*
X15185666Y11034394D01*
X15211778Y11054431D01*
X15231815Y11080542D01*
X15243108Y11107810D01*
X15243129Y11107815D01*
X15256125D01*
X15256145Y11107810D01*
X15267439Y11080542D01*
X15287476Y11054431D01*
X15313586Y11034394D01*
X15343996Y11021799D01*
X15376627Y11017503D01*
X15409258Y11021799D01*
X15439667Y11034394D01*
X15465778Y11054431D01*
X15485814Y11080542D01*
X15497108Y11107810D01*
X15497128Y11107815D01*
X15510126D01*
X15510146Y11107810D01*
X15521439Y11080542D01*
X15541476Y11054431D01*
X15567587Y11034394D01*
X15597995Y11021799D01*
X15630627Y11017503D01*
X15663258Y11021799D01*
X15693666Y11034394D01*
X15719778Y11054431D01*
X15739815Y11080542D01*
X15752409Y11110950D01*
X15756705Y11143581D01*
X15752409Y11176213D01*
X15739815Y11206621D01*
X15719778Y11232732D01*
X15693666Y11252769D01*
X15676494Y11259882D01*
X15679021Y11272582D01*
X15693127D01*
X15755626Y11335082D01*
Y11460081D01*
X15693127Y11522581D01*
X15568127D01*
X15505627Y11460081D01*
Y11445975D01*
X15492928Y11443449D01*
X15485814Y11460621D01*
X15465778Y11486732D01*
X15439667Y11506769D01*
X15409258Y11519364D01*
X15376627Y11523660D01*
X15343996Y11519364D01*
X15313586Y11506769D01*
X15287476Y11486732D01*
X15267439Y11460621D01*
X15256145Y11433353D01*
X15256125Y11433348D01*
X15243129D01*
X15243108Y11433353D01*
X15231815Y11460621D01*
X15211778Y11486732D01*
X15185666Y11506769D01*
X15155258Y11519364D01*
X15122627Y11523660D01*
X15089995Y11519364D01*
X15059587Y11506769D01*
X15033476Y11486732D01*
X15013438Y11460621D01*
X15002145Y11433353D01*
X15002126Y11433348D01*
X14989130D01*
X14989108Y11433353D01*
X14977814Y11460621D01*
X14957777Y11486732D01*
X14931667Y11506769D01*
X14901257Y11519364D01*
X14868626Y11523660D01*
X14835995Y11519364D01*
X14805586Y11506769D01*
X14779475Y11486732D01*
X14759439Y11460621D01*
X14748145Y11433353D01*
X14748125Y11433348D01*
X14735129D01*
X14735107Y11433353D01*
X14723814Y11460621D01*
X14703778Y11486732D01*
X14677666Y11506769D01*
X14647258Y11519364D01*
X14614627Y11523660D01*
X14581995Y11519364D01*
X14551587Y11506769D01*
X14531119Y11491063D01*
X14522728Y11500632D01*
X14671117Y11649020D01*
X15101451D01*
X15114697Y11638855D01*
X15131726Y11631802D01*
X15150000Y11629396D01*
X15168272Y11631802D01*
X15185303Y11638855D01*
X15199924Y11650076D01*
X15211145Y11664698D01*
X15218198Y11681726D01*
X15220604Y11700000D01*
X15218198Y11718273D01*
X15211145Y11735302D01*
X15199924Y11749924D01*
X15185303Y11761145D01*
X15168272Y11768198D01*
X15150000Y11770604D01*
X15131726Y11768198D01*
X15114697Y11761145D01*
X15101451Y11750980D01*
X14650000D01*
X14630492Y11747099D01*
X14613953Y11736048D01*
X14412714Y11534809D01*
X14400980Y11539669D01*
Y11578884D01*
X14621117Y11799020D01*
X14901451D01*
X14914697Y11788855D01*
X14931728Y11781802D01*
X14950000Y11779396D01*
X14968274Y11781802D01*
X14985303Y11788855D01*
X14999925Y11800075D01*
X15011145Y11814698D01*
X15018198Y11831726D01*
X15020604Y11850000D01*
X15018198Y11868273D01*
X15011145Y11885302D01*
X15009612Y11887300D01*
X15015874Y11900000D01*
X16400000D01*
Y100000D01*
D02*
G37*
G36*
X14374020Y10435331D02*
Y10375406D01*
X14163953Y10165338D01*
X14163680Y10164930D01*
X14150980Y10168782D01*
Y10228884D01*
X14362286Y10440191D01*
X14374020Y10435331D01*
D02*
G37*
%LPC*%
G36*
X12692728Y11870604D02*
X12674454Y11868198D01*
X12657426Y11861145D01*
X12650822Y11856077D01*
X12050000D01*
X12028540Y11851809D01*
X12010347Y11839653D01*
X11610347Y11439653D01*
X11598191Y11421460D01*
X11593923Y11400000D01*
Y9800000D01*
X11598191Y9778540D01*
X11610347Y9760347D01*
X11710347Y9660347D01*
X11728540Y9648191D01*
X11750000Y9643923D01*
X12258094D01*
X12264698Y9638855D01*
X12281727Y9631802D01*
X12300000Y9629396D01*
X12318274Y9631802D01*
X12335302Y9638855D01*
X12349925Y9650075D01*
X12361145Y9664698D01*
X12368198Y9681726D01*
X12370604Y9700000D01*
X12368198Y9718273D01*
X12362834Y9731222D01*
X12369118Y9743923D01*
X12558094D01*
X12564698Y9738855D01*
X12581726Y9731802D01*
X12600000Y9729396D01*
X12618273Y9731802D01*
X12635302Y9738855D01*
X12649924Y9750075D01*
X12661145Y9764698D01*
X12668198Y9781726D01*
X12670604Y9800000D01*
X12668198Y9818273D01*
X12661145Y9835302D01*
X12649924Y9849924D01*
X12635302Y9861145D01*
X12618273Y9868198D01*
X12600000Y9870604D01*
X12581726Y9868198D01*
X12564698Y9861145D01*
X12558094Y9856077D01*
X11823228D01*
X11800980Y9878326D01*
Y11178884D01*
X12171116Y11549020D01*
X12794137D01*
X12807385Y11538855D01*
X12824413Y11531802D01*
X12826920Y11519692D01*
X12826672Y11518695D01*
X12797880Y11506769D01*
X12771768Y11486732D01*
X12751732Y11460621D01*
X12740437Y11433353D01*
X12740417Y11433348D01*
X12727421D01*
X12727401Y11433353D01*
X12716106Y11460621D01*
X12696070Y11486732D01*
X12669958Y11506769D01*
X12639551Y11519364D01*
X12606919Y11523660D01*
X12574288Y11519364D01*
X12543880Y11506769D01*
X12517768Y11486732D01*
X12497732Y11460621D01*
X12486437Y11433353D01*
X12486417Y11433348D01*
X12473421D01*
X12473401Y11433353D01*
X12462106Y11460621D01*
X12442070Y11486732D01*
X12415958Y11506769D01*
X12385551Y11519364D01*
X12352919Y11523660D01*
X12320288Y11519364D01*
X12289880Y11506769D01*
X12263768Y11486732D01*
X12243732Y11460621D01*
X12231137Y11430213D01*
X12226841Y11397581D01*
X12231137Y11364950D01*
X12243732Y11334542D01*
X12263768Y11308431D01*
X12289880Y11288394D01*
X12320288Y11275799D01*
X12352919Y11271503D01*
X12385551Y11275799D01*
X12415958Y11288394D01*
X12442070Y11308431D01*
X12462106Y11334542D01*
X12473401Y11361810D01*
X12473421Y11361815D01*
X12486417D01*
X12486437Y11361810D01*
X12497732Y11334542D01*
X12517768Y11308431D01*
X12543880Y11288394D01*
X12571147Y11277100D01*
X12571153Y11277080D01*
Y11264083D01*
X12571147Y11264063D01*
X12543880Y11252769D01*
X12517768Y11232732D01*
X12497732Y11206621D01*
X12485137Y11176213D01*
X12480841Y11143581D01*
X12485137Y11110950D01*
X12497732Y11080542D01*
X12517768Y11054431D01*
X12543880Y11034394D01*
X12574288Y11021799D01*
X12606919Y11017503D01*
X12639551Y11021799D01*
X12669958Y11034394D01*
X12696070Y11054431D01*
X12716106Y11080542D01*
X12727401Y11107810D01*
X12727421Y11107815D01*
X12740417D01*
X12740437Y11107810D01*
X12751732Y11080542D01*
X12771768Y11054431D01*
X12797880Y11034394D01*
X12828288Y11021799D01*
X12860919Y11017503D01*
X12893552Y11021799D01*
X12923958Y11034394D01*
X12950070Y11054431D01*
X12970107Y11080542D01*
X12981401Y11107810D01*
X12981421Y11107815D01*
X12994417D01*
X12994437Y11107810D01*
X13005733Y11080542D01*
X13025768Y11054431D01*
X13051880Y11034394D01*
X13082288Y11021799D01*
X13114919Y11017503D01*
X13147551Y11021799D01*
X13177959Y11034394D01*
X13204070Y11054431D01*
X13224106Y11080542D01*
X13235400Y11107810D01*
X13235422Y11107815D01*
X13248418D01*
X13248438Y11107810D01*
X13259732Y11080542D01*
X13279768Y11054431D01*
X13305881Y11034394D01*
X13336288Y11021799D01*
X13368919Y11017503D01*
X13401550Y11021799D01*
X13431958Y11034394D01*
X13458070Y11054431D01*
X13478107Y11080542D01*
X13490701Y11110950D01*
X13494998Y11143581D01*
X13490701Y11176213D01*
X13478107Y11206621D01*
X13458070Y11232732D01*
X13431958Y11252769D01*
X13414786Y11259882D01*
X13417313Y11272582D01*
X13431419D01*
X13493919Y11335082D01*
Y11460081D01*
X13431419Y11522581D01*
X13306419D01*
X13243919Y11460081D01*
Y11445975D01*
X13231219Y11443449D01*
X13224106Y11460621D01*
X13204070Y11486732D01*
X13177959Y11506769D01*
X13147551Y11519364D01*
X13114919Y11523660D01*
X13082288Y11519364D01*
X13051880Y11506769D01*
X13025768Y11486732D01*
X13005733Y11460621D01*
X12994437Y11433353D01*
X12994417Y11433348D01*
X12981421D01*
X12981401Y11433353D01*
X12970107Y11460621D01*
X12950070Y11486732D01*
X12923958Y11506769D01*
X12893552Y11519364D01*
X12871217Y11522304D01*
X12869501Y11535340D01*
X12877988Y11538855D01*
X12892612Y11550075D01*
X12903831Y11564698D01*
X12910886Y11581726D01*
X12913290Y11600000D01*
X12910886Y11618273D01*
X12903831Y11635302D01*
X12892612Y11649924D01*
X12877988Y11661145D01*
X12860960Y11668198D01*
X12842686Y11670604D01*
X12824413Y11668198D01*
X12807385Y11661145D01*
X12794137Y11650979D01*
X12150000D01*
X12130491Y11647099D01*
X12113952Y11636048D01*
X11718777Y11240873D01*
X11706077Y11246134D01*
Y11376772D01*
X12073228Y11743923D01*
X12650822D01*
X12657426Y11738855D01*
X12674454Y11731802D01*
X12692728Y11729396D01*
X12711002Y11731802D01*
X12728030Y11738855D01*
X12742652Y11750076D01*
X12753873Y11764698D01*
X12760926Y11781726D01*
X12763332Y11800000D01*
X12760926Y11818274D01*
X12753873Y11835302D01*
X12742652Y11849924D01*
X12728030Y11861145D01*
X12711002Y11868198D01*
X12692728Y11870604D01*
D02*
G37*
G36*
X10741999Y11146251D02*
X10704147Y11141268D01*
X10668874Y11126657D01*
X10638584Y11103415D01*
X10615342Y11073126D01*
X10600732Y11037853D01*
X10595748Y11000000D01*
X10600732Y10962147D01*
X10615342Y10926875D01*
X10638584Y10896585D01*
X10668874Y10873343D01*
X10704147Y10858732D01*
X10741999Y10853749D01*
X10779852Y10858732D01*
X10815125Y10873343D01*
X10845414Y10896585D01*
X10868656Y10926875D01*
X10883267Y10962147D01*
X10888251Y11000000D01*
X10883267Y11037853D01*
X10868656Y11073126D01*
X10845414Y11103415D01*
X10815125Y11126657D01*
X10779852Y11141268D01*
X10741999Y11146251D01*
D02*
G37*
G36*
X10233999D02*
X10196147Y11141268D01*
X10160874Y11126657D01*
X10130584Y11103415D01*
X10107342Y11073126D01*
X10092732Y11037853D01*
X10087748Y11000000D01*
X10092732Y10962147D01*
X10107342Y10926875D01*
X10130584Y10896585D01*
X10160874Y10873343D01*
X10196147Y10858732D01*
X10233999Y10853749D01*
X10271852Y10858732D01*
X10307125Y10873343D01*
X10337414Y10896585D01*
X10360656Y10926875D01*
X10375267Y10962147D01*
X10380251Y11000000D01*
X10375267Y11037853D01*
X10360656Y11073126D01*
X10337414Y11103415D01*
X10307125Y11126657D01*
X10271852Y11141268D01*
X10233999Y11146251D01*
D02*
G37*
G36*
X9507999D02*
X9470147Y11141268D01*
X9434874Y11126657D01*
X9404584Y11103415D01*
X9381342Y11073126D01*
X9366732Y11037853D01*
X9361748Y11000000D01*
X9366732Y10962147D01*
X9381342Y10926875D01*
X9404584Y10896585D01*
X9434874Y10873343D01*
X9470147Y10858732D01*
X9507999Y10853749D01*
X9545852Y10858732D01*
X9581125Y10873343D01*
X9611414Y10896585D01*
X9634656Y10926875D01*
X9649267Y10962147D01*
X9654250Y11000000D01*
X9649267Y11037853D01*
X9634656Y11073126D01*
X9611414Y11103415D01*
X9581125Y11126657D01*
X9545852Y11141268D01*
X9507999Y11146251D01*
D02*
G37*
G36*
X8999999D02*
X8962147Y11141268D01*
X8926874Y11126657D01*
X8896584Y11103415D01*
X8873342Y11073126D01*
X8858732Y11037853D01*
X8853748Y11000000D01*
X8858732Y10962147D01*
X8873342Y10926875D01*
X8896584Y10896585D01*
X8926874Y10873343D01*
X8962147Y10858732D01*
X8999999Y10853749D01*
X9037852Y10858732D01*
X9073125Y10873343D01*
X9103414Y10896585D01*
X9126656Y10926875D01*
X9141267Y10962147D01*
X9146250Y11000000D01*
X9141267Y11037853D01*
X9126656Y11073126D01*
X9103414Y11103415D01*
X9073125Y11126657D01*
X9037852Y11141268D01*
X8999999Y11146251D01*
D02*
G37*
G36*
X8491999D02*
X8454147Y11141268D01*
X8418874Y11126657D01*
X8388584Y11103415D01*
X8365342Y11073126D01*
X8350732Y11037853D01*
X8345748Y11000000D01*
X8350732Y10962147D01*
X8365342Y10926875D01*
X8388584Y10896585D01*
X8418874Y10873343D01*
X8454147Y10858732D01*
X8491999Y10853749D01*
X8529852Y10858732D01*
X8565125Y10873343D01*
X8595414Y10896585D01*
X8618656Y10926875D01*
X8633267Y10962147D01*
X8638250Y11000000D01*
X8633267Y11037853D01*
X8618656Y11073126D01*
X8595414Y11103415D01*
X8565125Y11126657D01*
X8529852Y11141268D01*
X8491999Y11146251D01*
D02*
G37*
G36*
X7765999D02*
X7728147Y11141268D01*
X7692874Y11126657D01*
X7662584Y11103415D01*
X7639342Y11073126D01*
X7624732Y11037853D01*
X7619748Y11000000D01*
X7624732Y10962147D01*
X7639342Y10926875D01*
X7662584Y10896585D01*
X7692874Y10873343D01*
X7728147Y10858732D01*
X7765999Y10853749D01*
X7803852Y10858732D01*
X7839125Y10873343D01*
X7869415Y10896585D01*
X7892657Y10926875D01*
X7907267Y10962147D01*
X7912251Y11000000D01*
X7907267Y11037853D01*
X7892657Y11073126D01*
X7869415Y11103415D01*
X7839125Y11126657D01*
X7803852Y11141268D01*
X7765999Y11146251D01*
D02*
G37*
G36*
X7257999D02*
X7220147Y11141268D01*
X7184874Y11126657D01*
X7154584Y11103415D01*
X7131342Y11073126D01*
X7116732Y11037853D01*
X7111748Y11000000D01*
X7116732Y10962147D01*
X7131342Y10926875D01*
X7154584Y10896585D01*
X7184874Y10873343D01*
X7220147Y10858732D01*
X7257999Y10853749D01*
X7295852Y10858732D01*
X7331125Y10873343D01*
X7361415Y10896585D01*
X7384657Y10926875D01*
X7399267Y10962147D01*
X7404251Y11000000D01*
X7399267Y11037853D01*
X7384657Y11073126D01*
X7361415Y11103415D01*
X7331125Y11126657D01*
X7295852Y11141268D01*
X7257999Y11146251D01*
D02*
G37*
G36*
X6749999D02*
X6712147Y11141268D01*
X6676874Y11126657D01*
X6646584Y11103415D01*
X6623342Y11073126D01*
X6608732Y11037853D01*
X6603748Y11000000D01*
X6608732Y10962147D01*
X6623342Y10926875D01*
X6646584Y10896585D01*
X6676874Y10873343D01*
X6712147Y10858732D01*
X6749999Y10853749D01*
X6787852Y10858732D01*
X6823125Y10873343D01*
X6853415Y10896585D01*
X6876657Y10926875D01*
X6891267Y10962147D01*
X6896251Y11000000D01*
X6891267Y11037853D01*
X6876657Y11073126D01*
X6853415Y11103415D01*
X6823125Y11126657D01*
X6787852Y11141268D01*
X6749999Y11146251D01*
D02*
G37*
G36*
X5999999D02*
X5962147Y11141268D01*
X5926874Y11126657D01*
X5896584Y11103415D01*
X5873342Y11073126D01*
X5858732Y11037853D01*
X5853748Y11000000D01*
X5858732Y10962147D01*
X5873342Y10926875D01*
X5896584Y10896585D01*
X5926874Y10873343D01*
X5962147Y10858732D01*
X5999999Y10853749D01*
X6037852Y10858732D01*
X6073125Y10873343D01*
X6103415Y10896585D01*
X6126657Y10926875D01*
X6141267Y10962147D01*
X6146251Y11000000D01*
X6141267Y11037853D01*
X6126657Y11073126D01*
X6103415Y11103415D01*
X6073125Y11126657D01*
X6037852Y11141268D01*
X5999999Y11146251D01*
D02*
G37*
G36*
X5491999D02*
X5454147Y11141268D01*
X5418874Y11126657D01*
X5388584Y11103415D01*
X5365342Y11073126D01*
X5350732Y11037853D01*
X5345748Y11000000D01*
X5350732Y10962147D01*
X5365342Y10926875D01*
X5388584Y10896585D01*
X5418874Y10873343D01*
X5454147Y10858732D01*
X5491999Y10853749D01*
X5529852Y10858732D01*
X5565125Y10873343D01*
X5595415Y10896585D01*
X5618657Y10926875D01*
X5633267Y10962147D01*
X5638251Y11000000D01*
X5633267Y11037853D01*
X5618657Y11073126D01*
X5595415Y11103415D01*
X5565125Y11126657D01*
X5529852Y11141268D01*
X5491999Y11146251D01*
D02*
G37*
G36*
X4983999D02*
X4946147Y11141268D01*
X4910874Y11126657D01*
X4880584Y11103415D01*
X4857342Y11073126D01*
X4842732Y11037853D01*
X4837748Y11000000D01*
X4842732Y10962147D01*
X4857342Y10926875D01*
X4880584Y10896585D01*
X4910874Y10873343D01*
X4946147Y10858732D01*
X4983999Y10853749D01*
X5021852Y10858732D01*
X5057125Y10873343D01*
X5087415Y10896585D01*
X5110657Y10926875D01*
X5125267Y10962147D01*
X5130251Y11000000D01*
X5125267Y11037853D01*
X5110657Y11073126D01*
X5087415Y11103415D01*
X5057125Y11126657D01*
X5021852Y11141268D01*
X4983999Y11146251D01*
D02*
G37*
G36*
X4258000D02*
X4220147Y11141268D01*
X4184874Y11126657D01*
X4154585Y11103415D01*
X4131343Y11073126D01*
X4116732Y11037853D01*
X4111749Y11000000D01*
X4116732Y10962147D01*
X4131343Y10926875D01*
X4154585Y10896585D01*
X4184874Y10873343D01*
X4220147Y10858732D01*
X4258000Y10853749D01*
X4295852Y10858732D01*
X4331125Y10873343D01*
X4361415Y10896585D01*
X4384657Y10926875D01*
X4399268Y10962147D01*
X4404251Y11000000D01*
X4399268Y11037853D01*
X4384657Y11073126D01*
X4361415Y11103415D01*
X4331125Y11126657D01*
X4295852Y11141268D01*
X4258000Y11146251D01*
D02*
G37*
G36*
X3750000D02*
X3712147Y11141268D01*
X3676874Y11126657D01*
X3646585Y11103415D01*
X3623343Y11073126D01*
X3608732Y11037853D01*
X3603749Y11000000D01*
X3608732Y10962147D01*
X3623343Y10926875D01*
X3646585Y10896585D01*
X3676874Y10873343D01*
X3712147Y10858732D01*
X3750000Y10853749D01*
X3787852Y10858732D01*
X3823125Y10873343D01*
X3853415Y10896585D01*
X3876657Y10926875D01*
X3891268Y10962147D01*
X3896251Y11000000D01*
X3891268Y11037853D01*
X3876657Y11073126D01*
X3853415Y11103415D01*
X3823125Y11126657D01*
X3787852Y11141268D01*
X3750000Y11146251D01*
D02*
G37*
G36*
X3242000D02*
X3204147Y11141268D01*
X3168874Y11126657D01*
X3138585Y11103415D01*
X3115343Y11073126D01*
X3100732Y11037853D01*
X3095749Y11000000D01*
X3100732Y10962147D01*
X3115343Y10926875D01*
X3138585Y10896585D01*
X3168874Y10873343D01*
X3204147Y10858732D01*
X3242000Y10853749D01*
X3279852Y10858732D01*
X3315125Y10873343D01*
X3345415Y10896585D01*
X3368657Y10926875D01*
X3383268Y10962147D01*
X3388251Y11000000D01*
X3383268Y11037853D01*
X3368657Y11073126D01*
X3345415Y11103415D01*
X3315125Y11126657D01*
X3279852Y11141268D01*
X3242000Y11146251D01*
D02*
G37*
G36*
X2508000D02*
X2470147Y11141268D01*
X2434874Y11126657D01*
X2404585Y11103415D01*
X2381343Y11073126D01*
X2366732Y11037853D01*
X2361749Y11000000D01*
X2366732Y10962147D01*
X2381343Y10926875D01*
X2404585Y10896585D01*
X2434874Y10873343D01*
X2470147Y10858732D01*
X2508000Y10853749D01*
X2545852Y10858732D01*
X2581125Y10873343D01*
X2611415Y10896585D01*
X2634657Y10926875D01*
X2649267Y10962147D01*
X2654251Y11000000D01*
X2649267Y11037853D01*
X2634657Y11073126D01*
X2611415Y11103415D01*
X2581125Y11126657D01*
X2545852Y11141268D01*
X2508000Y11146251D01*
D02*
G37*
G36*
X2000000D02*
X1962147Y11141268D01*
X1926874Y11126657D01*
X1896585Y11103415D01*
X1873343Y11073126D01*
X1858732Y11037853D01*
X1853749Y11000000D01*
X1858732Y10962147D01*
X1873343Y10926875D01*
X1896585Y10896585D01*
X1926874Y10873343D01*
X1962147Y10858732D01*
X2000000Y10853749D01*
X2037852Y10858732D01*
X2073125Y10873343D01*
X2103415Y10896585D01*
X2126657Y10926875D01*
X2141267Y10962147D01*
X2146251Y11000000D01*
X2141267Y11037853D01*
X2126657Y11073126D01*
X2103415Y11103415D01*
X2073125Y11126657D01*
X2037852Y11141268D01*
X2000000Y11146251D01*
D02*
G37*
G36*
X1492000D02*
X1454147Y11141268D01*
X1418874Y11126657D01*
X1388585Y11103415D01*
X1365343Y11073126D01*
X1350732Y11037853D01*
X1345749Y11000000D01*
X1350732Y10962147D01*
X1365343Y10926875D01*
X1388585Y10896585D01*
X1418874Y10873343D01*
X1454147Y10858732D01*
X1492000Y10853749D01*
X1529852Y10858732D01*
X1565125Y10873343D01*
X1595415Y10896585D01*
X1618657Y10926875D01*
X1633267Y10962147D01*
X1638251Y11000000D01*
X1633267Y11037853D01*
X1618657Y11073126D01*
X1595415Y11103415D01*
X1565125Y11126657D01*
X1529852Y11141268D01*
X1492000Y11146251D01*
D02*
G37*
G36*
X11000000Y10365992D02*
X10969979Y10362040D01*
X10942004Y10350452D01*
X10917981Y10332019D01*
X10899548Y10307996D01*
X10887960Y10280021D01*
X10884008Y10250000D01*
X10887960Y10219979D01*
X10899548Y10192004D01*
X10917981Y10167981D01*
X10942004Y10149548D01*
X10969979Y10137960D01*
X11000000Y10134008D01*
X11030021Y10137960D01*
X11057996Y10149548D01*
X11082019Y10167981D01*
X11100452Y10192004D01*
X11112040Y10219979D01*
X11115992Y10250000D01*
X11112040Y10280021D01*
X11100452Y10307996D01*
X11082019Y10332019D01*
X11057996Y10350452D01*
X11030021Y10362040D01*
X11000000Y10365992D01*
D02*
G37*
G36*
X10250000D02*
X10219979Y10362040D01*
X10192004Y10350452D01*
X10167981Y10332019D01*
X10149548Y10307996D01*
X10137960Y10280021D01*
X10134008Y10250000D01*
X10137960Y10219979D01*
X10149548Y10192004D01*
X10167981Y10167981D01*
X10192004Y10149548D01*
X10219979Y10137960D01*
X10250000Y10134008D01*
X10280021Y10137960D01*
X10307996Y10149548D01*
X10332019Y10167981D01*
X10350452Y10192004D01*
X10362040Y10219979D01*
X10365992Y10250000D01*
X10362040Y10280021D01*
X10350452Y10307996D01*
X10332019Y10332019D01*
X10307996Y10350452D01*
X10280021Y10362040D01*
X10250000Y10365992D01*
D02*
G37*
G36*
X9250000D02*
X9219979Y10362040D01*
X9192004Y10350452D01*
X9167981Y10332019D01*
X9149548Y10307996D01*
X9137960Y10280021D01*
X9134008Y10250000D01*
X9137960Y10219979D01*
X9149548Y10192004D01*
X9167981Y10167981D01*
X9192004Y10149548D01*
X9219979Y10137960D01*
X9250000Y10134008D01*
X9280021Y10137960D01*
X9307996Y10149548D01*
X9332019Y10167981D01*
X9350452Y10192004D01*
X9362040Y10219979D01*
X9365992Y10250000D01*
X9362040Y10280021D01*
X9350452Y10307996D01*
X9332019Y10332019D01*
X9307996Y10350452D01*
X9280021Y10362040D01*
X9250000Y10365992D01*
D02*
G37*
G36*
X8500000D02*
X8469979Y10362040D01*
X8442004Y10350452D01*
X8417981Y10332019D01*
X8399548Y10307996D01*
X8387960Y10280021D01*
X8384008Y10250000D01*
X8387960Y10219979D01*
X8399548Y10192004D01*
X8417981Y10167981D01*
X8442004Y10149548D01*
X8469979Y10137960D01*
X8500000Y10134008D01*
X8530021Y10137960D01*
X8557996Y10149548D01*
X8582019Y10167981D01*
X8600452Y10192004D01*
X8612040Y10219979D01*
X8615992Y10250000D01*
X8612040Y10280021D01*
X8600452Y10307996D01*
X8582019Y10332019D01*
X8557996Y10350452D01*
X8530021Y10362040D01*
X8500000Y10365992D01*
D02*
G37*
G36*
X7500000D02*
X7469979Y10362040D01*
X7442004Y10350452D01*
X7417981Y10332019D01*
X7399548Y10307996D01*
X7387960Y10280021D01*
X7384008Y10250000D01*
X7387960Y10219979D01*
X7399548Y10192004D01*
X7417981Y10167981D01*
X7442004Y10149548D01*
X7469979Y10137960D01*
X7500000Y10134008D01*
X7530021Y10137960D01*
X7557996Y10149548D01*
X7582019Y10167981D01*
X7600452Y10192004D01*
X7612040Y10219979D01*
X7615992Y10250000D01*
X7612040Y10280021D01*
X7600452Y10307996D01*
X7582019Y10332019D01*
X7557996Y10350452D01*
X7530021Y10362040D01*
X7500000Y10365992D01*
D02*
G37*
G36*
X6750000D02*
X6719979Y10362040D01*
X6692004Y10350452D01*
X6667981Y10332019D01*
X6649548Y10307996D01*
X6637960Y10280021D01*
X6634008Y10250000D01*
X6637960Y10219979D01*
X6649548Y10192004D01*
X6667981Y10167981D01*
X6692004Y10149548D01*
X6719979Y10137960D01*
X6750000Y10134008D01*
X6780021Y10137960D01*
X6807996Y10149548D01*
X6832019Y10167981D01*
X6850452Y10192004D01*
X6862040Y10219979D01*
X6865992Y10250000D01*
X6862040Y10280021D01*
X6850452Y10307996D01*
X6832019Y10332019D01*
X6807996Y10350452D01*
X6780021Y10362040D01*
X6750000Y10365992D01*
D02*
G37*
G36*
X5750000D02*
X5719979Y10362040D01*
X5692004Y10350452D01*
X5667981Y10332019D01*
X5649548Y10307996D01*
X5637960Y10280021D01*
X5634008Y10250000D01*
X5637960Y10219979D01*
X5649548Y10192004D01*
X5667981Y10167981D01*
X5692004Y10149548D01*
X5719979Y10137960D01*
X5750000Y10134008D01*
X5780021Y10137960D01*
X5807996Y10149548D01*
X5832019Y10167981D01*
X5850452Y10192004D01*
X5862040Y10219979D01*
X5865992Y10250000D01*
X5862040Y10280021D01*
X5850452Y10307996D01*
X5832019Y10332019D01*
X5807996Y10350452D01*
X5780021Y10362040D01*
X5750000Y10365992D01*
D02*
G37*
G36*
X5000000D02*
X4969979Y10362040D01*
X4942004Y10350452D01*
X4917981Y10332019D01*
X4899548Y10307996D01*
X4887960Y10280021D01*
X4884008Y10250000D01*
X4887960Y10219979D01*
X4899548Y10192004D01*
X4917981Y10167981D01*
X4942004Y10149548D01*
X4969979Y10137960D01*
X5000000Y10134008D01*
X5030021Y10137960D01*
X5057996Y10149548D01*
X5082019Y10167981D01*
X5100452Y10192004D01*
X5112040Y10219979D01*
X5115992Y10250000D01*
X5112040Y10280021D01*
X5100452Y10307996D01*
X5082019Y10332019D01*
X5057996Y10350452D01*
X5030021Y10362040D01*
X5000000Y10365992D01*
D02*
G37*
G36*
X4000000D02*
X3969979Y10362040D01*
X3942004Y10350452D01*
X3917981Y10332019D01*
X3899548Y10307996D01*
X3887960Y10280021D01*
X3884008Y10250000D01*
X3887960Y10219979D01*
X3899548Y10192004D01*
X3917981Y10167981D01*
X3942004Y10149548D01*
X3969979Y10137960D01*
X4000000Y10134008D01*
X4030021Y10137960D01*
X4057996Y10149548D01*
X4082019Y10167981D01*
X4100452Y10192004D01*
X4112040Y10219979D01*
X4115992Y10250000D01*
X4112040Y10280021D01*
X4100452Y10307996D01*
X4082019Y10332019D01*
X4057996Y10350452D01*
X4030021Y10362040D01*
X4000000Y10365992D01*
D02*
G37*
G36*
X3250000D02*
X3219979Y10362040D01*
X3192004Y10350452D01*
X3167981Y10332019D01*
X3149548Y10307996D01*
X3137960Y10280021D01*
X3134008Y10250000D01*
X3137960Y10219979D01*
X3149548Y10192004D01*
X3167981Y10167981D01*
X3192004Y10149548D01*
X3219979Y10137960D01*
X3250000Y10134008D01*
X3280021Y10137960D01*
X3307996Y10149548D01*
X3332019Y10167981D01*
X3350452Y10192004D01*
X3362040Y10219979D01*
X3365992Y10250000D01*
X3362040Y10280021D01*
X3350452Y10307996D01*
X3332019Y10332019D01*
X3307996Y10350452D01*
X3280021Y10362040D01*
X3250000Y10365992D01*
D02*
G37*
G36*
X2250000D02*
X2219979Y10362040D01*
X2192004Y10350452D01*
X2167981Y10332019D01*
X2149548Y10307996D01*
X2137960Y10280021D01*
X2134008Y10250000D01*
X2137960Y10219979D01*
X2149548Y10192004D01*
X2167981Y10167981D01*
X2192004Y10149548D01*
X2219979Y10137960D01*
X2250000Y10134008D01*
X2280021Y10137960D01*
X2307996Y10149548D01*
X2332019Y10167981D01*
X2350452Y10192004D01*
X2362040Y10219979D01*
X2365992Y10250000D01*
X2362040Y10280021D01*
X2350452Y10307996D01*
X2332019Y10332019D01*
X2307996Y10350452D01*
X2280021Y10362040D01*
X2250000Y10365992D01*
D02*
G37*
G36*
X1500000D02*
X1469979Y10362040D01*
X1442004Y10350452D01*
X1417981Y10332019D01*
X1399548Y10307996D01*
X1387960Y10280021D01*
X1384008Y10250000D01*
X1387960Y10219979D01*
X1399548Y10192004D01*
X1417981Y10167981D01*
X1442004Y10149548D01*
X1469979Y10137960D01*
X1500000Y10134008D01*
X1530021Y10137960D01*
X1557996Y10149548D01*
X1582019Y10167981D01*
X1600452Y10192004D01*
X1612040Y10219979D01*
X1615992Y10250000D01*
X1612040Y10280021D01*
X1600452Y10307996D01*
X1582019Y10332019D01*
X1557996Y10350452D01*
X1530021Y10362040D01*
X1500000Y10365992D01*
D02*
G37*
G36*
X11000000Y9865992D02*
X10969979Y9862040D01*
X10942004Y9850452D01*
X10917981Y9832019D01*
X10899548Y9807996D01*
X10887960Y9780021D01*
X10884008Y9750000D01*
X10887960Y9719979D01*
X10899548Y9692004D01*
X10917981Y9667981D01*
X10942004Y9649548D01*
X10969979Y9637960D01*
X11000000Y9634008D01*
X11030021Y9637960D01*
X11057996Y9649548D01*
X11082019Y9667981D01*
X11100452Y9692004D01*
X11112040Y9719979D01*
X11115992Y9750000D01*
X11112040Y9780021D01*
X11100452Y9807996D01*
X11082019Y9832019D01*
X11057996Y9850452D01*
X11030021Y9862040D01*
X11000000Y9865992D01*
D02*
G37*
G36*
X10250000D02*
X10219979Y9862040D01*
X10192004Y9850452D01*
X10167981Y9832019D01*
X10149548Y9807996D01*
X10137960Y9780021D01*
X10134008Y9750000D01*
X10137960Y9719979D01*
X10149548Y9692004D01*
X10167981Y9667981D01*
X10192004Y9649548D01*
X10219979Y9637960D01*
X10250000Y9634008D01*
X10280021Y9637960D01*
X10307996Y9649548D01*
X10332019Y9667981D01*
X10350452Y9692004D01*
X10362040Y9719979D01*
X10365992Y9750000D01*
X10362040Y9780021D01*
X10350452Y9807996D01*
X10332019Y9832019D01*
X10307996Y9850452D01*
X10280021Y9862040D01*
X10250000Y9865992D01*
D02*
G37*
G36*
X9250000D02*
X9219979Y9862040D01*
X9192004Y9850452D01*
X9167981Y9832019D01*
X9149548Y9807996D01*
X9137960Y9780021D01*
X9134008Y9750000D01*
X9137960Y9719979D01*
X9149548Y9692004D01*
X9167981Y9667981D01*
X9192004Y9649548D01*
X9219979Y9637960D01*
X9250000Y9634008D01*
X9280021Y9637960D01*
X9307996Y9649548D01*
X9332019Y9667981D01*
X9350452Y9692004D01*
X9362040Y9719979D01*
X9365992Y9750000D01*
X9362040Y9780021D01*
X9350452Y9807996D01*
X9332019Y9832019D01*
X9307996Y9850452D01*
X9280021Y9862040D01*
X9250000Y9865992D01*
D02*
G37*
G36*
X8500000D02*
X8469979Y9862040D01*
X8442004Y9850452D01*
X8417981Y9832019D01*
X8399548Y9807996D01*
X8387960Y9780021D01*
X8384008Y9750000D01*
X8387960Y9719979D01*
X8399548Y9692004D01*
X8417981Y9667981D01*
X8442004Y9649548D01*
X8469979Y9637960D01*
X8500000Y9634008D01*
X8530021Y9637960D01*
X8557996Y9649548D01*
X8582019Y9667981D01*
X8600452Y9692004D01*
X8612040Y9719979D01*
X8615992Y9750000D01*
X8612040Y9780021D01*
X8600452Y9807996D01*
X8582019Y9832019D01*
X8557996Y9850452D01*
X8530021Y9862040D01*
X8500000Y9865992D01*
D02*
G37*
G36*
X7500000D02*
X7469979Y9862040D01*
X7442004Y9850452D01*
X7417981Y9832019D01*
X7399548Y9807996D01*
X7387960Y9780021D01*
X7384008Y9750000D01*
X7387960Y9719979D01*
X7399548Y9692004D01*
X7417981Y9667981D01*
X7442004Y9649548D01*
X7469979Y9637960D01*
X7500000Y9634008D01*
X7530021Y9637960D01*
X7557996Y9649548D01*
X7582019Y9667981D01*
X7600452Y9692004D01*
X7612040Y9719979D01*
X7615992Y9750000D01*
X7612040Y9780021D01*
X7600452Y9807996D01*
X7582019Y9832019D01*
X7557996Y9850452D01*
X7530021Y9862040D01*
X7500000Y9865992D01*
D02*
G37*
G36*
X6750000D02*
X6719979Y9862040D01*
X6692004Y9850452D01*
X6667981Y9832019D01*
X6649548Y9807996D01*
X6637960Y9780021D01*
X6634008Y9750000D01*
X6637960Y9719979D01*
X6649548Y9692004D01*
X6667981Y9667981D01*
X6692004Y9649548D01*
X6719979Y9637960D01*
X6750000Y9634008D01*
X6780021Y9637960D01*
X6807996Y9649548D01*
X6832019Y9667981D01*
X6850452Y9692004D01*
X6862040Y9719979D01*
X6865992Y9750000D01*
X6862040Y9780021D01*
X6850452Y9807996D01*
X6832019Y9832019D01*
X6807996Y9850452D01*
X6780021Y9862040D01*
X6750000Y9865992D01*
D02*
G37*
G36*
X5750000D02*
X5719979Y9862040D01*
X5692004Y9850452D01*
X5667981Y9832019D01*
X5649548Y9807996D01*
X5637960Y9780021D01*
X5634008Y9750000D01*
X5637960Y9719979D01*
X5649548Y9692004D01*
X5667981Y9667981D01*
X5692004Y9649548D01*
X5719979Y9637960D01*
X5750000Y9634008D01*
X5780021Y9637960D01*
X5807996Y9649548D01*
X5832019Y9667981D01*
X5850452Y9692004D01*
X5862040Y9719979D01*
X5865992Y9750000D01*
X5862040Y9780021D01*
X5850452Y9807996D01*
X5832019Y9832019D01*
X5807996Y9850452D01*
X5780021Y9862040D01*
X5750000Y9865992D01*
D02*
G37*
G36*
X5000000D02*
X4969979Y9862040D01*
X4942004Y9850452D01*
X4917981Y9832019D01*
X4899548Y9807996D01*
X4887960Y9780021D01*
X4884008Y9750000D01*
X4887960Y9719979D01*
X4899548Y9692004D01*
X4917981Y9667981D01*
X4942004Y9649548D01*
X4969979Y9637960D01*
X5000000Y9634008D01*
X5030021Y9637960D01*
X5057996Y9649548D01*
X5082019Y9667981D01*
X5100452Y9692004D01*
X5112040Y9719979D01*
X5115992Y9750000D01*
X5112040Y9780021D01*
X5100452Y9807996D01*
X5082019Y9832019D01*
X5057996Y9850452D01*
X5030021Y9862040D01*
X5000000Y9865992D01*
D02*
G37*
G36*
X4000000D02*
X3969979Y9862040D01*
X3942004Y9850452D01*
X3917981Y9832019D01*
X3899548Y9807996D01*
X3887960Y9780021D01*
X3884008Y9750000D01*
X3887960Y9719979D01*
X3899548Y9692004D01*
X3917981Y9667981D01*
X3942004Y9649548D01*
X3969979Y9637960D01*
X4000000Y9634008D01*
X4030021Y9637960D01*
X4057996Y9649548D01*
X4082019Y9667981D01*
X4100452Y9692004D01*
X4112040Y9719979D01*
X4115992Y9750000D01*
X4112040Y9780021D01*
X4100452Y9807996D01*
X4082019Y9832019D01*
X4057996Y9850452D01*
X4030021Y9862040D01*
X4000000Y9865992D01*
D02*
G37*
G36*
X3250000D02*
X3219979Y9862040D01*
X3192004Y9850452D01*
X3167981Y9832019D01*
X3149548Y9807996D01*
X3137960Y9780021D01*
X3134008Y9750000D01*
X3137960Y9719979D01*
X3149548Y9692004D01*
X3167981Y9667981D01*
X3192004Y9649548D01*
X3219979Y9637960D01*
X3250000Y9634008D01*
X3280021Y9637960D01*
X3307996Y9649548D01*
X3332019Y9667981D01*
X3350452Y9692004D01*
X3362040Y9719979D01*
X3365992Y9750000D01*
X3362040Y9780021D01*
X3350452Y9807996D01*
X3332019Y9832019D01*
X3307996Y9850452D01*
X3280021Y9862040D01*
X3250000Y9865992D01*
D02*
G37*
G36*
X2250000D02*
X2219979Y9862040D01*
X2192004Y9850452D01*
X2167981Y9832019D01*
X2149548Y9807996D01*
X2137960Y9780021D01*
X2134008Y9750000D01*
X2137960Y9719979D01*
X2149548Y9692004D01*
X2167981Y9667981D01*
X2192004Y9649548D01*
X2219979Y9637960D01*
X2250000Y9634008D01*
X2280021Y9637960D01*
X2307996Y9649548D01*
X2332019Y9667981D01*
X2350452Y9692004D01*
X2362040Y9719979D01*
X2365992Y9750000D01*
X2362040Y9780021D01*
X2350452Y9807996D01*
X2332019Y9832019D01*
X2307996Y9850452D01*
X2280021Y9862040D01*
X2250000Y9865992D01*
D02*
G37*
G36*
X1500000D02*
X1469979Y9862040D01*
X1442004Y9850452D01*
X1417981Y9832019D01*
X1399548Y9807996D01*
X1387960Y9780021D01*
X1384008Y9750000D01*
X1387960Y9719979D01*
X1399548Y9692004D01*
X1417981Y9667981D01*
X1442004Y9649548D01*
X1469979Y9637960D01*
X1500000Y9634008D01*
X1530021Y9637960D01*
X1557996Y9649548D01*
X1582019Y9667981D01*
X1600452Y9692004D01*
X1612040Y9719979D01*
X1615992Y9750000D01*
X1612040Y9780021D01*
X1600452Y9807996D01*
X1582019Y9832019D01*
X1557996Y9850452D01*
X1530021Y9862040D01*
X1500000Y9865992D01*
D02*
G37*
G36*
X11000000Y9365992D02*
X10969979Y9362040D01*
X10942004Y9350452D01*
X10917981Y9332019D01*
X10899548Y9307996D01*
X10887960Y9280021D01*
X10884008Y9250000D01*
X10887960Y9219979D01*
X10899548Y9192004D01*
X10917981Y9167981D01*
X10942004Y9149548D01*
X10969979Y9137960D01*
X11000000Y9134008D01*
X11030021Y9137960D01*
X11057996Y9149548D01*
X11082019Y9167981D01*
X11100452Y9192004D01*
X11112040Y9219979D01*
X11115992Y9250000D01*
X11112040Y9280021D01*
X11100452Y9307996D01*
X11082019Y9332019D01*
X11057996Y9350452D01*
X11030021Y9362040D01*
X11000000Y9365992D01*
D02*
G37*
G36*
X10250000D02*
X10219979Y9362040D01*
X10192004Y9350452D01*
X10167981Y9332019D01*
X10149548Y9307996D01*
X10137960Y9280021D01*
X10134008Y9250000D01*
X10137960Y9219979D01*
X10149548Y9192004D01*
X10167981Y9167981D01*
X10192004Y9149548D01*
X10219979Y9137960D01*
X10250000Y9134008D01*
X10280021Y9137960D01*
X10307996Y9149548D01*
X10332019Y9167981D01*
X10350452Y9192004D01*
X10362040Y9219979D01*
X10365992Y9250000D01*
X10362040Y9280021D01*
X10350452Y9307996D01*
X10332019Y9332019D01*
X10307996Y9350452D01*
X10280021Y9362040D01*
X10250000Y9365992D01*
D02*
G37*
G36*
X9250000D02*
X9219979Y9362040D01*
X9192004Y9350452D01*
X9167981Y9332019D01*
X9149548Y9307996D01*
X9137960Y9280021D01*
X9134008Y9250000D01*
X9137960Y9219979D01*
X9149548Y9192004D01*
X9167981Y9167981D01*
X9192004Y9149548D01*
X9219979Y9137960D01*
X9250000Y9134008D01*
X9280021Y9137960D01*
X9307996Y9149548D01*
X9332019Y9167981D01*
X9350452Y9192004D01*
X9362040Y9219979D01*
X9365992Y9250000D01*
X9362040Y9280021D01*
X9350452Y9307996D01*
X9332019Y9332019D01*
X9307996Y9350452D01*
X9280021Y9362040D01*
X9250000Y9365992D01*
D02*
G37*
G36*
X8500000D02*
X8469979Y9362040D01*
X8442004Y9350452D01*
X8417981Y9332019D01*
X8399548Y9307996D01*
X8387960Y9280021D01*
X8384008Y9250000D01*
X8387960Y9219979D01*
X8399548Y9192004D01*
X8417981Y9167981D01*
X8442004Y9149548D01*
X8469979Y9137960D01*
X8500000Y9134008D01*
X8530021Y9137960D01*
X8557996Y9149548D01*
X8582019Y9167981D01*
X8600452Y9192004D01*
X8612040Y9219979D01*
X8615992Y9250000D01*
X8612040Y9280021D01*
X8600452Y9307996D01*
X8582019Y9332019D01*
X8557996Y9350452D01*
X8530021Y9362040D01*
X8500000Y9365992D01*
D02*
G37*
G36*
X7500000D02*
X7469979Y9362040D01*
X7442004Y9350452D01*
X7417981Y9332019D01*
X7399548Y9307996D01*
X7387960Y9280021D01*
X7384008Y9250000D01*
X7387960Y9219979D01*
X7399548Y9192004D01*
X7417981Y9167981D01*
X7442004Y9149548D01*
X7469979Y9137960D01*
X7500000Y9134008D01*
X7530021Y9137960D01*
X7557996Y9149548D01*
X7582019Y9167981D01*
X7600452Y9192004D01*
X7612040Y9219979D01*
X7615992Y9250000D01*
X7612040Y9280021D01*
X7600452Y9307996D01*
X7582019Y9332019D01*
X7557996Y9350452D01*
X7530021Y9362040D01*
X7500000Y9365992D01*
D02*
G37*
G36*
X6750000D02*
X6719979Y9362040D01*
X6692004Y9350452D01*
X6667981Y9332019D01*
X6649548Y9307996D01*
X6637960Y9280021D01*
X6634008Y9250000D01*
X6637960Y9219979D01*
X6649548Y9192004D01*
X6667981Y9167981D01*
X6692004Y9149548D01*
X6719979Y9137960D01*
X6750000Y9134008D01*
X6780021Y9137960D01*
X6807996Y9149548D01*
X6832019Y9167981D01*
X6850452Y9192004D01*
X6862040Y9219979D01*
X6865992Y9250000D01*
X6862040Y9280021D01*
X6850452Y9307996D01*
X6832019Y9332019D01*
X6807996Y9350452D01*
X6780021Y9362040D01*
X6750000Y9365992D01*
D02*
G37*
G36*
X5750000D02*
X5719979Y9362040D01*
X5692004Y9350452D01*
X5667981Y9332019D01*
X5649548Y9307996D01*
X5637960Y9280021D01*
X5634008Y9250000D01*
X5637960Y9219979D01*
X5649548Y9192004D01*
X5667981Y9167981D01*
X5692004Y9149548D01*
X5719979Y9137960D01*
X5750000Y9134008D01*
X5780021Y9137960D01*
X5807996Y9149548D01*
X5832019Y9167981D01*
X5850452Y9192004D01*
X5862040Y9219979D01*
X5865992Y9250000D01*
X5862040Y9280021D01*
X5850452Y9307996D01*
X5832019Y9332019D01*
X5807996Y9350452D01*
X5780021Y9362040D01*
X5750000Y9365992D01*
D02*
G37*
G36*
X5000000D02*
X4969979Y9362040D01*
X4942004Y9350452D01*
X4917981Y9332019D01*
X4899548Y9307996D01*
X4887960Y9280021D01*
X4884008Y9250000D01*
X4887960Y9219979D01*
X4899548Y9192004D01*
X4917981Y9167981D01*
X4942004Y9149548D01*
X4969979Y9137960D01*
X5000000Y9134008D01*
X5030021Y9137960D01*
X5057996Y9149548D01*
X5082019Y9167981D01*
X5100452Y9192004D01*
X5112040Y9219979D01*
X5115992Y9250000D01*
X5112040Y9280021D01*
X5100452Y9307996D01*
X5082019Y9332019D01*
X5057996Y9350452D01*
X5030021Y9362040D01*
X5000000Y9365992D01*
D02*
G37*
G36*
X4000000D02*
X3969979Y9362040D01*
X3942004Y9350452D01*
X3917981Y9332019D01*
X3899548Y9307996D01*
X3887960Y9280021D01*
X3884008Y9250000D01*
X3887960Y9219979D01*
X3899548Y9192004D01*
X3917981Y9167981D01*
X3942004Y9149548D01*
X3969979Y9137960D01*
X4000000Y9134008D01*
X4030021Y9137960D01*
X4057996Y9149548D01*
X4082019Y9167981D01*
X4100452Y9192004D01*
X4112040Y9219979D01*
X4115992Y9250000D01*
X4112040Y9280021D01*
X4100452Y9307996D01*
X4082019Y9332019D01*
X4057996Y9350452D01*
X4030021Y9362040D01*
X4000000Y9365992D01*
D02*
G37*
G36*
X3250000D02*
X3219979Y9362040D01*
X3192004Y9350452D01*
X3167981Y9332019D01*
X3149548Y9307996D01*
X3137960Y9280021D01*
X3134008Y9250000D01*
X3137960Y9219979D01*
X3149548Y9192004D01*
X3167981Y9167981D01*
X3192004Y9149548D01*
X3219979Y9137960D01*
X3250000Y9134008D01*
X3280021Y9137960D01*
X3307996Y9149548D01*
X3332019Y9167981D01*
X3350452Y9192004D01*
X3362040Y9219979D01*
X3365992Y9250000D01*
X3362040Y9280021D01*
X3350452Y9307996D01*
X3332019Y9332019D01*
X3307996Y9350452D01*
X3280021Y9362040D01*
X3250000Y9365992D01*
D02*
G37*
G36*
X2250000D02*
X2219979Y9362040D01*
X2192004Y9350452D01*
X2167981Y9332019D01*
X2149548Y9307996D01*
X2137960Y9280021D01*
X2134008Y9250000D01*
X2137960Y9219979D01*
X2149548Y9192004D01*
X2167981Y9167981D01*
X2192004Y9149548D01*
X2219979Y9137960D01*
X2250000Y9134008D01*
X2280021Y9137960D01*
X2307996Y9149548D01*
X2332019Y9167981D01*
X2350452Y9192004D01*
X2362040Y9219979D01*
X2365992Y9250000D01*
X2362040Y9280021D01*
X2350452Y9307996D01*
X2332019Y9332019D01*
X2307996Y9350452D01*
X2280021Y9362040D01*
X2250000Y9365992D01*
D02*
G37*
G36*
X1500000D02*
X1469979Y9362040D01*
X1442004Y9350452D01*
X1417981Y9332019D01*
X1399548Y9307996D01*
X1387960Y9280021D01*
X1384008Y9250000D01*
X1387960Y9219979D01*
X1399548Y9192004D01*
X1417981Y9167981D01*
X1442004Y9149548D01*
X1469979Y9137960D01*
X1500000Y9134008D01*
X1530021Y9137960D01*
X1557996Y9149548D01*
X1582019Y9167981D01*
X1600452Y9192004D01*
X1612040Y9219979D01*
X1615992Y9250000D01*
X1612040Y9280021D01*
X1600452Y9307996D01*
X1582019Y9332019D01*
X1557996Y9350452D01*
X1530021Y9362040D01*
X1500000Y9365992D01*
D02*
G37*
G36*
X15651234Y8976078D02*
X15632961Y8973672D01*
X15615932Y8966618D01*
X15601309Y8955398D01*
X15590089Y8940776D01*
X15583035Y8923747D01*
X15580630Y8905474D01*
X15583035Y8887200D01*
X15590089Y8870172D01*
X15601309Y8855549D01*
X15615932Y8844329D01*
X15632961Y8837276D01*
X15651234Y8834870D01*
X15669507Y8837276D01*
X15686536Y8844329D01*
X15701158Y8855549D01*
X15712378Y8870172D01*
X15719432Y8887200D01*
X15721837Y8905474D01*
X15719432Y8923747D01*
X15712378Y8940776D01*
X15701158Y8955398D01*
X15686536Y8966618D01*
X15669507Y8973672D01*
X15651234Y8976078D01*
D02*
G37*
G36*
X13700000Y8570604D02*
X13681728Y8568198D01*
X13664697Y8561145D01*
X13650076Y8549924D01*
X13638855Y8535302D01*
X13631802Y8518274D01*
X13629396Y8500000D01*
X13631802Y8481726D01*
X13638855Y8464698D01*
X13650076Y8450076D01*
X13664697Y8438855D01*
X13681728Y8431802D01*
X13700000Y8429396D01*
X13718274Y8431802D01*
X13735303Y8438855D01*
X13749924Y8450076D01*
X13761145Y8464698D01*
X13768198Y8481726D01*
X13770604Y8500000D01*
X13768198Y8518274D01*
X13761145Y8535302D01*
X13749924Y8549924D01*
X13735303Y8561145D01*
X13718274Y8568198D01*
X13700000Y8570604D01*
D02*
G37*
G36*
X7950000Y8420604D02*
X7931727Y8418198D01*
X7914698Y8411145D01*
X7900076Y8399925D01*
X7888855Y8385302D01*
X7881802Y8368274D01*
X7879396Y8350000D01*
X7881802Y8331727D01*
X7888855Y8314698D01*
X7900076Y8300076D01*
X7914698Y8288855D01*
X7931727Y8281802D01*
X7950000Y8279396D01*
X7968274Y8281802D01*
X7985302Y8288855D01*
X7999925Y8300076D01*
X8011145Y8314698D01*
X8018198Y8331727D01*
X8020604Y8350000D01*
X8018198Y8368274D01*
X8011145Y8385302D01*
X7999925Y8399925D01*
X7985302Y8411145D01*
X7968274Y8418198D01*
X7950000Y8420604D01*
D02*
G37*
G36*
X11000000Y7865992D02*
X10969979Y7862040D01*
X10942004Y7850452D01*
X10917981Y7832019D01*
X10899548Y7807996D01*
X10887960Y7780021D01*
X10884008Y7750000D01*
X10887960Y7719979D01*
X10899548Y7692004D01*
X10917981Y7667981D01*
X10942004Y7649548D01*
X10969979Y7637960D01*
X11000000Y7634008D01*
X11030021Y7637960D01*
X11057996Y7649548D01*
X11082019Y7667981D01*
X11100452Y7692004D01*
X11112040Y7719979D01*
X11115992Y7750000D01*
X11112040Y7780021D01*
X11100452Y7807996D01*
X11082019Y7832019D01*
X11057996Y7850452D01*
X11030021Y7862040D01*
X11000000Y7865992D01*
D02*
G37*
G36*
X10250000D02*
X10219979Y7862040D01*
X10192004Y7850452D01*
X10167981Y7832019D01*
X10149548Y7807996D01*
X10137960Y7780021D01*
X10134008Y7750000D01*
X10137960Y7719979D01*
X10149548Y7692004D01*
X10167981Y7667981D01*
X10192004Y7649548D01*
X10219979Y7637960D01*
X10250000Y7634008D01*
X10280021Y7637960D01*
X10307996Y7649548D01*
X10332019Y7667981D01*
X10350452Y7692004D01*
X10362040Y7719979D01*
X10365992Y7750000D01*
X10362040Y7780021D01*
X10350452Y7807996D01*
X10332019Y7832019D01*
X10307996Y7850452D01*
X10280021Y7862040D01*
X10250000Y7865992D01*
D02*
G37*
G36*
X9250000D02*
X9219979Y7862040D01*
X9192004Y7850452D01*
X9167981Y7832019D01*
X9149548Y7807996D01*
X9137960Y7780021D01*
X9134008Y7750000D01*
X9137960Y7719979D01*
X9149548Y7692004D01*
X9167981Y7667981D01*
X9192004Y7649548D01*
X9219979Y7637960D01*
X9250000Y7634008D01*
X9280021Y7637960D01*
X9307996Y7649548D01*
X9332019Y7667981D01*
X9350452Y7692004D01*
X9362040Y7719979D01*
X9365992Y7750000D01*
X9362040Y7780021D01*
X9350452Y7807996D01*
X9332019Y7832019D01*
X9307996Y7850452D01*
X9280021Y7862040D01*
X9250000Y7865992D01*
D02*
G37*
G36*
X8500000D02*
X8469979Y7862040D01*
X8442004Y7850452D01*
X8417981Y7832019D01*
X8399548Y7807996D01*
X8387960Y7780021D01*
X8384008Y7750000D01*
X8387960Y7719979D01*
X8399548Y7692004D01*
X8417981Y7667981D01*
X8442004Y7649548D01*
X8469979Y7637960D01*
X8500000Y7634008D01*
X8530021Y7637960D01*
X8557996Y7649548D01*
X8582019Y7667981D01*
X8600452Y7692004D01*
X8612040Y7719979D01*
X8615992Y7750000D01*
X8612040Y7780021D01*
X8600452Y7807996D01*
X8582019Y7832019D01*
X8557996Y7850452D01*
X8530021Y7862040D01*
X8500000Y7865992D01*
D02*
G37*
G36*
X7500000D02*
X7469979Y7862040D01*
X7442004Y7850452D01*
X7417981Y7832019D01*
X7399548Y7807996D01*
X7387960Y7780021D01*
X7384008Y7750000D01*
X7387960Y7719979D01*
X7399548Y7692004D01*
X7417981Y7667981D01*
X7442004Y7649548D01*
X7469979Y7637960D01*
X7500000Y7634008D01*
X7530021Y7637960D01*
X7557996Y7649548D01*
X7582019Y7667981D01*
X7600452Y7692004D01*
X7612040Y7719979D01*
X7615992Y7750000D01*
X7612040Y7780021D01*
X7600452Y7807996D01*
X7582019Y7832019D01*
X7557996Y7850452D01*
X7530021Y7862040D01*
X7500000Y7865992D01*
D02*
G37*
G36*
X6750000D02*
X6719979Y7862040D01*
X6692004Y7850452D01*
X6667981Y7832019D01*
X6649548Y7807996D01*
X6637960Y7780021D01*
X6634008Y7750000D01*
X6637960Y7719979D01*
X6649548Y7692004D01*
X6667981Y7667981D01*
X6692004Y7649548D01*
X6719979Y7637960D01*
X6750000Y7634008D01*
X6780021Y7637960D01*
X6807996Y7649548D01*
X6832019Y7667981D01*
X6850452Y7692004D01*
X6862040Y7719979D01*
X6865992Y7750000D01*
X6862040Y7780021D01*
X6850452Y7807996D01*
X6832019Y7832019D01*
X6807996Y7850452D01*
X6780021Y7862040D01*
X6750000Y7865992D01*
D02*
G37*
G36*
X5750000D02*
X5719979Y7862040D01*
X5692004Y7850452D01*
X5667981Y7832019D01*
X5649548Y7807996D01*
X5637960Y7780021D01*
X5634008Y7750000D01*
X5637960Y7719979D01*
X5649548Y7692004D01*
X5667981Y7667981D01*
X5692004Y7649548D01*
X5719979Y7637960D01*
X5750000Y7634008D01*
X5780021Y7637960D01*
X5807996Y7649548D01*
X5832019Y7667981D01*
X5850452Y7692004D01*
X5862040Y7719979D01*
X5865992Y7750000D01*
X5862040Y7780021D01*
X5850452Y7807996D01*
X5832019Y7832019D01*
X5807996Y7850452D01*
X5780021Y7862040D01*
X5750000Y7865992D01*
D02*
G37*
G36*
X5000000D02*
X4969979Y7862040D01*
X4942004Y7850452D01*
X4917981Y7832019D01*
X4899548Y7807996D01*
X4887960Y7780021D01*
X4884008Y7750000D01*
X4887960Y7719979D01*
X4899548Y7692004D01*
X4917981Y7667981D01*
X4942004Y7649548D01*
X4969979Y7637960D01*
X5000000Y7634008D01*
X5030021Y7637960D01*
X5057996Y7649548D01*
X5082019Y7667981D01*
X5100452Y7692004D01*
X5112040Y7719979D01*
X5115992Y7750000D01*
X5112040Y7780021D01*
X5100452Y7807996D01*
X5082019Y7832019D01*
X5057996Y7850452D01*
X5030021Y7862040D01*
X5000000Y7865992D01*
D02*
G37*
G36*
X4000000D02*
X3969979Y7862040D01*
X3942004Y7850452D01*
X3917981Y7832019D01*
X3899548Y7807996D01*
X3887960Y7780021D01*
X3884008Y7750000D01*
X3887960Y7719979D01*
X3899548Y7692004D01*
X3917981Y7667981D01*
X3942004Y7649548D01*
X3969979Y7637960D01*
X4000000Y7634008D01*
X4030021Y7637960D01*
X4057996Y7649548D01*
X4082019Y7667981D01*
X4100452Y7692004D01*
X4112040Y7719979D01*
X4115992Y7750000D01*
X4112040Y7780021D01*
X4100452Y7807996D01*
X4082019Y7832019D01*
X4057996Y7850452D01*
X4030021Y7862040D01*
X4000000Y7865992D01*
D02*
G37*
G36*
X3250000D02*
X3219979Y7862040D01*
X3192004Y7850452D01*
X3167981Y7832019D01*
X3149548Y7807996D01*
X3137960Y7780021D01*
X3134008Y7750000D01*
X3137960Y7719979D01*
X3149548Y7692004D01*
X3167981Y7667981D01*
X3192004Y7649548D01*
X3219979Y7637960D01*
X3250000Y7634008D01*
X3280021Y7637960D01*
X3307996Y7649548D01*
X3332019Y7667981D01*
X3350452Y7692004D01*
X3362040Y7719979D01*
X3365992Y7750000D01*
X3362040Y7780021D01*
X3350452Y7807996D01*
X3332019Y7832019D01*
X3307996Y7850452D01*
X3280021Y7862040D01*
X3250000Y7865992D01*
D02*
G37*
G36*
X2250000D02*
X2219979Y7862040D01*
X2192004Y7850452D01*
X2167981Y7832019D01*
X2149548Y7807996D01*
X2137960Y7780021D01*
X2134008Y7750000D01*
X2137960Y7719979D01*
X2149548Y7692004D01*
X2167981Y7667981D01*
X2192004Y7649548D01*
X2219979Y7637960D01*
X2250000Y7634008D01*
X2280021Y7637960D01*
X2307996Y7649548D01*
X2332019Y7667981D01*
X2350452Y7692004D01*
X2362040Y7719979D01*
X2365992Y7750000D01*
X2362040Y7780021D01*
X2350452Y7807996D01*
X2332019Y7832019D01*
X2307996Y7850452D01*
X2280021Y7862040D01*
X2250000Y7865992D01*
D02*
G37*
G36*
X1500000D02*
X1469979Y7862040D01*
X1442004Y7850452D01*
X1417981Y7832019D01*
X1399548Y7807996D01*
X1387960Y7780021D01*
X1384008Y7750000D01*
X1387960Y7719979D01*
X1399548Y7692004D01*
X1417981Y7667981D01*
X1442004Y7649548D01*
X1469979Y7637960D01*
X1500000Y7634008D01*
X1530021Y7637960D01*
X1557996Y7649548D01*
X1582019Y7667981D01*
X1600452Y7692004D01*
X1612040Y7719979D01*
X1615992Y7750000D01*
X1612040Y7780021D01*
X1600452Y7807996D01*
X1582019Y7832019D01*
X1557996Y7850452D01*
X1530021Y7862040D01*
X1500000Y7865992D01*
D02*
G37*
G36*
X14500000Y7770604D02*
X14481726Y7768198D01*
X14464697Y7761145D01*
X14450075Y7749925D01*
X14438855Y7735302D01*
X14431802Y7718274D01*
X14429396Y7700000D01*
X14431802Y7681727D01*
X14438855Y7664698D01*
X14450075Y7650076D01*
X14464697Y7638855D01*
X14481726Y7631802D01*
X14500000Y7629396D01*
X14518272Y7631802D01*
X14535303Y7638855D01*
X14549924Y7650076D01*
X14561145Y7664698D01*
X14568198Y7681727D01*
X14570604Y7700000D01*
X14568198Y7718274D01*
X14561145Y7735302D01*
X14549924Y7749925D01*
X14535303Y7761145D01*
X14518272Y7768198D01*
X14500000Y7770604D01*
D02*
G37*
G36*
X14900000D02*
X14881726Y7768198D01*
X14864697Y7761145D01*
X14850075Y7749925D01*
X14838855Y7735302D01*
X14831802Y7718274D01*
X14829396Y7700000D01*
X14830061Y7694948D01*
X14340994Y7205882D01*
X12387362D01*
X12382501Y7217615D01*
X12594948Y7430061D01*
X12600000Y7429396D01*
X12618273Y7431802D01*
X12635302Y7438855D01*
X12649924Y7450076D01*
X12661145Y7464698D01*
X12668198Y7481726D01*
X12670604Y7500000D01*
X12668198Y7518274D01*
X12661145Y7535302D01*
X12649924Y7549924D01*
X12635302Y7561145D01*
X12618273Y7568198D01*
X12600000Y7570604D01*
X12581726Y7568198D01*
X12564698Y7561145D01*
X12550075Y7549924D01*
X12538855Y7535302D01*
X12531802Y7518274D01*
X12529396Y7500000D01*
X12530061Y7494948D01*
X12280995Y7245882D01*
X12027362D01*
X12022501Y7257615D01*
X12220870Y7455984D01*
X12221061Y7455972D01*
X12235683Y7444751D01*
X12252711Y7437698D01*
X12270985Y7435292D01*
X12289258Y7437698D01*
X12306287Y7444751D01*
X12320909Y7455972D01*
X12332130Y7470594D01*
X12339183Y7487623D01*
X12341589Y7505896D01*
X12339183Y7524170D01*
X12332130Y7541198D01*
X12320909Y7555821D01*
X12306287Y7567041D01*
X12289258Y7574094D01*
X12270985Y7576500D01*
X12252711Y7574094D01*
X12235683Y7567041D01*
X12221060Y7555821D01*
X12217958Y7551778D01*
X12205896D01*
X12188338Y7548285D01*
X12173453Y7538339D01*
X11930995Y7295882D01*
X11877361D01*
X11872501Y7307615D01*
X12219005Y7654119D01*
X12346974D01*
X12350076Y7650076D01*
X12364698Y7638855D01*
X12381727Y7631802D01*
X12400000Y7629396D01*
X12418274Y7631802D01*
X12435302Y7638855D01*
X12449925Y7650076D01*
X12461145Y7664698D01*
X12468198Y7681727D01*
X12470604Y7700000D01*
X12468198Y7718274D01*
X12461145Y7735302D01*
X12449925Y7749925D01*
X12435302Y7761145D01*
X12418274Y7768198D01*
X12400000Y7770604D01*
X12381727Y7768198D01*
X12364698Y7761145D01*
X12350076Y7749925D01*
X12346974Y7745882D01*
X12200000D01*
X12182442Y7742389D01*
X12167557Y7732443D01*
X12122684Y7687571D01*
X12107372Y7690219D01*
X12099924Y7699924D01*
X12085302Y7711145D01*
X12068274Y7718198D01*
X12050000Y7720604D01*
X12031727Y7718198D01*
X12014698Y7711145D01*
X12000076Y7699924D01*
X11988855Y7685302D01*
X11981802Y7668273D01*
X11979396Y7650000D01*
X11981802Y7631726D01*
X11988855Y7614698D01*
X12000076Y7600075D01*
X12009781Y7592628D01*
X12012429Y7577316D01*
X11780995Y7345881D01*
X9850000D01*
X9832442Y7342389D01*
X9817557Y7332443D01*
X8155052Y5669939D01*
X8150000Y5670604D01*
X8131726Y5668198D01*
X8114698Y5661145D01*
X8100075Y5649924D01*
X8088855Y5635302D01*
X8081802Y5618273D01*
X8079396Y5600000D01*
X8081802Y5581726D01*
X8088855Y5564698D01*
X8100075Y5550076D01*
X8114698Y5538855D01*
X8131726Y5531802D01*
X8150000Y5529396D01*
X8168273Y5531802D01*
X8185302Y5538855D01*
X8199924Y5550076D01*
X8211145Y5564698D01*
X8218198Y5581726D01*
X8220604Y5600000D01*
X8219939Y5605052D01*
X8381537Y5766651D01*
X8393563Y5762568D01*
X8393750Y5761153D01*
X8400803Y5744125D01*
X8412023Y5729502D01*
X8426646Y5718282D01*
X8439667Y5712888D01*
X8445557Y5700417D01*
X8445342Y5698199D01*
X8441941Y5681102D01*
Y5678927D01*
X8437899Y5675825D01*
X8426678Y5661203D01*
X8419625Y5644174D01*
X8417219Y5625901D01*
X8419625Y5607627D01*
X8426678Y5590599D01*
X8437899Y5575976D01*
X8452521Y5564756D01*
X8453509Y5564347D01*
X8451793Y5551311D01*
X8448849Y5550924D01*
X8431821Y5543870D01*
X8417198Y5532650D01*
X8405978Y5518028D01*
X8398925Y5500999D01*
X8396519Y5482726D01*
X8398925Y5464452D01*
X8405978Y5447424D01*
X8417198Y5432801D01*
X8431821Y5421581D01*
X8448849Y5414528D01*
X8467123Y5412122D01*
X8485396Y5414528D01*
X8502424Y5421581D01*
X8517047Y5432801D01*
X8528267Y5447424D01*
X8535320Y5464452D01*
X8537726Y5482726D01*
X8537061Y5487778D01*
X8551550Y5502267D01*
X8564006Y5499789D01*
X8566404Y5493999D01*
X8577624Y5479376D01*
X8592247Y5468156D01*
X8595597Y5466768D01*
X8598075Y5454312D01*
X8562331Y5418568D01*
X8552385Y5403683D01*
X8548892Y5386125D01*
Y5339101D01*
X8544849Y5335999D01*
X8533629Y5321376D01*
X8526576Y5304348D01*
X8524170Y5286074D01*
X8526576Y5267801D01*
X8533629Y5250772D01*
X8544849Y5236150D01*
X8559472Y5224930D01*
X8576500Y5217876D01*
X8594774Y5215470D01*
X8613047Y5217876D01*
X8630076Y5224930D01*
X8644698Y5236150D01*
X8655918Y5250772D01*
X8662972Y5267801D01*
X8665378Y5286074D01*
X8662972Y5304348D01*
X8655918Y5321376D01*
X8644698Y5335999D01*
X8640655Y5339101D01*
Y5367120D01*
X10227654Y6954118D01*
X14746974D01*
X14750076Y6950076D01*
X14764697Y6938855D01*
X14781728Y6931802D01*
X14800000Y6929396D01*
X14818274Y6931802D01*
X14835303Y6938855D01*
X14849925Y6950076D01*
X14861145Y6964698D01*
X14868198Y6981726D01*
X14870604Y7000000D01*
X14868198Y7018273D01*
X14861145Y7035302D01*
X14849925Y7049924D01*
X14835303Y7061145D01*
X14818274Y7068198D01*
X14800000Y7070604D01*
X14781728Y7068198D01*
X14764697Y7061145D01*
X14750076Y7049924D01*
X14746974Y7045882D01*
X10225610D01*
X10220749Y7057615D01*
X10237253Y7074119D01*
X14411925D01*
X14429482Y7077611D01*
X14444366Y7087557D01*
X14740910Y7384100D01*
X14745963Y7383434D01*
X14764235Y7385840D01*
X14781264Y7392894D01*
X14795886Y7404114D01*
X14807108Y7418736D01*
X14814160Y7435765D01*
X14816566Y7454038D01*
X14814160Y7472312D01*
X14807108Y7489340D01*
X14795886Y7503963D01*
X14790750Y7507903D01*
X14789645Y7524759D01*
X14894948Y7630061D01*
X14900000Y7629396D01*
X14918272Y7631802D01*
X14935303Y7638855D01*
X14949924Y7650076D01*
X14961145Y7664698D01*
X14968198Y7681727D01*
X14970604Y7700000D01*
X14968198Y7718274D01*
X14961145Y7735302D01*
X14949924Y7749925D01*
X14935303Y7761145D01*
X14918272Y7768198D01*
X14900000Y7770604D01*
D02*
G37*
G36*
X12900000Y7520604D02*
X12881728Y7518198D01*
X12864697Y7511145D01*
X12850076Y7499925D01*
X12838855Y7485302D01*
X12831802Y7468274D01*
X12829396Y7450000D01*
X12831802Y7431727D01*
X12838855Y7414698D01*
X12850076Y7400076D01*
X12864697Y7388855D01*
X12881728Y7381802D01*
X12900000Y7379396D01*
X12918274Y7381802D01*
X12935303Y7388855D01*
X12949925Y7400076D01*
X12961145Y7414698D01*
X12968198Y7431727D01*
X12970604Y7450000D01*
X12968198Y7468274D01*
X12961145Y7485302D01*
X12949925Y7499925D01*
X12935303Y7511145D01*
X12918274Y7518198D01*
X12900000Y7520604D01*
D02*
G37*
G36*
X15400000Y7470604D02*
X15381726Y7468198D01*
X15364697Y7461145D01*
X15350075Y7449924D01*
X15338855Y7435302D01*
X15331802Y7418273D01*
X15329396Y7400000D01*
X15331802Y7381726D01*
X15338855Y7364698D01*
X15350075Y7350075D01*
X15364697Y7338855D01*
X15381726Y7331802D01*
X15400000Y7329396D01*
X15418272Y7331802D01*
X15435303Y7338855D01*
X15449924Y7350075D01*
X15461145Y7364698D01*
X15468198Y7381726D01*
X15470604Y7400000D01*
X15468198Y7418273D01*
X15461145Y7435302D01*
X15449924Y7449924D01*
X15435303Y7461145D01*
X15418272Y7468198D01*
X15400000Y7470604D01*
D02*
G37*
G36*
X8750000Y7170604D02*
X8731727Y7168198D01*
X8714698Y7161145D01*
X8700076Y7149924D01*
X8688855Y7135302D01*
X8681802Y7118274D01*
X8679396Y7100000D01*
X8681802Y7081727D01*
X8688855Y7064698D01*
X8700076Y7050076D01*
X8714698Y7038855D01*
X8731727Y7031802D01*
X8750000Y7029396D01*
X8768274Y7031802D01*
X8785302Y7038855D01*
X8799924Y7050076D01*
X8811145Y7064698D01*
X8818198Y7081727D01*
X8820604Y7100000D01*
X8818198Y7118274D01*
X8811145Y7135302D01*
X8799924Y7149924D01*
X8785302Y7161145D01*
X8768274Y7168198D01*
X8750000Y7170604D01*
D02*
G37*
G36*
X9100000Y6920604D02*
X9081727Y6918198D01*
X9064698Y6911145D01*
X9050076Y6899924D01*
X9038855Y6885302D01*
X9031802Y6868274D01*
X9029396Y6850000D01*
X9031802Y6831726D01*
X9038855Y6814698D01*
X9050076Y6800076D01*
X9064698Y6788855D01*
X9081727Y6781802D01*
X9100000Y6779396D01*
X9118274Y6781802D01*
X9135302Y6788855D01*
X9149925Y6800076D01*
X9161145Y6814698D01*
X9168198Y6831726D01*
X9170604Y6850000D01*
X9168198Y6868274D01*
X9161145Y6885302D01*
X9149925Y6899924D01*
X9135302Y6911145D01*
X9118274Y6918198D01*
X9100000Y6920604D01*
D02*
G37*
G36*
X7950000Y8210733D02*
X7927811Y8207812D01*
X7907134Y8199247D01*
X7889377Y8185623D01*
X7875753Y8167867D01*
X7867188Y8147189D01*
X7864267Y8125000D01*
Y7827512D01*
X6943377Y6906623D01*
X6929753Y6888867D01*
X6921188Y6868189D01*
X6918267Y6846000D01*
X6921188Y6823811D01*
X6929753Y6803133D01*
X6943377Y6785377D01*
X6961133Y6771753D01*
X6981811Y6763188D01*
X7004000Y6760267D01*
X7026189Y6763188D01*
X7046867Y6771753D01*
X7064623Y6785377D01*
X8010623Y7731377D01*
X8024247Y7749133D01*
X8032812Y7769811D01*
X8035733Y7792000D01*
Y8125000D01*
X8032812Y8147189D01*
X8024247Y8167867D01*
X8010623Y8185623D01*
X7992867Y8199247D01*
X7972190Y8207812D01*
X7950000Y8210733D01*
D02*
G37*
G36*
X8050000Y6470604D02*
X8031726Y6468198D01*
X8014698Y6461145D01*
X8000075Y6449924D01*
X7988855Y6435302D01*
X7981802Y6418273D01*
X7979396Y6400000D01*
X7981802Y6381726D01*
X7988855Y6364698D01*
X8000075Y6350075D01*
X8014698Y6338855D01*
X8031726Y6331802D01*
X8050000Y6329396D01*
X8068273Y6331802D01*
X8085302Y6338855D01*
X8099924Y6350075D01*
X8111145Y6364698D01*
X8118198Y6381726D01*
X8120604Y6400000D01*
X8118198Y6418273D01*
X8111145Y6435302D01*
X8099924Y6449924D01*
X8085302Y6461145D01*
X8068273Y6468198D01*
X8050000Y6470604D01*
D02*
G37*
G36*
X9850000Y6420604D02*
X9831727Y6418198D01*
X9814698Y6411145D01*
X9800076Y6399924D01*
X9788855Y6385302D01*
X9781802Y6368274D01*
X9779396Y6350000D01*
X9781802Y6331726D01*
X9788855Y6314698D01*
X9800076Y6300076D01*
X9814698Y6288855D01*
X9831727Y6281802D01*
X9850000Y6279396D01*
X9868274Y6281802D01*
X9885302Y6288855D01*
X9899925Y6300076D01*
X9911145Y6314698D01*
X9918198Y6331726D01*
X9920604Y6350000D01*
X9918198Y6368274D01*
X9911145Y6385302D01*
X9899925Y6399924D01*
X9885302Y6411145D01*
X9868274Y6418198D01*
X9850000Y6420604D01*
D02*
G37*
G36*
X7800000Y6820604D02*
X7781726Y6818198D01*
X7764698Y6811145D01*
X7750075Y6799924D01*
X7738855Y6785302D01*
X7731802Y6768273D01*
X7729396Y6750000D01*
X7731802Y6731726D01*
X7738855Y6714698D01*
X7750075Y6700075D01*
X7754118Y6696973D01*
Y6400000D01*
X7757611Y6382442D01*
X7767557Y6367557D01*
X7967557Y6167557D01*
X7982442Y6157611D01*
X8000000Y6154119D01*
X8350000D01*
X8367558Y6157611D01*
X8382443Y6167557D01*
X8494948Y6280061D01*
X8500000Y6279396D01*
X8518274Y6281802D01*
X8535302Y6288855D01*
X8549924Y6300076D01*
X8561145Y6314698D01*
X8568198Y6331726D01*
X8570604Y6350000D01*
X8568198Y6368274D01*
X8561145Y6385302D01*
X8549924Y6399924D01*
X8535302Y6411145D01*
X8518274Y6418198D01*
X8500000Y6420604D01*
X8481726Y6418198D01*
X8464698Y6411145D01*
X8450076Y6399924D01*
X8438855Y6385302D01*
X8431802Y6368274D01*
X8429396Y6350000D01*
X8430061Y6344948D01*
X8330995Y6245882D01*
X8019005D01*
X7845881Y6419005D01*
Y6696973D01*
X7849924Y6700075D01*
X7861145Y6714698D01*
X7868198Y6731726D01*
X7870604Y6750000D01*
X7868198Y6768273D01*
X7861145Y6785302D01*
X7849924Y6799924D01*
X7835302Y6811145D01*
X7818273Y6818198D01*
X7800000Y6820604D01*
D02*
G37*
G36*
X10450000Y6270604D02*
X10431726Y6268198D01*
X10414698Y6261145D01*
X10401451Y6250980D01*
X10000000D01*
X9980491Y6247099D01*
X9963952Y6236048D01*
X9004903Y5276999D01*
X8993852Y5260460D01*
X8989972Y5240951D01*
Y5012067D01*
X8698282Y4720378D01*
X8681727Y4718198D01*
X8664698Y4711145D01*
X8650076Y4699925D01*
X8638855Y4685302D01*
X8631802Y4668274D01*
X8629396Y4650000D01*
X8631802Y4631727D01*
X8638855Y4614698D01*
X8650076Y4600076D01*
X8664698Y4588855D01*
X8681727Y4581802D01*
X8700000Y4579396D01*
X8718274Y4581802D01*
X8720069Y4582546D01*
X8734016Y4576381D01*
X8738855Y4564698D01*
X8750075Y4550075D01*
X8764698Y4538855D01*
X8781726Y4531802D01*
X8800000Y4529396D01*
X8818273Y4531802D01*
X8835302Y4538855D01*
X8848549Y4549020D01*
X8963124D01*
X8982633Y4552901D01*
X8999172Y4563952D01*
X10334240Y5899020D01*
X10401451D01*
X10414698Y5888855D01*
X10431726Y5881802D01*
X10450000Y5879396D01*
X10468273Y5881802D01*
X10485302Y5888855D01*
X10499924Y5900076D01*
X10511145Y5914698D01*
X10518198Y5931727D01*
X10520604Y5950000D01*
X10518198Y5968274D01*
X10511145Y5985302D01*
X10499924Y5999924D01*
X10485302Y6011145D01*
X10468273Y6018198D01*
X10450000Y6020604D01*
X10431726Y6018198D01*
X10414698Y6011145D01*
X10401451Y6000980D01*
X10313124D01*
X10293615Y5997099D01*
X10277076Y5986048D01*
X8942008Y4650980D01*
X8848549D01*
X8835302Y4661145D01*
X8818273Y4668198D01*
X8809420Y4669364D01*
X8804868Y4682772D01*
X9076999Y4954903D01*
X9088050Y4971442D01*
X9091931Y4990951D01*
Y5219835D01*
X10021117Y6149020D01*
X10401451D01*
X10414698Y6138855D01*
X10431726Y6131802D01*
X10450000Y6129396D01*
X10468273Y6131802D01*
X10485302Y6138855D01*
X10499924Y6150076D01*
X10511145Y6164698D01*
X10518198Y6181727D01*
X10520604Y6200000D01*
X10518198Y6218274D01*
X10511145Y6235302D01*
X10499924Y6249925D01*
X10485302Y6261145D01*
X10468273Y6268198D01*
X10450000Y6270604D01*
D02*
G37*
G36*
X9200000Y5870604D02*
X9181726Y5868198D01*
X9164698Y5861145D01*
X9150075Y5849925D01*
X9138855Y5835302D01*
X9131802Y5818274D01*
X9129396Y5800000D01*
X9131802Y5781727D01*
X9138855Y5764698D01*
X9150075Y5750076D01*
X9164698Y5738855D01*
X9181726Y5731802D01*
X9200000Y5729396D01*
X9218273Y5731802D01*
X9235302Y5738855D01*
X9249924Y5750076D01*
X9261145Y5764698D01*
X9268198Y5781727D01*
X9270604Y5800000D01*
X9268198Y5818274D01*
X9261145Y5835302D01*
X9249924Y5849925D01*
X9235302Y5861145D01*
X9218273Y5868198D01*
X9200000Y5870604D01*
D02*
G37*
G36*
X2562500Y5975000D02*
X2437500D01*
X2375000Y5912500D01*
Y5787500D01*
X2437500Y5725000D01*
X2562500D01*
X2625000Y5787500D01*
Y5912500D01*
X2562500Y5975000D01*
D02*
G37*
G36*
X12700000Y5695604D02*
X12681726Y5693198D01*
X12664698Y5686145D01*
X12650076Y5674924D01*
X12638855Y5660302D01*
X12631802Y5643273D01*
X12629396Y5625000D01*
X12631802Y5606726D01*
X12638855Y5589698D01*
X12650076Y5575075D01*
X12664698Y5563855D01*
X12681726Y5556802D01*
X12700000Y5554396D01*
X12718274Y5556802D01*
X12735302Y5563855D01*
X12749924Y5575075D01*
X12761145Y5589698D01*
X12768198Y5606726D01*
X12770604Y5625000D01*
X12768198Y5643273D01*
X12761145Y5660302D01*
X12749924Y5674924D01*
X12735302Y5686145D01*
X12718274Y5693198D01*
X12700000Y5695604D01*
D02*
G37*
G36*
X12100000D02*
X12081726Y5693198D01*
X12064698Y5686145D01*
X12050075Y5674924D01*
X12038855Y5660302D01*
X12031802Y5643273D01*
X12029396Y5625000D01*
X12031802Y5606726D01*
X12038855Y5589698D01*
X12050075Y5575075D01*
X12064698Y5563855D01*
X12081726Y5556802D01*
X12100000Y5554396D01*
X12118273Y5556802D01*
X12135302Y5563855D01*
X12149924Y5575075D01*
X12161145Y5589698D01*
X12168198Y5606726D01*
X12170604Y5625000D01*
X12168198Y5643273D01*
X12161145Y5660302D01*
X12149924Y5674924D01*
X12135302Y5686145D01*
X12118273Y5693198D01*
X12100000Y5695604D01*
D02*
G37*
G36*
X7450000Y5570604D02*
X7431727Y5568198D01*
X7414698Y5561145D01*
X7400076Y5549924D01*
X7388855Y5535302D01*
X7381802Y5518273D01*
X7379396Y5500000D01*
X7381802Y5481726D01*
X7388855Y5464698D01*
X7400076Y5450075D01*
X7414698Y5438855D01*
X7431727Y5431802D01*
X7450000Y5429396D01*
X7468274Y5431802D01*
X7485302Y5438855D01*
X7499925Y5450075D01*
X7511145Y5464698D01*
X7518198Y5481726D01*
X7520604Y5500000D01*
X7518198Y5518273D01*
X7511145Y5535302D01*
X7499925Y5549924D01*
X7485302Y5561145D01*
X7468274Y5568198D01*
X7450000Y5570604D01*
D02*
G37*
G36*
X14850000Y5370604D02*
X14831726Y5368198D01*
X14814697Y5361145D01*
X14800076Y5349925D01*
X14788855Y5335302D01*
X14781802Y5318274D01*
X14779396Y5300000D01*
X14781802Y5281727D01*
X14788855Y5264698D01*
X14800076Y5250076D01*
X14814697Y5238855D01*
X14831726Y5231802D01*
X14850000Y5229396D01*
X14868274Y5231802D01*
X14885303Y5238855D01*
X14899924Y5250076D01*
X14911145Y5264698D01*
X14918198Y5281727D01*
X14920604Y5300000D01*
X14918198Y5318274D01*
X14911145Y5335302D01*
X14899924Y5349925D01*
X14885303Y5361145D01*
X14868274Y5368198D01*
X14850000Y5370604D01*
D02*
G37*
G36*
X10900000Y4720604D02*
X10881727Y4718198D01*
X10864698Y4711145D01*
X10850076Y4699925D01*
X10838855Y4685302D01*
X10831802Y4668274D01*
X10829396Y4650000D01*
X10831802Y4631727D01*
X10838855Y4614698D01*
X10850076Y4600076D01*
X10864698Y4588855D01*
X10881727Y4581802D01*
X10900000Y4579396D01*
X10918274Y4581802D01*
X10935302Y4588855D01*
X10949925Y4600076D01*
X10961145Y4614698D01*
X10968198Y4631727D01*
X10970604Y4650000D01*
X10968198Y4668274D01*
X10961145Y4685302D01*
X10949925Y4699925D01*
X10935302Y4711145D01*
X10918274Y4718198D01*
X10900000Y4720604D01*
D02*
G37*
G36*
X10650000D02*
X10631727Y4718198D01*
X10614698Y4711145D01*
X10600076Y4699925D01*
X10588855Y4685302D01*
X10581802Y4668274D01*
X10579396Y4650000D01*
X10581802Y4631727D01*
X10588855Y4614698D01*
X10600076Y4600076D01*
X10614698Y4588855D01*
X10631727Y4581802D01*
X10650000Y4579396D01*
X10668274Y4581802D01*
X10685302Y4588855D01*
X10699924Y4600076D01*
X10711145Y4614698D01*
X10718198Y4631727D01*
X10720604Y4650000D01*
X10718198Y4668274D01*
X10711145Y4685302D01*
X10699924Y4699925D01*
X10685302Y4711145D01*
X10668274Y4718198D01*
X10650000Y4720604D01*
D02*
G37*
G36*
X15800000Y5975980D02*
X14350000D01*
X14330492Y5972099D01*
X14313953Y5961048D01*
X12796883Y4443979D01*
X11093000D01*
X11073491Y4440099D01*
X11056952Y4429048D01*
X10998282Y4370378D01*
X10981727Y4368198D01*
X10964698Y4361145D01*
X10950076Y4349924D01*
X10938855Y4335302D01*
X10931802Y4318274D01*
X10929396Y4300000D01*
X10931802Y4281727D01*
X10938855Y4264698D01*
X10950076Y4250076D01*
X10964698Y4238855D01*
X10981727Y4231802D01*
X11000000Y4229396D01*
X11018274Y4231802D01*
X11035302Y4238855D01*
X11049925Y4250076D01*
X11061145Y4264698D01*
X11068198Y4281727D01*
X11070378Y4298282D01*
X11114116Y4342020D01*
X12817999D01*
X12837509Y4345901D01*
X12854048Y4356952D01*
X14371117Y5874021D01*
X15778883D01*
X16249020Y5403884D01*
Y4646116D01*
X16161884Y4558979D01*
X15864183D01*
X15859187Y4571039D01*
X15839151Y4597151D01*
X15813039Y4617187D01*
X15785773Y4628482D01*
X15785767Y4628502D01*
Y4641498D01*
X15785773Y4641518D01*
X15813039Y4652813D01*
X15839151Y4672849D01*
X15859187Y4698961D01*
X15871783Y4729368D01*
X15876077Y4762000D01*
X15871783Y4794632D01*
X15859187Y4825039D01*
X15839151Y4851151D01*
X15813039Y4871187D01*
X15785773Y4882482D01*
X15785767Y4882502D01*
Y4895498D01*
X15785773Y4895518D01*
X15813039Y4906813D01*
X15839151Y4926849D01*
X15859187Y4952961D01*
X15871783Y4983368D01*
X15876077Y5016000D01*
X15871783Y5048632D01*
X15859187Y5079039D01*
X15839151Y5105151D01*
X15813039Y5125187D01*
X15782632Y5137782D01*
X15750000Y5142078D01*
X15717368Y5137782D01*
X15686961Y5125187D01*
X15660849Y5105151D01*
X15640813Y5079039D01*
X15628217Y5048632D01*
X15623923Y5016000D01*
X15628217Y4983368D01*
X15640813Y4952961D01*
X15660849Y4926849D01*
X15686961Y4906813D01*
X15714227Y4895518D01*
X15714233Y4895498D01*
Y4882502D01*
X15714227Y4882482D01*
X15686961Y4871187D01*
X15660849Y4851151D01*
X15640813Y4825039D01*
X15628217Y4794632D01*
X15623923Y4762000D01*
X15628217Y4729368D01*
X15640813Y4698961D01*
X15660849Y4672849D01*
X15686961Y4652813D01*
X15714227Y4641518D01*
X15714233Y4641498D01*
Y4628502D01*
X15714227Y4628482D01*
X15686961Y4617187D01*
X15660849Y4597151D01*
X15640813Y4571039D01*
X15628217Y4540632D01*
X15623923Y4508000D01*
X15628217Y4475368D01*
X15640813Y4444961D01*
X15660849Y4418849D01*
X15686961Y4398813D01*
X15714227Y4387518D01*
X15714233Y4387498D01*
Y4374502D01*
X15714227Y4374482D01*
X15686961Y4363187D01*
X15660849Y4343151D01*
X15640813Y4317039D01*
X15628217Y4286632D01*
X15623923Y4254000D01*
X15628217Y4221368D01*
X15640813Y4190961D01*
X15660849Y4164849D01*
X15686961Y4144813D01*
X15714227Y4133518D01*
X15714233Y4133498D01*
Y4120502D01*
X15714227Y4120482D01*
X15686961Y4109187D01*
X15660849Y4089151D01*
X15640813Y4063039D01*
X15628217Y4032632D01*
X15623923Y4000000D01*
X15628217Y3967368D01*
X15640813Y3936961D01*
X15660849Y3910849D01*
X15686961Y3890813D01*
X15714227Y3879518D01*
X15714233Y3879498D01*
Y3866502D01*
X15714227Y3866482D01*
X15686961Y3855187D01*
X15660849Y3835151D01*
X15640813Y3809039D01*
X15628217Y3778632D01*
X15623923Y3746000D01*
X15628217Y3713368D01*
X15640813Y3682961D01*
X15660849Y3656849D01*
X15686961Y3636813D01*
X15714227Y3625518D01*
X15714233Y3625498D01*
Y3612502D01*
X15714227Y3612482D01*
X15686961Y3601187D01*
X15660849Y3581151D01*
X15640813Y3555039D01*
X15628217Y3524632D01*
X15623923Y3492000D01*
X15628217Y3459368D01*
X15640813Y3428961D01*
X15660849Y3402849D01*
X15686961Y3382813D01*
X15714227Y3371518D01*
X15714233Y3371498D01*
Y3358502D01*
X15714227Y3358482D01*
X15686961Y3347187D01*
X15660849Y3327151D01*
X15640813Y3301039D01*
X15628217Y3270632D01*
X15623923Y3238000D01*
X15628217Y3205368D01*
X15640813Y3174961D01*
X15660849Y3148849D01*
X15686961Y3128813D01*
X15714227Y3117518D01*
X15714233Y3117498D01*
Y3104502D01*
X15714227Y3104482D01*
X15686961Y3093187D01*
X15660849Y3073151D01*
X15640813Y3047039D01*
X15628217Y3016632D01*
X15623923Y2984000D01*
X15628217Y2951368D01*
X15640813Y2920961D01*
X15660849Y2894849D01*
X15686961Y2874813D01*
X15704134Y2867700D01*
X15701607Y2855000D01*
X15687500D01*
X15625000Y2792500D01*
Y2778393D01*
X15612300Y2775867D01*
X15605186Y2793039D01*
X15585152Y2819151D01*
X15559039Y2839187D01*
X15528632Y2851782D01*
X15496001Y2856078D01*
X15463368Y2851782D01*
X15432961Y2839187D01*
X15406850Y2819151D01*
X15386813Y2793039D01*
X15374217Y2762632D01*
X15369922Y2730000D01*
X15374217Y2697368D01*
X15386813Y2666961D01*
X15406850Y2640849D01*
X15432961Y2620813D01*
X15463368Y2608217D01*
X15496001Y2603921D01*
X15528632Y2608217D01*
X15559039Y2620813D01*
X15585152Y2640849D01*
X15605186Y2666961D01*
X15612300Y2684133D01*
X15625000Y2681607D01*
Y2667500D01*
X15687500Y2605000D01*
X15812500D01*
X15875000Y2667500D01*
Y2792500D01*
X15812500Y2855000D01*
X15798393D01*
X15795866Y2867700D01*
X15813039Y2874813D01*
X15839151Y2894849D01*
X15859187Y2920961D01*
X15871783Y2951368D01*
X15876077Y2984000D01*
X15871783Y3016632D01*
X15859187Y3047039D01*
X15839151Y3073151D01*
X15813039Y3093187D01*
X15785773Y3104482D01*
X15785767Y3104502D01*
Y3117498D01*
X15785773Y3117518D01*
X15813039Y3128813D01*
X15839151Y3148849D01*
X15859187Y3174961D01*
X15871783Y3205368D01*
X15876077Y3238000D01*
X15871783Y3270632D01*
X15859187Y3301039D01*
X15839151Y3327151D01*
X15813039Y3347187D01*
X15785773Y3358482D01*
X15785767Y3358502D01*
Y3371498D01*
X15785773Y3371518D01*
X15813039Y3382813D01*
X15839151Y3402849D01*
X15859187Y3428961D01*
X15871783Y3459368D01*
X15876077Y3492000D01*
X15871783Y3524632D01*
X15859187Y3555039D01*
X15839151Y3581151D01*
X15813039Y3601187D01*
X15785773Y3612482D01*
X15785767Y3612502D01*
Y3625498D01*
X15785773Y3625518D01*
X15813039Y3636813D01*
X15839151Y3656849D01*
X15859187Y3682961D01*
X15871783Y3713368D01*
X15876077Y3746000D01*
X15871783Y3778632D01*
X15859187Y3809039D01*
X15839151Y3835151D01*
X15813039Y3855187D01*
X15785773Y3866482D01*
X15785767Y3866502D01*
Y3879498D01*
X15785773Y3879518D01*
X15813039Y3890813D01*
X15839151Y3910849D01*
X15859187Y3936961D01*
X15871783Y3967368D01*
X15876077Y4000000D01*
X15871783Y4032632D01*
X15859187Y4063039D01*
X15839151Y4089151D01*
X15813039Y4109187D01*
X15785773Y4120482D01*
X15785767Y4120502D01*
Y4133498D01*
X15785773Y4133518D01*
X15813039Y4144813D01*
X15839151Y4164849D01*
X15859187Y4190961D01*
X15871783Y4221368D01*
X15876077Y4254000D01*
X15871783Y4286632D01*
X15859187Y4317039D01*
X15839151Y4343151D01*
X15813039Y4363187D01*
X15785773Y4374482D01*
X15785767Y4374502D01*
Y4387498D01*
X15785773Y4387518D01*
X15813039Y4398813D01*
X15839151Y4418849D01*
X15859187Y4444961D01*
X15864183Y4457020D01*
X16183000D01*
X16202509Y4460901D01*
X16219048Y4471952D01*
X16336047Y4588952D01*
X16347099Y4605491D01*
X16350980Y4625000D01*
Y5425000D01*
X16347099Y5444509D01*
X16336047Y5461048D01*
X15836047Y5961048D01*
X15819508Y5972099D01*
X15800000Y5975980D01*
D02*
G37*
G36*
X5012500Y4624999D02*
X4887500D01*
X4825000Y4562500D01*
Y4437500D01*
X4887500Y4375000D01*
X5012500D01*
X5075000Y4437500D01*
Y4562500D01*
X5012500Y4624999D01*
D02*
G37*
G36*
X14944250Y5064854D02*
X14925977Y5062448D01*
X14908948Y5055395D01*
X14894325Y5044174D01*
X14883105Y5029552D01*
X14876051Y5012523D01*
X14873647Y4994250D01*
X14876051Y4975976D01*
X14883105Y4958948D01*
X14887520Y4953194D01*
Y4204372D01*
X14874924Y4199925D01*
X14860303Y4211145D01*
X14843274Y4218198D01*
X14825000Y4220604D01*
X14806728Y4218198D01*
X14789697Y4211145D01*
X14775076Y4199925D01*
X14763855Y4185302D01*
X14756802Y4168274D01*
X14754396Y4150000D01*
X14756802Y4131727D01*
X14763855Y4114698D01*
X14775076Y4100076D01*
X14789697Y4088855D01*
X14806728Y4081802D01*
X14825000Y4079396D01*
X14843274Y4081802D01*
X14860303Y4088855D01*
X14874924Y4100076D01*
X14887520Y4095629D01*
Y3809616D01*
X14728883Y3650980D01*
X14412404D01*
X14409879Y3663680D01*
X14410303Y3663855D01*
X14424924Y3675075D01*
X14436145Y3689698D01*
X14443198Y3706726D01*
X14445604Y3725000D01*
X14443198Y3743273D01*
X14436145Y3760302D01*
X14424924Y3774924D01*
X14410303Y3786145D01*
X14393272Y3793198D01*
X14375000Y3795604D01*
X14356726Y3793198D01*
X14339697Y3786145D01*
X14326451Y3775979D01*
X11225000D01*
X11205491Y3772099D01*
X11188952Y3761048D01*
X10428884Y3000980D01*
X10414493D01*
X10410640Y3013680D01*
X10411048Y3013952D01*
X11346116Y3949020D01*
X14226451D01*
X14239697Y3938855D01*
X14256726Y3931802D01*
X14275000Y3929396D01*
X14293272Y3931802D01*
X14310303Y3938855D01*
X14324924Y3950075D01*
X14336145Y3964698D01*
X14343198Y3981726D01*
X14345604Y4000000D01*
X14343198Y4018273D01*
X14336145Y4035302D01*
X14324924Y4049924D01*
X14310303Y4061145D01*
X14293272Y4068198D01*
X14275000Y4070604D01*
X14256726Y4068198D01*
X14239697Y4061145D01*
X14226451Y4050979D01*
X11325000D01*
X11305491Y4047099D01*
X11288952Y4036048D01*
X10353884Y3100980D01*
X8884471D01*
X8883525Y3102353D01*
X8883840Y3106108D01*
X8888824Y3117050D01*
X8901640Y3122359D01*
X8916263Y3133579D01*
X8927483Y3148202D01*
X8934536Y3165230D01*
X8936942Y3183504D01*
X8934536Y3201777D01*
X8927483Y3218806D01*
X8916263Y3233428D01*
X8901640Y3244648D01*
X8884612Y3251702D01*
X8866338Y3254108D01*
X8848065Y3251702D01*
X8831036Y3244648D01*
X8816414Y3233428D01*
X8805194Y3218806D01*
X8798140Y3201777D01*
X8796993Y3193064D01*
X8783584Y3188512D01*
X8625980Y3346116D01*
Y3751451D01*
X8636145Y3764698D01*
X8643198Y3781726D01*
X8645604Y3800000D01*
X8643198Y3818274D01*
X8636145Y3835302D01*
X8624925Y3849924D01*
X8610302Y3861145D01*
X8593274Y3868198D01*
X8575000Y3870604D01*
X8556727Y3868198D01*
X8539698Y3861145D01*
X8525076Y3849924D01*
X8513855Y3835302D01*
X8506802Y3818274D01*
X8504396Y3800000D01*
X8506802Y3781726D01*
X8513855Y3764698D01*
X8524021Y3751451D01*
Y3325000D01*
X8527901Y3305491D01*
X8538952Y3288952D01*
X8813952Y3013952D01*
X8814360Y3013680D01*
X8810507Y3000980D01*
X8646116D01*
X8175980Y3471116D01*
Y4001451D01*
X8186145Y4014698D01*
X8193198Y4031727D01*
X8195604Y4050000D01*
X8193198Y4068274D01*
X8186145Y4085302D01*
X8174924Y4099924D01*
X8160302Y4111145D01*
X8143274Y4118198D01*
X8125000Y4120604D01*
X8106726Y4118198D01*
X8089698Y4111145D01*
X8075076Y4099924D01*
X8063855Y4085302D01*
X8056802Y4068274D01*
X8054396Y4050000D01*
X8056802Y4031727D01*
X8063855Y4014698D01*
X8074020Y4001451D01*
Y3450000D01*
X8077901Y3430491D01*
X8088952Y3413952D01*
X8588952Y2913952D01*
X8605491Y2902901D01*
X8625000Y2899020D01*
X10433506D01*
X10437464Y2886320D01*
X10427901Y2872009D01*
X10424020Y2852500D01*
Y2798549D01*
X10413855Y2785302D01*
X10406802Y2768274D01*
X10404396Y2750000D01*
X10406802Y2731727D01*
X10413855Y2714698D01*
X10425075Y2700076D01*
X10439698Y2688855D01*
X10456726Y2681802D01*
X10475000Y2679396D01*
X10493273Y2681802D01*
X10510302Y2688855D01*
X10524924Y2700076D01*
X10536145Y2714698D01*
X10543198Y2731727D01*
X10545604Y2750000D01*
X10543198Y2768274D01*
X10536145Y2785302D01*
X10525979Y2798549D01*
Y2831383D01*
X11243617Y3549021D01*
X14750000D01*
X14766901Y3552382D01*
X14769019Y3551978D01*
X14775314Y3548403D01*
X14780093Y3544700D01*
X14781802Y3531726D01*
X14788855Y3514698D01*
X14800076Y3500076D01*
X14814697Y3488855D01*
X14831726Y3481802D01*
X14850000Y3479396D01*
X14868274Y3481802D01*
X14885303Y3488855D01*
X14899924Y3500076D01*
X14911145Y3514698D01*
X14918198Y3531726D01*
X14920604Y3550000D01*
X14918198Y3568274D01*
X14911145Y3585302D01*
X14899924Y3599924D01*
X14885303Y3611145D01*
X14868274Y3618198D01*
X14859419Y3619364D01*
X14854868Y3632773D01*
X14974548Y3752452D01*
X14985599Y3768991D01*
X14989481Y3788500D01*
Y4940723D01*
X14994174Y4944325D01*
X15005396Y4958948D01*
X15012448Y4975976D01*
X15014854Y4994250D01*
X15012448Y5012523D01*
X15005396Y5029552D01*
X14994174Y5044174D01*
X14979552Y5055395D01*
X14962524Y5062448D01*
X14944250Y5064854D01*
D02*
G37*
G36*
X5350000Y4320604D02*
X5331726Y4318198D01*
X5314698Y4311145D01*
X5300076Y4299924D01*
X5288855Y4285302D01*
X5281802Y4268273D01*
X5279396Y4250000D01*
X5281802Y4231726D01*
X5288855Y4214698D01*
X5300076Y4200075D01*
X5314698Y4188855D01*
X5331726Y4181802D01*
X5350000Y4179396D01*
X5368273Y4181802D01*
X5385302Y4188855D01*
X5399924Y4200075D01*
X5411145Y4214698D01*
X5418198Y4231726D01*
X5420604Y4250000D01*
X5418198Y4268273D01*
X5411145Y4285302D01*
X5399924Y4299924D01*
X5385302Y4311145D01*
X5368273Y4318198D01*
X5350000Y4320604D01*
D02*
G37*
G36*
X500000Y4296251D02*
X462147Y4291268D01*
X426874Y4276657D01*
X396585Y4253415D01*
X373343Y4223126D01*
X358732Y4187853D01*
X353749Y4150000D01*
X358732Y4112147D01*
X373343Y4076874D01*
X396585Y4046585D01*
X426874Y4023343D01*
X462147Y4008732D01*
X500000Y4003749D01*
X537853Y4008732D01*
X573126Y4023343D01*
X603415Y4046585D01*
X626657Y4076874D01*
X641268Y4112147D01*
X646251Y4150000D01*
X641268Y4187853D01*
X626657Y4223126D01*
X603415Y4253415D01*
X573126Y4276657D01*
X537853Y4291268D01*
X500000Y4296251D01*
D02*
G37*
G36*
X5350000Y4070604D02*
X5331726Y4068198D01*
X5314698Y4061145D01*
X5300076Y4049924D01*
X5288855Y4035302D01*
X5281802Y4018273D01*
X5279396Y4000000D01*
X5281802Y3981726D01*
X5288855Y3964698D01*
X5300076Y3950075D01*
X5314698Y3938855D01*
X5331726Y3931802D01*
X5350000Y3929396D01*
X5368273Y3931802D01*
X5385302Y3938855D01*
X5399924Y3950075D01*
X5411145Y3964698D01*
X5418198Y3981726D01*
X5420604Y4000000D01*
X5418198Y4018273D01*
X5411145Y4035302D01*
X5399924Y4049924D01*
X5385302Y4061145D01*
X5368273Y4068198D01*
X5350000Y4070604D01*
D02*
G37*
G36*
X9810000Y5035000D02*
X9590000D01*
Y4415000D01*
X9610549D01*
Y4256458D01*
X9611605Y4248434D01*
X9600468Y4235733D01*
X9537579D01*
X9515389Y4232812D01*
X9494712Y4224247D01*
X9476956Y4210623D01*
X9463332Y4192867D01*
X9454767Y4172190D01*
X9451845Y4150000D01*
X9454767Y4127811D01*
X9463332Y4107133D01*
X9476956Y4089377D01*
X9494712Y4075753D01*
X9515389Y4067188D01*
X9537579Y4064267D01*
X9577067D01*
X9590000Y4051333D01*
Y3565000D01*
X9798861D01*
X9803172Y3552300D01*
X9800076Y3549925D01*
X9788855Y3535302D01*
X9781802Y3518274D01*
X9779396Y3500000D01*
X9781802Y3481727D01*
X9788855Y3464698D01*
X9800076Y3450076D01*
X9814698Y3438855D01*
X9815122Y3438680D01*
X9812596Y3425980D01*
X9246116D01*
X8636048Y4036048D01*
X8619509Y4047099D01*
X8600000Y4050979D01*
X8473549D01*
X8460302Y4061145D01*
X8443273Y4068198D01*
X8425000Y4070604D01*
X8406726Y4068198D01*
X8389698Y4061145D01*
X8375075Y4049924D01*
X8363855Y4035302D01*
X8356802Y4018273D01*
X8354396Y4000000D01*
X8356802Y3981726D01*
X8363855Y3964698D01*
X8375075Y3950075D01*
X8389698Y3938855D01*
X8406726Y3931802D01*
X8425000Y3929396D01*
X8443273Y3931802D01*
X8460302Y3938855D01*
X8473549Y3949020D01*
X8578884D01*
X9188952Y3338952D01*
X9205491Y3327901D01*
X9225000Y3324021D01*
X10500000D01*
X10519509Y3327901D01*
X10536048Y3338952D01*
X11296117Y4099021D01*
X14200000D01*
X14219508Y4102901D01*
X14236047Y4113952D01*
X14376718Y4254622D01*
X14393272Y4256802D01*
X14410303Y4263855D01*
X14424924Y4275076D01*
X14436145Y4289698D01*
X14443198Y4306726D01*
X14445604Y4325000D01*
X14443198Y4343274D01*
X14436145Y4360302D01*
X14424924Y4374924D01*
X14410303Y4386145D01*
X14393272Y4393198D01*
X14375000Y4395604D01*
X14356726Y4393198D01*
X14339697Y4386145D01*
X14325075Y4374924D01*
X14313855Y4360302D01*
X14306802Y4343274D01*
X14304622Y4326718D01*
X14178883Y4200980D01*
X11275000D01*
X11255491Y4197099D01*
X11238952Y4186048D01*
X10478884Y3425980D01*
X9887404D01*
X9884878Y3438680D01*
X9885302Y3438855D01*
X9899925Y3450076D01*
X9911145Y3464698D01*
X9918198Y3481727D01*
X9920604Y3500000D01*
X9918198Y3518274D01*
X9911145Y3535302D01*
X9899925Y3549925D01*
X9885302Y3561145D01*
X9868274Y3568198D01*
X9850000Y3570604D01*
X9831727Y3568198D01*
X9822429Y3564347D01*
X9810000Y3572945D01*
Y3664267D01*
X10100000D01*
X10105572Y3665000D01*
X10215000D01*
Y3835000D01*
X10105572D01*
X10100000Y3835734D01*
X9810000D01*
Y4177055D01*
X9822429Y4185653D01*
X9831727Y4181802D01*
X9850000Y4179396D01*
X9868274Y4181802D01*
X9885302Y4188855D01*
X9899925Y4200075D01*
X9911145Y4214698D01*
X9918198Y4231726D01*
X9920604Y4250000D01*
X9918198Y4268273D01*
X9911145Y4285302D01*
X9899925Y4299924D01*
X9885302Y4311145D01*
X9868274Y4318198D01*
X9850000Y4320604D01*
X9831727Y4318198D01*
X9814698Y4311145D01*
X9800076Y4299924D01*
X9794716Y4292939D01*
X9782016Y4297250D01*
Y4415000D01*
X9810000D01*
Y4814267D01*
X10100000D01*
X10105572Y4815000D01*
X10215000D01*
Y4985000D01*
X10105572D01*
X10100000Y4985733D01*
X9810000D01*
Y5035000D01*
D02*
G37*
G36*
X7224913Y3387944D02*
X7206640Y3385538D01*
X7189611Y3378484D01*
X7174989Y3367264D01*
X7163769Y3352642D01*
X7156715Y3335613D01*
X7154309Y3317340D01*
X7156715Y3299066D01*
X7163769Y3282038D01*
X7174989Y3267415D01*
X7189611Y3256195D01*
X7206640Y3249142D01*
X7224913Y3246736D01*
X7243187Y3249142D01*
X7260215Y3256195D01*
X7274838Y3267415D01*
X7286058Y3282038D01*
X7293111Y3299066D01*
X7295517Y3317340D01*
X7293111Y3335613D01*
X7286058Y3352642D01*
X7274838Y3367264D01*
X7260215Y3378484D01*
X7243187Y3385538D01*
X7224913Y3387944D01*
D02*
G37*
G36*
X14900000Y3070604D02*
X14881726Y3068198D01*
X14864697Y3061145D01*
X14850075Y3049925D01*
X14838855Y3035302D01*
X14831802Y3018274D01*
X14829396Y3000000D01*
X14831802Y2981727D01*
X14838855Y2964698D01*
X14850075Y2950076D01*
X14864697Y2938855D01*
X14881726Y2931802D01*
X14900000Y2929396D01*
X14918272Y2931802D01*
X14935303Y2938855D01*
X14949924Y2950076D01*
X14961145Y2964698D01*
X14968198Y2981727D01*
X14970604Y3000000D01*
X14968198Y3018274D01*
X14961145Y3035302D01*
X14949924Y3049925D01*
X14935303Y3061145D01*
X14918272Y3068198D01*
X14900000Y3070604D01*
D02*
G37*
G36*
X2500000Y2776079D02*
X2467368Y2771783D01*
X2436961Y2759187D01*
X2410849Y2739151D01*
X2390813Y2713039D01*
X2378217Y2682632D01*
X2373921Y2650000D01*
X2378217Y2617368D01*
X2390813Y2586961D01*
X2410849Y2560849D01*
X2436961Y2540813D01*
X2467368Y2528217D01*
X2500000Y2523922D01*
X2532631Y2528217D01*
X2563039Y2540813D01*
X2589151Y2560849D01*
X2609187Y2586961D01*
X2621782Y2617368D01*
X2626078Y2650000D01*
X2621782Y2682632D01*
X2609187Y2713039D01*
X2589151Y2739151D01*
X2563039Y2759187D01*
X2532631Y2771783D01*
X2500000Y2776079D01*
D02*
G37*
G36*
X9650000Y2870604D02*
X9631726Y2868198D01*
X9614698Y2861145D01*
X9600076Y2849924D01*
X9588855Y2835302D01*
X9581802Y2818274D01*
X9579396Y2800000D01*
X9581802Y2781726D01*
X9588855Y2764698D01*
X9600076Y2750076D01*
X9614698Y2738855D01*
X9631726Y2731802D01*
X9650000Y2729396D01*
X9668274Y2731802D01*
X9685302Y2738855D01*
X9698549Y2749020D01*
X10153884D01*
X10513952Y2388952D01*
X10530491Y2377901D01*
X10550000Y2374020D01*
X14551451D01*
X14564697Y2363855D01*
X14581726Y2356802D01*
X14600000Y2354396D01*
X14618274Y2356802D01*
X14635303Y2363855D01*
X14649924Y2375076D01*
X14661145Y2389698D01*
X14668198Y2406726D01*
X14670604Y2425000D01*
X14668198Y2443273D01*
X14661145Y2460302D01*
X14649924Y2474924D01*
X14635303Y2486145D01*
X14618274Y2493198D01*
X14600000Y2495604D01*
X14581726Y2493198D01*
X14564697Y2486145D01*
X14551451Y2475980D01*
X10571117D01*
X10211048Y2836048D01*
X10194509Y2847099D01*
X10175000Y2850980D01*
X9698549D01*
X9685302Y2861145D01*
X9668274Y2868198D01*
X9650000Y2870604D01*
D02*
G37*
G36*
X10750000Y1770604D02*
X10731727Y1768198D01*
X10714698Y1761145D01*
X10700076Y1749924D01*
X10688855Y1735302D01*
X10681802Y1718273D01*
X10679396Y1700000D01*
X10681802Y1681726D01*
X10688855Y1664698D01*
X10700076Y1650075D01*
X10714698Y1638855D01*
X10731727Y1631802D01*
X10750000Y1629396D01*
X10768274Y1631802D01*
X10785302Y1638855D01*
X10799925Y1650075D01*
X10811145Y1664698D01*
X10818198Y1681726D01*
X10820604Y1700000D01*
X10818198Y1718273D01*
X10811145Y1735302D01*
X10799925Y1749924D01*
X10785302Y1761145D01*
X10768274Y1768198D01*
X10750000Y1770604D01*
D02*
G37*
G36*
X5600000Y4085733D02*
X5577811Y4082812D01*
X5557133Y4074247D01*
X5539377Y4060623D01*
X5525753Y4042867D01*
X5517188Y4022189D01*
X5514267Y4000000D01*
X5517188Y3977810D01*
X5525753Y3957133D01*
X5539377Y3939377D01*
X8039377Y1439377D01*
X8057133Y1425753D01*
X8077810Y1417188D01*
X8100000Y1414267D01*
X13500000D01*
X13522189Y1417188D01*
X13542867Y1425753D01*
X13560623Y1439377D01*
X13574248Y1457133D01*
X13582812Y1477811D01*
X13585733Y1500000D01*
X13582812Y1522189D01*
X13574248Y1542867D01*
X13560623Y1560623D01*
X13542867Y1574247D01*
X13522189Y1582812D01*
X13500000Y1585733D01*
X8135512D01*
X5660623Y4060623D01*
X5642867Y4074247D01*
X5622189Y4082812D01*
X5600000Y4085733D01*
D02*
G37*
G36*
X5062500Y1175000D02*
X4937500D01*
X4875000Y1112500D01*
Y987500D01*
X4937500Y925000D01*
X5062500D01*
X5125000Y987500D01*
Y1112500D01*
X5062500Y1175000D01*
D02*
G37*
G36*
X14192000Y1167251D02*
X14154147Y1162268D01*
X14118874Y1147657D01*
X14088585Y1124415D01*
X14065343Y1094126D01*
X14050732Y1058853D01*
X14045749Y1021000D01*
X14050732Y983147D01*
X14065343Y947874D01*
X14088585Y917585D01*
X14118874Y894343D01*
X14154147Y879732D01*
X14192000Y874749D01*
X14229852Y879732D01*
X14265126Y894343D01*
X14295415Y917585D01*
X14318657Y947874D01*
X14333269Y983147D01*
X14338251Y1021000D01*
X14333269Y1058853D01*
X14318657Y1094126D01*
X14295415Y1124415D01*
X14265126Y1147657D01*
X14229852Y1162268D01*
X14192000Y1167251D01*
D02*
G37*
G36*
X13684000D02*
X13646147Y1162268D01*
X13610873Y1147657D01*
X13580585Y1124415D01*
X13557343Y1094126D01*
X13542732Y1058853D01*
X13537749Y1021000D01*
X13542732Y983147D01*
X13557343Y947874D01*
X13580585Y917585D01*
X13610873Y894343D01*
X13646147Y879732D01*
X13684000Y874749D01*
X13721854Y879732D01*
X13757126Y894343D01*
X13787415Y917585D01*
X13810657Y947874D01*
X13825269Y983147D01*
X13830251Y1021000D01*
X13825269Y1058853D01*
X13810657Y1094126D01*
X13787415Y1124415D01*
X13757126Y1147657D01*
X13721854Y1162268D01*
X13684000Y1167251D01*
D02*
G37*
G36*
X12192000D02*
X12154147Y1162268D01*
X12118874Y1147657D01*
X12088585Y1124415D01*
X12065343Y1094126D01*
X12050732Y1058853D01*
X12045749Y1021000D01*
X12050732Y983147D01*
X12065343Y947874D01*
X12088585Y917585D01*
X12118874Y894343D01*
X12154147Y879732D01*
X12192000Y874749D01*
X12229853Y879732D01*
X12265126Y894343D01*
X12295415Y917585D01*
X12318657Y947874D01*
X12333268Y983147D01*
X12338251Y1021000D01*
X12333268Y1058853D01*
X12318657Y1094126D01*
X12295415Y1124415D01*
X12265126Y1147657D01*
X12229853Y1162268D01*
X12192000Y1167251D01*
D02*
G37*
G36*
X11684000D02*
X11646147Y1162268D01*
X11610874Y1147657D01*
X11580585Y1124415D01*
X11557343Y1094126D01*
X11542732Y1058853D01*
X11537749Y1021000D01*
X11542732Y983147D01*
X11557343Y947874D01*
X11580585Y917585D01*
X11610874Y894343D01*
X11646147Y879732D01*
X11684000Y874749D01*
X11721853Y879732D01*
X11757126Y894343D01*
X11787415Y917585D01*
X11810657Y947874D01*
X11825268Y983147D01*
X11830251Y1021000D01*
X11825268Y1058853D01*
X11810657Y1094126D01*
X11787415Y1124415D01*
X11757126Y1147657D01*
X11721853Y1162268D01*
X11684000Y1167251D01*
D02*
G37*
G36*
X5750000Y970604D02*
X5731726Y968198D01*
X5714698Y961145D01*
X5700075Y949924D01*
X5688855Y935302D01*
X5681802Y918273D01*
X5679396Y900000D01*
X5681802Y881726D01*
X5688855Y864698D01*
X5700075Y850076D01*
X5714698Y838855D01*
X5731726Y831802D01*
X5750000Y829396D01*
X5768273Y831802D01*
X5785302Y838855D01*
X5799924Y850076D01*
X5811145Y864698D01*
X5818198Y881726D01*
X5820604Y900000D01*
X5818198Y918273D01*
X5811145Y935302D01*
X5799924Y949924D01*
X5785302Y961145D01*
X5768273Y968198D01*
X5750000Y970604D01*
D02*
G37*
G36*
X5500000D02*
X5481726Y968198D01*
X5464698Y961145D01*
X5450075Y949924D01*
X5438855Y935302D01*
X5431802Y918273D01*
X5429396Y900000D01*
X5431802Y881726D01*
X5438855Y864698D01*
X5450075Y850076D01*
X5464698Y838855D01*
X5481726Y831802D01*
X5500000Y829396D01*
X5518273Y831802D01*
X5535302Y838855D01*
X5549924Y850076D01*
X5561145Y864698D01*
X5568198Y881726D01*
X5570604Y900000D01*
X5568198Y918273D01*
X5561145Y935302D01*
X5549924Y949924D01*
X5535302Y961145D01*
X5518273Y968198D01*
X5500000Y970604D01*
D02*
G37*
G36*
X9900000Y713079D02*
X9867368Y708783D01*
X9836961Y696187D01*
X9810849Y676151D01*
X9790813Y650039D01*
X9779518Y622772D01*
X9779498Y622767D01*
X9766502D01*
X9766482Y622772D01*
X9755187Y650039D01*
X9735151Y676151D01*
X9709039Y696187D01*
X9678632Y708783D01*
X9646000Y713079D01*
X9613368Y708783D01*
X9582961Y696187D01*
X9556849Y676151D01*
X9536813Y650039D01*
X9525518Y622772D01*
X9525498Y622767D01*
X9512502D01*
X9512482Y622772D01*
X9501187Y650039D01*
X9481151Y676151D01*
X9455039Y696187D01*
X9424632Y708783D01*
X9392000Y713079D01*
X9359368Y708783D01*
X9328961Y696187D01*
X9302849Y676151D01*
X9282813Y650039D01*
X9271518Y622772D01*
X9271498Y622767D01*
X9258502D01*
X9258482Y622772D01*
X9247187Y650039D01*
X9227151Y676151D01*
X9201039Y696187D01*
X9170632Y708783D01*
X9138000Y713079D01*
X9105368Y708783D01*
X9074961Y696187D01*
X9048849Y676151D01*
X9028813Y650039D01*
X9017518Y622772D01*
X9017498Y622767D01*
X9004502D01*
X9004482Y622772D01*
X8993187Y650039D01*
X8973151Y676151D01*
X8947039Y696187D01*
X8916632Y708783D01*
X8884000Y713079D01*
X8851368Y708783D01*
X8820961Y696187D01*
X8794849Y676151D01*
X8774813Y650039D01*
X8763518Y622772D01*
X8763498Y622767D01*
X8750502D01*
X8750482Y622772D01*
X8739187Y650039D01*
X8719151Y676151D01*
X8693039Y696187D01*
X8662632Y708783D01*
X8630000Y713079D01*
X8597368Y708783D01*
X8566961Y696187D01*
X8540849Y676151D01*
X8520813Y650039D01*
X8509518Y622772D01*
X8509498Y622767D01*
X8496502D01*
X8496482Y622772D01*
X8485187Y650039D01*
X8465151Y676151D01*
X8439039Y696187D01*
X8408632Y708783D01*
X8376000Y713079D01*
X8343368Y708783D01*
X8312961Y696187D01*
X8286849Y676151D01*
X8266813Y650039D01*
X8254217Y619632D01*
X8249922Y587000D01*
X8254217Y554368D01*
X8266813Y523961D01*
X8286849Y497849D01*
X8312961Y477813D01*
X8343368Y465218D01*
X8376000Y460922D01*
X8408632Y465218D01*
X8439039Y477813D01*
X8465151Y497849D01*
X8485187Y523961D01*
X8496482Y551228D01*
X8496502Y551234D01*
X8509498D01*
X8509518Y551228D01*
X8520813Y523961D01*
X8540849Y497849D01*
X8566961Y477813D01*
X8597368Y465218D01*
X8630000Y460922D01*
X8662632Y465218D01*
X8693039Y477813D01*
X8719151Y497849D01*
X8739187Y523961D01*
X8750482Y551228D01*
X8750502Y551234D01*
X8763498D01*
X8763518Y551228D01*
X8774813Y523961D01*
X8794849Y497849D01*
X8820961Y477813D01*
X8851368Y465218D01*
X8884000Y460922D01*
X8916632Y465218D01*
X8947039Y477813D01*
X8973151Y497849D01*
X8993187Y523961D01*
X9004482Y551228D01*
X9004502Y551234D01*
X9017498D01*
X9017518Y551228D01*
X9028813Y523961D01*
X9048849Y497849D01*
X9074961Y477813D01*
X9105368Y465218D01*
X9138000Y460922D01*
X9170632Y465218D01*
X9201039Y477813D01*
X9227151Y497849D01*
X9247187Y523961D01*
X9258482Y551228D01*
X9258502Y551234D01*
X9271498D01*
X9271518Y551228D01*
X9282813Y523961D01*
X9302849Y497849D01*
X9328961Y477813D01*
X9359368Y465218D01*
X9392000Y460922D01*
X9424632Y465218D01*
X9455039Y477813D01*
X9481151Y497849D01*
X9501187Y523961D01*
X9512482Y551228D01*
X9512502Y551234D01*
X9525498D01*
X9525518Y551228D01*
X9536813Y523961D01*
X9556849Y497849D01*
X9582961Y477813D01*
X9613368Y465218D01*
X9646000Y460922D01*
X9678632Y465218D01*
X9709039Y477813D01*
X9735151Y497849D01*
X9755187Y523961D01*
X9766482Y551228D01*
X9766502Y551234D01*
X9779498D01*
X9779518Y551228D01*
X9790813Y523961D01*
X9810849Y497849D01*
X9836961Y477813D01*
X9867368Y465218D01*
X9900000Y460922D01*
X9932632Y465218D01*
X9963039Y477813D01*
X9989151Y497849D01*
X10009187Y523961D01*
X10016300Y541133D01*
X10029000Y538607D01*
Y524500D01*
X10091500Y462000D01*
X10216500D01*
X10279000Y524500D01*
Y649500D01*
X10216500Y712000D01*
X10091500D01*
X10029000Y649500D01*
Y635393D01*
X10016300Y632867D01*
X10009187Y650039D01*
X9989151Y676151D01*
X9963039Y696187D01*
X9932632Y708783D01*
X9900000Y713079D01*
D02*
G37*
G36*
X5750000Y720604D02*
X5731726Y718198D01*
X5714698Y711145D01*
X5700075Y699924D01*
X5688855Y685302D01*
X5681802Y668273D01*
X5679396Y650000D01*
X5681802Y631726D01*
X5688855Y614698D01*
X5700075Y600076D01*
X5714698Y588855D01*
X5731726Y581802D01*
X5750000Y579396D01*
X5768273Y581802D01*
X5785302Y588855D01*
X5799924Y600076D01*
X5811145Y614698D01*
X5818198Y631726D01*
X5820604Y650000D01*
X5818198Y668273D01*
X5811145Y685302D01*
X5799924Y699924D01*
X5785302Y711145D01*
X5768273Y718198D01*
X5750000Y720604D01*
D02*
G37*
G36*
X5500000D02*
X5481726Y718198D01*
X5464698Y711145D01*
X5450075Y699924D01*
X5438855Y685302D01*
X5431802Y668273D01*
X5429396Y650000D01*
X5431802Y631726D01*
X5438855Y614698D01*
X5450075Y600076D01*
X5464698Y588855D01*
X5481726Y581802D01*
X5500000Y579396D01*
X5518273Y581802D01*
X5535302Y588855D01*
X5549924Y600076D01*
X5561145Y614698D01*
X5568198Y631726D01*
X5570604Y650000D01*
X5568198Y668273D01*
X5561145Y685302D01*
X5549924Y699924D01*
X5535302Y711145D01*
X5518273Y718198D01*
X5500000Y720604D01*
D02*
G37*
G36*
X7250000Y690733D02*
X7227811Y687812D01*
X7207133Y679247D01*
X7189377Y665622D01*
X7175753Y647867D01*
X7167188Y627189D01*
X7164267Y605000D01*
X7167188Y582810D01*
X7175753Y562133D01*
X7189377Y544377D01*
X7207133Y530753D01*
X7227811Y522188D01*
X7250000Y519266D01*
X7272189Y522188D01*
X7292867Y530753D01*
X7310623Y544377D01*
X7324247Y562133D01*
X7332812Y582810D01*
X7335733Y605000D01*
X7332812Y627189D01*
X7324247Y647867D01*
X7310623Y665622D01*
X7292867Y679247D01*
X7272189Y687812D01*
X7250000Y690733D01*
D02*
G37*
G36*
X6810000D02*
X6787810Y687812D01*
X6767133Y679247D01*
X6749377Y665622D01*
X6735753Y647867D01*
X6727188Y627189D01*
X6724266Y605000D01*
X6727188Y582810D01*
X6735753Y562133D01*
X6749377Y544377D01*
X6767133Y530753D01*
X6787810Y522188D01*
X6810000Y519266D01*
X6832189Y522188D01*
X6852867Y530753D01*
X6870623Y544377D01*
X6884247Y562133D01*
X6892812Y582810D01*
X6895733Y605000D01*
X6892812Y627189D01*
X6884247Y647867D01*
X6870623Y665622D01*
X6852867Y679247D01*
X6832189Y687812D01*
X6810000Y690733D01*
D02*
G37*
%LPD*%
G36*
X10061896Y7142385D02*
X8567754Y5648244D01*
X8553005Y5651455D01*
X8548968Y5661203D01*
X8541953Y5670345D01*
X10025726Y7154119D01*
X10057036D01*
X10061896Y7142385D01*
D02*
G37*
G36*
X14339697Y3663855D02*
X14340121Y3663680D01*
X14337595Y3650980D01*
X11239669D01*
X11234809Y3662713D01*
X11246116Y3674020D01*
X14326451D01*
X14339697Y3663855D01*
D02*
G37*
D16*
X10100000Y4600000D02*
D03*
Y4900000D02*
D03*
Y4050000D02*
D03*
Y3750000D02*
D03*
D31*
X11750000Y9850000D02*
Y11200000D01*
X12150000Y11600000D01*
X14350000Y10500000D02*
Y11600000D01*
X14100000Y10250000D02*
X14350000Y10500000D01*
X14425000Y10354290D02*
Y11475000D01*
X14200000Y10129290D02*
X14425000Y10354290D01*
X14350000Y11600000D02*
X14600000Y11850000D01*
X14425000Y11475000D02*
X14650000Y11700000D01*
X14150000Y9600000D02*
X14800000D01*
X14100000Y9650000D02*
Y10250000D01*
X12150000Y11600000D02*
X12842686D01*
X14650000Y11700000D02*
X15150000D01*
X14200000Y9850000D02*
Y10129290D01*
X14600000Y11850000D02*
X14950000D01*
X14100000Y9650000D02*
X14150000Y9600000D01*
X8700000Y4650000D02*
X9040951Y4990951D01*
Y5240951D01*
X8963124Y4600000D02*
X10313124Y5950000D01*
X8800000Y4600000D02*
X8963124D01*
X10313124Y5950000D02*
X10450000D01*
X8425000Y4000000D02*
X8600000D01*
X9225000Y3375000D01*
X10500000D01*
X16183000Y4508000D02*
X16300000Y4625000D01*
X15750000Y4508000D02*
X16183000D01*
X14938499Y4988500D02*
X14944250Y4994250D01*
X10475000Y2750000D02*
Y2852500D01*
X11222500Y3600000D02*
X14750000D01*
X10475000Y2852500D02*
X11222500Y3600000D01*
X10550000Y2425000D02*
X14600000D01*
X10175000Y2800000D02*
X10550000Y2425000D01*
X11225000Y3725000D02*
X14375000D01*
X10450000Y2950000D02*
X11225000Y3725000D01*
X11325000Y4000000D02*
X14275000D01*
X14938499Y3788500D02*
Y4988500D01*
X14750000Y3600000D02*
X14938499Y3788500D01*
X14200000Y4150000D02*
X14375000Y4325000D01*
X11275000Y4150000D02*
X14200000D01*
X9650000Y2800000D02*
X10175000D01*
X8625000Y2950000D02*
X10450000D01*
X8125000Y3450000D02*
X8625000Y2950000D01*
X8125000Y3450000D02*
Y4050000D01*
X10500000Y3375000D02*
X11275000Y4150000D01*
X10375000Y3050000D02*
X11325000Y4000000D01*
X8575000Y3325000D02*
X8850000Y3050000D01*
X10375000D01*
X8575000Y3325000D02*
Y3800000D01*
X16300000Y4625000D02*
Y5425000D01*
X15800000Y5925000D02*
X16300000Y5425000D01*
X14350000Y5925000D02*
X15800000D01*
X12817999Y4393000D02*
X14350000Y5925000D01*
X11093000Y4393000D02*
X12817999D01*
X11000000Y4300000D02*
X11093000Y4393000D01*
X10000000Y6200000D02*
X10450000D01*
X9040951Y5240951D02*
X10000000Y6200000D01*
D32*
X12450000Y1500000D02*
X13500000D01*
X8100000D02*
X12450000D01*
X5600000Y4000000D02*
X8100000Y1500000D01*
X11468750Y9281250D02*
X11687500Y9500000D01*
X11000000Y8812500D02*
X11468750Y9281250D01*
Y11568750D01*
X11550000Y11650000D01*
X13750000Y10950000D02*
X14150000Y11350000D01*
X13750000Y10050000D02*
Y10950000D01*
X13300000Y9500000D02*
X13750000Y9950000D01*
Y10050000D01*
X11687500Y9500000D02*
X13300000D01*
X7162500Y8812500D02*
X11000000D01*
X5600000Y7250000D02*
X7162500Y8812500D01*
X5600000Y4250000D02*
Y7250000D01*
X9725000Y3750000D02*
X10100000D01*
X9700000Y3775000D02*
X9725000Y3750000D01*
X9700000Y3775000D02*
Y3875000D01*
X9691585Y4716585D02*
X9701566Y4706605D01*
X9725000Y4900000D02*
X10100000D01*
X9700000Y4875000D02*
X9725000Y4900000D01*
X9700000Y4725000D02*
Y4875000D01*
X7950000Y7792000D02*
Y8125000D01*
X7004000Y6846000D02*
X7950000Y7792000D01*
X9696282Y4256458D02*
Y4701322D01*
X9612579Y4150000D02*
X9700000Y4062579D01*
X9537579Y4150000D02*
X9612579D01*
X9700000Y3875000D02*
Y4062579D01*
X9696282Y4701322D02*
X9701566Y4706605D01*
X9691585Y4716585D02*
X9700000Y4725000D01*
D33*
X11750000Y9850000D02*
X11800000Y9800000D01*
X11650000D02*
Y11400000D01*
X11800000Y9800000D02*
X12600000D01*
X11650000Y11400000D02*
X12050000Y11800000D01*
X11750000Y9700000D02*
X12300000D01*
X11650000Y9800000D02*
X11750000Y9700000D01*
X12050000Y11800000D02*
X12692728D01*
X14200000Y9850000D02*
X14361497Y9688502D01*
X15140472D01*
D34*
X15900000Y9600000D02*
Y9800000D01*
X15800000Y9500000D02*
X15900000Y9600000D01*
X13300000Y9500000D02*
X15800000D01*
D35*
X14745963Y7454038D02*
X14745963D01*
X14360001Y7160000D02*
X14900000Y7700000D01*
X14411925Y7120000D02*
X14745963Y7454038D01*
X10144397Y7160000D02*
X14360001D01*
X10218249Y7120000D02*
X14411925D01*
X10208649Y7000000D02*
X14800000D01*
X8594774Y5386125D02*
X10208649Y7000000D01*
X8627549Y5529301D02*
X10218249Y7120000D01*
X8467123Y5482726D02*
X10144397Y7160000D01*
X8461948Y5779427D02*
X9932521Y7250000D01*
X10006721Y7200000D02*
X12300000D01*
X11950000Y7250000D02*
X12205896Y7505896D01*
X8487823Y5681102D02*
X10006721Y7200000D01*
X9932521Y7250000D02*
X11950000D01*
X12300000Y7200000D02*
X12600000Y7500000D01*
X8150000Y5600000D02*
X9850000Y7300000D01*
X11800000D02*
X12200000Y7700000D01*
X9850000Y7300000D02*
X11800000D01*
X12205896Y7505896D02*
X12270985D01*
X12200000Y7700000D02*
X12400000D01*
X8487823Y5625901D02*
Y5681102D01*
X8594774Y5286074D02*
Y5386125D01*
X7800000Y6400000D02*
Y6750000D01*
X8000000Y6200000D02*
X8350000D01*
X7800000Y6400000D02*
X8000000Y6200000D01*
X8350000D02*
X8500000Y6350000D01*
D37*
X10250000Y10250000D02*
D03*
Y7750000D02*
D03*
Y9250000D02*
D03*
Y9750000D02*
D03*
X11000000D02*
D03*
Y7750000D02*
D03*
Y10250000D02*
D03*
Y9250000D02*
D03*
X2250000D02*
D03*
Y10250000D02*
D03*
Y7750000D02*
D03*
Y9750000D02*
D03*
X1500000D02*
D03*
Y9250000D02*
D03*
Y7750000D02*
D03*
Y10250000D02*
D03*
X4000000Y9250000D02*
D03*
Y10250000D02*
D03*
Y7750000D02*
D03*
Y9750000D02*
D03*
X3250000D02*
D03*
Y9250000D02*
D03*
Y7750000D02*
D03*
Y10250000D02*
D03*
X5750000Y9250000D02*
D03*
Y10250000D02*
D03*
Y7750000D02*
D03*
Y9750000D02*
D03*
X5000000D02*
D03*
Y9250000D02*
D03*
Y7750000D02*
D03*
Y10250000D02*
D03*
X7500000Y9250000D02*
D03*
Y10250000D02*
D03*
Y7750000D02*
D03*
Y9750000D02*
D03*
X6750000D02*
D03*
Y9250000D02*
D03*
Y7750000D02*
D03*
Y10250000D02*
D03*
X9250000Y9250000D02*
D03*
Y10250000D02*
D03*
Y7750000D02*
D03*
Y9750000D02*
D03*
X8500000D02*
D03*
Y9250000D02*
D03*
Y7750000D02*
D03*
Y10250000D02*
D03*
D38*
X14614627Y11143581D02*
D03*
X15122627D02*
D03*
X14868626D02*
D03*
X14614627Y11397581D02*
D03*
X14868626D02*
D03*
X15630627Y11143581D02*
D03*
X15376627Y11397581D02*
D03*
Y11143581D02*
D03*
X15122627Y11397581D02*
D03*
X12352919Y11143581D02*
D03*
X12860919D02*
D03*
X12606919D02*
D03*
X12352919Y11397581D02*
D03*
X12606919D02*
D03*
X13368919Y11143581D02*
D03*
X13114919Y11397581D02*
D03*
Y11143581D02*
D03*
X12860919Y11397581D02*
D03*
X15496001Y3492000D02*
D03*
X15750000D02*
D03*
X15496001Y3238000D02*
D03*
X15750000D02*
D03*
X15496001Y2984000D02*
D03*
X15750000D02*
D03*
X15496001Y2730000D02*
D03*
X15750000Y3746000D02*
D03*
X15496001D02*
D03*
X15750000Y4000000D02*
D03*
X15496001D02*
D03*
X15750000Y4254000D02*
D03*
X15496001D02*
D03*
X15750000Y4508000D02*
D03*
X15496001D02*
D03*
Y4762000D02*
D03*
X15750000D02*
D03*
Y5016000D02*
D03*
X15496001D02*
D03*
X2500000Y5350000D02*
D03*
X8376000Y333000D02*
D03*
Y587000D02*
D03*
X8630000Y333000D02*
D03*
Y587000D02*
D03*
X8884000Y333000D02*
D03*
Y587000D02*
D03*
X9138000Y333000D02*
D03*
Y587000D02*
D03*
X10154000Y333000D02*
D03*
X9900000Y587000D02*
D03*
Y333000D02*
D03*
X9646000Y587000D02*
D03*
Y333000D02*
D03*
X9392000Y587000D02*
D03*
Y333000D02*
D03*
X5000000Y1550000D02*
D03*
X2500000Y2650000D02*
D03*
X4950000Y5000000D02*
D03*
D39*
X15630627Y11397581D02*
D03*
X13368919D02*
D03*
X10154000Y587000D02*
D03*
D40*
X15750000Y2730000D02*
D03*
X2500000Y5850000D02*
D03*
X5000000Y1050000D02*
D03*
X2500000Y2150000D02*
D03*
X4950000Y4500000D02*
D03*
D41*
X10233999Y11000000D02*
D03*
X10741999D02*
D03*
X11249999D02*
D03*
X8491999D02*
D03*
X8999999D02*
D03*
X9507999D02*
D03*
X6749999D02*
D03*
X7257999D02*
D03*
X7765999D02*
D03*
X4983999D02*
D03*
X5491999D02*
D03*
X5999999D02*
D03*
X3242000D02*
D03*
X3750000D02*
D03*
X4258000D02*
D03*
X1492000D02*
D03*
X2000000D02*
D03*
X2508000D02*
D03*
X14700000Y1021000D02*
D03*
X14192000D02*
D03*
X13684000D02*
D03*
X12700000D02*
D03*
X12192000D02*
D03*
X11684000D02*
D03*
X500000Y4150000D02*
D03*
Y3800000D02*
D03*
D42*
Y11250000D02*
D03*
X750000Y750000D02*
D03*
X15750000D02*
D03*
X15900000Y6600000D02*
D03*
D43*
X14500000Y7700000D02*
D03*
X12050000Y7650000D02*
D03*
X11250000Y2000000D02*
D03*
X10750000Y1700000D02*
D03*
X12850000Y1650000D02*
D03*
X11850000Y1750000D02*
D03*
X11450000D02*
D03*
X12350000Y2950000D02*
D03*
Y2750000D02*
D03*
X12850000D02*
D03*
Y2900000D02*
D03*
X13500000Y1500000D02*
D03*
X12450000D02*
D03*
X12900000Y7450000D02*
D03*
X15900000Y9800000D02*
D03*
X16300000Y10300000D02*
D03*
X14600000Y10600000D02*
D03*
Y10750000D02*
D03*
X12150000Y11200000D02*
D03*
Y10900000D02*
D03*
Y11050000D02*
D03*
X14600000Y10900000D02*
D03*
X14150000Y11350000D02*
D03*
X11550000Y11650000D02*
D03*
X14500000Y9400000D02*
D03*
X14800000Y9600000D02*
D03*
X13750000Y10050000D02*
D03*
X13300000Y9900000D02*
D03*
X13400000Y8800000D02*
D03*
X12300000Y9700000D02*
D03*
X15150000Y11700000D02*
D03*
X14950000Y11850000D02*
D03*
X12842686Y11600000D02*
D03*
X12692728Y11800000D02*
D03*
X11900000Y9900000D02*
D03*
X12100000D02*
D03*
X14500000Y10400000D02*
D03*
X14200000Y10500000D02*
D03*
X15140472Y9688502D02*
D03*
X14500000Y9900000D02*
D03*
X12600000Y9800000D02*
D03*
X14900000Y7700000D02*
D03*
X14745963Y7454038D02*
D03*
X14800000Y7000000D02*
D03*
X12270985Y7505896D02*
D03*
X12400000Y7700000D02*
D03*
X12600000Y7500000D02*
D03*
X14700000Y9900000D02*
D03*
X15700000D02*
D03*
X15600000Y9400000D02*
D03*
X14500000Y8400000D02*
D03*
X12100000Y10500000D02*
D03*
X11900000D02*
D03*
X16200000Y8400000D02*
D03*
Y9100000D02*
D03*
X14100000Y9000000D02*
D03*
Y8700000D02*
D03*
X15651234Y8905474D02*
D03*
X13700000Y8500000D02*
D03*
X15400000Y7400000D02*
D03*
X12000000Y9000000D02*
D03*
X13400000Y7700000D02*
D03*
X12500000Y8200000D02*
D03*
X15900000Y7700000D02*
D03*
X15000000Y7800000D02*
D03*
X13200000Y8800000D02*
D03*
X8627549Y5529301D02*
D03*
X8594774Y5286074D02*
D03*
X8467123Y5482726D02*
D03*
X8487823Y5625901D02*
D03*
X8461948Y5779427D02*
D03*
X8150000Y5600000D02*
D03*
X8550000Y7100000D02*
D03*
X8050000Y6400000D02*
D03*
X7800000Y6750000D02*
D03*
X8500000Y6350000D02*
D03*
X9100000Y6850000D02*
D03*
X8700000Y4650000D02*
D03*
X7850000Y6050000D02*
D03*
X9050000Y4500000D02*
D03*
X8936861Y3324261D02*
D03*
X8800000Y3650000D02*
D03*
X9050000Y4850000D02*
D03*
Y4100000D02*
D03*
X7941390Y3806787D02*
D03*
X4000000Y6100000D02*
D03*
X3700000D02*
D03*
X3400000D02*
D03*
Y6300000D02*
D03*
X3700000D02*
D03*
X4000000D02*
D03*
Y6500000D02*
D03*
X3700000D02*
D03*
X3400000D02*
D03*
X3500000Y2700000D02*
D03*
Y2900000D02*
D03*
X3700000Y2700000D02*
D03*
X3900000D02*
D03*
Y3300000D02*
D03*
X3700000D02*
D03*
X3500000D02*
D03*
X3700000Y2900000D02*
D03*
X3900000D02*
D03*
Y3100000D02*
D03*
X3700000D02*
D03*
X3500000D02*
D03*
X9350000Y7100000D02*
D03*
X9200000Y5800000D02*
D03*
X14900000Y3000000D02*
D03*
X6300000Y1750000D02*
D03*
X14600000Y2425000D02*
D03*
X14375000Y3725000D02*
D03*
X14275000Y4000000D02*
D03*
X14825000Y4150000D02*
D03*
X14944250Y4994250D02*
D03*
X14375000Y4325000D02*
D03*
X12700000Y5625000D02*
D03*
X12100000D02*
D03*
X7004000Y6846000D02*
D03*
X7950000Y8125000D02*
D03*
Y8350000D02*
D03*
X9650000Y2800000D02*
D03*
X9850000Y3500000D02*
D03*
X8866338Y3183504D02*
D03*
X9600000Y3200000D02*
D03*
X8575000Y3800000D02*
D03*
X8425000Y4000000D02*
D03*
X8125000Y4050000D02*
D03*
X13200000Y1950000D02*
D03*
X10950000Y2000000D02*
D03*
X14850000Y3550000D02*
D03*
X10475000Y2750000D02*
D03*
X10450000Y5950000D02*
D03*
Y6200000D02*
D03*
X9850000Y6350000D02*
D03*
X9550000Y5500000D02*
D03*
X8800000Y4600000D02*
D03*
X10450000Y300000D02*
D03*
X8100000D02*
D03*
X14700000Y800000D02*
D03*
X12700000D02*
D03*
X14800000Y4700000D02*
D03*
X11000000Y4300000D02*
D03*
X5600000Y4000000D02*
D03*
X5350000D02*
D03*
X5600000Y4250000D02*
D03*
X5350000D02*
D03*
X8750000Y7100000D02*
D03*
X14850000Y5300000D02*
D03*
X9850000Y4250000D02*
D03*
X10650000Y4650000D02*
D03*
X10900000D02*
D03*
X7450000Y5500000D02*
D03*
X9800000Y5200000D02*
D03*
X10100000D02*
D03*
X10400000D02*
D03*
X10550000Y3700000D02*
D03*
X10350000D02*
D03*
X7525000Y3300000D02*
D03*
X7200000Y1225000D02*
D03*
X13550000Y5650000D02*
D03*
X11300000D02*
D03*
X9350000Y6000000D02*
D03*
X7000000Y5350000D02*
D03*
X7224913Y3317340D02*
D03*
X9696282Y4256458D02*
D03*
X9537579Y4150000D02*
D03*
X5500000Y650000D02*
D03*
X5750000D02*
D03*
Y900000D02*
D03*
X5500000D02*
D03*
X5750000Y1650000D02*
D03*
X4050000Y4900000D02*
D03*
X3700000D02*
D03*
Y1650000D02*
D03*
X4050000D02*
D03*
X5300000Y1950000D02*
D03*
X5000000D02*
D03*
X4650000D02*
D03*
X5300000Y5400000D02*
D03*
X4650000D02*
D03*
X4950000D02*
D03*
X2800000Y5000000D02*
D03*
X2200000D02*
D03*
X2550000Y1750000D02*
D03*
X2200000D02*
D03*
D44*
X9700000Y4725000D02*
D03*
Y3875000D02*
D03*
%TF.MD5,f4d951e58f3c3f4ec3ad0db270b334e3*%
M02*
